<?xml version="1.0" encoding="utf-8"?>
<!-- Generator: Adobe Illustrator 28.2.0, SVG Export Plug-In . SVG Version: 6.00 Build 0)  -->
<svg version="1.1" id="Calque_1" xmlns="http://www.w3.org/2000/svg" xmlns:xlink="http://www.w3.org/1999/xlink" x="0px" y="0px"
	 viewBox="0 0 512 512" style="enable-background:new 0 0 512 512;" xml:space="preserve">
<style type="text/css">
	.st0{fill-rule:evenodd;clip-rule:evenodd;fill:#282828;}
	.st1{fill-rule:evenodd;clip-rule:evenodd;fill:#33B0DF;}
</style>
<path class="st0" d="M89,306c0-27.6,22.4-50,50-50h240c27.6,0,50,22.4,50,50v40c0,5.5-4.5,10-10,10h-30v35c0,5.5-4.5,10-10,10
	s-10-4.5-10-10v-35H149v35c0,5.5-4.5,10-10,10s-10-4.5-10-10v-35H99c-5.5,0-10-4.5-10-10V306z M139,276c-16.6,0-30,13.4-30,30v30
	h300v-30c0-16.6-13.4-30-30-30H139z"/>
<path class="st1" d="M385.9,142.8c4,3.8,4.1,10.1,0.3,14.1L356,188.5c-1.9,2-4.5,3.1-7.2,3.1s-5.3-1.1-7.2-3.1l-13.8-14.4
	c-3.8-4-3.7-10.3,0.3-14.1c4-3.8,10.3-3.7,14.1,0.3l6.5,6.8l23-24.1C375.6,139.1,381.9,139,385.9,142.8z"/>
<path class="st0" d="M362.8,60.2l-5.8,8.1l-5.8-8.1L357,56L362.8,60.2z M357,81c-0.9,0.7-1.8,1.5-2.8,2.4
	c-5.3,4.7-12.5,11.4-19.5,19.9c-14.4,17.1-27.7,39.9-27.7,65c0,27.6,22.4,50,50,50s50-22.4,50-50c0-25.1-13.3-47.9-27.7-65
	c-7.1-8.4-14.2-15.2-19.5-19.9C358.8,82.5,357.9,81.7,357,81z M351.2,60.2c0,0,0,0,5.8,8.1c5.8-8.1,5.8-8.1,5.8-8.1l0,0l0.1,0
	c0,0,0.1,0.1,0.2,0.1c0.1,0.1,0.3,0.2,0.6,0.4c0.5,0.4,1.2,0.9,2.1,1.6c1.8,1.4,4.2,3.4,7.2,6c5.9,5.2,13.8,12.7,21.7,22.1
	c15.6,18.6,32.3,45.8,32.3,77.9c0,38.7-31.3,70-70,70s-70-31.3-70-70c0-32,16.7-59.3,32.3-77.9c7.9-9.4,15.8-16.9,21.7-22.1
	c3-2.6,5.4-4.6,7.2-6c0.9-0.7,1.6-1.2,2.1-1.6c0.2-0.2,0.4-0.3,0.6-0.4C351,60.3,351.1,60.2,351.2,60.2L351.2,60.2L351.2,60.2
	L351.2,60.2z"/>
</svg>
