<?xml version="1.0" encoding="utf-8"?>
<!-- Generator: Adobe Illustrator 28.2.0, SVG Export Plug-In . SVG Version: 6.00 Build 0)  -->
<svg version="1.1" id="Calque_1" xmlns="http://www.w3.org/2000/svg" xmlns:xlink="http://www.w3.org/1999/xlink" x="0px" y="0px"
	 viewBox="0 0 1000 1000" style="enable-background:new 0 0 1000 1000;" xml:space="preserve">
<style type="text/css">
	.st0{fill:#33B0DF;}
	.st1{fill:none;stroke:#000000;stroke-width:30;stroke-linejoin:round;}
</style>
<g id="Layer_2">
	<circle class="st0" cx="815.7" cy="842.6" r="94.2"/>
	<path d="M815.7,725.5c-64.8,0-117.3,52.5-117.3,117.3c0,64.8,52.5,117.3,117.3,117.3S933,907.6,933,842.9c0,0,0,0,0,0
		c0.1-64.7-52.4-117.2-117.1-117.3C815.8,725.5,815.8,725.5,815.7,725.5z M763.3,906.3c-1.5,1.5-3.5,2.4-5.6,2.3
		c-2.1-0.1-4.1-0.9-5.6-2.3c-35.2-35.3-35.2-92.3,0-127.6c3.2-3.2,8.3-3.1,11.5,0c3.1,3.2,3.1,8.2,0,11.4
		c-28.9,28.9-28.9,75.7,0,104.7c0,0,0,0,0,0c3.1,3.1,3.1,8.2,0,11.3C763.4,906.2,763.4,906.3,763.3,906.3z M784.3,874.3
		c3.2,3,3.3,7.9,0.3,11.1c-0.1,0.1-0.2,0.2-0.3,0.3c-1.5,1.5-3.5,2.4-5.6,2.3c-2.1-0.1-4.1-0.9-5.6-2.3c-23.5-23.5-23.5-62.1,0-86
		c3.2-3.1,8.3-3.1,11.5,0.1c3.1,3.2,3.1,8.2,0,11.4c-17.5,17.2-17.7,45.3-0.5,62.7C784.1,874.1,784.2,874.2,784.3,874.3L784.3,874.3
		z M831.7,858.8c-8.8,8.8-23.1,8.8-31.8,0s-8.8-23.1,0-31.8c8.8-8.8,23.1-8.8,31.8,0C840.4,835.8,840.4,849.9,831.7,858.8
		L831.7,858.8z M852.9,888.1c-2.1-0.1-4.1-0.9-5.6-2.3c-3.2-3-3.3-7.9-0.3-11.1c0.1-0.1,0.2-0.2,0.3-0.3c17.4-17.4,17.5-45.6,0.1-63
		c0,0-0.1-0.1-0.1-0.1c-3.2-3.2-3.2-8.3,0-11.5s8.3-3.2,11.5,0c23.5,23.5,23.5,62.2,0,86C857.1,887.3,855,888.1,852.9,888.1
		L852.9,888.1z M879.5,906.4c-1.5,1.5-3.5,2.3-5.6,2.3c-2.1-0.1-4.1-0.9-5.6-2.3c-3.2-3-3.3-8-0.3-11.1c0.1-0.1,0.2-0.2,0.3-0.3
		c28.9-28.9,28.9-75.7,0-104.7c0,0,0,0,0,0c-3.1-3.3-2.9-8.4,0.3-11.5c3.1-2.9,8-2.9,11.1,0C914.8,814.3,914.8,871.4,879.5,906.4
		L879.5,906.4z"/>
	<g id="Layer_2-2">
		<path class="st1" d="M207.5,485.8L96.3,866.1h537.7l224.1-763.5H320.4L207.5,485.8"/>
	</g>
	<path d="M292,66.7h622.2L703.3,769.4c11.2-17.3,26.3-31.7,44-42.2L948.8,56c2.4-7.9-2.1-16.3-10.1-18.7c-1.4-0.4-2.8-0.6-4.3-0.6
		H280.7c-6.7,0-12.6,4.4-14.4,10.8L94.8,641.9l28.8,8.3L292,66.7z"/>
	<path d="M681.7,842.5c0-0.3,0-0.7,0-1l-22.2,74.1L48.1,912c17.2-59.5,58.3-202.2,75.5-261.8l-28.8-8.3c-19,65.9-62,215-81,280.8
		c-2.3,8,2.3,16.3,10.3,18.6c1.3,0.4,2.7,0.6,4.1,0.6l642.4,3.8h0.1c6.6,0,12.5-4.3,14.4-10.7l10.2-34
		C686.3,882.8,681.7,862.7,681.7,842.5z"/>
</g>
</svg>
