<?xml version="1.0" encoding="utf-8"?>
<!-- Generator: Adobe Illustrator 28.2.0, SVG Export Plug-In . SVG Version: 6.00 Build 0)  -->
<svg version="1.1" id="Calque_1" xmlns="http://www.w3.org/2000/svg" xmlns:xlink="http://www.w3.org/1999/xlink" x="0px" y="0px"
	 viewBox="0 0 1000 1000" style="enable-background:new 0 0 1000 1000;" xml:space="preserve">
<style type="text/css">
	.st0{fill:#33B0DF;}
	.st1{fill:none;stroke:#000000;stroke-width:30;stroke-linejoin:round;}
</style>
<g id="Layer_2">
	<circle class="st0" cx="834.5" cy="852.5" r="94.2"/>
	<path d="M834.5,735.4c-64.8,0-117.3,52.5-117.3,117.3S769.7,970,834.5,970s117.3-52.5,117.3-117.3l0,0
		c0.1-64.7-52.4-117.2-117.1-117.3C834.6,735.4,834.5,735.4,834.5,735.4z M782,916.2c-1.5,1.5-3.5,2.4-5.6,2.3
		c-2.1-0.1-4.1-0.9-5.6-2.3c-35.2-35.3-35.2-92.3,0-127.6c3.2-3.2,8.3-3.2,11.5,0c3.2,3.2,3.2,8.3,0,11.5c0,0,0,0-0.1,0.1
		c-28.9,28.9-28.9,75.7,0,104.7c0,0,0,0,0,0c3.1,3.1,3.1,8.2,0,11.3C782.1,916.1,782.1,916.2,782,916.2z M803,884.2
		c3.2,3,3.3,7.9,0.4,11.1c-0.1,0.1-0.2,0.2-0.4,0.4c-1.5,1.5-3.5,2.4-5.6,2.3c-2.1-0.1-4.1-0.9-5.6-2.3c-23.5-23.5-23.5-62.2,0-86
		c3.2-3.2,8.3-3.2,11.5,0s3.2,8.3,0,11.5c-17.5,17.2-17.7,45.3-0.5,62.8C802.8,884,802.9,884.1,803,884.2L803,884.2z M850.4,868.7
		c-8.8,8.8-23.1,8.8-31.8,0s-8.8-23.1,0-31.8c8.8-8.8,23.1-8.8,31.8,0C859.1,845.7,859.1,859.9,850.4,868.7L850.4,868.7z M871.5,898
		c-2.1-0.1-4.1-0.9-5.6-2.3c-3.2-3-3.3-7.9-0.4-11.1c0.1-0.1,0.2-0.2,0.4-0.4c17.4-17.4,17.5-45.6,0.1-63c0,0-0.1-0.1-0.1-0.1
		c-3.2-3.2-3.1-8.3,0-11.5c3.2-3.1,8.2-3.1,11.4,0c23.5,23.5,23.5,62.2,0,86C875.8,897.2,873.7,898,871.5,898z M898.1,916.2
		c-1.5,1.5-3.5,2.4-5.6,2.3c-2.1-0.1-4.1-0.9-5.6-2.3c-3.2-3-3.3-8-0.3-11.1c0.1-0.1,0.2-0.2,0.3-0.3c28.9-28.9,28.9-75.7,0-104.7
		c0,0,0,0,0,0c-3.2-3.2-3.2-8.3,0-11.5s8.3-3.2,11.5,0C933.5,824.2,933.5,881.3,898.1,916.2L898.1,916.2z"/>
	<g id="Layer_2-2">
		<path class="st1" d="M156.1,736.1L115,876h537.8l224.1-763.5H339.1L226.2,495.7"/>
		<path class="st1" d="M764.8,494.3c-53,86.5-92.2,150.5-145.2,237H81.9l290.4-474h462.2"/>
		<polyline class="st1" points="806.5,322.6 588.1,682 171.7,682 396.6,312 813.1,312 		"/>
	</g>
	<path d="M310.6,76.6h622.3L722.1,779.3c11.2-17.3,26.3-31.7,44-42.2L967.5,65.9c2.4-7.9-2.1-16.3-10.1-18.7
		c-1.4-0.4-2.8-0.6-4.3-0.6H299.4c-6.7,0-12.5,4.4-14.4,10.8L113.5,651.8l28.8,8.3L310.6,76.6z"/>
	<path d="M700.4,852.4c0-0.3,0-0.6,0-1l-22.2,74.2l-611.4-3.6l51.5-178.5l-28.8-8.3c-19,65.9-38,131.7-57,197.6
		c-2.3,8,2.3,16.3,10.3,18.6c1.3,0.4,2.7,0.6,4.1,0.6l642.4,3.8h0.1c6.6,0,12.5-4.3,14.4-10.7l10.2-33.9
		C705,892.7,700.4,872.7,700.4,852.4z"/>
</g>
</svg>
