<?xml version="1.0" encoding="utf-8"?>
<!-- Generator: Adobe Illustrator 28.2.0, SVG Export Plug-In . SVG Version: 6.00 Build 0)  -->
<svg version="1.1" id="Calque_1" xmlns="http://www.w3.org/2000/svg" xmlns:xlink="http://www.w3.org/1999/xlink" x="0px" y="0px"
	 viewBox="0 0 512 512" style="enable-background:new 0 0 512 512;" xml:space="preserve">
<style type="text/css">
	.st0{fill:#33B0DF;}
</style>
<path class="st0" d="M281.5,183.1c-0.2-0.6-0.8-1-1.5-1h-93.5c-0.6,0-1.2,0.4-1.5,1c-0.2,0.6-0.1,1.3,0.3,1.8l45.7,47.8
	c0.3,0.3,0.7,0.5,1.1,0.5h0c0.4,0,0.8-0.2,1.1-0.5l47.8-47.8C281.6,184.4,281.8,183.7,281.5,183.1L281.5,183.1z"/>
<path d="M388.4,48.8c-26.5,0-48.3,20.4-50.5,46.3H82.4c-3.8,0-7.2,2.2-8.8,5.7c-1.5,3.5-0.9,7.5,1.7,10.3l145.9,160v118.5
	c-16.4,0.8-31.6,3.6-43.7,8.1c-22.4,8.3-27.2,19.7-27.2,27.7c0,14.6,14.8,23.1,27.2,27.7c14.5,5.4,33.6,8.4,53.8,8.4
	s39.3-3,53.8-8.4c22.5-8.3,27.2-19.7,27.2-27.7c0-14.6-14.8-23.1-27.2-27.7c-12.3-4.6-28-7.4-44.8-8.1V271.4l125.1-126.5
	c7.1,3.6,14.9,5.4,22.8,5.4c28,0,50.7-22.8,50.7-50.7S416.4,48.8,388.4,48.8L388.4,48.8z M347.8,114.3h21l-35.3,35.7H136.8
	l-32.6-35.7H347.8z M231.2,253.5l-76.9-84.2h160.1L231.2,253.5L231.2,253.5z M278.5,415.8c11.2,4.1,14.6,8.6,14.6,9.7
	s-3.5,5.6-14.6,9.7c-12.2,4.5-29.4,7.2-47.1,7.2s-34.9-2.6-47.1-7.2c-11.2-4.1-14.6-8.6-14.6-9.7s3.5-5.6,14.6-9.7
	c9.9-3.7,23-6.1,37-6.9v9.9c0,5.3,4.3,9.6,9.6,9.6s9.6-4.3,9.6-9.6v-10C254.9,409.6,268.4,412,278.5,415.8L278.5,415.8z
	 M388.4,131.1c-2.8,0-5.5-0.4-8.2-1.1l18.4-18.6c2.7-2.8,3.5-6.9,2-10.4c-1.5-3.6-5-5.9-8.9-5.9h-34.6c2.2-15.3,15.3-27.1,31.2-27.1
	c17.4,0,31.5,14.2,31.5,31.5S405.8,131.1,388.4,131.1L388.4,131.1z"/>
</svg>
