<?xml version="1.0" encoding="utf-8"?>
<!-- Generator: Adobe Illustrator 28.2.0, SVG Export Plug-In . SVG Version: 6.00 Build 0)  -->
<svg version="1.1" id="Calque_1" xmlns="http://www.w3.org/2000/svg" xmlns:xlink="http://www.w3.org/1999/xlink" x="0px" y="0px"
	 viewBox="0 0 512 512" style="enable-background:new 0 0 512 512;" xml:space="preserve">
<style type="text/css">
	.st0{fill:#33B0DF;}
</style>
<path class="st0" d="M275.4,301.4v24c0,10.5-8.5,19-19,19s-19-8.5-19-19v-24H95.7v89.1H417v-89.1H275.4z"/>
<path d="M452.3,133.8H334.4V95.4c0-5.3-4.3-9.6-9.6-9.6H192.4c-5.3,0-9.6,4.3-9.6,9.6v38.4h-123c-5.3,0-9.6,4.3-9.6,9.6V303
	c0,5.3,4.3,9.6,9.6,9.6h1v104c0,5.3,4.3,9.6,9.6,9.6h372c5.3,0,9.6-4.3,9.6-9.6v-104h0.3c5.3,0,9.6-4.3,9.6-9.6V143.4
	C461.9,138.1,457.6,133.8,452.3,133.8L452.3,133.8z M202,105h113.3v28.8H201.9L202,105L202,105z M69.3,153h373.4v140.4H266v-16.7
	c0-5.3-4.3-9.6-9.6-9.6s-9.6,4.3-9.6,9.6v16.7H69.3L69.3,153L69.3,153z M432.8,407H80v-94.4h166.8v13.6c0,5.3,4.3,9.6,9.6,9.6
	c5.3,0,9.6-4.3,9.6-9.6v-13.6h166.8L432.8,407L432.8,407z"/>
</svg>
