<?xml version="1.0" encoding="utf-8"?>
<!-- Generator: Adobe Illustrator 28.2.0, SVG Export Plug-In . SVG Version: 6.00 Build 0)  -->
<svg version="1.1" id="Layer_1" xmlns="http://www.w3.org/2000/svg" xmlns:xlink="http://www.w3.org/1999/xlink" x="0px" y="0px"
	 viewBox="0 0 512 512" style="enable-background:new 0 0 512 512;" xml:space="preserve">
<style type="text/css">
	.st0{fill:#33B0DF;}
</style>
<path d="M417.1,157.5c-27.7-34.2-68.5-60.3-115.8-74.3l5.8-22.4c1.3-5.1-1.8-10.4-6.9-11.7c0,0,0,0,0,0c-5.1-1.3-10.4,1.8-11.7,6.9
	c0,0,0,0,0,0l-5.8,22.4c-48.2-10.6-96.6-7.4-137.3,9.3c-44.3,18.1-74.3,49.9-84.5,89.5c-0.2,0.6-0.3,1.2-0.4,1.7
	c-0.6,2.7,0,5.5,1.5,7.8s4.1,3.7,6.8,4c6.5,0.6,13,1.8,19.3,3.4c29.9,7.7,55.3,25.5,68,47.7c0.1,0.1,0.1,0.2,0.2,0.3l0,0v0
	c0,0,0,0.1,0.1,0.1v0h0v0c1.2,1.9,3,3.3,5.1,4c0.6,0.2,1.3,0.3,1.9,0.4c1.8,0.2,3.7-0.1,5.4-1c0.2-0.1,0.4-0.2,0.7-0.4
	c19.5-11.9,46.3-15.8,73.1-11l-42.5,165.6c-15.7,0.8-31.2,3.1-46.5,6.9c-52.3,12.9-82.9,38.5-84.2,39.6c-4,3.4-4.6,9.5-1.1,13.5
	c0,0,0,0,0,0c3.4,4,9.5,4.6,13.5,1.1c0,0,0,0,0,0c0.3-0.2,28.5-23.8,76.4-35.6c28.2-7,57.6-8.5,87.2-4.5c37.2,5,75,18.8,112.4,41
	c1.5,0.9,3.2,1.4,4.9,1.4c3.4,0,6.5-1.8,8.3-4.7c2.7-4.6,1.2-10.5-3.3-13.2c-39.6-23.5-79.8-38.2-119.6-43.6c-9.4-1.3-18.7-2-28-2.2
	l41.2-160.6c28.6,9.6,51.8,28.6,61.9,51c1.2,2.7,3.5,4.6,6.4,5.4c0.8,0.2,1.6,0.3,2.4,0.3c2.1,0,4.1-0.7,5.8-1.9
	c21.7-16.3,55.5-21.2,88.2-12.8c3.2,0.8,6.5,1.8,9.7,2.9c2.5,0.9,5.3,0.6,7.7-0.6c2.4-1.3,4.1-3.5,4.7-6l0.1-0.4
	C458.3,237.1,447.3,194.8,417.1,157.5L417.1,157.5z M160.9,215.6c-16.5-18.7-40.7-33.2-67.9-40.2c-3.6-0.9-7.2-1.7-10.8-2.4
	c21-58.2,95.6-90.8,177.8-79.2c-8.3,4.9-18,11.4-28.2,19.7C208.4,132.7,178.2,165.4,160.9,215.6z M327.8,261.1
	c-16.4-20.4-41.5-36-70.9-43.6c-12.1-3.1-24.3-4.6-36.3-4.6c-14.3,0-28.1,2.2-40.7,6.4c12.8-35.9,34.1-66.2,63.5-90.5
	c20.4-16.8,39-25.5,46.2-28.6c4.9,6.2,16.9,22.8,26.7,47.3C330.9,184.2,334.8,222.3,327.8,261.1L327.8,261.1z M431.4,262.4
	c-0.2-0.1-0.5-0.1-0.7-0.2c-29.9-7.7-60-5.9-84.4,4.6c10.1-53.9-0.8-98.3-12.4-127c-4.7-11.7-9.9-21.8-14.7-29.9
	C393.4,140.2,440.6,202.8,431.4,262.4L431.4,262.4z"/>
<path class="st0" d="M227.7,102.7c-0.1-0.6-0.6-0.9-1.2-1c-0.2,0-22.5-0.6-49,6.7c-24.6,6.7-58,21.6-77.7,54.8
	c-0.2,0.3-0.2,0.8-0.1,1.1c0.2,0.4,0.5,0.6,0.9,0.7c0.3,0.1,35.3,8.7,53.8,27.5c0.3,0.3,0.7,0.4,1.2,0.4c0.4-0.1,0.8-0.4,0.9-0.8
	c0.2-0.6,20.5-61,70.7-88C227.5,103.8,227.8,103.2,227.7,102.7z M382.8,164.9c-17.9-18.8-36-29.8-36.2-29.9
	c-0.6-0.4-1.4-0.2-1.7,0.4c-0.2,0.4-0.2,0.9,0,1.3c28.1,46.9,18,108.1,17.9,108.7c-0.1,0.7,0.3,1.3,1,1.5c0.1,0,0.1,0,0.2,0
	c0.1,0,0.2,0,0.3,0c24.6-6.6,53-1.3,53.2-1.2c0.4,0.1,0.7,0,1-0.3c0.3-0.2,0.5-0.6,0.5-1C419,210.3,399.3,182.4,382.8,164.9
	L382.8,164.9z M283.1,120.7c-0.4-0.4-0.9-0.4-1.4-0.2c-0.5,0.2-48.6,23.6-77.5,79.9c-0.2,0.4-0.2,0.9,0.1,1.3
	c0.3,0.4,0.8,0.6,1.3,0.5c0.6-0.1,61.3-13.1,105.9,30.8c0.3,0.3,0.8,0.4,1.2,0.3c1-0.3,1.3-1.4,1.4-1.9
	C316.6,221.4,312.9,148.9,283.1,120.7L283.1,120.7z"/>
</svg>
