<?xml version="1.0" encoding="utf-8"?>
<!-- Generator: Adobe Illustrator 28.2.0, SVG Export Plug-In . SVG Version: 6.00 Build 0)  -->
<svg version="1.1" id="Calque_1" xmlns="http://www.w3.org/2000/svg" xmlns:xlink="http://www.w3.org/1999/xlink" x="0px" y="0px"
	 viewBox="0 0 512 512" style="enable-background:new 0 0 512 512;" xml:space="preserve">
<style type="text/css">
	.st0{fill:#33B0DF;}
</style>
<path class="st0" d="M372.4,289.6c-0.4-0.6-1-0.9-1.7-0.9H116.3c-0.7,0-1.3,0.3-1.7,0.9c-0.4,0.6-0.5,1.3-0.2,1.9
	c0.1,0.2,10.4,25.8,31.3,50.7C173,374.8,206,392,241.3,392c0.6,0,1.3,0,1.9,0h0.5c36.1,0.6,69.8-16.6,97.6-49.7
	c20.9-24.9,31.2-50.4,31.3-50.7C372.9,290.9,372.8,290.2,372.4,289.6L372.4,289.6z"/>
<path d="M222.4,186.2c-2.1,4.9,0.1,10.5,4.9,12.6c0,0,0,0,0,0c1.2,0.6,2.6,0.8,3.9,0.8c3.7,0,7.2-2.1,8.8-5.8
	c2.2-5.1,21.3-50.8-2-74.1c-3.9-3.9-5.8-7.7-5.8-11.6c0-6.7,5.5-12.3,5.7-12.6c3.8-3.7,3.9-9.7,0.2-13.5c-3.7-3.8-9.8-4-13.6-0.3
	c-1.2,1.1-11.4,11.3-11.6,26c-0.1,6.4,1.9,16,11.4,25.5C236.4,145.4,226.8,176.3,222.4,186.2L222.4,186.2z M455.3,280.9
	c-1.4-12.6-10.8-23.2-23.8-26.9c-8.6-2.4-17.5-1.6-25.6,2.2c-0.3-11.1-1.8-22.1-4.4-32.8c-1-4.3-4.9-7.3-9.3-7.4h-296
	c-4.4,0-8.3,3-9.3,7.4c-3,12.3-4.4,25-4.4,37.8c0,61.6,34.6,115.3,85.4,142.6H66.2c-3.7,0-7,2.1-8.6,5.4c-1.6,3.3-1.2,7.2,1,10.1
	l19.6,25.2c0.2,0.3,0.5,0.6,0.8,0.9c10.4,10.4,24.2,16.1,39,16.1h248.8c13.1,0,25.8-4.7,35.8-13.2c0.3-0.2,0.5-0.5,0.8-0.8
	l25.8-27.6c2.6-2.8,3.3-6.9,1.8-10.4c-1.5-3.5-5-5.8-8.8-5.8H320.5c20.2-10.9,37.8-25.9,51.7-43.9l61.1-39.7
	C449,310.1,456.9,295.8,455.3,280.9z M400,423.1l-10.3,11.1c-6.4,5.3-14.6,8.3-22.9,8.3H118c-9.4,0-18.3-3.6-25-10.1l-7.2-9.2
	L400,423.1L400,423.1z M244.2,403.9c-78.6,0-142.6-64-142.6-142.6c0-8.7,0.8-17.4,2.4-25.9h280.5c1.6,8.5,2.4,17.2,2.4,25.9
	C386.8,339.9,322.8,403.9,244.2,403.9z M423,304.1l-29.3,19.1c5.5-13.3,9.4-27.6,11.1-42.4c6.5-7.3,14.2-10.4,21.5-8.3
	c5.4,1.5,9.4,5.8,9.9,10.6C437.4,293.6,427.3,301.3,423,304.1L423,304.1z M259.1,116.7c-0.2,0.3-0.4,0.7-0.5,1.1
	c-2.3,5.5,0.4,10.3,3.9,12.3c1.5,0.9,3.1,1.3,4.8,1.3c2.9,0,5.8-1.3,7.6-3.8c0.3-0.4,0.8-1.4,1.5-2.9c0,0.2-0.1,0.3-0.2,0.4
	c0.1-0.2,0.1-0.3,0.2-0.5c4.2-9.2,13.3-36.6-2.3-52.2c-2.2-2.2-2.2-3.6-2.2-4.1c0.1-2.6,2.8-5.9,4.1-7c4-3.4,4.5-9.5,1.1-13.5
	c-3.4-4-9.5-4.5-13.5-1.1c-1.1,0.9-10.3,9.1-10.8,20.8c-0.2,4.7,1,11.7,7.8,18.5S262,110.2,259.1,116.7L259.1,116.7z"/>
</svg>
