<?xml version="1.0" encoding="utf-8"?>
<!-- Generator: Adobe Illustrator 28.2.0, SVG Export Plug-In . SVG Version: 6.00 Build 0)  -->
<svg version="1.1" id="Layer_1" xmlns="http://www.w3.org/2000/svg" xmlns:xlink="http://www.w3.org/1999/xlink" x="0px" y="0px"
	 viewBox="0 0 512 512" style="enable-background:new 0 0 512 512;" xml:space="preserve">
<style type="text/css">
	.st0{fill:#33B0DF;}
</style>
<path class="st0" d="M115.9,173.9l-0.3,0.8l-18.1,50.8H63.3v-32.4l6.8-18.4l0.3-0.8H115.9z M448.3,176.9v51.6h-45.4l19-51.6
	L448.3,176.9L448.3,176.9z M184.8,225.5h-46.2l19-51.6h45.5L184.8,225.5L184.8,225.5z M275,225.5h-46.2l19-51.6h45.5L275,225.5
	L275,225.5z M362.2,225.5H316l19-51.6h45.5L362.2,225.5L362.2,225.5z"/>
<g>
	<path class="st0" d="M92.1,169.2l-28.5,4.7l-5.8-35.1c-0.8-4.6,0.1-9.1,2.1-12.6l5.5-1.1L92.1,169.2L92.1,169.2z M125.5,160.8
		l45.3-8.8l-28.5-47l-44.7,8.7L125.5,160.8z M210.7,147.1l45.3-8.8l-28.5-47l-44.6,8.7L210.7,147.1L210.7,147.1z M299.6,132.9
		l45.3-8.8l-28.5-47l-44.6,8.7L299.6,132.9z M390.8,119.2l45.3-8.8l-28.5-47L363,72C363,72,390.8,119.2,390.8,119.2z"/>
</g>
<g>
	<path d="M448.3,165.1H176.2l268.7-44.2c5.2-0.9,8.8-5.8,7.9-11l-5.8-35.1c0-0.1,0-0.2-0.1-0.3c-2.6-14.5-15.2-24.6-28.3-22.4
		l-351,57.7h0c-6.8,1.1-12.7,5.4-16.3,11.8c-3.1,5.5-4.3,12.2-3.2,18.8v0.1l5.5,33.6c0,0.2,0,0.5,0,0.7v273.6c0,5.3,4.3,9.6,9.6,9.6
		h385c5.3,0,9.6-4.3,9.6-9.6V174.7C457.9,169.4,453.6,165.1,448.3,165.1z M438.7,215.9H72.9v-31.6h365.8L438.7,215.9L438.7,215.9z
		 M421.9,70.9c2.4-0.4,5.5,2.5,6.3,7c0,0.1,0,0.2,0,0.3l4.2,25.3L71.4,162.9l-4.2-25.6c-0.4-2.3,0-4.6,0.9-6.3
		c0.4-0.8,1.3-2,2.7-2.3L421.9,70.9L421.9,70.9z M72.9,438.7V235.1h365.8v203.6H72.9z"/>
	<path d="M378.1,304.7H108.4c-5.3,0-9.6,4.3-9.6,9.6s4.3,9.6,9.6,9.6h269.6c5.3,0,9.6-4.3,9.6-9.6S383.4,304.7,378.1,304.7z
		 M301.2,362.6H108.4c-5.3,0-9.6,4.3-9.6,9.6s4.3,9.6,9.6,9.6h192.7c5.3,0,9.6-4.3,9.6-9.6S306.5,362.6,301.2,362.6L301.2,362.6z"/>
</g>
</svg>
