<?xml version="1.0" encoding="utf-8"?>
<!-- Generator: Adobe Illustrator 28.2.0, SVG Export Plug-In . SVG Version: 6.00 Build 0)  -->
<svg version="1.1" id="Calque_1" xmlns="http://www.w3.org/2000/svg" xmlns:xlink="http://www.w3.org/1999/xlink" x="0px" y="0px"
	 viewBox="0 0 512 512" style="enable-background:new 0 0 512 512;" xml:space="preserve">
<style type="text/css">
	.st0{fill:#33B0DF;}
</style>
<path d="M461.1,216.9L259.8,82.1c-3.3-2.2-7.6-2.2-10.9,0.1c-16.1,11.4-42.9,29.2-59.5,40.2v-18.8c0-5.3-4.3-9.6-9.6-9.6h-40.7
	c-5.3,0-9.6,4.3-9.6,9.6v59.1L50.8,217c-3.5,2.4-5,6.7-3.7,10.8c1.2,4,5,6.7,9.2,6.8h38.3v187.4c0,5.3,4.3,9.6,9.6,9.6h303.7
	c5.3,0,9.6-4.3,9.6-9.6V234.5h38.3c5.3,0,9.6-4.3,9.6-9.6C465.4,221.7,463.8,218.7,461.1,216.9L461.1,216.9z M407.9,215.3
	c-5.3,0-9.6,4.3-9.6,9.6v187.4H113.7V224.9c0-5.3-4.3-9.6-9.6-9.6H87.1l57.4-39.6c2.6-1.8,4.2-4.8,4.1-7.9v-54.5h21.5v27
	c0,3.5,1.9,6.8,5,8.4c3.1,1.7,6.9,1.5,9.8-0.4c0.5-0.3,43.5-28.5,69.6-46.6l169.6,113.6L407.9,215.3L407.9,215.3z"/>
<path class="st0" d="M252.3,272.3h70.3c0.7,0,1.3,0.6,1.3,1.3v120.6c0,0.7-0.6,1.3-1.3,1.3h-70.3c-0.7,0-1.3-0.6-1.3-1.3V273.6
	C251.1,272.9,251.6,272.3,252.3,272.3z"/>
</svg>
