<?xml version="1.0" encoding="utf-8"?>
<!-- Generator: Adobe Illustrator 28.2.0, SVG Export Plug-In . SVG Version: 6.00 Build 0)  -->
<svg version="1.1" id="Calque_1" xmlns="http://www.w3.org/2000/svg" xmlns:xlink="http://www.w3.org/1999/xlink" x="0px" y="0px"
	 viewBox="0 0 444.9 444.8" style="enable-background:new 0 0 444.9 444.8;" xml:space="preserve">
<style type="text/css">
	.st0{fill:none;}
	.st1{fill:#33B0DF;}
</style>
<path class="st0" d="M-726,10.4h428V65h-428V10.4z"/>
<circle class="st1" cx="222.4" cy="222" r="178.6"/>
<path d="M222.4,0C99.4,0,0,99.4,0,222.4s99.4,222.4,222.4,222.4s222.5-99.4,222.5-222.4S345.4,0,222.4,0z M123,342.8
	c-2.9,2.9-6.6,4.4-10.7,4.4s-7.7-1.8-10.7-4.4c-66.7-66.7-66.7-174.9,0-241.9c6.3-6.3,15.5-6.3,21.7,0c6.3,6.3,6.3,15.5,0,21.7
	c-54.9,54.9-54.9,143.6,0,198.5C129.3,327.4,129.3,337.3,123,342.8L123,342.8z M162.8,282.1c6.3,6.3,6.3,15.5,0,21.7
	c-2.9,2.9-6.6,4.4-10.7,4.4s-7.7-1.8-10.7-4.4c-44.6-44.6-44.6-117.8,0-163.1c6.3-6.3,15.5-6.3,21.7,0s6.3,15.5,0,21.7
	C129.6,195.5,129.6,249.3,162.8,282.1z M252.6,252.6c-16.9,16.9-43.5,16.9-60.4,0s-16.9-43.5,0-60.4s43.5-16.9,60.4,0
	C269.2,208.8,269.2,235.7,252.6,252.6z M292.8,308.2c-4.1,0-7.7-1.8-10.7-4.4c-6.3-6.3-6.3-15.5,0-21.7c33.1-33.1,33.1-86.5,0-119.7
	c-6.3-6.3-6.3-15.5,0-21.7c6.3-6.3,15.5-6.3,21.7,0c44.6,44.6,44.6,117.8,0,163.1C301.2,306.7,296.8,308.2,292.8,308.2z
	 M343.2,342.8c-2.9,2.9-6.6,4.4-10.7,4.4s-7.7-1.8-10.7-4.4c-6.3-6.3-6.3-15.5,0-21.7c54.9-54.9,54.9-143.6,0-198.5
	c-6.3-6.3-6.3-15.5,0-21.7c6.3-6.3,15.5-6.3,21.7,0C410.2,168.3,410.2,276.5,343.2,342.8L343.2,342.8z"/>
</svg>
