<?xml version="1.0" encoding="utf-8"?>
<!-- Generator: Adobe Illustrator 28.2.0, SVG Export Plug-In . SVG Version: 6.00 Build 0)  -->
<svg version="1.1" id="Calque_1" xmlns="http://www.w3.org/2000/svg" xmlns:xlink="http://www.w3.org/1999/xlink" x="0px" y="0px"
	 viewBox="0 0 144 144" style="enable-background:new 0 0 144 144;" xml:space="preserve">
<style type="text/css">
	.st0{fill:none;stroke:#000000;stroke-width:4;}
	.st1{fill:none;stroke:#33B0DF;stroke-width:4;}
	.st2{fill:none;stroke:#33B0DF;stroke-width:4;stroke-linecap:round;stroke-linejoin:round;}
</style>
<path class="st0" d="M104,28h20c1.1,0,2,0.9,2,2v104c0,1.1-0.9,2-2,2H20c-1.1,0-2-0.9-2-2V30c0-1.1,0.9-2,2-2h20"/>
<path class="st0" d="M40,60V10c0-1.1,0.9-2,2-2h60c1.1,0,2,0.9,2,2v50c0,1.1-0.9,2-2,2H42C40.9,62,40,61.1,40,60z"/>
<path d="M66,62H50V8h16V62z"/>
<path class="st0" d="M29,62h86c0.6,0,1,0.4,1,1v62c0,0.6-0.4,1-1,1H29c-0.6,0-1-0.4-1-1V63C28,62.4,28.4,62,29,62z"/>
<g>
	<circle class="st1" cx="84" cy="94" r="6"/>
	<path class="st2" d="M78,94H62.2 M54,100v-6h8.2 M62.2,94v6"/>
</g>
</svg>
