<?xml version="1.0" encoding="utf-8"?>
<!-- Generator: Adobe Illustrator 28.2.0, SVG Export Plug-In . SVG Version: 6.00 Build 0)  -->
<svg version="1.1" id="Calque_1" xmlns="http://www.w3.org/2000/svg" xmlns:xlink="http://www.w3.org/1999/xlink" x="0px" y="0px"
	 viewBox="0 0 144 144" style="enable-background:new 0 0 144 144;" xml:space="preserve">
<style type="text/css">
	.st0{fill:none;stroke:#282828;stroke-width:4;stroke-linecap:round;stroke-linejoin:round;}
	.st1{fill:none;stroke:#33B0DF;stroke-width:4;stroke-linecap:round;stroke-linejoin:round;}
	.st2{fill:none;stroke:#282828;stroke-width:4;stroke-linejoin:round;}
</style>
<path class="st0" d="M52,117H24c-1.1,0-2-0.9-2-2V66.5c0-1.1-0.9-2-2-2H5.1c-1.8,0-2.7-2.2-1.4-3.5L62.1,6.3c0.8-0.7,2-0.7,2.7,0
	l21.6,20.2v-14c0-1.1,0.9-2,2-2H102c1.1,0,2,0.9,2,2v29.1c0,0.6,0.2,1.1,0.7,1.5l10.8,9.9"/>
<path class="st1" d="M119,93l-19.9,19.8l-9.1-9"/>
<path class="st2" d="M129.5,74.9l-25-7.9l-25,7.9c-1.9,0.6-3.5,1.7-4.7,3.3c-1.2,1.5-1.8,3.4-1.8,5.3V103c0,22.6,29,35,30.2,35.6
	l1.1,0.5l1.2-0.4c1.2-0.4,30.5-9.9,30.5-35.7V83.4c0-1.9-0.6-3.7-1.8-5.3C133,76.6,131.4,75.5,129.5,74.9z"/>
</svg>
