<?xml version="1.0" encoding="utf-8"?>
<!-- Generator: Adobe Illustrator 28.2.0, SVG Export Plug-In . SVG Version: 6.00 Build 0)  -->
<svg version="1.1" id="Calque_1" xmlns="http://www.w3.org/2000/svg" xmlns:xlink="http://www.w3.org/1999/xlink" x="0px" y="0px"
	 viewBox="0 0 144 144" style="enable-background:new 0 0 144 144;" xml:space="preserve">
<style type="text/css">
	.st0{fill:none;stroke:#282828;stroke-width:4;}
	.st1{fill:none;stroke:#33B0DF;stroke-width:4;stroke-linecap:round;stroke-linejoin:round;}
	.st2{fill:none;stroke:#282828;stroke-width:4;stroke-linejoin:round;}
</style>
<path class="st0" d="M10,16h124c1.1,0,2,0.9,2,2v112c0,1.1-0.9,2-2,2H10c-1.1,0-2-0.9-2-2V18C8,16.9,8.9,16,10,16z"/>
<path class="st0" d="M21,28h102c0.6,0,1,0.4,1,1v30c0,0.6-0.4,1-1,1H21c-0.6,0-1-0.4-1-1V29C20,28.4,20.4,28,21,28z"/>
<path class="st1" d="M79.5,90.2L68.6,101l-4.9-4.9"/>
<path class="st2" d="M88.7,77.3L72,72l-16.7,5.3c-1.3,0.4-2.3,1.2-3.1,2.2c-0.8,1-1.2,2.3-1.2,3.5v13c0,15,19.3,23.4,20.1,23.7
	l0.7,0.3l0.8-0.2C73.5,119.5,93,113.1,93,96V83c0-1.3-0.4-2.5-1.2-3.5C91,78.4,89.9,77.7,88.7,77.3z"/>
</svg>
