<?xml version="1.0" encoding="utf-8"?>
<!-- Generator: Adobe Illustrator 28.2.0, SVG Export Plug-In . SVG Version: 6.00 Build 0)  -->
<svg version="1.1" id="Calque_1" xmlns="http://www.w3.org/2000/svg" xmlns:xlink="http://www.w3.org/1999/xlink" x="0px" y="0px"
	 viewBox="0 0 144 144" style="enable-background:new 0 0 144 144;" xml:space="preserve">
<style type="text/css">
	.st0{fill:none;stroke:#282828;stroke-width:4;}
	.st1{fill:none;stroke:#282828;stroke-width:4;stroke-linejoin:round;}
	.st2{fill:none;stroke:#33B0DF;stroke-width:4;stroke-linecap:round;stroke-linejoin:round;}
</style>
<path class="st0" d="M10,16h124c1.1,0,2,0.9,2,2v112c0,1.1-0.9,2-2,2H10c-1.1,0-2-0.9-2-2V18C8,16.9,8.9,16,10,16z"/>
<path class="st0" d="M21,28h102c0.6,0,1,0.4,1,1v30c0,0.6-0.4,1-1,1H21c-0.6,0-1-0.4-1-1V29C20,28.4,20.4,28,21,28z"/>
<path class="st0" d="M21,72h10c0.6,0,1,0.4,1,1v10c0,0.6-0.4,1-1,1H21c-0.6,0-1-0.4-1-1V73C20,72.4,20.4,72,21,72z"/>
<path class="st0" d="M39,72h10c0.6,0,1,0.4,1,1v10c0,0.6-0.4,1-1,1H39c-0.6,0-1-0.4-1-1V73C38,72.4,38.4,72,39,72z"/>
<path class="st0" d="M57,72h10c0.6,0,1,0.4,1,1v10c0,0.6-0.4,1-1,1H57c-0.6,0-1-0.4-1-1V73C56,72.4,56.4,72,57,72z"/>
<path class="st0" d="M75,72h10c0.6,0,1,0.4,1,1v10c0,0.6-0.4,1-1,1H75c-0.6,0-1-0.4-1-1V73C74,72.4,74.4,72,75,72z"/>
<path class="st0" d="M21,90h10c0.6,0,1,0.4,1,1v10c0,0.6-0.4,1-1,1H21c-0.6,0-1-0.4-1-1V91C20,90.4,20.4,90,21,90z"/>
<path class="st0" d="M39,90h10c0.6,0,1,0.4,1,1v10c0,0.6-0.4,1-1,1H39c-0.6,0-1-0.4-1-1V91C38,90.4,38.4,90,39,90z"/>
<path class="st0" d="M57,90h10c0.6,0,1,0.4,1,1v10c0,0.6-0.4,1-1,1H57c-0.6,0-1-0.4-1-1V91C56,90.4,56.4,90,57,90z"/>
<path class="st0" d="M75,90h10c0.6,0,1,0.4,1,1v10c0,0.6-0.4,1-1,1H75c-0.6,0-1-0.4-1-1V91C74,90.4,74.4,90,75,90z"/>
<path class="st0" d="M21,108h10c0.6,0,1,0.4,1,1v10c0,0.6-0.4,1-1,1H21c-0.6,0-1-0.4-1-1v-10C20,108.4,20.4,108,21,108z"/>
<path class="st0" d="M39,108h10c0.6,0,1,0.4,1,1v10c0,0.6-0.4,1-1,1H39c-0.6,0-1-0.4-1-1v-10C38,108.4,38.4,108,39,108z"/>
<path class="st0" d="M57,108h10c0.6,0,1,0.4,1,1v10c0,0.6-0.4,1-1,1H57c-0.6,0-1-0.4-1-1v-10C56,108.4,56.4,108,57,108z"/>
<path class="st0" d="M75,108h10c0.6,0,1,0.4,1,1v10c0,0.6-0.4,1-1,1H75c-0.6,0-1-0.4-1-1v-10C74,108.4,74.4,108,75,108z"/>
<path class="st1" d="M121.3,93.3L111,90l-10.3,3.3c-0.8,0.2-1.5,0.7-1.9,1.4c-0.5,0.6-0.7,1.4-0.7,2.2v8.1c0,9.4,12,14.6,12.5,14.8
	l0.5,0.2l0.5-0.2c0.5-0.2,12.6-4.1,12.6-14.9v-8.1c0-0.8-0.3-1.6-0.7-2.2C122.8,94,122.1,93.5,121.3,93.3z"/>
<path class="st2" d="M117.2,100.9l-7.6,7.6l-3.5-3.4"/>
</svg>
