<?xml version="1.0" encoding="utf-8"?>
<!-- Generator: Adobe Illustrator 28.2.0, SVG Export Plug-In . SVG Version: 6.00 Build 0)  -->
<svg version="1.1" id="Calque_1" xmlns="http://www.w3.org/2000/svg" xmlns:xlink="http://www.w3.org/1999/xlink" x="0px" y="0px"
	 viewBox="0 0 144 144" style="enable-background:new 0 0 144 144;" xml:space="preserve">
<style type="text/css">
	.st0{fill:none;stroke:#33B0DF;stroke-width:4;stroke-linejoin:round;}
	.st1{fill:none;stroke:#282828;stroke-width:4;stroke-linejoin:round;}
</style>
<path class="st0" d="M54,74h36c1.1,0,2,0.9,2,2v28c0,1.1-0.9,2-2,2H54c-1.1,0-2-0.9-2-2V76C52,74.9,52.9,74,54,74z"/>
<path class="st0" d="M60,61c0-6.1,5.4-11,12-11l0,0c6.6,0,12,4.9,12,11v11H60V61z"/>
<path class="st1" d="M47.4,33.8c-0.4,0.2-1.1,0.7-1.8,1.2v0v0v0v0v0v0v0v0v0v0v0v0v0v0v0v0v0v0v0v0v0v0v0v0v0v0v0v0v0v0v0v0v0v0v0v0
	v0v0v0v0v0v0v0v0v0v0v0v0v0v0v0v0v0v0v0v0v0v0v0v0v0v0v0v0v0v0v0v0v0v0v0v0v0v0v0v0v0v0v0v0v0v0v0v0v0v0v0v0v0v0v0v0v0v0v0v0v0v0v0
	v0v0v0v0v0v0v0v0v0v0v0v0v0v0v0v0v0v0v0v0v0v0v0v0v0v0v0v0v0v0v0v0v0v0v0v0v0v0v0v0v0v0v0v0v0v0v0v0v0v0v0v0v0v0v0v0v0v0v0v0v0v0v0
	v0v0v0v0v0v0v0v0v0v0v0v0v0v0v0v0v0v0v0v-9c0-1.1-0.9-2-2-2h-7.1c-1.1,0-2,0.9-2,2v18.7c-0.1,0.1-0.3,0.2-0.5,0.4l0,0L14.9,56.1
	c-0.7,0.5-1,1.4-0.8,2.2c0.3,0.8,1,1.4,1.9,1.4h5.7c0.4,0,0.8,0,1.2,0v63.5c0,1.1,0.9,2,2,2h94.5c1.1,0,2-0.9,2-2V59.7l1.2,0h0
	l0.3,0l0,0h5.1c0.9,0,1.7-0.6,1.9-1.4c0.3-0.8-0.1-1.8-0.8-2.2L72.8,18.3c-0.7-0.5-1.6-0.5-2.3,0c-4.3,3-10,6.8-14.7,9.9
	c-2.3,1.6-4.4,2.9-5.9,3.9c-0.7,0.5-1.4,0.9-1.8,1.2l-0.5,0.3L47.4,33.8L47.4,33.8L47.4,33.8L47.4,33.8L47.4,33.8L47.4,33.8z"/>
</svg>
