<?xml version="1.0" encoding="utf-8"?>
<!-- Generator: Adobe Illustrator 28.2.0, SVG Export Plug-In . SVG Version: 6.00 Build 0)  -->
<svg version="1.1" id="Layer_1" xmlns="http://www.w3.org/2000/svg" xmlns:xlink="http://www.w3.org/1999/xlink" x="0px" y="0px"
	 viewBox="0 0 512 512" style="enable-background:new 0 0 512 512;" xml:space="preserve">
<style type="text/css">
	.st0{fill:none;stroke:#000000;stroke-width:16;stroke-linecap:round;stroke-miterlimit:10;}
	.st1{clip-path:url(#SVGID_00000116937535990014670070000013492064190384666502_);}
	.st2{fill:#33B0DF;stroke:#0099CD;stroke-miterlimit:10;}
	.st3{fill:none;stroke:#33B0DF;stroke-width:18;stroke-linecap:round;stroke-miterlimit:10;}
</style>
<path id="XMLID_4_" class="st0" d="M300.9,239.6h54.9"/>
<path id="XMLID_3_" class="st0" d="M300.9,181.8h54.9"/>
<path id="XMLID_2_" class="st0" d="M300.9,124h54.9"/>
<path id="XMLID_1_" class="st0" d="M300.9,297.4h54.9"/>
<g id="XMLID_6_">
	<g id="XMLID_7_">
		<g>
			<defs>
				<rect id="SVGID_1_" x="141.4" y="51" width="138.6" height="415.9"/>
			</defs>
			<clipPath id="SVGID_00000101082971283631488690000009181647461375990945_">
				<use xlink:href="#SVGID_1_"  style="overflow:visible;"/>
			</clipPath>
			<path id="XMLID_8_" style="clip-path:url(#SVGID_00000101082971283631488690000009181647461375990945_);" d="M252.4,342.2V92.5
				c0-23.6-18.1-41.6-41.6-41.6c-23.6,0-41.6,19.4-41.6,41.6v249.6c-16.7,12.5-27.7,33.3-27.7,55.5c0,38.8,30.5,69.3,69.3,69.3
				s69.3-30.5,69.3-69.3C280.1,375.4,269,354.6,252.4,342.2L252.4,342.2z M210.7,453.1c-30.5,0-55.5-24.9-55.5-55.5
				c0-20.8,11.1-38.8,27.7-48.5V92.5c0-15.2,12.5-27.7,27.7-27.7s27.7,12.5,27.7,27.7V349c16.7,9.7,27.7,27.7,27.7,48.5
				C266.2,428.1,241.3,453.1,210.7,453.1z"/>
		</g>
	</g>
</g>
<circle id="XMLID_5_" class="st2" cx="210.7" cy="397.3" r="28.3"/>
<path id="XMLID_12_" class="st3" d="M210.7,397.3V169"/>
</svg>
