<?xml version="1.0" encoding="utf-8"?>
<!-- Generator: Adobe Illustrator 28.2.0, SVG Export Plug-In . SVG Version: 6.00 Build 0)  -->
<svg version="1.1" id="Layer_1" xmlns="http://www.w3.org/2000/svg" xmlns:xlink="http://www.w3.org/1999/xlink" x="0px" y="0px"
	 viewBox="0 0 512 512" style="enable-background:new 0 0 512 512;" xml:space="preserve">
<style type="text/css">
	.st0{fill:#33B0DF;}
</style>
<g>
	<g>
		<path d="M256,51.2C142.9,51.2,51.2,142.9,51.2,256c0,4.7,3.8,8.5,8.5,8.5s8.5-3.8,8.5-8.5c0-103.7,84.1-187.7,187.7-187.7
			c4.7,0,8.5-3.8,8.5-8.5S260.7,51.2,256,51.2z"/>
	</g>
</g>
<g>
	<g>
		<g>
			<path d="M308.7,58l-8.5-2.1c-4.7-1-9.4,2-10.4,6.7s2,9.4,6.7,10.4l7.9,2c0.7,0.1,1.5,0.1,2.2,0l-0.2,0.2c4.7,0.6,9-2.7,9.6-7.4
				S313.4,58.6,308.7,58z"/>
			<path d="M346.4,90.4c-0.1,0-0.2,0-0.2,0c-0.1,0-0.1,0-0.2,0H346.4z"/>
			<path d="M264.5,51.2H256c-4.7,0-8.5,3.8-8.5,8.5s3.8,8.5,8.5,8.5h8.5c4.7,0,8.5-3.8,8.5-8.5S269.2,51.2,264.5,51.2z"/>
			<path d="M349.9,74.2l-7.6-4.4c-4.2-1.9-9.1-0.1-11.1,4c-2.1,4.2-0.3,9.3,3.9,11.4l7.4,4.1c1.1,0.6,2.4,0.9,3.7,0.9
				c3.1-0.1,6-1.8,7.4-4.6C355.7,81.5,354.1,76.4,349.9,74.2z"/>
			<path d="M451.8,237.4c-4.7,0.2-8.3,4.2-8.1,9c0,3.1,0,5.8,0,8.5c0,4.7,3.8,8.5,8.5,8.5v-0.9c4.7,0,8.5-3.8,8.5-8.5
				c0-2.7,0-5.6,0-8.5C460.6,240.8,456.6,237.2,451.8,237.4z"/>
			<path d="M449,220.4c4.6-1,7.5-5.6,6.5-10.2c-0.6-2.8-1.3-5.7-2.1-8.5c-1.2-4.5-5.9-7.2-10.5-6s-7.2,5.9-6,10.5
				c0.7,2.6,1.3,5.2,2,7.9c0.9,4,4.5,6.8,8.5,6.7L449,220.4z"/>
			<path d="M437.1,180.2c4.3-2,6.1-7.1,4-11.4c-1.3-2.7-2.6-5.3-4-7.9c-0.1-0.1-0.1-0.2-0.2-0.4c-2.3-4.1-7.5-5.6-11.6-3.3
				c-4.1,2.3-5.6,7.5-3.3,11.6c1.3,2.4,2.5,4.8,3.7,7.3c1.4,3,4.5,4.9,7.8,4.9v0.1C434.8,181,436,180.7,437.1,180.2z"/>
			<path d="M412.5,124c-3-3.6-8.4-4.1-12-1s-4.1,8.4-1,12c1.8,2,3.5,4.2,5.1,6.3c1.6,2.1,4.1,3.3,6.7,3.3h0.1c1.9,0,3.7-0.6,5.2-1.8
				c3.7-2.9,4.4-8.2,1.6-12C416.3,128.6,414.4,126.3,412.5,124z"/>
			<path d="M387.3,98.9l-7-5.5c-3.7-2.9-9.1-2.2-12,1.6s-2.2,9.1,1.6,12l6.4,5.1c1.5,1.3,3.5,2,5.5,2h0.1c2.5,0,5-1.1,6.6-3.1
				C391.5,107.3,391,101.9,387.3,98.9z"/>
		</g>
	</g>
</g>
<g>
	<g>
		<path d="M256,102.4c-84.8,0-153.6,68.8-153.6,153.6S171.2,409.6,256,409.6S409.6,340.8,409.6,256S340.8,102.4,256,102.4z
			 M256,392.5c-75.4,0-136.5-61.1-136.5-136.5S180.6,119.5,256,119.5S392.5,180.6,392.5,256S331.4,392.5,256,392.5z"/>
	</g>
</g>
<g>
	<g>
		<path d="M256,187.7c-37.7,0-68.3,30.6-68.3,68.3s30.6,68.3,68.3,68.3s68.3-30.6,68.3-68.3S293.7,187.7,256,187.7z M256,307.2
			c-28.3,0-51.2-22.9-51.2-51.2s22.9-51.2,51.2-51.2s51.2,22.9,51.2,51.2S284.3,307.2,256,307.2z"/>
	</g>
</g>
<g>
	<g>
		<path d="M256,153.6c-4.7,0-8.5,3.8-8.5,8.5v34.1c0,4.7,3.8,8.5,8.5,8.5c4.7,0,8.5-3.8,8.5-8.5v-34.1
			C264.5,157.4,260.7,153.6,256,153.6z"/>
	</g>
</g>
<g>
	<g>
		<path d="M256,102.4c-4.7,0-8.5,3.8-8.5,8.5V128c0,4.7,3.8,8.5,8.5,8.5c4.7,0,8.5-3.8,8.5-8.5v-17.1
			C264.5,106.2,260.7,102.4,256,102.4z"/>
	</g>
</g>
<g>
	<g>
		<path d="M256,375.5c-4.7,0-8.5,3.8-8.5,8.5v17.1c0,4.7,3.8,8.5,8.5,8.5c4.7,0,8.5-3.8,8.5-8.5V384
			C264.5,379.3,260.7,375.5,256,375.5z"/>
	</g>
</g>
<g>
	<g>
		<path d="M220.2,132.9l-5.8-16c-1.7-4.2-6.3-6.4-10.6-5c-4.5,1.5-6.9,6.3-5.4,10.8l5.8,16c1.2,3.4,4.4,5.6,8,5.6c1,0,2-0.2,2.9-0.5
			C219.6,142.2,221.8,137.3,220.2,132.9z"/>
	</g>
</g>
<g>
	<g>
		<path d="M313.6,389.6l-5.8-16c-1.7-4.2-6.3-6.4-10.6-5c-4.5,1.5-6.9,6.3-5.4,10.8l5.8,16c1.2,3.4,4.4,5.6,8,5.6c1,0,2-0.2,2.9-0.5
			C312.9,399,315.2,394.1,313.6,389.6z"/>
	</g>
</g>
<g>
	<g>
		<path d="M180.2,152.4l-11-13.1c-3-3.6-8.4-4.1-12-1s-4.1,8.4-1,12l11,13.1c1.6,1.9,4,3.1,6.6,3.1v-0.1c2,0,3.9-0.7,5.4-2
			C182.8,161.4,183.2,156,180.2,152.4z"/>
	</g>
</g>
<g>
	<g>
		<path d="M355.8,361.4l-11-13.1c-3-3.6-8.4-4.1-12-1s-4.1,8.4-1,12l11,13.1c1.6,2,4,3.1,6.6,3.1c2,0,4-0.7,5.5-2
			C358.4,370.4,358.8,365,355.8,361.4z"/>
	</g>
</g>
<g>
	<g>
		<path d="M149.3,184.7l-14.8-8.5c-0.2-0.1-0.4-0.2-0.6-0.4c-4.2-2.2-9.3-0.6-11.5,3.6s-0.6,9.3,3.6,11.5l14.8,8.5
			c1.3,0.7,2.8,1.1,4.3,1.1c3,0,5.7-1.6,7.3-4.2C154.7,192.3,153.4,187.1,149.3,184.7z"/>
	</g>
</g>
<g>
	<g>
		<path d="M385.9,321.2l-14.8-8.5c-3.9-2.1-8.8-0.8-11.2,3c-2.5,4-1.4,9.3,2.6,11.8l14.8,8.5c1.3,0.7,2.8,1.1,4.3,1.1v0.1
			c3.1,0,6-1.6,7.5-4.3C391.4,328.7,390,323.5,385.9,321.2z"/>
	</g>
</g>
<g>
	<g>
		<path d="M131.5,225.3l-17.1-3c-4.7-0.8-9.2,2.3-10,7c-0.8,4.7,2.3,9.2,7,10l17.1,3h1.5h0.1c4.7,0.4,8.9-3.1,9.3-7.8
			C139.7,229.8,136.2,225.7,131.5,225.3z"/>
	</g>
</g>
<g>
	<g>
		<path d="M400.4,273.1l-17.1-3c-4.7-0.8-9.2,2.3-10,7s2.3,9.2,7,10l17.1,3h1.5h0.1c4.7,0.4,8.9-3.1,9.3-7.8
			C408.6,277.6,405.1,273.5,400.4,273.1z"/>
	</g>
</g>
<g>
	<g>
		<path d="M138.8,277.1c-0.8-4.7-5.3-7.9-10-7l-17.1,3c-4.7,0.4-8.2,4.5-7.8,9.3s4.5,8.2,9.3,7.8h1.5l17.1-3
			C136.5,286.3,139.6,281.8,138.8,277.1z"/>
	</g>
</g>
<g>
	<g>
		<path d="M407.7,229.3c-0.8-4.7-5.3-7.9-10-7l-17.1,3c-4.7,0.4-8.2,4.5-7.8,9.3c0.4,4.7,4.5,8.2,9.3,7.8h1.5l17.1-3
			C405.4,238.5,408.5,234,407.7,229.3z"/>
	</g>
</g>
<g>
	<g>
		<path d="M152.4,316.2c-2.2-4.2-7.3-5.8-11.5-3.6l-14.8,8.5c-2.7,1.5-4.3,4.4-4.3,7.5c0,4.7,3.9,8.5,8.6,8.5c1.5,0,3-0.4,4.3-1.2
			l14.8-8.5C153.2,325,154.5,320.1,152.4,316.2z"/>
	</g>
</g>
<g>
	<g>
		<path d="M389.2,178.7c-2.5-4-7.8-5.2-11.8-2.6l-14.8,8.5c-2.7,1.5-4.3,4.4-4.3,7.5c0,4.7,3.9,8.5,8.6,8.5c1.5,0,3-0.4,4.3-1.2
			l14.8-8.5c0.2-0.1,0.4-0.2,0.6-0.4C390.6,187.9,391.7,182.6,389.2,178.7z"/>
	</g>
</g>
<g>
	<g>
		<path d="M179.3,347.4c-3.6-3-9-2.6-12,1l-11,13.1c-1.3,1.5-2,3.4-2,5.4c0,4.7,3.7,8.6,8.5,8.6c2.5,0,4.9-1.1,6.6-3l11-13.1
			C183.3,355.8,182.9,350.4,179.3,347.4z"/>
	</g>
</g>
<g>
	<g>
		<path d="M354.8,138.4c-3.6-3-9-2.6-12,1l-11,13.1c-1.3,1.5-2,3.4-2,5.4c0,4.7,3.7,8.6,8.5,8.6c2.5,0,4.9-1.1,6.6-3l11-13.1
			C358.9,146.8,358.4,141.4,354.8,138.4z"/>
	</g>
</g>
<g>
	<g>
		<path d="M215.3,368.8c-4.4-1.7-9.3,0.4-11.1,4.8l-5.8,16c-1.6,4.4,0.7,9.3,5.1,10.9c0.9,0.3,1.9,0.5,2.9,0.5c3.6,0,6.8-2.3,8-5.6
			l5.8-16C221.7,375.1,219.5,370.4,215.3,368.8z"/>
	</g>
</g>
<g>
	<g>
		<path d="M308.6,112c-4.4-1.7-9.3,0.4-11.1,4.8l-5.8,16c-1.6,4.4,0.7,9.3,5.1,10.9c0.9,0.3,1.9,0.5,2.9,0.5c3.6,0,6.8-2.3,8-5.6
			l5.8-16C315,118.3,312.8,113.7,308.6,112z"/>
	</g>
</g>
<g>
	<g>
		<path d="M469.3,0H42.7C19.1,0,0,19.1,0,42.7v426.7C0,492.9,19.1,512,42.7,512h426.7c23.6,0,42.7-19.1,42.7-42.7V42.7
			C512,19.1,492.9,0,469.3,0z M494.9,469.3c0,14.1-11.5,25.6-25.6,25.6H42.7c-14.1,0-25.6-11.5-25.6-25.6V42.7
			c0-14.1,11.5-25.6,25.6-25.6h426.7c14.1,0,25.6,11.5,25.6,25.6L494.9,469.3L494.9,469.3z"/>
	</g>
</g>
<g>
	<g>
		<path class="st0" d="M443.7,409.6c-18.9,0-34.1,15.3-34.1,34.1c0,18.9,15.3,34.1,34.1,34.1c18.9,0,34.1-15.3,34.1-34.1
			C477.9,424.9,462.6,409.6,443.7,409.6z M443.7,460.8c-9.4,0-17.1-7.6-17.1-17.1s7.6-17.1,17.1-17.1s17.1,7.6,17.1,17.1
			S453.2,460.8,443.7,460.8z"/>
	</g>
</g>
<g>
	<g>
		<path d="M57.3,463.1l-1.4-1c-0.4-0.3-0.9-0.6-1.5-0.8c-0.5-0.3-1.1-0.4-1.6-0.5c-1.1-0.3-2.2-0.3-3.3,0c-0.5,0.1-1.1,0.4-1.5,0.7
			c-0.5,0.2-1.1,0.4-1.5,0.8l-1.3,1c-1.6,1.6-2.5,3.8-2.5,6.1c0,1.2,0.2,2.3,0.7,3.4c0.4,1,1,2,1.8,2.8l1.3,1c0.5,0.3,1,0.6,1.5,0.8
			l1.5,0.5h1.7l1.6-0.2c0.6-0.1,1.1-0.3,1.6-0.5c0.5-0.2,1-0.4,1.5-0.8l1.4-1c0.8-0.8,1.4-1.8,1.8-2.8c0.4-1,0.7-2.1,0.7-3.2
			C59.7,467,58.9,464.8,57.3,463.1z"/>
	</g>
</g>
<g>
	<g>
		<path d="M187.7,460.8H76.8c-4.7,0-8.5,3.8-8.5,8.5s3.8,8.5,8.5,8.5h110.9c4.7,0,8.5-3.8,8.5-8.5S192.4,460.8,187.7,460.8z"/>
	</g>
</g>
</svg>
