<?xml version="1.0" encoding="utf-8"?>
<!-- Generator: Adobe Illustrator 28.2.0, SVG Export Plug-In . SVG Version: 6.00 Build 0)  -->
<svg version="1.1" id="Capa_1" xmlns="http://www.w3.org/2000/svg" xmlns:xlink="http://www.w3.org/1999/xlink" x="0px" y="0px"
	 viewBox="0 0 512 512" style="enable-background:new 0 0 512 512;" xml:space="preserve">
<style type="text/css">
	.st0{fill:#33B0DF;}
</style>
<g transform="translate(1 1)">
	<g>
		<g>
			<path d="M468.3-1H41.7C18.1-1-1,18.1-1,41.7v426.7c0,23.5,19.1,42.7,42.7,42.7h426.7c23.5,0,42.7-19.1,42.7-42.7V41.7
				C511,18.1,491.9-1,468.3-1z M493.9,468.3c0,14.1-11.5,25.6-25.6,25.6H41.7c-14.1,0-25.6-11.5-25.6-25.6V41.7
				c0-14.1,11.5-25.6,25.6-25.6h426.7c14.1,0,25.6,11.5,25.6,25.6L493.9,468.3L493.9,468.3z"/>
			<path d="M417.1,58.7H92.9c-9.4,0-17.1,7.7-17.1,17.1v187.7c0,9.4,7.7,17.1,17.1,17.1h324.3c9.4,0,17.1-7.7,17.1-17.1V75.8
				C434.2,66.4,426.5,58.7,417.1,58.7z M417.1,263.5H92.9l0-187.7h0h324.3L417.1,263.5L417.1,263.5z"/>
			<path d="M255,323.3c-37.6,0-68.3,30.6-68.3,68.3s30.6,68.3,68.3,68.3s68.3-30.6,68.3-68.3S292.6,323.3,255,323.3z M255,442.7
				c-28.2,0-51.2-23-51.2-51.2s23-51.2,51.2-51.2s51.2,23,51.2,51.2S283.2,442.7,255,442.7z"/>
			<path d="M144.1,400.1h-34.1c-14.1,0-25.6,11.5-25.6,25.6s11.5,25.6,25.6,25.6h34.1c14.1,0,25.6-11.5,25.6-25.6
				S158.2,400.1,144.1,400.1z M144.1,434.2h-34.1c-4.7,0-8.5-3.8-8.5-8.5s3.8-8.5,8.5-8.5h34.1c4.7,0,8.5,3.8,8.5,8.5
				S148.8,434.2,144.1,434.2z"/>
			<path class="st0" d="M400.1,400.1h-34.1c-14.1,0-25.6,11.5-25.6,25.6s11.5,25.6,25.6,25.6h34.1c14.1,0,25.6-11.5,25.6-25.6
				S414.2,400.1,400.1,400.1z M400.1,434.2h-34.1c-4.7,0-8.5-3.8-8.5-8.5s3.8-8.5,8.5-8.5h34.1c4.7,0,8.5,3.8,8.5,8.5
				S404.8,434.2,400.1,434.2z"/>
			<path d="M117.6,383l19.6,0c5.9-0.5,11-3.9,13.7-9.2c2.7-5.2,2.5-11.4-0.4-16.2l-9.2-17c-2.6-5.4-8.2-8.9-14.2-8.9
				c-5.9,0-11.4,3.4-14.1,8.7l-9.2,16.9c-3,5.1-3.2,11.2-0.5,16.4C105.9,379,111,382.5,117.6,383z M127,350.2l8.5,15.6
				c0.1,0.1,0.9,0,0.9,0.1h-17.9L127,350.2z"/>
			<path d="M383,383c5.9,0,11.4-3.4,14.1-8.7l9.2-16.9c3-5.1,3.2-11.2,0.5-16.4c-2.7-5.2-7.8-8.7-14.4-9.2l-19.6,0
				c-5.9,0.5-11,3.9-13.7,9.2c-2.7,5.2-2.5,11.4,0.4,16.2l9.2,17C371.4,379.5,377,383,383,383z M391.5,348.9l-8.5,15.7l-8.5-15.6
				c-0.1-0.1-0.9,0-0.9-0.1L391.5,348.9L391.5,348.9z"/>
			<path d="M255,246.7c32.9,0,59.7-26.8,59.7-59.7c0-28-47.8-84.7-53.2-91.1c-3.2-3.8-9.7-3.8-13,0c-5.5,6.4-53.2,63.1-53.2,91.1
				C195.3,219.9,222.1,246.7,255,246.7z M255,229.4c-9.2-0.1-16.8-7.5-17.1-16.6c0.7-3.1,5.8-13,17-28.7
				c11.3,15.9,16.4,25.8,17.1,29C271.6,222.1,264.1,229.4,255,229.4z M255,114.7c18.7,23.1,42.7,57.6,42.7,72.2
				c0,9.6-3.2,18.4-8.5,25.6c0-0.3,0-0.6,0-0.9c-1.2-11.2-17.6-34.3-27.3-47.1c-1.6-2.1-4.1-3.4-6.8-3.4c-2.7,0-5.2,1.2-6.8,3.4
				c-9.7,12.7-26,35.7-27.3,46.7c0,0.3-0.1,0.6-0.1,0.9c0,0.1,0,0.2,0,0.4c-5.4-7.1-8.5-16-8.5-25.6
				C212.3,172.3,236.3,137.8,255,114.7z"/>
			<path d="M118.5,118.5c2.2,0,4.4-0.8,6-2.5l8.5-8.5c3.3-3.3,3.3-8.7,0-12.1s-8.7-3.3-12.1,0l-8.5,8.5c-3.3,3.3-3.3,8.7,0,12.1
				C114.1,117.6,116.3,118.5,118.5,118.5z"/>
			<path d="M118.5,161.1c2.2,0,4.4-0.8,6-2.5l51.2-51.2c3.3-3.3,3.3-8.7,0-12.1c-3.3-3.3-8.7-3.3-12.1,0l-51.2,51.2
				c-3.3,3.3-3.3,8.7,0,12.1C114.1,160.3,116.3,161.1,118.5,161.1z"/>
		</g>
	</g>
</g>
</svg>
