<?xml version="1.0" encoding="utf-8"?>
<!-- Generator: Adobe Illustrator 28.2.0, SVG Export Plug-In . SVG Version: 6.00 Build 0)  -->
<svg version="1.1" id="Layer_1" xmlns="http://www.w3.org/2000/svg" xmlns:xlink="http://www.w3.org/1999/xlink" x="0px" y="0px"
	 viewBox="0 0 512 512" style="enable-background:new 0 0 512 512;" xml:space="preserve">
<style type="text/css">
	.st0{fill:#607D8B;}
	.st1{fill:#CFD8DC;}
	.st2{fill:#00838F;}
	.st3{fill:#00BCD4;}
	.st4{fill:#33B0DF;}
</style>
<path class="st0" d="M42.7,8.5h426.7c18.9,0,34.1,15.3,34.1,34.1v426.7c0,18.9-15.3,34.1-34.1,34.1H42.7
	c-18.9,0-34.1-15.3-34.1-34.1V42.7C8.5,23.8,23.8,8.5,42.7,8.5z"/>
<path class="st1" d="M42.7,8.5h392.5c18.9,0,34.1,15.3,34.1,34.1v426.7c0,18.9-15.3,34.1-34.1,34.1H42.7
	c-18.9,0-34.1-15.3-34.1-34.1V42.7C8.5,23.8,23.8,8.5,42.7,8.5z"/>
<path d="M59.7,264.5c-4.7,0-8.5-3.8-8.5-8.5c0-113.1,91.7-204.8,204.8-204.8c4.7,0,8.5,3.8,8.5,8.5s-3.8,8.5-8.5,8.5
	C152.3,68.3,68.3,152.3,68.3,256C68.3,260.7,64.4,264.5,59.7,264.5z"/>
<path d="M452.3,263.4c-4.7,0-8.5-3.8-8.5-8.5c0-2.7,0-5.5,0-8.5c-0.2-4.7,3.4-8.7,8.1-9c4.7-0.2,8.7,3.4,9,8.1c0,3,0,5.8,0,8.5
	c0,4.7-3.8,8.5-8.5,8.5L452.3,263.4L452.3,263.4z M447.4,220.8c-4.1,0.1-7.6-2.7-8.5-6.7c-0.6-2.7-1.3-5.3-2-7.9
	c-1.2-4.5,1.4-9.2,6-10.5s9.2,1.4,10.5,6c0.8,2.8,1.5,5.7,2.1,8.5c1,4.6-1.9,9.1-6.5,10.2L447.4,220.8z M433.5,180.9
	c-3.3,0-6.3-1.9-7.8-4.9c-1.1-2.4-2.4-4.9-3.7-7.3c-2.3-4.1-0.8-9.3,3.3-11.6s9.3-0.8,11.6,3.3c0.1,0.1,0.1,0.2,0.2,0.4
	c1.4,2.6,2.7,5.3,4,7.9c2,4.3,0.2,9.3-4,11.4C436,180.7,434.8,181,433.5,180.9L433.5,180.9L433.5,180.9z M411.3,144.6
	c-2.6,0-5.1-1.2-6.7-3.3c-1.6-2.2-3.4-4.3-5.1-6.3c-3-3.6-2.6-9,1-12c3.6-3,9-2.6,12,1c1.9,2.3,3.8,4.6,5.6,6.9
	c2.9,3.7,2.2,9.1-1.6,12C415.1,144,413.3,144.6,411.3,144.6L411.3,144.6z M381.8,114c-2,0-3.9-0.7-5.5-2l-6.4-5.1
	c-3.7-2.9-4.5-8.2-1.6-12c2.9-3.7,8.2-4.5,12-1.6l7,5.5c3.6,3,4.1,8.4,1.1,12C386.8,112.9,384.4,114,381.8,114
	C381.9,114,381.8,114,381.8,114z M346.4,90.4c-1.4,0-2.7-0.3-3.9-0.9l-7.4-4.1c-4.2-2.1-6-7.2-3.9-11.4c2-4.1,6.9-5.9,11.1-4
	l7.6,4.4c4.2,2.2,5.9,7.3,3.7,11.5c-1.5,2.9-4.4,4.7-7.6,4.6C345.9,90.4,346.4,90.4,346.4,90.4z M306.6,74.9c-0.7,0.1-1.5,0.1-2.2,0
	l-7.9-2c-4.7-1-7.7-5.7-6.7-10.4s5.7-7.7,10.4-6.7l8.5,2.1c4.7,0.6,8,4.9,7.4,9.6c-0.6,4.7-4.9,8-9.6,7.4L306.6,74.9z M264.5,68.3
	L264.5,68.3H256c-4.7,0-8.5-3.8-8.5-8.5s3.8-8.5,8.5-8.5h8.5c4.7,0,8.5,3.8,8.5,8.5S269.2,68.3,264.5,68.3z"/>
<path class="st2" d="M401.1,256c0,80.1-64.9,145.1-145.1,145.1l0,0c-5.7,0-11.4-0.3-17.1-1c-79.6-9.5-136.3-81.7-126.8-161.2
	c7.9-66.5,60.4-118.9,126.8-126.8c5.7-0.7,11.4-1,17.1-1C336.1,110.9,401.1,175.9,401.1,256z"/>
<path class="st3" d="M366.9,256c0,73.5-55,135.4-128,144c-79.6-9.5-136.3-81.7-126.8-161.2c7.9-66.5,60.4-118.9,126.8-126.8
	C311.9,120.6,366.9,182.5,366.9,256z"/>
<path d="M256,409.6c-84.8,0-153.6-68.8-153.6-153.6S171.2,102.4,256,102.4S409.6,171.2,409.6,256S340.8,409.6,256,409.6z M256,119.5
	c-75.4,0-136.5,61.1-136.5,136.5S180.6,392.5,256,392.5S392.5,331.4,392.5,256S331.4,119.5,256,119.5z"/>
<circle class="st2" cx="256" cy="256" r="59.7"/>
<path d="M256,324.3c-37.7,0-68.3-30.6-68.3-68.3s30.6-68.3,68.3-68.3s68.3,30.6,68.3,68.3S293.7,324.3,256,324.3z M256,204.8
	c-28.3,0-51.2,22.9-51.2,51.2s22.9,51.2,51.2,51.2s51.2-22.9,51.2-51.2S284.3,204.8,256,204.8z"/>
<path d="M256,204.8c-4.7,0-8.5-3.8-8.5-8.5v-34.1c0-4.7,3.8-8.5,8.5-8.5c4.7,0,8.5,3.8,8.5,8.5v34.1
	C264.5,201,260.7,204.8,256,204.8z"/>
<path d="M256,136.5c-4.7,0-8.5-3.8-8.5-8.5v-17.1c0-4.7,3.8-8.5,8.5-8.5c4.7,0,8.5,3.8,8.5,8.5V128
	C264.5,132.7,260.7,136.5,256,136.5z"/>
<path d="M256,409.6c-4.7,0-8.5-3.8-8.5-8.5V384c0-4.7,3.8-8.5,8.5-8.5c4.7,0,8.5,3.8,8.5,8.5v17.1
	C264.5,405.8,260.7,409.6,256,409.6z"/>
<path d="M212.2,144.3c-3.6,0-6.8-2.3-8-5.6l-5.8-16c-1.5-4.5,1-9.3,5.4-10.8c4.3-1.4,9,0.8,10.6,5l5.8,16c1.6,4.4-0.7,9.3-5.1,10.9
	C214.2,144.1,213.2,144.3,212.2,144.3z"/>
<path d="M305.6,401.1c-3.6,0-6.8-2.3-8-5.6l-5.8-16c-1.5-4.5,1-9.3,5.4-10.8c4.3-1.4,9,0.8,10.6,5l5.8,16c1.6,4.4-0.7,9.3-5.1,10.9
	C307.5,400.9,306.6,401.1,305.6,401.1z"/>
<path d="M173.7,166.5c-2.5,0-4.9-1.1-6.6-3.1l-11-13.1c-3-3.6-2.6-9,1-12s9-2.6,12,1l11,13.1c3,3.6,2.5,9-1.1,12
	C177.6,165.7,175.7,166.4,173.7,166.5L173.7,166.5z"/>
<path d="M349.3,375.5c-2.5,0-4.9-1.1-6.6-3.1l-11-13.1c-3-3.6-2.6-9,1-12c3.6-3,9-2.6,12,1l11,13.1c3.1,3.6,2.6,9-0.9,12
	C353.3,374.7,351.3,375.5,349.3,375.5z"/>
<path d="M145.1,200.5c-1.5,0-3-0.4-4.3-1.1l-14.8-8.5c-4.2-2.2-5.8-7.3-3.6-11.5c2.2-4.2,7.3-5.8,11.5-3.6c0.2,0.1,0.4,0.2,0.6,0.4
	l14.8,8.5c4.1,2.4,5.4,7.6,3,11.7C150.8,198.9,148,200.5,145.1,200.5z"/>
<path d="M381.6,337.1c-1.5,0-3-0.4-4.3-1.1l-14.8-8.5c-4-2.5-5.2-7.8-2.6-11.8c2.4-3.7,7.2-5,11.2-3l14.8,8.5
	c4.1,2.3,5.5,7.5,3.2,11.6C387.6,335.5,384.7,337.2,381.6,337.1L381.6,337.1L381.6,337.1z"/>
<path d="M130,242.3h-1.5l-17.1-3c-4.7-0.8-7.9-5.3-7-10s5.3-7.9,10-7l17.1,3c4.7,0.4,8.2,4.5,7.8,9.3
	C138.9,239.2,134.8,242.7,130,242.3L130,242.3L130,242.3z"/>
<path d="M398.8,290.1h-1.5l-17.1-3c-4.7-0.8-7.9-5.3-7-10s5.3-7.9,10-7l17.1,3c4.7,0.4,8.2,4.5,7.8,9.3S403.6,290.5,398.8,290.1
	L398.8,290.1z"/>
<path d="M113.2,290.1c-4.7,0.4-8.9-3.1-9.3-7.8c-0.4-4.7,3.1-8.9,7.8-9.3l17.1-3c4.7-0.8,9.2,2.3,10,7c0.8,4.7-2.3,9.2-7,10l-17.1,3
	H113.2L113.2,290.1z"/>
<path d="M382,242.3c-4.7,0.4-8.9-3.1-9.3-7.8c-0.4-4.7,3.1-8.9,7.8-9.3l17.1-3c4.7-0.8,9.2,2.3,10,7c0.8,4.7-2.3,9.2-7,10l-17.1,3
	L382,242.3L382,242.3z"/>
<path d="M130.4,337.1c-4.7,0-8.6-3.8-8.6-8.5c0-3.1,1.6-6,4.3-7.5l14.8-8.5c4.2-2.2,9.3-0.6,11.5,3.6c2.1,3.9,0.8,8.8-3,11.2
	l-14.8,8.5C133.4,336.6,131.9,337,130.4,337.1z"/>
<path d="M366.9,200.5c-4.7,0-8.6-3.8-8.6-8.5c0-3.1,1.6-6,4.3-7.5l14.8-8.5c4-2.5,9.2-1.4,11.8,2.6s1.4,9.2-2.6,11.8
	c-0.2,0.1-0.4,0.2-0.6,0.4l-14.8,8.5C369.9,200.1,368.4,200.5,366.9,200.5z"/>
<path d="M162.7,375.5c-4.7,0-8.5-3.9-8.5-8.6c0-2,0.7-3.9,2-5.4l11-13.1c3-3.6,8.4-4.1,12-1c3.6,3,4.1,8.4,1,12l0,0l-11,13.1
	C167.7,374.4,165.3,375.5,162.7,375.5z"/>
<path d="M338.3,166.5c-4.7,0-8.5-3.9-8.5-8.6c0-2,0.7-3.9,2-5.4l11-13.1c3-3.6,8.4-4.1,12-1s4.1,8.4,1,12l-11,13.1
	C343.2,165.4,340.8,166.5,338.3,166.5z"/>
<path d="M206.4,401.1c-1,0-2-0.2-2.9-0.5c-4.4-1.6-6.7-6.5-5.1-10.9l5.8-16c1.7-4.4,6.7-6.5,11.1-4.8c4.2,1.7,6.4,6.3,5,10.6
	l-5.8,16C213.2,398.8,210,401.1,206.4,401.1z"/>
<path d="M299.8,144.3c-1,0-2-0.2-2.9-0.5c-4.4-1.6-6.7-6.5-5.1-10.9l5.8-16c1.7-4.4,6.7-6.5,11.1-4.8c4.2,1.7,6.4,6.3,5,10.6
	l-5.8,16C306.6,142,303.4,144.3,299.8,144.3z"/>
<path d="M469.3,512H42.7C19.1,512,0,492.9,0,469.3V42.7C0,19.1,19.1,0,42.7,0h426.7C492.9,0,512,19.1,512,42.7v426.7
	C512,492.9,492.9,512,469.3,512z M42.7,17.1c-14.1,0-25.6,11.5-25.6,25.6v426.7c0,14.1,11.5,25.6,25.6,25.6l0,0h426.7
	c14.1,0,25.6-11.5,25.6-25.6l0,0V42.7c0-14.1-11.5-25.6-25.6-25.6H42.7z"/>
<circle class="st4" cx="443.7" cy="443.7" r="25.6"/>
<path d="M443.7,477.9c-18.9,0-34.1-15.3-34.1-34.1s15.3-34.1,34.1-34.1s34.1,15.3,34.1,34.1S462.6,477.9,443.7,477.9z M443.7,426.7
	c-9.4,0-17.1,7.6-17.1,17.1c0,9.4,7.6,17.1,17.1,17.1c9.4,0,17.1-7.6,17.1-17.1S453.2,426.7,443.7,426.7z"/>
<path d="M51.2,477.9h-1.7l-1.5-0.5c-0.5-0.2-1.1-0.4-1.5-0.8l-1.3-1c-0.8-0.8-1.4-1.8-1.8-2.8c-0.5-1.1-0.7-2.2-0.7-3.4
	c0-2.3,0.9-4.4,2.5-6.1l1.3-1c0.5-0.3,1-0.6,1.5-0.8c0.5-0.3,1-0.5,1.5-0.7c1.1-0.3,2.2-0.3,3.3,0c0.6,0.1,1.1,0.3,1.6,0.5
	c0.5,0.2,1,0.4,1.5,0.8l1.4,1c1.6,1.7,2.5,3.9,2.5,6.2c0,1.1-0.2,2.2-0.7,3.2c-0.4,1-1,2-1.8,2.8l-1.4,1c-0.4,0.3-0.9,0.6-1.5,0.8
	c-0.5,0.3-1.1,0.4-1.6,0.5L51.2,477.9z"/>
<path d="M187.7,477.9H76.8c-4.7,0-8.5-3.8-8.5-8.5s3.8-8.5,8.5-8.5h110.9c4.7,0,8.5,3.8,8.5,8.5C196.3,474,192.4,477.9,187.7,477.9z
	"/>
</svg>
