<?xml version="1.0" encoding="utf-8"?>
<!-- Generator: Adobe Illustrator 28.2.0, SVG Export Plug-In . SVG Version: 6.00 Build 0)  -->
<svg version="1.1" id="vector" xmlns="http://www.w3.org/2000/svg" xmlns:xlink="http://www.w3.org/1999/xlink" x="0px" y="0px"
	 viewBox="0 0 256 256" style="enable-background:new 0 0 256 256;" xml:space="preserve">
<style type="text/css">
	.st0{fill:#33B0DF;}
	.st1{stroke:#000000;stroke-width:6;stroke-linecap:round;stroke-linejoin:round;stroke-miterlimit:16;}
</style>
<path id="path_0" d="M57.7,17.5c-14.4,0-26.1,11.7-26.1,26.1v124.1l-0.8,0.7c-8.5,7.6-13.3,18.4-13.2,29.8
	c0.1,8.7,2.9,16.9,8.1,23.8l0.2,0.3c7.6,10,19.2,15.8,31.8,15.8c12.7,0,24.4-5.9,32-16.1c5.2-6.9,8-15.2,8.1-23.8
	c0.1-11.4-4.7-22.2-13.2-29.8l-0.8-0.7V43.6C83.8,29.2,72.1,17.5,57.7,17.5z M62.5,28.5c6.4,2,11.1,7.9,11.2,15v126.6
	c0,1.6,0.8,3.1,2,4c13.3,10,16,28.9,6,42.2c-5.7,7.5-14.7,12.1-24.1,12.1c-16.6,0-30.1-13.5-30.1-30.1c0-9.4,4.5-18.4,12-24.1
	c1.2-0.9,2-2.4,2-4V43.6c0.1-7.1,4.9-13.1,11.3-15.1C52.9,28.5,57.5,27.1,62.5,28.5L62.5,28.5z"/>
<path id="path_1" class="st0" d="M52.7,92.8v90.6l-1.5,0.7c-3.8,1.7-6.7,4.8-8.1,8.7c-1.5,3.9-1.3,8.1,0.4,11.9
	c1.7,3.8,4.8,6.7,8.7,8.1c3.9,1.5,8.1,1.3,11.9-0.4c7.8-3.6,11.2-12.8,7.7-20.7c-1.6-3.4-4.3-6.1-7.7-7.7l-1.5-0.7V92.8
	c0-2.8-2.3-5-5-5C54.9,87.8,52.6,90.1,52.7,92.8L52.7,92.8z"/>
<path id="path_2" class="st1" d="M116,54c6,0,6-6,12-6s6,6,12,6s6-6,12-6s6,6,12,6s6-6,12-6s6,6,12,6"/>
<path id="path_3" class="st1" d="M116,76c6,0,6-6,12-6s6,6,12,6s6-6,12-6s6,6,12,6s6-6,12-6s6,6,12,6"/>
<path id="path_4" class="st1" d="M116,98c6,0,6-6,12-6s6,6,12,6s6-6,12-6s6,6,12,6s6-6,12-6s6,6,12,6"/>
</svg>
