<?xml version="1.0" encoding="utf-8"?>
<!-- Generator: Adobe Illustrator 28.2.0, SVG Export Plug-In . SVG Version: 6.00 Build 0)  -->
<svg version="1.1" id="vector" xmlns="http://www.w3.org/2000/svg" xmlns:xlink="http://www.w3.org/1999/xlink" x="0px" y="0px"
	 viewBox="0 0 256 256" style="enable-background:new 0 0 256 256;" xml:space="preserve">
<style type="text/css">
	.st0{fill:#33B0DF;}
	.st1{fill-rule:evenodd;clip-rule:evenodd;}
</style>
<path id="path_0" d="M57.7,17.5c-14.4,0-26.1,11.7-26.1,26.1v124.1l-0.8,0.7c-8.5,7.6-13.3,18.4-13.2,29.8
	c0.1,8.7,2.9,16.9,8.1,23.8l0.2,0.3c7.6,10,19.2,15.8,31.8,15.8c12.7,0,24.4-5.9,32-16.1c5.2-6.9,8-15.2,8.1-23.8
	c0.1-11.4-4.7-22.2-13.2-29.8l-0.8-0.7V43.6C83.8,29.2,72.1,17.5,57.7,17.5z M62.5,28.5c6.4,2,11.1,7.9,11.2,15v126.6
	c0,1.6,0.8,3.1,2,4c13.3,10,16,28.9,6,42.2c-5.7,7.5-14.7,12.1-24.1,12.1c-16.6,0-30.1-13.5-30.1-30.1c0-9.4,4.5-18.4,12-24.1
	c1.2-0.9,2-2.4,2-4V43.6c0.1-7.1,4.9-13.1,11.3-15.1C52.9,28.5,57.5,27.1,62.5,28.5L62.5,28.5z"/>
<path id="path_1" class="st0" d="M52.7,92.8v90.6l-1.5,0.7c-3.8,1.7-6.7,4.8-8.1,8.7c-1.5,3.9-1.3,8.1,0.4,11.9
	c1.7,3.8,4.8,6.7,8.7,8.1c3.9,1.5,8.1,1.3,11.9-0.4c7.8-3.6,11.2-12.8,7.7-20.7c-1.6-3.4-4.3-6.1-7.7-7.7l-1.5-0.7V92.8
	c0-2.8-2.3-5-5-5C54.9,87.8,52.6,90.1,52.7,92.8L52.7,92.8z"/>
<path id="path_2" class="st1" d="M167.6,61.7c1-0.3,2.1-0.1,2.9,0.7c6.7,6.5,10.2,12.8,11.2,18.8c1.1,6-0.3,11.3-2.6,15.6
	c-2.3,4.3-5.5,7.7-8.2,10.2c-1.4,1.2-2.6,2.2-3.6,3c-0.5,0.4-0.9,0.7-1.2,0.9l0,0c-0.2,0.1-0.3,0.2-0.4,0.3c-0.1,0-0.1,0.1-0.1,0.1
	l0,0l0,0c0,0,0,0,0,0c-0.5,0.4-1.2,0.7-1.9,0.7h-0.4c-0.7,0-1.3-0.2-1.8-0.6c-0.1-0.1-0.2-0.2-0.4-0.3c-1.4-1-5.6-4.2-8.4-8.7
	c-1.6-2.6-2.8-5.8-2.8-9.5c0-3.7,1.3-7.6,4.4-11.5c5.5-7.4,8.4-11.9,9.9-14.5c0.7-1.3,1.1-2.1,1.3-2.6c0.1-0.2,0.1-0.3,0.1-0.4
	C165.9,62.8,166.7,62,167.6,61.7z M169.3,69.6C169.3,69.6,169.3,69.7,169.3,69.6c-1.7,3-4.7,7.7-10.4,15.2l0,0l0,0
	c-2.4,3.1-3.1,5.8-3.2,8c0,2.3,0.7,4.4,1.9,6.4c1.7,2.8,4.1,4.9,5.8,6.2c2.7-2,7.5-5.9,10.4-11.5c1.8-3.5,2.8-7.4,2-11.8
	C175.3,78.6,173.4,74.3,169.3,69.6z"/>
<path id="path_3" class="st1" d="M150.4,32.1c1.6-0.3,3.4,0.1,4.6,1.4c0.1,0.1,0.2,0.2,0.3,0.3c3.7,4.9,7.3,13.3,7.3,22.5
	c0,3.7-1.5,7.2-3.4,10.3c-1.6,2.6-3.6,5.3-5.6,7.8c-0.3,0.4-0.7,0.9-1,1.3c-4.7,6.1-8.3,11.6-7.9,17.5c0.5,5,2.6,8.7,4.1,11.3
	l0.1,0.1c0.4,0.6,0.7,1.3,1,1.9c0.1,0.3,0.3,0.7,0.4,1.1c0.1,0.4,0.2,1.1-0.1,1.9c-0.3,1-1,1.7-1.8,2c-0.7,0.3-1.3,0.4-1.7,0.3
	c-0.8,0-1.8-0.2-2.7-0.4l-0.1,0c-7.4-2.1-14.5-8.6-17.9-16.8c-3.4-8.4-3.1-18.8,4.5-28.6c10.5-13.8,14.8-25.3,16.2-30.5
	C147.2,33.7,148.7,32.5,150.4,32.1z M151.8,39.1c-2,6.4-6.8,17.6-16.6,30.5l0,0l0,0c-6.2,8-6.4,16.2-3.7,22.8
	c2.2,5.4,6.2,9.6,10.6,12c-1.3-2.7-2.8-6.3-3.2-10.7l0-0.1c-0.7-8.5,4.6-15.7,9.1-21.5c0.3-0.5,0.7-0.9,1-1.3c2-2.5,3.8-4.9,5.2-7.2
	c1.6-2.7,2.5-5.1,2.5-7.3C156.7,49.6,154.4,43.3,151.8,39.1z"/>
</svg>
