<?xml version="1.0" encoding="utf-8"?>
<!-- Generator: Adobe Illustrator 28.2.0, SVG Export Plug-In . SVG Version: 6.00 Build 0)  -->
<svg version="1.1" id="vector" xmlns="http://www.w3.org/2000/svg" xmlns:xlink="http://www.w3.org/1999/xlink" x="0px" y="0px"
	 viewBox="0 0 256 256" style="enable-background:new 0 0 256 256;" xml:space="preserve">
<style type="text/css">
	.st0{fill:#33B0DF;}
</style>
<path id="path_0" d="M57.7,17.5c-14.4,0-26.1,11.7-26.1,26.1v124.1l-0.8,0.7c-8.5,7.6-13.3,18.4-13.2,29.8
	c0.1,8.7,2.9,16.9,8.1,23.8l0.2,0.3c7.6,10,19.2,15.8,31.8,15.8c12.7,0,24.4-5.9,32-16.1c5.2-6.9,8-15.2,8.1-23.8
	c0.1-11.4-4.7-22.2-13.2-29.8l-0.8-0.7V43.6C83.8,29.2,72.1,17.5,57.7,17.5z M62.5,28.5c6.4,2,11.1,7.9,11.2,15v126.6
	c0,1.6,0.8,3.1,2,4c13.3,10,16,28.9,6,42.2c-5.7,7.5-14.7,12.1-24.1,12.1c-16.6,0-30.1-13.5-30.1-30.1c0-9.4,4.5-18.4,12-24.1
	c1.2-0.9,2-2.4,2-4V43.6c0.1-7.1,4.9-13.1,11.3-15.1C52.9,28.5,57.5,27.1,62.5,28.5L62.5,28.5z"/>
<path id="path_1" class="st0" d="M52.7,92.8v90.6l-1.5,0.7c-3.8,1.7-6.7,4.8-8.1,8.7c-1.5,3.9-1.3,8.1,0.4,11.9
	c1.7,3.8,4.8,6.7,8.7,8.1c3.9,1.5,8.1,1.3,11.9-0.4c7.8-3.6,11.2-12.8,7.7-20.7c-1.6-3.4-4.3-6.1-7.7-7.7l-1.5-0.7V92.8
	c0-2.8-2.3-5-5-5C54.9,87.8,52.6,90.1,52.7,92.8L52.7,92.8z"/>
<path id="path_2" d="M192,73.1c0-1.6-1.3-2.8-2.9-2.9h-9.3l5.3-5.3c1.2-1.2,1.2-3,0-4.2c-1.2-1.2-3-1.2-4.2,0l-9.5,9.5H165l-0.3-1
	c-0.6-1.8-1.6-3.6-2.9-5l-0.7-0.8l3.2-5.6l12.9-3.5c0.8-0.2,1.4-0.7,1.8-1.4c0.4-0.7,0.5-1.5,0.3-2.2c-0.3-1.3-1.5-2.2-2.9-2.2
	c-0.3,0-0.5,0-0.8,0.1l-7.2,1.9l4.7-8.1c0.4-0.7,0.5-1.5,0.3-2.2c-0.2-0.8-0.7-1.4-1.4-1.8c-1.4-0.8-3.2-0.3-4,1.1l-4.7,8.1
	l-1.9-7.2c-0.3-1.3-1.5-2.2-2.9-2.2c-0.8,0-1.5,0.3-2.1,0.9c-0.6,0.6-0.9,1.3-0.9,2.1c0,0.3,0,0.5,0.1,0.8l3.5,12.9l-3.2,5.6
	l-1.1-0.2c-1.9-0.4-3.9-0.4-5.8,0l-1.1,0.2l-3.2-5.6l3.5-12.9c0.2-0.8,0.1-1.6-0.3-2.2c-0.4-0.7-1-1.2-1.8-1.4l0,0
	c-0.2-0.1-0.5-0.1-0.8-0.1h0c-1.3,0-2.5,0.9-2.9,2.2l-1.9,7.2l-4.7-8.1c-0.5-0.9-1.5-1.5-2.6-1.5c-0.8,0-1.5,0.3-2.1,0.9
	c-0.6,0.6-0.9,1.3-0.9,2.1c0,0.5,0.1,1,0.4,1.5l4.7,8.1l-7.2-1.9c-0.2-0.1-0.5-0.1-0.8-0.1c-1.6,0-3,1.3-3,3c0,1.3,0.9,2.5,2.2,2.9
	l12.9,3.5l3.2,5.6l-0.7,0.8c-1.3,1.4-2.3,3.1-2.9,5l-0.3,1h-6.4l-9.5-9.5c-1.2-1.2-3-1.2-4.2,0c-0.6,0.6-0.9,1.3-0.9,2.1
	c0,0.8,0.3,1.5,0.9,2.1l5.3,5.3h-9.4c-0.8,0-1.5,0.3-2,0.9c-0.5,0.6-0.8,1.3-0.8,2.1c0,1.6,1.3,2.8,2.9,2.9h9.4l-5.3,5.3
	c-0.6,0.6-0.9,1.3-0.9,2.1c0,0.8,0.3,1.5,0.9,2.1c0.6,0.6,1.3,0.9,2.1,0.9h0c0.8,0,1.5-0.3,2.1-0.9l9.5-9.5h6.4l0.3,1
	c0.6,1.8,1.6,3.6,2.9,5l0.7,0.8l-3.2,5.6L126.8,92c-0.8,0.2-1.4,0.7-1.8,1.4c-0.4,0.7-0.5,1.5-0.3,2.2c0.3,1.3,1.5,2.2,2.9,2.2h0
	c0.3,0,0.5,0,0.8-0.1l7.2-1.9l-4.7,8.1c-0.4,0.7-0.5,1.5-0.3,2.2c0.2,0.8,0.7,1.4,1.4,1.8c0.4,0.3,0.9,0.4,1.5,0.4
	c1,0,2-0.6,2.6-1.5l4.7-8.1l1.9,7.2c0.2,0.8,0.7,1.4,1.4,1.8c0.7,0.4,1.5,0.5,2.2,0.3c0.8-0.2,1.4-0.7,1.8-1.4
	c0.4-0.7,0.5-1.5,0.3-2.2l-3.5-12.9l3.2-5.6l1.1,0.2c1.9,0.4,3.9,0.4,5.8,0l1-0.2l3.2,5.6l-3.5,12.9c-0.4,1.6,0.5,3.2,2.1,3.6
	c1.6,0.4,3.2-0.5,3.6-2.1l1.9-7.2l4.7,8.1c0.5,0.9,1.5,1.5,2.6,1.5c0.8,0,1.5-0.3,2.1-0.9c0.6-0.6,0.9-1.3,0.9-2.1
	c0-0.5-0.1-1-0.4-1.5l-4.7-8.1l7.2,1.9c1.6,0.4,3.2-0.5,3.6-2.1c0.4-1.6-0.5-3.2-2.1-3.6l-12.9-3.5l-3.2-5.6l0.7-0.8
	c1.3-1.4,2.3-3.1,2.9-5l0.3-1h6.4l9.5,9.5c0.6,0.6,1.3,0.9,2.1,0.9c0.8,0,1.5-0.3,2.1-0.9c0.6-0.6,0.9-1.3,0.9-2.1
	c0-0.8-0.3-1.5-0.9-2.1l-5.3-5.3h9.4C190.8,76.1,192,74.7,192,73.1L192,73.1z M159.4,73.2c0,4.1-3.3,7.4-7.4,7.4h0
	c-2,0-3.8-0.8-5.2-2.2c-1.4-1.4-2.2-3.2-2.2-5.2c0-4.1,3.3-7.4,7.4-7.4h0C156.1,65.8,159.4,69.1,159.4,73.2L159.4,73.2z"/>
</svg>
