<?xml version="1.0" encoding="utf-8"?>
<!-- Generator: Adobe Illustrator 28.2.0, SVG Export Plug-In . SVG Version: 6.00 Build 0)  -->
<svg version="1.1" id="Calque_1" xmlns="http://www.w3.org/2000/svg" xmlns:xlink="http://www.w3.org/1999/xlink" x="0px" y="0px"
	 viewBox="0 0 48 48" style="enable-background:new 0 0 48 48;" xml:space="preserve">
<style type="text/css">
	.st0{fill-rule:evenodd;clip-rule:evenodd;}
	.st1{fill:none;stroke:#000000;stroke-width:1.5;stroke-linecap:round;}
	.st2{fill:#33B0DF;}
	.st3{fill:none;stroke:#000000;stroke-width:1.5;stroke-linecap:round;stroke-linejoin:round;}
</style>
<path d="M25.3,31c0-0.3-0.3-0.6-0.6-0.6h-1.9l1.1-1c0.2-0.2,0.2-0.6,0-0.8c0,0,0,0,0,0c-0.2-0.2-0.6-0.2-0.8,0l-1.9,1.9h-1.3
	l-0.1-0.2c-0.1-0.4-0.3-0.7-0.6-1l-0.1-0.2l0.6-1.1l2.6-0.7c0.2,0,0.3-0.1,0.4-0.3c0.1-0.1,0.1-0.3,0.1-0.4
	c-0.1-0.3-0.4-0.5-0.7-0.4l-1.4,0.4l0.9-1.6c0.2-0.3,0.1-0.6-0.2-0.8c0,0,0,0,0,0c-0.3-0.2-0.6-0.1-0.8,0.2L19.5,26l-0.4-1.4
	c-0.1-0.3-0.3-0.4-0.6-0.4c-0.2,0-0.3,0.1-0.4,0.2C18,24.4,18,24.6,18,24.8l0.7,2.5l-0.6,1.1l-0.2,0c-0.4-0.1-0.8-0.1-1.2,0l-0.2,0
	l-0.6-1.1l0.7-2.5c0.1-0.3-0.1-0.6-0.4-0.7l0,0c-0.3-0.1-0.6,0.1-0.7,0.4L15,26l-0.9-1.6c-0.2-0.3-0.5-0.4-0.8-0.2
	c0,0-0.1,0.1-0.1,0.1c-0.2,0.2-0.2,0.5-0.1,0.7l0.9,1.6l-1.4-0.4c-0.3-0.1-0.6,0.1-0.7,0.4c0,0.1,0,0.1,0,0.2c0,0.3,0.2,0.5,0.4,0.6
	l2.6,0.7l0.6,1.1l-0.1,0.2c-0.3,0.3-0.5,0.6-0.6,1l-0.1,0.2h-1.3l-1.9-1.9c-0.2-0.2-0.6-0.2-0.8,0c-0.2,0.2-0.2,0.6,0,0.8
	c0,0,0,0,0,0l1.1,1H9.8c-0.3,0-0.6,0.3-0.6,0.6c0,0.3,0.3,0.6,0.6,0.6h1.9l-1.1,1c-0.2,0.2-0.2,0.6,0,0.8c0,0,0,0,0,0
	c0.1,0.1,0.3,0.2,0.4,0.2h0c0.2,0,0.3-0.1,0.4-0.2l1.9-1.9h1.3l0.1,0.2c0.1,0.4,0.3,0.7,0.6,1l0.1,0.2L14.8,34l-2.6,0.7
	c-0.2,0-0.3,0.1-0.4,0.3c-0.1,0.1-0.1,0.3-0.1,0.4c0.1,0.3,0.3,0.4,0.6,0.4c0.1,0,0.1,0,0.2,0l1.4-0.4L13,37.1
	c-0.2,0.3-0.1,0.6,0.2,0.8c0,0,0,0,0,0c0.3,0.2,0.6,0.1,0.8-0.2L15,36l0.4,1.4c0.1,0.3,0.4,0.5,0.7,0.4c0.1,0,0.3-0.1,0.3-0.3
	c0.1-0.1,0.1-0.3,0.1-0.4l-0.7-2.5l0.6-1.1l0.2,0c0.4,0.1,0.8,0.1,1.2,0l0.2,0l0.6,1.1L18,37.2c-0.1,0.3,0.1,0.6,0.4,0.7
	c0,0,0,0,0,0c0.3,0.1,0.6-0.1,0.7-0.4l0.4-1.4l0.9,1.6c0.1,0.2,0.3,0.3,0.5,0.3c0.3,0,0.6-0.3,0.6-0.6c0-0.1,0-0.2-0.1-0.3l-0.9-1.6
	l1.4,0.4c0.3,0.1,0.6-0.1,0.7-0.4c0.1-0.3-0.1-0.6-0.4-0.7c0,0,0,0,0,0L19.7,34l-0.6-1.1l0.1-0.2c0.3-0.3,0.5-0.6,0.6-1l0.1-0.2h1.3
	l1.9,1.9c0.1,0.1,0.3,0.2,0.4,0.2c0.3,0,0.6-0.3,0.6-0.6c0-0.2-0.1-0.3-0.2-0.4l-1.1-1h1.9C25,31.6,25.3,31.3,25.3,31
	C25.3,31,25.3,31,25.3,31z M18.7,31c0,0.8-0.7,1.5-1.5,1.5c-0.4,0-0.8-0.2-1-0.4c-0.3-0.3-0.4-0.6-0.4-1c0-0.8,0.7-1.5,1.5-1.5
	C18.1,29.6,18.7,30.2,18.7,31L18.7,31z"/>
<path class="st0" d="M36,28.9c0.2-0.1,0.4,0,0.6,0.1c1.3,1.3,2,2.6,2.2,3.8c0.2,1.2-0.1,2.2-0.5,3.1c-0.5,0.9-1.1,1.5-1.6,2
	c-0.2,0.2-0.5,0.4-0.7,0.6c-0.1,0.1-0.2,0.1-0.2,0.2l0,0l-0.1,0.1l0,0l0,0l0,0C35.5,39,35.3,39,35.2,39h-0.1c-0.1,0-0.3,0-0.4-0.1
	c0,0,0,0-0.1-0.1c-0.3-0.2-1.1-0.8-1.7-1.7c-0.3-0.5-0.6-1.2-0.6-1.9c0-0.7,0.3-1.5,0.9-2.3c1.1-1.5,1.7-2.4,2-2.9
	c0.2-0.3,0.2-0.4,0.3-0.5c0,0,0-0.1,0-0.1C35.7,29.2,35.8,29,36,28.9z M36.3,30.5L36.3,30.5c-0.3,0.6-0.9,1.5-2.1,3l0,0
	c-0.5,0.6-0.6,1.2-0.6,1.6c0,0.5,0.2,0.9,0.4,1.3c0.3,0.6,0.8,1,1.2,1.2c0.5-0.4,1.5-1.2,2.1-2.3c0.4-0.7,0.6-1.5,0.4-2.4
	C37.5,32.3,37.2,31.5,36.3,30.5z"/>
<path class="st0" d="M32.5,23c0.4-0.1,0.7,0.1,1,0.3c0.7,1,1.5,2.7,1.5,4.5c0,0.8-0.3,1.4-0.7,2.1c-0.3,0.5-0.7,1.1-1.1,1.6L33,31.7
	c-0.9,1.2-1.7,2.3-1.6,3.5c0.1,1,0.5,1.7,0.8,2.3l0,0c0.1,0.1,0.1,0.3,0.2,0.4c0,0.1,0.1,0.1,0.1,0.2c0,0.1,0,0.3,0,0.4
	c-0.1,0.2-0.2,0.3-0.4,0.4C32,39,31.9,39,31.8,39c-0.2,0-0.4,0-0.5-0.1l0,0c-1.5-0.4-2.9-1.7-3.6-3.4c-0.7-1.7-0.6-3.8,0.9-5.7
	c2.1-2.8,3-5.1,3.2-6.1C31.9,23.4,32.2,23.1,32.5,23z M32.8,24.4c-0.4,1.3-1.4,3.5-3.3,6.1l0,0c-1.2,1.6-1.3,3.2-0.7,4.6
	c0.4,1.1,1.2,1.9,2.1,2.4c-0.3-0.7-0.6-1.4-0.6-2.1l0,0c-0.1-1.7,0.9-3.1,1.8-4.3l0.2-0.3c0.4-0.5,0.8-1,1-1.4
	c0.3-0.5,0.5-1,0.5-1.5C33.8,26.7,33.5,25.5,32.8,24.4z"/>
<path class="st1" d="M3.8,41.3C2,37.9,1,34,1,30.2c0-7.9,4-14.9,10-19.1 M44.2,41.3C46,37.9,47,34,47,30.2C47,17.4,36.7,7,24,7
	c-1.6,0-3.2,0.2-4.8,0.5"/>
<circle class="st2" cx="15" cy="9" r="3"/>
<path class="st3" d="M24,7v4 M47,31h-4 M5,31H1 M41,15l-2.8,2.8 M7,15l2.8,2.8"/>
</svg>
