<?xml version="1.0" encoding="utf-8"?>
<!-- Generator: Adobe Illustrator 28.2.0, SVG Export Plug-In . SVG Version: 6.00 Build 0)  -->
<svg version="1.1" id="vector" xmlns="http://www.w3.org/2000/svg" xmlns:xlink="http://www.w3.org/1999/xlink" x="0px" y="0px"
	 viewBox="0 0 256 256" style="enable-background:new 0 0 256 256;" xml:space="preserve">
<style type="text/css">
	.st0{fill:#33B0DF;}
	.st1{fill-rule:evenodd;clip-rule:evenodd;}
</style>
<path id="path_0" class="st0" d="M75.2,92.8v90.6l-1.5,0.7c-3.8,1.7-6.7,4.8-8.1,8.7c-1.5,3.9-1.3,8.1,0.4,11.9
	c1.7,3.8,4.8,6.7,8.7,8.1c3.9,1.5,8.1,1.3,11.9-0.4c7.8-3.6,11.2-12.8,7.7-20.7c-1.6-3.4-4.3-6.1-7.7-7.7l-1.5-0.7V92.8
	c0-2.8-2.3-5-5-5C77.4,87.8,75.1,90.1,75.2,92.8L75.2,92.8z"/>
<path id="path_1" d="M80.2,17.5c-14.4,0-26.1,11.7-26.1,26.1v124.1l-0.8,0.7c-8.5,7.6-13.3,18.4-13.2,29.8
	c0.1,8.7,2.9,16.9,8.1,23.8l0.2,0.3c7.6,10,19.2,15.8,31.8,15.8c12.7,0,24.4-5.9,32-16.1c5.2-6.9,8-15.2,8.1-23.8
	c0.1-11.4-4.7-22.2-13.2-29.8l-0.8-0.7V43.6C106.3,29.2,94.6,17.5,80.2,17.5z M85,28.5c6.4,2,11.1,7.9,11.2,15v126.6
	c0,1.6,0.8,3.1,2,4c13.3,10,16,28.9,6,42.2c-5.7,7.5-14.7,12.1-24.1,12.1c-16.6,0-30.1-13.5-30.1-30.1c0-9.4,4.5-18.4,12-24.1
	c1.2-0.9,2-2.4,2-4V43.6c0.1-7.1,4.9-13.1,11.3-15.1C75.4,28.5,80,27.1,85,28.5L85,28.5z"/>
<path id="path_2" class="st1" d="M202.5,39h-9v10h17c1.7,0,3,1.3,3,3s-1.3,3-3,3h-20h-36c-7.2,0-13,5.8-13,13v8h12v-6
	c0-1.7,1.3-3,3-3h54c1.7,0,3,1.3,3,3s-1.3,3-3,3h-51v6c0,1.7-1.3,3-3,3h-18c-1.7,0-3-1.3-3-3V68c0-10.5,8.5-19,19-19h33V39h-9
	c-1.7,0-3-1.3-3-3s1.3-3,3-3h12h12c1.7,0,3,1.3,3,3S204.2,39,202.5,39z M146.5,85c-0.9,0-1.7,0.3-2.4,0.8l-8.5,14.1
	c0,6.1,4.9,11.1,11,11.1c6.1,0,11-5,11-11.1v0l-3,0h3l0,0c0-3.7-1.9-6.9-3.6-9.2c-1.8-2.3-3.9-4.1-4.9-4.9
	C148.2,85.3,147.4,85,146.5,85z M149.1,94.4c-0.9-1.1-1.8-2.1-2.7-2.8c-0.8,0.7-1.8,1.7-2.6,2.8c-1.4,1.8-2.3,3.7-2.3,5.5v0
	c0,2.8,2.3,5.1,5,5.1c2.7,0,5-2.3,5-5.1v0C151.5,98.2,150.6,96.3,149.1,94.4z"/>
</svg>
