<?xml version="1.0" encoding="utf-8"?>
<!-- Generator: Adobe Illustrator 28.2.0, SVG Export Plug-In . SVG Version: 6.00 Build 0)  -->
<svg version="1.1" id="vector" xmlns="http://www.w3.org/2000/svg" xmlns:xlink="http://www.w3.org/1999/xlink" x="0px" y="0px"
	 viewBox="0 0 512 512" style="enable-background:new 0 0 512 512;" xml:space="preserve">
<style type="text/css">
	.st0{fill:#33B0DF;}
</style>
<path id="path_0" d="M385,149.5c-42.7,0-88.7-27.1-133.1-53.4C209.8,71.2,166.3,45.5,129,45.5c-30.7,0-57.5,7.3-79.6,21.8
	C32.9,78,25.4,89,25.3,89.1c-1.5,2.1-3.8,3.4-6.3,3.9c-2.5,0.4-5.1-0.1-7.2-1.5s-3.6-3.6-4.2-6.1C7,82.8,7.4,80.2,8.7,78
	c1.4-2.2,35.9-52.5,120.3-52.5c42.7,0,88.7,27.1,133.1,53.4c42.1,24.9,85.6,50.6,122.9,50.6c30.7,0,57.5-7.3,79.6-21.8
	c16.5-10.8,24-21.8,24.1-21.8c1.5-2.2,3.8-3.7,6.4-4.2c2.6-0.5,5.3,0,7.5,1.5c2.2,1.5,3.7,3.8,4.2,6.3c0.5,2.6,0,5.3-1.5,7.5
	C503.9,99.2,469.4,149.5,385,149.5z"/>
<path id="path_1" class="st0" d="M385,261.8c-42.7,0-88.7-27.1-133.1-53.4c-42.1-24.9-85.6-50.6-122.9-50.6
	c-30.7,0-57.5,7.3-79.6,21.8c-16.5,10.8-24,21.7-24.1,21.8c-1.5,2.1-3.8,3.6-6.4,4.1c-2.6,0.5-5.2-0.1-7.4-1.5
	c-2.2-1.5-3.7-3.7-4.2-6.2c-0.5-2.6,0-5.2,1.4-7.4c1.4-2.1,35.9-52.5,120.3-52.5c42.7,0,88.7,27.1,133.1,53.4
	c42.1,24.9,85.6,50.6,122.9,50.6c30.7,0,57.5-7.3,79.6-21.8c16.5-10.8,24-21.7,24.1-21.8c0.7-1.1,1.6-2.1,2.7-2.9
	c1.1-0.8,2.3-1.3,3.6-1.6c1.3-0.3,2.6-0.3,4,0c1.3,0.2,2.6,0.8,3.7,1.5c1.1,0.7,2,1.7,2.8,2.8c0.7,1.1,1.2,2.4,1.5,3.7
	c0.2,1.3,0.2,2.7-0.1,4c-0.3,1.3-0.8,2.5-1.6,3.6C503.9,211.5,469.4,261.8,385,261.8z"/>
<path id="path_2" d="M385,374.2c-42.7,0-88.7-27.2-133.1-53.4c-42.1-24.9-85.6-50.6-122.9-50.6c-30.7,0-57.5,7.3-79.6,21.8
	c-16.5,10.8-24,21.7-24.1,21.8c-0.7,1.1-1.7,2.1-2.7,2.9c-1.1,0.8-2.3,1.3-3.6,1.6c-1.3,0.3-2.6,0.3-4,0s-2.6-0.8-3.7-1.5
	c-1.1-0.7-2.1-1.7-2.8-2.8c-0.7-1.1-1.2-2.4-1.5-3.7c-0.2-1.3-0.2-2.7,0.1-4c0.3-1.3,0.8-2.5,1.6-3.6c1.4-2.1,35.9-52.4,120.3-52.4
	c42.7,0,88.7,27.1,133.1,53.4c42.1,24.9,85.6,50.6,122.9,50.6c30.7,0,57.5-7.3,79.6-21.8c16.5-10.8,24-21.7,24.1-21.8
	c1.5-2.1,3.8-3.6,6.4-4.1c2.6-0.5,5.2,0.1,7.4,1.5c2.2,1.4,3.7,3.7,4.2,6.2c0.5,2.5,0,5.2-1.4,7.4
	C503.9,323.9,469.4,374.2,385,374.2z"/>
<path id="path_3" d="M385,486.5c-42.7,0-88.7-27.1-133.1-53.4c-42.1-24.9-85.6-50.6-122.9-50.6c-30.7,0-57.5,7.3-79.6,21.8
	c-16.5,10.8-24,21.8-24.1,21.8c-1.5,2.1-3.8,3.4-6.3,3.9c-2.5,0.4-5.1-0.1-7.2-1.5c-2.1-1.4-3.6-3.6-4.2-6.1
	c-0.6-2.5-0.2-5.1,1.2-7.3c1.4-2.2,35.9-52.5,120.3-52.5c42.7,0,88.7,27.1,133.1,53.4c42.1,24.9,85.6,50.6,122.9,50.6
	c30.7,0,57.5-7.3,79.6-21.8c16.5-10.8,24-21.7,24.1-21.8c1.5-2.2,3.8-3.7,6.4-4.2c2.6-0.5,5.3,0,7.5,1.5c2.2,1.5,3.7,3.8,4.2,6.4
	c0.5,2.6,0,5.3-1.5,7.5C503.9,436.2,469.4,486.5,385,486.5z"/>
</svg>
