<?xml version="1.0" encoding="utf-8"?>
<!-- Generator: Adobe Illustrator 28.2.0, SVG Export Plug-In . SVG Version: 6.00 Build 0)  -->
<svg version="1.1" id="vector" xmlns="http://www.w3.org/2000/svg" xmlns:xlink="http://www.w3.org/1999/xlink" x="0px" y="0px"
	 viewBox="0 0 512 512" style="enable-background:new 0 0 512 512;" xml:space="preserve">
<style type="text/css">
	.st0{fill:#33B0DF;}
</style>
<path id="path_0" class="st0" d="M372.4,511c-2.7,0-5.2-1-7.1-2.9c-1.9-1.9-2.9-4.4-2.9-7.1v-72H86c-2.7,0-5.2-1-7.1-2.9
	c-1.9-1.9-2.9-4.4-2.9-7.1v-95c0-2.6,1.1-5.2,2.9-7.1c1.9-1.9,4.4-2.9,7.1-2.9h276.4v-73c0-2,0.6-3.9,1.7-5.6
	c1.1-1.6,2.7-2.9,4.5-3.7c1.8-0.8,3.8-0.9,5.8-0.6c1.9,0.4,3.7,1.3,5.1,2.7L509.1,364c1.9,1.9,2.9,4.4,2.9,7.1s-1,5.2-2.9,7.1
	l-129.6,130C377.6,510,375.1,511,372.4,511z M96,409h276.4c2.6,0,5.2,1,7.1,2.9c1.9,1.9,2.9,4.4,2.9,7.1v57.8L487.9,371L382.4,265.2
	V324c0,2.6-1.1,5.2-2.9,7.1c-1.9,1.9-4.4,2.9-7.1,2.9H96V409z"/>
<path id="path_1" d="M139.6,281c-1.3,0-2.6-0.3-3.8-0.8c-1.2-0.5-2.3-1.2-3.2-2.2L2.9,148C1,146.1,0,143.6,0,140.9
	c0-2.7,1-5.2,2.9-7.1l129.6-130c1.4-1.4,3.2-2.4,5.1-2.8c1.9-0.4,4-0.2,5.8,0.6s3.4,2,4.5,3.7c1.1,1.7,1.7,3.6,1.7,5.6v72H426
	c2.6,0,5.2,1.1,7.1,2.9c1.9,1.9,2.9,4.4,2.9,7.1v95c0,2.6-1,5.2-2.9,7.1c-1.9,1.9-4.4,2.9-7.1,2.9H149.6v73c0,2.6-1.1,5.2-2.9,7.1
	C144.8,280,142.2,281,139.6,281z M24.1,141l105.5,105.8V188c0-2.6,1.1-5.2,2.9-7.1c1.9-1.9,4.4-2.9,7.1-2.9H416v-75H139.6
	c-2.7,0-5.2-1.1-7.1-2.9c-1.9-1.9-2.9-4.4-2.9-7.1V35.2L24.1,141z"/>
</svg>
