<?xml version="1.0" encoding="utf-8"?>
<!-- Generator: Adobe Illustrator 28.2.0, SVG Export Plug-In . SVG Version: 6.00 Build 0)  -->
<svg version="1.1" id="vector" xmlns="http://www.w3.org/2000/svg" xmlns:xlink="http://www.w3.org/1999/xlink" x="0px" y="0px"
	 viewBox="0 0 512 512" style="enable-background:new 0 0 512 512;" xml:space="preserve">
<style type="text/css">
	.st0{fill:#33B0DF;}
</style>
<path id="path_0" d="M233.8,356.7H12.2c-1.4,0-2.7,0.2-4,0.7c-1.3,0.5-2.4,1.2-3.4,2.2c-1,1-1.8,2.1-2.3,3.3c-0.5,1.2-0.8,2.6-0.8,4
	c0,1.4,0.3,2.7,0.8,4s1.3,2.4,2.3,3.3c1,0.9,2.1,1.7,3.4,2.2c1.3,0.5,2.6,0.7,4,0.7h221.7c14.9,0,29.3,6,39.8,16.5
	s16.5,24.9,16.5,39.8c-0.1,36.6-29.1,55.7-57.5,55.7c-25,0-46.9-14.4-55.6-36.6l-0.1-0.4c-0.7-2-2-3.7-3.7-4.9
	c-1.7-1.2-3.8-1.9-5.9-1.9c-1.2,0-2.3,0.2-3.4,0.6c-2.5,0.9-4.6,2.7-5.8,5.1s-1.3,5.2-0.5,7.7c6.3,16.3,16.5,29.1,30.5,38
	c13.2,8.2,28.4,12.6,43.9,12.4c20.1,0,39.8-7.1,53.9-19.6c15.7-13.8,24.1-33.3,24.4-56.4c0-20.3-8.1-39.8-22.5-54.1
	C273.6,364.8,254.1,356.7,233.8,356.7z M493.4,274.9c-10.8-13.5-25.7-23.1-42.5-27.1l-18.4-4.3l11.8-14.8
	c8.1-10.2,14.1-21.8,17.6-34.3c3.6-12.5,4.6-25.5,3.2-38.4c-1.5-12.9-5.5-25.4-11.8-36.7c-6.3-11.3-14.8-21.3-24.9-29.4
	S406.5,75.8,394,72.2c-12.5-3.6-25.5-4.7-38.4-3.2c-12.9,1.5-25.4,5.5-36.7,11.8c-11.4,6.3-21.4,14.8-29.4,24.9
	C275.6,123.3,268,145,268,167.3c0,1.4,0.2,2.7,0.7,4c0.5,1.3,1.2,2.4,2.2,3.4c1,1,2.1,1.8,3.3,2.3s2.6,0.8,4,0.8
	c1.4,0,2.7-0.3,4-0.8c1.3-0.5,2.4-1.3,3.3-2.3c1-1,1.7-2.1,2.2-3.4c0.5-1.3,0.7-2.6,0.7-4c0-15.5,4.6-30.7,13.2-43.6
	s20.9-23,35.2-28.9c14.3-5.9,30.1-7.5,45.4-4.5c15.2,3,29.2,10.5,40.2,21.5s18.5,25,21.5,40.2c3,15.2,1.5,31-4.5,45.3
	c-5.9,14.3-16,26.6-28.9,35.2c-12.9,8.6-28.1,13.2-43.6,13.2h-133c-2.6,0.1-5.2,1.2-7,3.1c-1.8,1.9-2.9,4.4-2.9,7.1
	c0,2.7,1,5.2,2.9,7.1c1.8,1.9,4.3,3,7,3.1h199.5c14.9,0,29.3,6,39.8,16.5s16.5,24.9,16.5,39.8c-0.1,36.6-29.1,55.8-57.5,55.8
	c-25.1,0-46.9-14.4-55.6-36.6l-0.1-0.2l-0.1-0.2c-0.9-2.5-2.7-4.6-5.2-5.8c-2.4-1.2-5.2-1.3-7.8-0.5c-2.6,0.9-4.6,2.7-5.8,5.2
	s-1.3,5.2-0.5,7.8c6.3,16.3,16.5,29.1,30.5,38c13.2,8.2,28.4,12.6,43.9,12.4c20.1,0,39.8-7.1,53.9-19.6
	c15.7-13.8,24.1-33.3,24.4-56.4C509.9,305.2,504.1,288.5,493.4,274.9z M145.2,245.8h-133c-1.4,0-2.7,0.2-4,0.7
	c-1.3,0.5-2.4,1.2-3.4,2.2c-1,0.9-1.8,2.1-2.3,3.3s-0.8,2.6-0.8,4c0,1.4,0.3,2.7,0.8,4c0.5,1.3,1.3,2.4,2.3,3.3c1,1,2.1,1.7,3.4,2.2
	c1.3,0.5,2.6,0.7,4,0.7h133c2.6-0.1,5.2-1.2,7-3.1c1.8-1.9,2.9-4.4,2.9-7.1c0-2.7-1-5.2-2.9-7.1C150.3,247,147.8,245.9,145.2,245.8z
	"/>
<path id="path_1" class="st0" d="M197.4,25.6C183.3,13.1,163.6,6,143.5,6c-15.5-0.1-30.8,4.2-43.9,12.4c-14,8.9-24.2,21.7-30.5,38
	c-0.4,1.3-0.6,2.6-0.5,3.9c0.1,1.3,0.4,2.6,1,3.8c1.2,2.4,3.3,4.3,5.8,5.2c2.6,0.9,5.3,0.7,7.8-0.5c2.4-1.2,4.3-3.3,5.2-5.8l0.1-0.2
	l0.1-0.2c8.7-22.2,30.5-36.6,55.6-36.6c28.5,0,57.4,19.1,57.5,55.7c0,14.9-5.9,29.3-16.5,39.8c-10.6,10.6-24.9,16.5-39.8,16.5h-133
	c-2.7,0-5.3,1.1-7.2,3c-1.9,1.9-3,4.5-3,7.2c0,2.7,1.1,5.3,3,7.2s4.5,3,7.2,3h133c20.3,0,39.8-8.1,54.1-22.5
	c14.4-14.4,22.5-33.8,22.5-54.1C221.6,58.9,213.1,39.4,197.4,25.6z"/>
</svg>
