<?xml version="1.0" encoding="utf-8"?>
<!-- Generator: Adobe Illustrator 28.2.0, SVG Export Plug-In . SVG Version: 6.00 Build 0)  -->
<svg version="1.1" id="vector" xmlns="http://www.w3.org/2000/svg" xmlns:xlink="http://www.w3.org/1999/xlink" x="0px" y="0px"
	 viewBox="0 0 512 512" style="enable-background:new 0 0 512 512;" xml:space="preserve">
<style type="text/css">
	.st0{fill:#33B0DF;}
</style>
<path id="path_0" class="st0" d="M455,55.9l-3,44.2c-0.2,2.5-1.3,4.9-3.2,6.6c-1.9,1.7-4.3,2.7-6.8,2.7c-0.2,0-0.5,0-0.7,0l-44.2-3
	c-1.3-0.1-2.6-0.4-3.8-1c-1.2-0.6-2.2-1.4-3.1-2.4c-0.9-1-1.5-2.2-1.9-3.4c-0.4-1.2-0.6-2.6-0.5-3.9c0.1-1.3,0.4-2.6,1-3.8
	c0.6-1.2,1.4-2.2,2.4-3.1c1-0.9,2.1-1.5,3.4-1.9s2.6-0.6,3.9-0.5l18.2,1.2C388.2,62,353.5,44.3,316.1,36.4c-2.6-0.6-4.8-2.1-6.2-4.3
	c-1.4-2.2-1.9-4.9-1.4-7.5c0.6-2.6,2.1-4.8,4.3-6.3c2.2-1.4,4.9-2,7.5-1.5c42.5,9,81.7,29.5,113.3,59.2l1.5-21.5
	c0.2-2.7,1.4-5.1,3.4-6.9c1-0.9,2.1-1.5,3.4-2c1.2-0.4,2.6-0.6,3.9-0.5c1.3,0.1,2.6,0.4,3.8,1c1.2,0.6,2.2,1.4,3.1,2.4
	c0.9,1,1.5,2.1,2,3.4S455.1,54.6,455,55.9L455,55.9z"/>
<path id="path_1" class="st0" d="M81.8,218.9c-1.4,0.7-2.9,1-4.4,1c-1.9,0-3.7-0.5-5.3-1.5c-1.6-1-2.9-2.4-3.7-4.1l-8-16.4
	c-8,37.4-5.9,76.3,5.9,112.7c0.5,1.3,0.7,2.6,0.6,3.9s-0.4,2.6-1,3.9c-0.6,1.2-1.4,2.3-2.4,3.2s-2.2,1.6-3.5,2
	c-1.3,0.4-2.6,0.6-4,0.5c-1.3-0.1-2.6-0.5-3.8-1.1c-1.2-0.6-2.2-1.5-3.1-2.5c-0.9-1-1.5-2.2-1.9-3.5c-13.4-41.3-15.3-85.4-5.5-127.7
	l-19.3,9.5c-1.2,0.6-2.5,0.9-3.8,1c-1.3,0.1-2.6-0.1-3.9-0.5c-1.2-0.4-2.4-1.1-3.4-2c-1-0.9-1.8-1.9-2.4-3.1c-0.6-1.2-0.9-2.5-1-3.8
	c-0.1-1.3,0.1-2.6,0.5-3.9c0.4-1.2,1.1-2.4,2-3.4c0.9-1,1.9-1.8,3.1-2.4l39.8-19.4c1.2-0.6,2.5-0.9,3.8-1s2.6,0.1,3.9,0.5
	c1.2,0.4,2.4,1.1,3.4,2c1,0.9,1.8,1.9,2.4,3.1l19.5,39.8c1.2,2.4,1.3,5.1,0.5,7.6C86,215.7,84.1,217.8,81.8,218.9z"/>
<path id="path_2" class="st0" d="M447.5,401c-29,32.3-66.3,56-107.9,68.6l17.9,12c1.1,0.7,2.1,1.6,2.9,2.8s1.3,2.3,1.6,3.6
	c0.3,1.3,0.3,2.6,0,4c-0.3,1.3-0.8,2.5-1.5,3.7c-0.8,1.1-1.7,2-2.8,2.8c-1.1,0.7-2.4,1.2-3.7,1.5c-1.3,0.2-2.7,0.2-4-0.1
	c-1.3-0.3-2.5-0.8-3.6-1.6l-36.8-24.7c-2.2-1.5-3.7-3.8-4.2-6.4c-0.5-2.6,0-5.3,1.5-7.5l24.7-36.8c1.5-2.2,3.8-3.7,6.4-4.2
	c2.6-0.5,5.3,0,7.5,1.5c2.2,1.5,3.7,3.8,4.2,6.4c0.5,2.6,0,5.3-1.5,7.5l-10.2,15.2c36.4-11.8,69.1-33,94.7-61.5
	c0.9-1,1.9-1.9,3.1-2.5c1.2-0.6,2.5-1,3.9-1.1c1.4-0.1,2.7,0.1,4,0.5c1.3,0.4,2.4,1.1,3.4,2s1.8,2,2.4,3.2s0.9,2.5,0.9,3.9
	c0,1.3-0.2,2.7-0.7,3.9C449.2,398.9,448.4,400,447.5,401z"/>
<path id="path_3" d="M462.9,168.8c-14.1-16.6-39.6-36.5-80.7-36.5c-56.6,0-86.6,34.5-97.2,49.8c-2.1-0.5-4.2-0.9-6.4-1.2
	c-0.6-30.3,12.4-49,23.1-64.3c11.3-16.3,13.6-33,6.8-49.7c-7.6-18.5-29.2-29.8-60.8-31.7c-24.2-1.5-52.5,2.8-72,10.8
	c-21.2,8.7-40.7,27.2-52.3,49.6c-10,19.4-18.7,50.5-3.1,88.5c27,65.8,88.6,72.1,91.2,72.4c0.3,0,0.6,0,0.9,0h0.3
	c0.5,2.1,1.2,4.2,2,6.2c-25.8,21.2-50,21.6-69.7,21.9c-19.9,0.3-34.8,8.2-44.3,23.5c-23.9,38.2,27.5,99.4,60.6,120.1
	c15.3,9.6,34.9,14.7,54.8,14.7c5.4,0,10.8-0.4,16.1-1.2c21.6-3.2,51.9-14.2,73.7-49.1c30.7-49.1,16-93.8,8.8-109.9
	c1.5-1.6,2.9-3.2,4.2-4.9c32.8,10.4,46.2,31.2,57.1,48c10.8,16.8,25.4,25.1,43.4,25.1c45.1,0,69.7-76,69.7-115
	C489,213.1,479.3,188,462.9,168.8z M311.5,240.9c0,8-2.4,15.8-6.8,22.5c-4.4,6.7-10.8,11.8-18.1,14.9c-7.4,3.1-15.5,3.9-23.4,2.3
	c-7.8-1.6-15.1-5.4-20.7-11.1c-5.7-5.6-9.5-12.9-11.1-20.7c-1.6-7.8-0.8-16,2.3-23.4c3.1-7.4,8.2-13.7,14.9-18.2s14.5-6.8,22.5-6.8
	c10.7,0,21,4.3,28.6,11.9S311.5,230.2,311.5,240.9z M210.8,236.3c-9.3-1.7-18.3-4.8-26.6-9.2c-20.8-10.8-36-27.7-45.3-50.5
	c-12.7-31-5.7-56.1,2.4-71.8c11.1-21.6,29.1-35,42.1-40.3c16.7-6.9,42.1-10.6,63.2-9.4c23.2,1.4,39.1,8.4,43.5,19.3
	c2.6,6.5,5,16.7-4.7,30.7c-11.1,16-27.4,39.4-26.6,76.5c-12.8,2.7-24.4,9.5-33.1,19.3C217,210.9,211.8,223.2,210.8,236.3z
	 M303.4,315.9c3.4,23.1-1.5,45.4-14.5,66.3c-17.7,28.4-42.2,37.4-59.7,39.9c-24,3.5-45.4-3.2-57.3-10.7c-15.3-9.6-33.2-28-44.5-45.9
	c-12.4-19.7-16-36.6-9.7-46.6c3.7-5.9,10.6-13.8,27.7-14.1c19.9-0.3,49.4-0.8,79.7-24.6c8.8,10.3,20.7,17.3,33.9,20
	c13.2,2.7,27,0.9,39-5.1C300.6,301.7,302.4,308.7,303.4,315.9z M419.3,331c-7,0-17.3-1.7-26.6-16c-10.9-16.9-27.2-42-64.3-55
	c4.2-12.7,4.1-26.4-0.3-39.1c-4.4-12.6-12.9-23.4-24.2-30.7c4.3-5.5,9.1-10.6,14.4-15.1c17.8-15.1,39.3-22.8,63.9-22.8
	c33.5,0,54.1,16,65.5,29.4c15.7,18.5,21.3,40.2,21.3,54.3c0,18.1-6.2,43-15.4,62.1C443.5,319,431,331,419.3,331z"/>
<path id="path_4" d="M271,263.6c12.5,0,22.7-10.1,22.7-22.6c0-12.5-10.1-22.6-22.7-22.6c-12.5,0-22.6,10.1-22.6,22.6
	C248.4,253.4,258.5,263.6,271,263.6z"/>
</svg>
