<?xml version="1.0" encoding="utf-8"?>
<!-- Generator: Adobe Illustrator 28.2.0, SVG Export Plug-In . SVG Version: 6.00 Build 0)  -->
<svg version="1.1" id="vector" xmlns="http://www.w3.org/2000/svg" xmlns:xlink="http://www.w3.org/1999/xlink" x="0px" y="0px"
	 viewBox="0 0 512 512" style="enable-background:new 0 0 512 512;" xml:space="preserve">
<style type="text/css">
	.st0{fill:#33B0DF;}
</style>
<path id="path_0" d="M428,25.1c-0.1-0.2-0.2-0.4-0.2-0.6l0.1,0.3C427.9,24.9,428,25,428,25.1z"/>
<path id="path_1" d="M428.6,29.1c0.1-1.4-0.2-2.8-0.7-4.1C428.5,26.4,428.7,27.7,428.6,29.1z"/>
<path id="path_2" d="M309,249.5l-16,12.2c5.2,5.3,9.1,11.7,11.6,18.6c2.5,7,3.4,14.4,2.8,21.8c-0.6,7.4-2.9,14.5-6.5,21
	s-8.7,12-14.7,16.3c-6,4.3-12.9,7.3-20.1,8.7c-7.3,1.4-14.8,1.3-22-0.5c-7.2-1.7-13.9-5-19.8-9.5c-5.8-4.6-10.6-10.3-14-16.9
	c-0.8,0.1-1.5,0.1-2.3,0.1c-2.8,0-5.6-0.6-8.2-1.8c-2.6-1.1-4.9-2.8-6.8-4.9l-8.1-9.1c1.3,11.2,5.2,21.9,11.4,31.3
	c6.2,9.4,14.6,17.2,24.4,22.7c9.8,5.5,20.8,8.7,32,9.2c11.2,0.5,22.4-1.6,32.7-6.3c10.3-4.6,19.3-11.6,26.3-20.4
	c7-8.8,11.9-19.1,14.2-30.1c2.3-11,1.9-22.4-1-33.3C322,267.8,316.5,257.8,309,249.5L309,249.5z M309,249.5l-16,12.2
	c5.2,5.3,9.1,11.7,11.6,18.6c2.5,7,3.4,14.4,2.8,21.8c-0.6,7.4-2.9,14.5-6.5,21s-8.7,12-14.7,16.3c-6,4.3-12.9,7.3-20.1,8.7
	c-7.3,1.4-14.8,1.3-22-0.5c-7.2-1.7-13.9-5-19.8-9.5c-5.8-4.6-10.6-10.3-14-16.9c-0.8,0.1-1.5,0.1-2.3,0.1c-2.8,0-5.6-0.6-8.2-1.8
	c-2.6-1.1-4.9-2.8-6.8-4.9l-8.1-9.1c1.3,11.2,5.2,21.9,11.4,31.3c6.2,9.4,14.6,17.2,24.4,22.7c9.8,5.5,20.8,8.7,32,9.2
	c11.2,0.5,22.4-1.6,32.7-6.3c10.3-4.6,19.3-11.6,26.3-20.4c7-8.8,11.9-19.1,14.2-30.1c2.3-11,1.9-22.4-1-33.3
	C322,267.8,316.5,257.8,309,249.5L309,249.5z M452.3,254.4l-17.4-2.9l-17.4,17.4l30.6,5v46.4l-57.1,10.1l-1.7,6
	c-2.8,9.7-6.7,19.1-11.5,28l-3,5.5l33.8,47.1l-32.7,32.8l-47.4-33.3l-5.5,3.1c-8.9,5-18.3,8.9-28.1,11.8l-5.9,1.7l-10.1,57h-46.2
	l-9.4-56.8l-6-1.8c-9.8-2.8-19.3-6.8-28.2-11.7l-5.5-3l-47,33L103.6,417l33.3-46.7l-3-5.5c-5-9-8.9-18.5-11.8-28.4l-1.7-6l-35.5-6.3
	l-22.3,16.3l42.1,7.5c2.4,7.2,5.3,14.1,8.7,20.9l-26.6,37.4c-2.6,3.6-3.8,8-3.4,12.5c0.4,4.4,2.3,8.6,5.4,11.7l34.1,34.3
	c3.1,3.1,7.3,5.1,11.7,5.4c4.4,0.4,8.8-0.8,12.4-3.3l37.8-26.5c6.7,3.3,13.6,6.2,20.6,8.6l7.6,45.5c0.7,4.4,3,8.4,6.4,11.3
	c3.4,2.9,7.7,4.5,12.2,4.4h48.3c4.4,0,8.7-1.5,12.1-4.4c3.4-2.8,5.6-6.8,6.4-11.1l8.1-45.9c7.1-2.4,14-5.2,20.6-8.6l38,26.8
	c3.6,2.6,8,3.8,12.4,3.4c4.4-0.4,8.6-2.3,11.7-5.5l34.2-34.3c3.1-3.1,5.1-7.3,5.4-11.8c0.4-4.5-0.9-8.9-3.5-12.5l-27.1-37.8
	c3.3-6.6,6.1-13.4,8.4-20.4l46-8.1c4.4-0.8,8.3-3.1,11.1-6.5c2.8-3.4,4.4-7.7,4.4-12.1v-48.4c0-4.5-1.5-8.8-4.4-12.2
	C460.7,257.3,456.7,255.1,452.3,254.4L452.3,254.4z M309,249.5l-16,12.2c5.2,5.3,9.1,11.7,11.6,18.6c2.5,7,3.4,14.4,2.8,21.8
	c-0.6,7.4-2.9,14.5-6.5,21s-8.7,12-14.7,16.3c-6,4.3-12.9,7.3-20.1,8.7c-7.3,1.4-14.8,1.3-22-0.5c-7.2-1.7-13.9-5-19.8-9.5
	c-5.8-4.6-10.6-10.3-14-16.9c-0.8,0.1-1.5,0.1-2.3,0.1c-2.8,0-5.6-0.6-8.2-1.8c-2.6-1.1-4.9-2.8-6.8-4.9l-8.1-9.1
	c1.3,11.2,5.2,21.9,11.4,31.3c6.2,9.4,14.6,17.2,24.4,22.7c9.8,5.5,20.8,8.7,32,9.2c11.2,0.5,22.4-1.6,32.7-6.3
	c10.3-4.6,19.3-11.6,26.3-20.4c7-8.8,11.9-19.1,14.2-30.1c2.3-11,1.9-22.4-1-33.3C322,267.8,316.5,257.8,309,249.5L309,249.5z
	 M309,249.5l-16,12.2c5.2,5.3,9.1,11.7,11.6,18.6c2.5,7,3.4,14.4,2.8,21.8c-0.6,7.4-2.9,14.5-6.5,21s-8.7,12-14.7,16.3
	c-6,4.3-12.9,7.3-20.1,8.7c-7.3,1.4-14.8,1.3-22-0.5c-7.2-1.7-13.9-5-19.8-9.5c-5.8-4.6-10.6-10.3-14-16.9c-0.8,0.1-1.5,0.1-2.3,0.1
	c-2.8,0-5.6-0.6-8.2-1.8c-2.6-1.1-4.9-2.8-6.8-4.9l-8.1-9.1c1.3,11.2,5.2,21.9,11.4,31.3c6.2,9.4,14.6,17.2,24.4,22.7
	c9.8,5.5,20.8,8.7,32,9.2c11.2,0.5,22.4-1.6,32.7-6.3c10.3-4.6,19.3-11.6,26.3-20.4c7-8.8,11.9-19.1,14.2-30.1
	c2.3-11,1.9-22.4-1-33.3C322,267.8,316.5,257.8,309,249.5L309,249.5z"/>
<path id="path_3" d="M450,25.1c-0.1-0.2-0.2-0.4-0.2-0.6l0.1,0.3C449.9,24.9,450,25,450,25.1z"/>
<path id="path_4" d="M450.6,29.1c0.1-1.4-0.2-2.8-0.7-4.1C450.5,26.4,450.7,27.7,450.6,29.1z"/>
<path id="path_5" d="M312,50.1c-0.1-0.2-0.2-0.4-0.2-0.6l0.1,0.3C311.9,49.9,312,50,312,50.1z"/>
<path id="path_6" d="M312.6,54.1c0.1-1.4-0.2-2.8-0.7-4.1C312.5,51.3,312.7,52.7,312.6,54.1z"/>
<path id="path_7" d="M150,103H90c-5.3,0-10.4,2.1-14.1,5.9S70,117.7,70,123v162.3l20-14.7V123h60v104c3.2-1.4,6.8-1.9,10.3-1.5
	c3.5,0.4,6.8,1.8,9.7,3.9V123c0-5.3-2.1-10.4-5.9-14.1S155.3,103,150,103z"/>
<path id="path_8" d="M284.5,53h-60c-5.3,0-10.4,2.1-14.1,5.9s-5.9,8.8-5.9,14.1v194.4l6.1,6.8l13.9-10.6V73h60v144.8l20-15.2V73
	c0-5.3-2.1-10.4-5.9-14.1S289.8,53,284.5,53z"/>
<path id="path_9" d="M422,173.5v34.3l20-20v-7.1h-4.7c-2.9,0-5.8-0.6-8.5-1.9C426.2,177.5,423.9,175.7,422,173.5z M422,3h-60
	c-5.3,0-10.4,2.1-14.1,5.9S342,17.7,342,23v163.3c2.5,1,4.8,2.5,6.6,4.4l13.4,13.4V23h60v124.8c1.9-2.2,4.2-4,6.9-5.3
	c2.7-1.2,5.5-1.9,8.5-1.9h4.7V23c0-5.3-2.1-10.4-5.9-14.1S427.3,3,422,3z"/>
<path id="path_10" class="st0" d="M507,160.6v59.7c0,2.6-1,5.2-2.9,7.1c-1.9,1.9-4.4,2.9-7.1,2.9s-5.2-1.1-7.1-2.9
	c-1.9-1.9-2.9-4.4-2.9-7.1v-35.1l-81.7,81.7l-4.3,4.4c-1.9,1.9-4.4,2.9-7.1,2.9s-5.2-1.1-7.1-2.9L362,246.5l-20-20l-8.4-8.4
	l-29.1,22.2l-2.8,2.1L285.2,255l-0.7,0.6L235.4,293l-21.4,16.3c-1.5,1.1-3.3,1.8-5.1,2c-0.9,0.1-1.7,0-2.6-0.1
	c-2.2-0.4-4.3-1.5-5.8-3.2l-15.7-17.5L170,273.8l-13.4-15l-6.6,4.9L110.2,293L83,313l-11.7,8.6l-19.9,14.6l-31.4,23.1
	c-2.1,1.6-4.8,2.2-7.4,1.8c-2.6-0.4-5-1.8-6.6-4c-1.6-2.1-2.2-4.8-1.8-7.4c0.4-2.6,1.8-5,4-6.5L44,316.9l20-14.7l6-4.4L90,283
	l23.6-17.3l8.3-6.1l28.2-20.7l2.1-1.5c2-1.5,4.5-2.1,7-1.9c2.5,0.3,4.8,1.4,6.4,3.3l4.5,5.1l21.1,23.7l13.4,15l1.7,1.9l3.1,3.5
	l15.2-11.6l39-29.8l19.8-15.1l1.2-0.9l20-15.3l23.9-18.2c1.9-1.5,4.3-2.2,6.7-2c2.4,0.2,4.7,1.2,6.4,2.9l39.5,39.4l12.9,12.9
	l48.1-48.2l31.3-31.3h-36c-2.6,0-5.2-1.1-7.1-2.9c-1.9-1.9-2.9-4.4-2.9-7.1s1-5.2,2.9-7.1c1.9-1.9,4.4-2.9,7.1-2.9H497
	c2.6,0,5.2,1.1,7.1,2.9C506,155.4,507,158,507,160.6z"/>
</svg>
