<?xml version="1.0" encoding="utf-8"?>
<!-- Generator: Adobe Illustrator 28.2.0, SVG Export Plug-In . SVG Version: 6.00 Build 0)  -->
<svg version="1.1" id="vector" xmlns="http://www.w3.org/2000/svg" xmlns:xlink="http://www.w3.org/1999/xlink" x="0px" y="0px"
	 viewBox="0 0 512 512" style="enable-background:new 0 0 512 512;" xml:space="preserve">
<style type="text/css">
	.st0{clip-path:url(#SVGID_00000142862599658044558510000010164208472987322299_);}
	.st1{fill:#33B0DF;}
</style>
<g id="g_0">
	<g>
		<defs>
			<rect id="SVGID_1_" y="0" width="512" height="512"/>
		</defs>
		<clipPath id="SVGID_00000091007770837965171340000015442092673044245925_">
			<use xlink:href="#SVGID_1_"  style="overflow:visible;"/>
		</clipPath>
		<path style="clip-path:url(#SVGID_00000091007770837965171340000015442092673044245925_);" d="M256,512
			c-40.6,0.1-80.6-9.5-116.7-28.1C104.5,466,74.2,440.4,50.7,409c-0.8-1-1.4-2.2-1.7-3.5c-0.3-1.3-0.4-2.6-0.2-3.9
			c0.4-2.6,1.8-5,3.9-6.6c2.1-1.6,4.8-2.3,7.4-1.9c2.6,0.4,5,1.8,6.6,3.9c45,60.4,114,95,189.2,95c130.1,0,236-105.9,236-236
			c0-38.8-9.6-77-27.8-111.3c-1.2-2.3-1.5-5.1-0.7-7.6c0.8-2.5,2.5-4.6,4.8-5.9c2.3-1.2,5-1.5,7.6-0.8c2.5,0.7,4.6,2.4,5.9,4.8
			c20.9,39,31.3,82.8,30.2,127c-1.1,44.2-13.6,87.4-36.3,125.4c-22.7,37.9-54.9,69.3-93.4,91.1C343.7,500.5,300.2,512,256,512z"/>
	</g>
	<path d="M38.5,381c-1.8,0-3.6-0.5-5.2-1.4c-1.6-0.9-2.8-2.3-3.7-3.9C-0.7,318.6-8.3,252.1,8.4,189.6
		C25.1,127.1,64.8,73.3,119.6,38.9C174.4,4.5,240.1-7.9,303.6,4.2C367.2,16.3,423.8,52,462,104.1c1.4,2.1,1.9,4.7,1.5,7.2
		c-0.5,2.5-1.9,4.8-3.9,6.3c-2.1,1.5-4.6,2.2-7.2,1.9c-2.5-0.3-4.9-1.6-6.5-3.5c-22-29.7-50.6-53.8-83.6-70.5
		C329.4,28.8,293,20.1,256,20C125.9,20,20,125.9,20,256c0,38.5,9.4,76.3,27.3,110.3c0.8,1.5,1.2,3.2,1.2,4.9c0,1.7-0.5,3.4-1.4,4.9
		c-0.9,1.5-2.1,2.7-3.6,3.6C41.9,380.5,40.2,381,38.5,381z"/>
	<path d="M457,122h-62c-2.6,0-5.2-1.1-7.1-2.9c-1.9-1.9-2.9-4.4-2.9-7.1s1-5.2,2.9-7.1c1.9-1.9,4.4-2.9,7.1-2.9h52V50
		c0-2.7,1-5.2,2.9-7.1c1.9-1.9,4.4-2.9,7.1-2.9s5.2,1,7.1,2.9c1.9,1.9,2.9,4.4,2.9,7.1v62c0,2.7-1,5.2-2.9,7.1
		C462.2,120.9,459.6,122,457,122z"/>
	<path d="M55,472c-2.7,0-5.2-1-7.1-2.9c-1.9-1.9-2.9-4.4-2.9-7.1v-62c0-2.6,1-5.2,2.9-7.1c1.9-1.9,4.4-2.9,7.1-2.9h62
		c2.7,0,5.2,1,7.1,2.9c1.9,1.9,2.9,4.4,2.9,7.1s-1.1,5.2-2.9,7.1c-1.9,1.9-4.4,2.9-7.1,2.9H65v52c0,2.6-1,5.2-2.9,7.1
		C60.2,471,57.7,472,55,472z"/>
	<path class="st1" d="M328,232.1c-25.2,0-51.6-15.6-77.1-30.6c-23.2-13.7-47.1-27.9-66.9-27.9c-38.6,0-54.1,21.7-54.7,22.6
		c-0.7,1.1-1.7,2-2.8,2.8c-1.1,0.7-2.3,1.2-3.6,1.5s-2.6,0.2-3.9,0c-1.3-0.3-2.5-0.8-3.6-1.5c-1.1-0.7-2-1.7-2.8-2.8
		c-0.7-1.1-1.2-2.3-1.5-3.6s-0.2-2.6,0-3.9c0.3-1.3,0.8-2.5,1.5-3.6c0.9-1.3,21.5-31.5,71.3-31.5c25.2,0,51.6,15.6,77.1,30.6
		c23.2,13.7,47.1,27.9,66.9,27.9c38.6,0,54.1-21.7,54.7-22.6c1.5-2.2,3.8-3.7,6.4-4.2c2.6-0.5,5.3,0,7.5,1.5
		c2.2,1.5,3.7,3.8,4.2,6.4c0.5,2.6,0,5.3-1.5,7.5C398.5,201.9,377.8,232.1,328,232.1z"/>
	<path class="st1" d="M328,295.2c-25.2,0-51.6-15.6-77.1-30.6c-23.2-13.7-47.1-27.9-66.9-27.9c-38.6,0-54.1,21.7-54.7,22.6
		c-0.7,1.1-1.7,2-2.8,2.8c-1.1,0.7-2.3,1.2-3.6,1.5s-2.6,0.2-3.9,0c-1.3-0.3-2.5-0.8-3.6-1.5c-1.1-0.7-2-1.7-2.8-2.8
		c-0.7-1.1-1.2-2.3-1.5-3.6c-0.2-1.3-0.2-2.6,0-3.9c0.3-1.3,0.8-2.5,1.5-3.6c0.9-1.3,21.5-31.4,71.3-31.4
		c25.2,0,51.6,15.6,77.1,30.6c23.2,13.7,47.1,27.9,66.9,27.9c38.6,0,54.1-21.7,54.7-22.6c0.7-1.1,1.7-2,2.8-2.8
		c1.1-0.7,2.3-1.2,3.6-1.5c1.3-0.2,2.6-0.2,3.9,0c1.3,0.3,2.5,0.8,3.6,1.5c1.1,0.7,2,1.7,2.8,2.8c0.7,1.1,1.2,2.3,1.5,3.6
		c0.2,1.3,0.2,2.6,0,3.9c-0.3,1.3-0.8,2.5-1.5,3.6C398.5,265.1,377.8,295.2,328,295.2z"/>
	<path class="st1" d="M328,358.4c-25.2,0-51.6-15.6-77.1-30.6c-23.2-13.7-47.1-27.9-66.9-27.9c-38.6,0-54.1,21.7-54.7,22.6
		c-1.5,2.2-3.8,3.7-6.4,4.2s-5.3,0-7.5-1.5c-2.2-1.5-3.7-3.8-4.2-6.4c-0.5-2.6,0-5.3,1.5-7.5c0.9-1.3,21.5-31.5,71.3-31.5
		c25.2,0,51.6,15.6,77.1,30.6c23.2,13.7,47.1,27.9,66.9,27.9c38.6,0,54.1-21.7,54.7-22.6c1.5-2.2,3.8-3.7,6.4-4.2
		c2.6-0.5,5.3,0,7.5,1.5c2.2,1.5,3.7,3.8,4.2,6.4c0.5,2.6,0,5.3-1.5,7.5C398.5,328.3,377.8,358.4,328,358.4z"/>
</g>
</svg>
