<?xml version="1.0" encoding="utf-8"?>
<!-- Generator: Adobe Illustrator 28.2.0, SVG Export Plug-In . SVG Version: 6.00 Build 0)  -->
<svg version="1.1" id="vector" xmlns="http://www.w3.org/2000/svg" xmlns:xlink="http://www.w3.org/1999/xlink" x="0px" y="0px"
	 viewBox="0 0 512 512" style="enable-background:new 0 0 512 512;" xml:space="preserve">
<style type="text/css">
	.st0{clip-path:url(#SVGID_00000103954791414272335670000014242382736021327496_);stroke:#33B0DF;stroke-miterlimit:10;}
	.st1{stroke:#33B0DF;stroke-miterlimit:10;}
	.st2{stroke:#33B0DF;stroke-width:20;stroke-linecap:round;}
</style>
<g id="g_0">
	<g>
		<defs>
			<rect id="SVGID_1_" y="0" width="512" height="512"/>
		</defs>
		<clipPath id="SVGID_00000147180740271824391250000008798813182968149909_">
			<use xlink:href="#SVGID_1_"  style="overflow:visible;"/>
		</clipPath>
		
			<path style="clip-path:url(#SVGID_00000147180740271824391250000008798813182968149909_);stroke:#33B0DF;stroke-miterlimit:10;" d="
			M411.9,251c-0.1-4.3-0.4-8.5-0.9-12.7c-0.1-0.8-0.2-1.5-0.3-2.3c-0.9-6.8-2.2-13.4-3.9-20c-8.8-33.3-28.4-62.7-55.6-83.7
			c-27.3-21-60.8-32.4-95.2-32.4s-67.9,11.4-95.2,32.4c-27.3,21-46.8,50.5-55.6,83.7c-1.7,6.6-3.1,13.2-3.9,20
			c-0.1,0.8-0.2,1.5-0.3,2.3c-0.5,4.2-0.8,8.4-0.9,12.7c0,1.7-0.1,3.3-0.1,5h131c0-0.9,0.1-1.9,0.2-2.8c0.3-2.9,1.1-5.7,2.4-8.3
			c1.7-3.5,4.3-6.5,7.4-8.9c0.5-0.4,1.1-0.8,1.6-1.1c0.5-0.3,1.1-0.7,1.7-1l0.9-0.4l0.9-0.4c0.2-0.1,0.5-0.2,0.7-0.3
			c1.2-0.5,2.5-0.9,3.8-1.2l0.6-0.1l0.6-0.1l0.7-0.1c0.2,0,0.4-0.1,0.6-0.1c0.4,0,0.8-0.1,1.2-0.1c0.2,0,0.5,0,0.7,0h0.9h0.9
			c0.2,0,0.5,0,0.7,0c0.2,0,0.8,0.1,1.2,0.1c0.2,0,0.4,0,0.6,0.1l0.7,0.1l0.6,0.1l0.6,0.1c1.3,0.3,2.6,0.7,3.8,1.2
			c0.2,0.1,0.5,0.2,0.7,0.3l0.9,0.4l0.9,0.4c0.6,0.3,1.1,0.6,1.7,1c0.6,0.3,1.1,0.7,1.6,1.1c3.1,2.4,5.7,5.4,7.4,8.9
			c1.3,2.6,2.1,5.4,2.4,8.3c0.1,0.9,0.2,1.9,0.2,2.8h131C412,254.3,412,252.7,411.9,251z M296.3,236c-3.7-7.5-9.5-13.8-16.6-18.3
			c-7.1-4.4-15.4-6.8-23.7-6.8s-16.6,2.3-23.7,6.8c-7.1,4.4-12.9,10.8-16.6,18.3h-94.2c4.8-32.3,21-61.8,45.7-83.1
			c24.7-21.3,56.2-33.1,88.9-33.1s64.2,11.7,88.9,33.1c24.7,21.3,40.9,50.8,45.7,83.1H296.3z"/>
		<use xlink:href="#SVGID_1_"  style="overflow:visible;fill:none;stroke:#33B0DF;stroke-miterlimit:10;"/>
	</g>
	<path class="st1" d="M512,251c-0.1-6.4-0.5-12.7-1-18.9c-0.5-5.4-1.2-10.8-2-16.1c-6.2-39.4-21.6-76.8-44.9-109.2
		c-23.3-32.4-53.8-59-89.1-77.5c-5.3-2.8-10.8-5.4-16.3-7.9C329.4,8.6,298,1.4,266,0.2c-3.3-0.1-6.7-0.2-10-0.2
		c-3.3,0-6.7,0.1-10,0.2c-32,1.2-63.4,8.4-92.7,21.2c-5.5,2.4-11,5-16.3,7.9C101.7,47.8,71.2,74.4,48,106.8
		C24.7,139.2,9.4,176.6,3.1,216c-0.8,5.3-1.5,10.7-2,16.1c-0.6,6.2-0.9,12.5-1.1,18.9c0,1.7,0,3.3,0,5v96h512V251z M492,333.7H20
		v-64.3h0.1l0.4-13.3l0.1-5l0.4-15h-0.2c0.2-2.8,0.5-5.6,0.9-8.4c0.9,0.3,1.9,0.4,2.9,0.4H62c2.7,0,5.2-1.1,7.1-2.9
		c1.9-1.9,2.9-4.4,2.9-7.1s-1.1-5.2-2.9-7.1c-1.9-1.9-4.4-2.9-7.1-2.9H24.9c6.7-32.2,20-62.6,39.1-89.3l30.6,17.7
		c2.3,1.3,5,1.7,7.6,1s4.7-2.4,6-4.7c1.3-2.3,1.7-5,1-7.6c-0.7-2.6-2.3-4.7-4.6-6.1l-28.2-16.2c4-4.7,8.2-9.3,12.7-13.7
		c16.7-16.7,35.8-30.9,56.7-41.9l11.2,19.4c0.6,1.1,1.5,2.1,2.6,3c1,0.8,2.2,1.4,3.5,1.8c1.3,0.3,2.6,0.4,3.9,0.3
		c1.3-0.2,2.6-0.6,3.7-1.2c1.1-0.7,2.1-1.5,2.9-2.6s1.4-2.2,1.7-3.5c0.3-1.3,0.4-2.6,0.2-3.9c-0.2-1.3-0.6-2.6-1.3-3.7l-10.4-18
		l0.2-0.1c26-11,53.7-17.2,81.9-18.3v17.2c0,2.7,1.1,5.2,2.9,7.1c1.9,1.9,4.4,2.9,7.1,2.9s5.2-1,7.1-2.9c1.9-1.9,2.9-4.4,2.9-7.1
		V20.2c28.2,1.1,55.9,7.3,81.9,18.3l0.2,0.1l-10.4,18c-0.7,1.1-1.1,2.4-1.3,3.7c-0.2,1.3-0.1,2.6,0.2,3.9c0.3,1.3,0.9,2.5,1.7,3.5
		c0.8,1.1,1.8,1.9,3,2.6c1.1,0.7,2.4,1.1,3.7,1.2s2.6,0.1,3.9-0.3c1.3-0.3,2.5-0.9,3.5-1.8c1-0.8,1.9-1.8,2.6-3l11.2-19.4
		c20.9,11,40,25.2,56.7,41.9c4.4,4.4,8.6,9,12.6,13.7L407.4,119c-1.1,0.7-2.1,1.5-3,2.6c-0.8,1-1.4,2.2-1.8,3.5
		c-0.3,1.3-0.4,2.6-0.3,3.9c0.2,1.3,0.6,2.6,1.2,3.7c0.7,1.2,1.5,2.2,2.6,2.9c1,0.8,2.2,1.4,3.5,1.7c1.3,0.3,2.6,0.4,3.9,0.2
		c1.3-0.2,2.6-0.6,3.7-1.3l30.6-17.7c19.1,26.7,32.5,57.1,39.1,89.3h-35.6c-2.6,0-5.2,1.1-7.1,2.9c-1.9,1.9-2.9,4.4-2.9,7.1
		s1.1,5.2,2.9,7.1c1.9,1.9,4.4,2.9,7.1,2.9H489c0.5,0,0.9,0,1.4-0.1c0.3,2.7,0.6,5.4,0.8,8.1H491l0.4,15l0.1,5l0.4,13.3h0.1V333.7z"
		/>
	<path class="st1" d="M20,269.3v2.7V269.3L20,269.3z"/>
	<path class="st1" d="M410.7,236c0.1,0.8,0.2,1.5,0.3,2.3V236H410.7z M410.7,236c0.1,0.8,0.2,1.5,0.3,2.3V236H410.7z M410.7,236
		c0.1,0.8,0.2,1.5,0.3,2.3V236H410.7z M410.7,236c0.1,0.8,0.2,1.5,0.3,2.3V236H410.7z M410.7,236c0.1,0.8,0.2,1.5,0.3,2.3V236H410.7
		z M410.7,236c0.1,0.8,0.2,1.5,0.3,2.3V236H410.7z M491.9,269.3l0.1,2.7L491.9,269.3L491.9,269.3z M410.7,236
		c0.1,0.8,0.2,1.5,0.3,2.3V236H410.7z M512,271.8v18.1l0.5-0.1L512,271.8z M410.7,236c0.1,0.8,0.2,1.5,0.3,2.3V236H410.7z
		 M410.7,236c0.1,0.8,0.2,1.5,0.3,2.3V236H410.7z M410.7,236c0.1,0.8,0.2,1.5,0.3,2.3V236H410.7z M410.7,236
		c0.1,0.8,0.2,1.5,0.3,2.3V236H410.7z M410.7,236c0.1,0.8,0.2,1.5,0.3,2.3V236H410.7z"/>
	<path class="st2" d="M334,407v40"/>
	<path class="st2" d="M178,407v40"/>
	<path class="st2" d="M451,411.8v20"/>
	<path class="st2" d="M412,411.8v20"/>
	<path class="st2" d="M373,411.8v20"/>
	<path class="st2" d="M256,411.8v20"/>
	<path class="st2" d="M217,411.8v20"/>
	<path class="st2" d="M295,411.8v20"/>
	<path class="st2" d="M100,411.8v20"/>
	<path class="st2" d="M61,411.8V427"/>
	<path class="st2" d="M139,411.8v20"/>
	<path class="st1" d="M492,412v80H20v-80H492z M502,392H10c-2.7,0-5.2,1-7.1,2.9C1,396.8,0,399.4,0,402v100c0,2.6,1,5.2,2.9,7.1
		C4.8,511,7.3,512,10,512h492c2.6,0,5.2-1,7.1-2.9c1.9-1.9,2.9-4.4,2.9-7.1V402c0-2.6-1-5.2-2.9-7.1C507.2,393,504.6,392,502,392z"
		/>
</g>
</svg>
