<?xml version="1.0" encoding="utf-8"?>
<!-- Generator: Adobe Illustrator 28.2.0, SVG Export Plug-In . SVG Version: 6.00 Build 0)  -->
<svg version="1.1" id="vector" xmlns="http://www.w3.org/2000/svg" xmlns:xlink="http://www.w3.org/1999/xlink" x="0px" y="0px"
	 viewBox="0 0 512 512" style="enable-background:new 0 0 512 512;" xml:space="preserve">
<style type="text/css">
	.st0{fill:#33B0DF;}
</style>
<path id="path_0" d="M240,60v100H60V60H240z M250,40H50c-2.7,0-5.2,1-7.1,2.9C41,44.8,40,47.3,40,50v120c0,2.6,1,5.2,2.9,7.1
	c1.9,1.9,4.4,2.9,7.1,2.9h200c2.6,0,5.2-1.1,7.1-2.9c1.9-1.9,2.9-4.4,2.9-7.1V50c0-2.7-1-5.2-2.9-7.1C255.2,41,252.6,40,250,40z"/>
<path id="path_1" class="st0" d="M178.3,365.3c-3.9,0-7.8-0.8-11.5-2.3c-3.6-1.5-6.9-3.7-9.7-6.5l-56.6-56.6
	c-5.6-5.6-8.8-13.3-8.8-21.2c0-7.9,3.2-15.6,8.8-21.2s13.3-8.8,21.2-8.8c8,0,15.6,3.2,21.2,8.8l56.6,56.6c4.2,4.2,7.1,9.5,8.2,15.4
	c1.2,5.8,0.6,11.9-1.7,17.3c-2.3,5.5-6.1,10.2-11.1,13.5C190,363.5,184.2,365.3,178.3,365.3z M121.7,268.7c-2,0-3.9,0.6-5.6,1.7
	c-1.6,1.1-2.9,2.7-3.7,4.5c-0.8,1.8-1,3.8-0.6,5.8c0.4,1.9,1.3,3.7,2.7,5.1l56.6,56.6c1.9,1.9,4.4,2.9,7.1,2.9
	c2.7,0,5.2-1.1,7.1-2.9c1.9-1.9,2.9-4.4,2.9-7.1c0-2.7-1-5.2-2.9-7.1l-56.6-56.6C126.9,269.8,124.4,268.7,121.7,268.7z"/>
<path id="path_2" d="M150,226c15.8,0,31.3,4.7,44.4,13.5c13.2,8.8,23.4,21.3,29.5,35.9c6.1,14.6,7.6,30.7,4.6,46.2
	c-3.1,15.5-10.7,29.8-21.9,41c-11.2,11.2-25.4,18.8-41,21.9c-15.5,3.1-31.6,1.5-46.2-4.5c-14.6-6.1-27.1-16.3-35.9-29.5
	C74.7,337.3,70,321.8,70,306c0-21.2,8.5-41.5,23.5-56.5C108.5,234.5,128.8,226,150,226z M150,206c-19.8,0-39.1,5.9-55.6,16.9
	c-16.4,11-29.3,26.6-36.8,44.9s-9.5,38.4-5.7,57.8c3.9,19.4,13.4,37.2,27.4,51.2c14,14,31.8,23.5,51.2,27.4
	c19.4,3.9,39.5,1.9,57.8-5.7c18.3-7.6,33.9-20.4,44.9-36.8c11-16.5,16.9-35.8,16.9-55.6c0-26.5-10.5-52-29.3-70.7S176.5,206,150,206
	z"/>
<path id="path_3" d="M485,159h-8v-41c0-2.7-1-5.2-2.9-7.1c-1.9-1.9-4.4-2.9-7.1-2.9s-5.2,1.1-7.1,2.9c-1.9,1.9-2.9,4.4-2.9,7.1v41
	h-8c-2.6,0-5.2,1.1-7.1,2.9c-1.9,1.9-2.9,4.4-2.9,7.1v180c0,2.6,1,5.2,2.9,7.1c1.9,1.9,4.4,2.9,7.1,2.9h9v27
	c0,13.3-5.3,26-14.7,35.3C434,430.7,421.3,436,408,436h-58c6.7-6.5,12-14.3,15.5-22.9c3.6-8.6,5.5-17.8,5.5-27.1v-73h7
	c2.6,0,5.2-1,7.1-2.9c1.9-1.9,2.9-4.4,2.9-7.1V123c0-2.7-1-5.2-2.9-7.1c-1.9-1.9-4.4-2.9-7.1-2.9h-8V72c0-2.7-1-5.2-2.9-7.1
	c-1.9-1.9-4.4-2.9-7.1-2.9s-5.2,1-7.1,2.9c-1.9,1.9-2.9,4.4-2.9,7.1v41h-8c-2.6,0-5.2,1.1-7.1,2.9c-1.9,1.9-2.9,4.4-2.9,7.1v180
	c0,2.6,1,5.2,2.9,7.1c1.9,1.9,4.4,2.9,7.1,2.9h9v73c0,13.3-5.3,26-14.7,35.3C327,430.7,314.3,436,301,436h-1V30
	c0-8-3.2-15.6-8.8-21.2C285.6,3.2,278,0,270,0H30C22,0,14.4,3.2,8.8,8.8C3.2,14.4,0,22,0,30v452c0,8,3.2,15.6,8.8,21.2
	C14.4,508.8,22,512,30,512h240c8,0,15.6-3.2,21.2-8.8c5.6-5.6,8.8-13.2,8.8-21.2v-26h108c18.6,0,36.4-7.4,49.5-20.5
	c13.1-13.1,20.5-30.9,20.5-49.5v-27h7c2.6,0,5.2-1,7.1-2.9c1.9-1.9,2.9-4.4,2.9-7.1V169c0-2.6-1-5.2-2.9-7.1
	C490.2,160.1,487.6,159,485,159z M352,133h16v160h-16V133z M280,436h-36.7c-2.1-5.9-5.9-10.9-11-14.5c-5.1-3.6-11.1-5.5-17.3-5.5
	s-12.2,1.9-17.3,5.5c-5.1,3.6-8.9,8.6-11,14.5h-72.4c-2.4-6.7-7-12.3-13.1-15.9c-6.1-3.6-13.3-4.9-20.3-3.7
	c-7,1.2-13.3,4.8-17.9,10.2S56,438.9,56,446s2.5,13.9,7.1,19.3s10.9,9,17.9,10.2c7,1.2,14.2-0.1,20.3-3.7
	c6.1-3.6,10.7-9.2,13.1-15.9h72.4c2.1,5.9,5.9,10.9,11,14.5c5.1,3.6,11.1,5.5,17.3,5.5s12.2-1.9,17.3-5.5c5.1-3.6,8.9-8.6,11-14.5
	H280v26c0,2.6-1,5.2-2.9,7.1c-1.9,1.9-4.4,2.9-7.1,2.9H30c-2.6,0-5.2-1-7.1-2.9c-1.9-1.9-2.9-4.4-2.9-7.1V30c0-2.6,1-5.2,2.9-7.1
	C24.8,21,27.4,20,30,20h240c2.6,0,5.2,1,7.1,2.9c1.9,1.9,2.9,4.4,2.9,7.1V436z M225,446c0,2-0.6,3.9-1.7,5.6
	c-1.1,1.6-2.7,2.9-4.5,3.7c-1.8,0.8-3.8,1-5.8,0.6c-1.9-0.4-3.7-1.3-5.1-2.7c-1.4-1.4-2.3-3.2-2.7-5.1c-0.4-1.9-0.2-4,0.6-5.8
	c0.8-1.8,2-3.4,3.7-4.5c1.6-1.1,3.6-1.7,5.6-1.7c2.6,0,5.2,1,7.1,2.9C223.9,440.8,225,443.4,225,446z M96,446c0,2-0.6,3.9-1.7,5.6
	c-1.1,1.6-2.7,2.9-4.5,3.7c-1.8,0.8-3.8,1-5.8,0.6c-1.9-0.4-3.7-1.3-5.1-2.7s-2.3-3.2-2.7-5.1c-0.4-1.9-0.2-4,0.6-5.8
	c0.8-1.8,2-3.4,3.7-4.5c1.6-1.1,3.6-1.7,5.6-1.7c1.3,0,2.6,0.3,3.8,0.8c1.2,0.5,2.3,1.2,3.2,2.2s1.7,2,2.2,3.2
	C95.7,443.4,96,444.7,96,446z M475,339h-16V179h16V339z"/>
<path id="path_4" class="st0" d="M390,178.8h-60c-2.6,0-5.2-1.1-7.1-2.9c-1.9-1.9-2.9-4.4-2.9-7.1c0-2.7,1-5.2,2.9-7.1
	c1.9-1.9,4.4-2.9,7.1-2.9h60c2.6,0,5.2,1.1,7.1,2.9c1.9,1.9,2.9,4.4,2.9,7.1c0,2.6-1,5.2-2.9,7.1C395.2,177.8,392.6,178.8,390,178.8
	z"/>
<path id="path_5" class="st0" d="M497,224.8h-60c-2.6,0-5.2-1.1-7.1-2.9c-1.9-1.9-2.9-4.4-2.9-7.1c0-2.7,1-5.2,2.9-7.1
	c1.9-1.9,4.4-2.9,7.1-2.9h60c2.6,0,5.2,1.1,7.1,2.9c1.9,1.9,2.9,4.4,2.9,7.1c0,2.6-1,5.2-2.9,7.1C502.2,223.8,499.6,224.8,497,224.8
	z"/>
</svg>
