<?xml version="1.0" encoding="utf-8"?>
<!-- Generator: Adobe Illustrator 28.2.0, SVG Export Plug-In . SVG Version: 6.00 Build 0)  -->
<svg version="1.1" id="vector" xmlns="http://www.w3.org/2000/svg" xmlns:xlink="http://www.w3.org/1999/xlink" x="0px" y="0px"
	 viewBox="0 0 48 48" style="enable-background:new 0 0 48 48;" xml:space="preserve">
<style type="text/css">
	.st0{fill:#33B0DF;}
</style>
<path id="path_0" d="M9.2,19c0.5,0,1,0.2,1.5,0.4c0.5,0.3,0.8,0.7,1.1,1.2c0.3,0.5,0.4,1.1,0.4,1.7c0,0.6-0.1,1.2-0.4,1.7
	c-0.3,0.5-0.6,0.9-1.1,1.2c-0.4,0.3-0.9,0.5-1.5,0.5H6.4l0.1-0.3v3.1c0,0.2-0.1,0.5-0.2,0.7c-0.1,0.1-0.2,0.2-0.3,0.2
	c-0.1,0-0.2,0.1-0.3,0.1c-0.1,0-0.2,0-0.3-0.1c-0.1,0-0.2-0.1-0.3-0.2c-0.2-0.2-0.2-0.4-0.2-0.7v-8.7c0-0.1,0-0.2,0.1-0.4
	c0-0.1,0.1-0.2,0.2-0.3c0.1-0.1,0.2-0.2,0.3-0.2C5.5,19,5.6,19,5.8,19H9.2z M9.2,24c0.2,0,0.4-0.1,0.6-0.2c0.2-0.2,0.3-0.4,0.4-0.6
	c0.2-0.4,0.2-0.8,0.1-1.2c-0.1-0.4-0.3-0.8-0.6-1c-0.1-0.1-0.3-0.2-0.6-0.2H6.4l0.2-0.3v3.8L6.4,24L9.2,24z"/>
<path id="path_1" d="M23.9,19.9v8.7c0,0.1,0,0.2-0.1,0.4c0,0.1-0.1,0.2-0.2,0.3c-0.1,0.1-0.2,0.2-0.3,0.2c-0.1,0-0.2,0.1-0.4,0.1
	c-0.1,0-0.3,0-0.4-0.1c-0.1,0-0.2-0.1-0.3-0.2c-0.1-0.1-0.2-0.2-0.2-0.3c0-0.1-0.1-0.2-0.1-0.4v-6l-2.5,3.8
	c-0.1,0.1-0.2,0.2-0.3,0.3c-0.1,0.1-0.3,0.1-0.4,0.1c-0.1,0-0.3,0-0.4-0.1c-0.1-0.1-0.2-0.2-0.3-0.3l-2.5-3.9v6.2
	c0,0.2-0.1,0.5-0.2,0.7c-0.1,0.1-0.2,0.2-0.3,0.2c-0.1,0-0.2,0.1-0.3,0.1c-0.1,0-0.2,0-0.3-0.1c-0.1,0-0.2-0.1-0.3-0.2
	c-0.2-0.2-0.2-0.4-0.2-0.7v-8.7c0-0.1,0-0.2,0.1-0.4c0-0.1,0.1-0.2,0.2-0.3c0.1-0.1,0.2-0.2,0.3-0.2c0.1,0,0.2-0.1,0.4-0.1
	c0.2,0,0.3,0,0.4,0.1c0.1,0.1,0.3,0.2,0.4,0.3l3.3,5l3.4-5c0.1-0.1,0.2-0.2,0.3-0.3C22.7,19,22.8,19,23,19c0.2,0,0.5,0.1,0.6,0.3
	c0.1,0.1,0.2,0.2,0.2,0.3C23.9,19.6,23.9,19.8,23.9,19.9z"/>
<path id="path_2" d="M33.8,19.9v8.7c0,0.1,0,0.2-0.1,0.4c0,0.1-0.1,0.2-0.2,0.3c-0.2,0.2-0.4,0.3-0.7,0.3c-0.1,0-0.3,0-0.4-0.1
	c-0.1,0-0.2-0.1-0.3-0.2c-0.1-0.1-0.2-0.2-0.2-0.3c0-0.1-0.1-0.2-0.1-0.4v-7.1L31,22.2c-0.2,0.1-0.3,0.2-0.5,0.2
	c-0.1,0-0.2,0-0.3-0.1c-0.1,0-0.2-0.1-0.3-0.2c-0.1-0.1-0.2-0.2-0.2-0.3c0-0.1-0.1-0.2-0.1-0.4c0-0.3,0.2-0.6,0.5-0.8l2.2-1.4
	c0.1-0.1,0.2-0.1,0.3-0.1c0.1,0,0.2,0,0.4,0c0.1,0,0.3,0,0.4,0.1c0.1,0,0.2,0.1,0.3,0.2c0.1,0.1,0.2,0.2,0.2,0.3
	C33.8,19.7,33.8,19.8,33.8,19.9z"/>
<path id="path_3" d="M39.7,29.6c-0.9,0-1.6-0.2-2.2-0.7c-0.6-0.5-1-1.1-1.4-1.9c-0.3-0.8-0.5-1.8-0.5-2.8s0.2-2,0.5-2.8
	c0.3-0.8,0.8-1.4,1.4-1.9s1.3-0.7,2.2-0.7c0.9,0,1.6,0.2,2.2,0.7c0.6,0.5,1,1.1,1.4,1.9c0.3,0.8,0.5,1.8,0.5,2.8
	c0,1.1-0.2,2-0.5,2.8c-0.3,0.8-0.8,1.4-1.4,1.9C41.3,29.4,40.5,29.6,39.7,29.6z M39.7,27.8c0.4,0,0.8-0.1,1.1-0.4
	c0.3-0.3,0.5-0.7,0.7-1.2c0.2-0.5,0.3-1.2,0.3-2c0-0.8-0.1-1.5-0.3-2c-0.2-0.5-0.4-0.9-0.7-1.2c-0.3-0.3-0.7-0.4-1.1-0.4
	s-0.8,0.1-1.1,0.4c-0.3,0.3-0.6,0.7-0.7,1.2s-0.3,1.2-0.3,2c0,0.8,0.1,1.5,0.3,2c0.2,0.5,0.4,0.9,0.7,1.2
	C38.9,27.7,39.3,27.9,39.7,27.8L39.7,27.8z"/>
<path id="path_4" class="st0" d="M11.6,15.6c-0.2,0-0.5-0.1-0.7-0.3c-0.2-0.2-0.3-0.4-0.3-0.7c0-1.2,0.4-2.4,1.1-3.5
	c0.7-1,1.7-1.8,2.9-2.2s2.4-0.5,3.6-0.1c1.2,0.3,2.2,1,3,2c0.2,0.2,0.2,0.4,0.2,0.7c0,0.2-0.1,0.5-0.3,0.6c-0.2,0.2-0.4,0.2-0.7,0.2
	c-0.2,0-0.5-0.1-0.6-0.3c-0.5-0.7-1.3-1.1-2.1-1.3c-0.8-0.2-1.7-0.2-2.5,0.1c-0.8,0.3-1.5,0.8-2,1.5c-0.5,0.7-0.7,1.5-0.7,2.4
	c0,0.1,0,0.2-0.1,0.4c0,0.1-0.1,0.2-0.2,0.3s-0.2,0.2-0.3,0.2C11.8,15.6,11.7,15.6,11.6,15.6L11.6,15.6z"/>
<path id="path_5" class="st0" d="M44.3,8.1c-0.1,0-0.2,0-0.2,0c-0.2-0.1-0.4-0.2-0.6-0.4c-0.1-0.2-0.2-0.5-0.1-0.7
	c0.1-0.3,0.1-0.7-0.1-1c-0.1-0.3-0.3-0.6-0.6-0.8c-0.3-0.2-0.6-0.3-0.9-0.3c-0.3,0-0.6,0.1-0.9,0.3c-0.1,0.1-0.2,0.1-0.3,0.2
	c-0.1,0-0.2,0-0.4,0c-0.1,0-0.2-0.1-0.3-0.1c-0.1-0.1-0.2-0.1-0.3-0.2c-0.1-0.2-0.2-0.4-0.2-0.7c0-0.2,0.2-0.5,0.4-0.6
	c0.6-0.4,1.2-0.7,1.9-0.7c0.7,0,1.4,0.2,1.9,0.6c0.6,0.4,1,1,1.3,1.6c0.2,0.7,0.3,1.4,0.1,2.1c0,0.2-0.2,0.4-0.3,0.5
	C44.7,8,44.5,8.1,44.3,8.1z"/>
<path id="path_6" d="M16,47.7c-0.5,0-0.9-0.1-1.4-0.3c-0.4-0.2-0.8-0.5-1.2-0.8c-0.3-0.3-0.6-0.8-0.7-1.2c-0.2-0.5-0.2-0.9-0.2-1.4
	c0-0.2,0.1-0.5,0.3-0.6c0.2-0.2,0.4-0.2,0.7-0.2c0.2,0,0.5,0.1,0.6,0.3c0.2,0.2,0.2,0.4,0.2,0.7c0,0.3,0.1,0.7,0.2,0.9
	c0.2,0.3,0.4,0.5,0.7,0.6c0.3,0.1,0.6,0.2,1,0.1c0.3-0.1,0.6-0.2,0.8-0.5c0.2-0.2,0.4-0.3,0.7-0.3c0.2,0,0.5,0.1,0.7,0.3
	c0.2,0.2,0.3,0.4,0.3,0.7c0,0.2-0.1,0.5-0.3,0.7c-0.3,0.3-0.7,0.6-1.2,0.8C17,47.6,16.5,47.7,16,47.7z"/>
<path id="path_7" d="M1.8,16.9c-0.2,0-0.4-0.1-0.5-0.1C1.2,16.7,1,16.5,1,16.4c-0.3-0.7-0.4-1.4-0.3-2.1c0.1-0.7,0.5-1.4,1-1.9
	c0.5-0.5,1.2-0.8,1.9-0.9c0.7-0.1,1.4,0,2.1,0.3C5.8,11.9,5.9,12,5.9,12c0.1,0.1,0.1,0.2,0.2,0.3c0,0.1,0.1,0.2,0,0.4
	c0,0.1,0,0.2-0.1,0.4c-0.1,0.1-0.1,0.2-0.2,0.3c-0.1,0.1-0.2,0.1-0.3,0.2c-0.1,0-0.2,0.1-0.4,0c-0.1,0-0.2,0-0.4-0.1
	c-0.3-0.1-0.6-0.2-1-0.1c-0.3,0.1-0.6,0.2-0.9,0.4c-0.2,0.2-0.4,0.5-0.5,0.9c-0.1,0.3,0,0.7,0.1,1c0.1,0.1,0.1,0.3,0.1,0.5
	c0,0.2-0.1,0.3-0.1,0.4c-0.1,0.1-0.2,0.2-0.3,0.3C2.1,16.9,2,16.9,1.8,16.9L1.8,16.9z"/>
<path id="path_8" class="st0" d="M34.7,41.9c0,1.2-0.4,2.4-1,3.4c-0.7,1-1.6,1.8-2.7,2.2c-1.1,0.4-2.3,0.5-3.5,0.3
	c-1.2-0.3-2.2-0.9-3-1.8c-0.1-0.1-0.2-0.2-0.2-0.3c0-0.1-0.1-0.2-0.1-0.4c0-0.1,0-0.2,0.1-0.4c0.1-0.1,0.1-0.2,0.2-0.3
	c0.1-0.1,0.2-0.1,0.3-0.2c0.1,0,0.2-0.1,0.4-0.1c0.1,0,0.2,0,0.4,0.1c0.1,0.1,0.2,0.1,0.3,0.2c0.5,0.6,1.2,1,2,1.2
	c0.8,0.2,1.6,0.2,2.3-0.1c0.7-0.2,1.4-0.7,1.9-1.3c0.5-0.6,0.8-1.3,0.9-2.1c0.4,0,0.8-0.1,1.1-0.2C34.2,42.1,34.5,42,34.7,41.9z"/>
<path id="path_9" d="M41.8,37.6c-1.1,0.3-2.3,0.2-3.3-0.2c-0.2,1-0.7,2-1.3,2.8c-0.7,0.8-1.5,1.4-2.5,1.8c-0.2,0.1-0.5,0.2-0.8,0.3
	c-0.4,0.1-0.8,0.2-1.1,0.2c-0.2,0-0.4,0-0.5,0c-1.6,0-3.1-0.6-4.2-1.6c-0.1-0.1-0.2-0.2-0.2-0.3c-0.1-0.1-0.1-0.2-0.1-0.4
	c0-0.1,0-0.2,0-0.4c0-0.1,0.1-0.2,0.2-0.3c0.1-0.1,0.2-0.2,0.3-0.2c0.1-0.1,0.2-0.1,0.4-0.1c0.1,0,0.2,0,0.4,0.1
	c0.1,0,0.2,0.1,0.3,0.2c0.7,0.6,1.5,1,2.4,1.1c0.9,0.1,1.8,0,2.6-0.4s1.5-1,1.9-1.8s0.7-1.7,0.6-2.5c0-0.2,0-0.4,0.1-0.5
	c0.1-0.2,0.2-0.3,0.4-0.4c0.2-0.1,0.4-0.1,0.5-0.1c0.2,0,0.4,0.1,0.5,0.2c0.5,0.5,1.1,0.8,1.8,0.8c0.7,0.1,1.4-0.1,2-0.4
	c0.6-0.4,1-0.9,1.3-1.5c0.3-0.6,0.3-1.3,0.1-2c0-0.1-0.1-0.2-0.1-0.4c0-0.1-0.1-0.2-0.1-0.4c0-0.1,0-0.2,0.1-0.4
	c0-0.1,0.1-0.2,0.2-0.3c0.1-0.1,0.2-0.2,0.3-0.2c0.1,0,0.2-0.1,0.4-0.1c0.1,0,0.2,0,0.4,0.1c0.1,0.1,0.2,0.1,0.3,0.2
	c0.1,0.1,0.2,0.2,0.2,0.3c0.1,0.2,0.1,0.4,0.2,0.6c0.3,1.3,0.2,2.7-0.5,3.8C44.2,36.4,43.1,37.2,41.8,37.6z"/>
<path id="path_10" d="M14.6,39.1c-0.5,0.7-1.2,1.2-1.9,1.6c-0.7,0.4-1.6,0.6-2.4,0.7c-0.2,0-0.3,0-0.5,0c-0.9,0-1.7-0.2-2.5-0.5
	c-0.8-0.3-1.5-0.8-2.1-1.5c-0.6-0.6-1-1.4-1.3-2.2c-0.3-0.8-0.4-1.7-0.3-2.5c-0.6-0.2-1.1-0.5-1.6-1c-0.5-0.4-0.8-1-1.1-1.5
	c-0.3-0.6-0.4-1.2-0.4-1.8c0-0.6,0.1-1.3,0.4-1.8c0.1-0.2,0.3-0.4,0.5-0.5C1.7,28,2,28,2.2,28.1c0.2,0.1,0.4,0.3,0.5,0.5
	c0.1,0.2,0.1,0.5,0,0.7c-0.2,0.5-0.3,1-0.2,1.5c0.1,0.5,0.3,1,0.6,1.4C3.5,32.6,4,32.9,4.6,33c0.4,0.1,0.7,0.1,1.1,0
	c0.4-0.1,0.7-0.2,1-0.4c0.2-0.1,0.4-0.2,0.7-0.2c0.2,0,0.5,0.2,0.6,0.4c0.1,0.2,0.2,0.4,0.2,0.7c0,0.2-0.2,0.5-0.4,0.6
	c-0.7,0.5-1.4,0.8-2.3,0.9c-0.1,0.8,0.1,1.5,0.4,2.2c0.3,0.7,0.8,1.3,1.5,1.7c0.8,0.5,1.8,0.8,2.7,0.7c0.6,0,1.2-0.2,1.7-0.5
	c0.5-0.3,1-0.7,1.3-1.1c0.2-0.2,0.4-0.3,0.6-0.3s0.5,0,0.7,0.2c0.2,0.2,0.3,0.4,0.3,0.6C14.8,38.7,14.7,38.9,14.6,39.1L14.6,39.1z"
	/>
<path id="path_11" d="M36.6,6.8C36.6,6.8,36.5,6.8,36.6,6.8c-0.3,0-0.5-0.1-0.7-0.2c-0.2-0.2-0.3-0.4-0.3-0.6
	c-0.1-0.6-0.2-1.2-0.5-1.7c-0.3-0.5-0.7-1-1.2-1.3c-0.8-0.6-1.7-0.9-2.7-0.9c-0.8,0-1.6,0.3-2.3,0.7c-0.7,0.5-1.2,1.1-1.5,1.9
	c0,0,0,0.1,0,0.1c0.2,0.3,0.4,0.7,0.6,1.1c0,0.1,0.1,0.2,0.1,0.4c0,0.1,0,0.2-0.1,0.4c-0.1,0.1-0.1,0.2-0.2,0.3
	C27.5,6.9,27.4,7,27.3,7c-0.1,0-0.2,0.1-0.4,0.1c-0.1,0-0.2,0-0.4-0.1c-0.1-0.1-0.2-0.1-0.3-0.2c-0.1-0.1-0.1-0.2-0.2-0.3
	c-0.1-0.3-0.3-0.6-0.6-0.9c-0.2-0.3-0.5-0.5-0.9-0.6c-0.5-0.2-1.1-0.3-1.7-0.1c-0.5,0.1-0.9,0.4-1.3,0.8c-0.3,0.4-0.6,0.8-0.6,1.3
	c0,0.2-0.1,0.4-0.3,0.6c-0.2,0.1-0.4,0.2-0.6,0.2c-0.1,0-0.1,0-0.2,0c-0.2,0-0.5-0.2-0.6-0.4c-0.1-0.2-0.2-0.5-0.2-0.7
	c0.1-0.7,0.4-1.3,0.8-1.9c0.4-0.6,0.9-1,1.5-1.3s1.3-0.5,2-0.5c0.7,0,1.4,0.1,2,0.4c0.2,0.1,0.3,0.1,0.5,0.2
	c0.6-1.2,1.6-2.1,2.8-2.7c1.2-0.6,2.5-0.7,3.8-0.5c1.3,0.3,2.5,0.9,3.4,1.9c0.9,1,1.4,2.2,1.6,3.5c0,0.2,0,0.5-0.2,0.7
	C37.1,6.6,36.9,6.7,36.6,6.8z"/>
<path id="path_12" d="M46.6,20.5c-0.2,0-0.3,0-0.4-0.1c-0.1-0.1-0.3-0.2-0.3-0.3c-0.1-0.1-0.1-0.3-0.2-0.4c0-0.2,0-0.3,0.1-0.4
	c0.2-0.4,0.2-0.9,0.2-1.4c0-0.5-0.2-0.9-0.4-1.3c-0.2-0.4-0.6-0.8-1-1c-0.4-0.3-0.8-0.4-1.3-0.5c-0.2,0-0.4-0.1-0.5-0.3
	c-0.1-0.2-0.2-0.3-0.3-0.6c0-0.4-0.2-0.7-0.4-1c-0.2-0.3-0.5-0.6-0.8-0.7c-0.3-0.2-0.7-0.3-1.1-0.2c-0.4,0-0.7,0.1-1.1,0.3
	c-0.2,0.1-0.5,0.2-0.7,0.1c-0.2-0.1-0.4-0.2-0.6-0.4s-0.2-0.5-0.1-0.7c0.1-0.2,0.2-0.4,0.4-0.6c0.5-0.3,1.1-0.5,1.8-0.5
	c0.6,0,1.2,0.1,1.8,0.3c0.6,0.2,1.1,0.6,1.5,1.1c0.4,0.5,0.7,1,0.9,1.6c0.1,0,0.3,0.1,0.4,0.1c1.2,0.5,2.2,1.4,2.8,2.7
	c0.5,1.2,0.6,2.6,0.1,3.9c-0.1,0.2-0.2,0.3-0.3,0.4C47,20.4,46.8,20.5,46.6,20.5z"/>
<path id="path_13" d="M42.6,46.7c2.1,0,3.8-1.7,3.8-3.8s-1.7-3.8-3.8-3.8c-2.1,0-3.8,1.7-3.8,3.8S40.5,46.7,42.6,46.7z"/>
<path id="path_14" d="M3.8,48c2.1,0,3.8-1.7,3.8-3.8s-1.7-3.8-3.8-3.8S0,42.2,0,44.2S1.7,48,3.8,48z"/>
<path id="path_15" d="M21.5,41.3c2.1,0,3.8-1.7,3.8-3.8s-1.7-3.8-3.8-3.8s-3.8,1.7-3.8,3.8S19.4,41.3,21.5,41.3z"/>
<path id="path_16" d="M31.4,14.5c2.1,0,3.8-1.7,3.8-3.8S33.4,7,31.4,7s-3.8,1.7-3.8,3.8S29.3,14.5,31.4,14.5z"/>
<path id="path_17" d="M9,8.9c2.1,0,3.7-1.7,3.7-3.8S11.1,1.4,9,1.4S5.3,3.1,5.3,5.2S7,8.9,9,8.9z"/>
</svg>
