<?xml version="1.0" encoding="utf-8"?>
<!-- Generator: Adobe Illustrator 28.2.0, SVG Export Plug-In . SVG Version: 6.00 Build 0)  -->
<svg version="1.1" id="vector" xmlns="http://www.w3.org/2000/svg" xmlns:xlink="http://www.w3.org/1999/xlink" x="0px" y="0px"
	 viewBox="0 0 512 512" style="enable-background:new 0 0 512 512;" xml:space="preserve">
<style type="text/css">
	.st0{fill:#33B0DF;}
</style>
<path id="path_0" class="st0" d="M214.6,122.4c1.1,0.5,2,1.2,2.8,2.2c0.7,1,1.2,2.1,1.3,3.2c0.2,1.2,0.1,2.4-0.2,3.6
	c-0.3,1.2-0.9,2.2-1.7,3.2c-0.5,0.8-1.2,1.4-2,1.9s-1.7,0.8-2.6,0.9c-1.9,0.2-3.8-0.2-5.5-1.1c-3.1-1.6-6.4-2.9-9.8-3.8
	c-3.5-1-7.2-1.5-10.9-1.4c-5.6-0.1-11.2,0.9-16.4,3c-4.7,1.9-9,4.8-12.6,8.5c-3.6,3.7-6.3,8.2-8.1,13c-1.9,5.3-2.9,11-2.8,16.6
	c-0.1,6.1,0.9,12.1,3,17.8c1.9,4.9,4.7,9.4,8.4,13.1c3.6,3.6,7.9,6.3,12.6,8c5.1,1.8,10.4,2.7,15.8,2.6c3.6,0,7.2-0.4,10.6-1.3
	c3.4-0.8,6.7-2.1,9.8-3.8c1.7-0.9,3.7-1.3,5.7-1c0.9,0.1,1.8,0.4,2.6,0.9c0.8,0.5,1.5,1.1,2,1.9c0.8,0.9,1.4,2,1.8,3.2
	c0.3,1.2,0.4,2.4,0.2,3.6c-0.2,1.1-0.7,2.2-1.4,3.1c-0.7,0.9-1.6,1.6-2.6,2.1c-2.8,1.6-5.8,2.8-8.8,3.8c-3.2,1.1-6.4,1.9-9.8,2.6
	c-3.3,0.7-6.7,1-10.1,1c-7.4,0.1-14.8-1.3-21.8-3.8c-6.8-2.5-13-6.3-18.2-11.2c-5.4-5.1-9.7-11.2-12.6-18.1
	c-3.2-7.8-4.7-16.1-4.5-24.6c-0.1-7.8,1.4-15.6,4.2-22.8c2.7-6.8,6.8-12.9,12-18.1c5.2-5.1,11.4-9.1,18.2-11.8
	c7.2-2.9,14.9-4.3,22.7-4.3c5.1,0,10.1,0.6,15,1.9C205.8,118.2,210.4,120,214.6,122.4z"/>
<path id="path_1" class="st0" d="M338.9,172c0.1,7.7-1.3,15.4-4,22.6c-2.5,6.8-6.4,13-11.3,18.4c-4.8,5.2-10.7,9.4-17.2,12.2
	c-6.9,2.9-14.2,4.4-21.7,4.4c-7.5,0-14.8-1.5-21.7-4.4c-6.5-2.9-12.4-7-17.2-12.2c-4.9-5.3-8.7-11.5-11.2-18.3
	c-5.2-14.6-5.2-30.6,0-45.3c2.5-6.8,6.3-13.1,11.2-18.4c4.8-5.2,10.7-9.4,17.2-12.2c10.1-4.5,21.4-5.8,32.2-3.6
	c10.9,2.2,20.8,7.7,28.3,15.8c4.9,5.3,8.7,11.5,11.3,18.3C337.6,156.6,339,164.3,338.9,172z M321.6,172c0.1-7.4-1.5-14.6-4.7-21.3
	c-2.9-6-7.4-11.2-13-14.9c-5.7-3.6-12.4-5.4-19.1-5.4c-6.8,0-13.4,1.9-19.1,5.4c-5.6,3.7-10.1,8.8-13,14.8c-3.1,6.7-4.6,14-4.6,21.3
	s1.6,14.6,4.6,21.3c2.9,6.1,7.4,11.2,13,14.9c5.7,3.6,12.4,5.4,19.1,5.4c6.8,0,13.4-1.9,19.1-5.4c5.6-3.7,10.1-8.8,13-14.9
	C320.1,186.6,321.8,179.4,321.6,172z"/>
<path id="path_2" class="st0" d="M396.6,245.8c0.9,0,1.8,0.1,2.6,0.5c0.8,0.3,1.6,0.8,2.2,1.4s1.1,1.4,1.5,2.2
	c0.3,0.8,0.5,1.7,0.5,2.6c0,0.9-0.1,1.7-0.5,2.5c-0.3,0.8-0.8,1.5-1.5,2.1c-0.6,0.6-1.4,1.1-2.2,1.4c-0.8,0.3-1.7,0.5-2.6,0.5h-40.8
	c-0.9,0-1.8-0.1-2.7-0.4c-0.8-0.3-1.6-0.8-2.2-1.5c-1.2-1.3-1.9-3.1-1.8-4.9c0-1,0.2-1.9,0.6-2.9c0.4-0.9,0.9-1.7,1.6-2.4l26.2-28
	c2.8-3,5.1-6.3,7-9.8c1.5-2.7,2.4-5.7,2.6-8.8c0.2-3.6-1.1-7-3.5-9.7c-1.2-1.2-2.6-2.2-4.2-2.8c-1.6-0.6-3.3-0.9-5-0.8
	c-1.6,0-3.2,0.4-4.7,1.1c-1.7,0.8-3.2,1.8-4.6,3c-1.5,1.3-2.9,2.8-4.1,4.4c-0.7,1.1-1.7,1.9-2.9,2.4c-0.9,0.3-1.7,0.5-2.6,0.5
	c-1.8,0-3.5-0.7-4.9-2c-0.7-0.6-1.2-1.3-1.6-2.1s-0.6-1.7-0.6-2.6c0-1.5,0.5-2.9,1.4-4c1-1.4,2.2-2.8,3.4-4c2-2,4.3-3.8,6.7-5.3
	c2.4-1.5,5-2.7,7.7-3.5c2.5-0.8,5.1-1.2,7.7-1.3c4.9-0.1,9.7,1,14,3.2c3.9,2,7.1,5.2,9.2,9c2.2,4.2,3.4,9,3.2,13.7
	c0,4.4-1.3,9.3-3.9,14.7c-2.7,5.6-6.2,10.7-10.5,15.2L371,246.9l-1.3-1.1H396.6z"/>
<path id="path_3" d="M412.9,106c-2.3-13.9-7.9-27-16.4-38.1c-8.5-11.2-19.6-20.1-32.4-26c-12.8-5.9-26.8-8.5-40.8-7.8
	s-27.7,5-39.7,12.2c-17.8-21.2-42-36.1-69.1-42.2S159.2,1,134,12.5C108.8,24,88,43.5,75,67.9c-13.1,24.4-17.8,52.5-13.4,79.8
	c-19.1,5.1-35.8,16.9-46.8,33.4S-0.9,217.4,1.7,237c2.6,19.6,12.2,37.7,27,50.7c14.9,13.1,34,20.3,53.8,20.3H410c0.8,0,1.5,0,2.2,0
	h0.9c26.2-0.9,51.1-11.9,69.3-30.7c18.2-18.9,28.4-44.1,28.4-70.3c0-26.2-10.3-51.4-28.5-70.3S439.1,106.9,412.9,106L412.9,106z
	 M411.7,288c-0.6,0-1.1,0-1.7,0H84.6c-0.3,0-0.5,0-0.8,0h-1.3c-15.6,0-30.7-6-42-16.7c-11.4-10.7-18.3-25.3-19.3-40.9s4-31,13.9-43
	s24.1-19.9,39.6-21.9c1.4-0.2,2.8-0.7,4-1.4c1.2-0.7,2.2-1.7,3-2.9c0.8-1.2,1.3-2.5,1.6-3.9c0.3-1.4,0.2-2.8-0.1-4.2
	c-6-24.1-3.4-49.5,7.4-71.8s29-40.2,51.5-50.6c22.5-10.4,48-12.5,71.9-6.1c24,6.4,44.9,20.9,59.3,41.2c0.8,1.1,1.8,2,2.9,2.7
	c1.1,0.7,2.4,1.2,3.8,1.4c1.3,0.2,2.7,0.1,4-0.2c1.3-0.3,2.5-0.9,3.6-1.8c9.5-7.4,20.9-12,32.9-13.4c12-1.4,24.1,0.6,35.1,5.6
	c11,5,20.3,13,27.1,23c6.8,10,10.6,21.7,11.3,33.7c0.1,1.3,0.4,2.6,1,3.8c0.6,1.2,1.4,2.3,2.4,3.2c1,0.9,2.1,1.6,3.4,2
	c1.3,0.4,2.6,0.6,3.9,0.5c1.8-0.1,3.6-0.2,5.4-0.2c21.5,0,42.1,8.6,57.2,23.8c15.2,15.2,23.7,35.8,23.8,57.2
	C491,250.7,455.5,287,411.7,288z"/>
<path id="path_4" d="M461,511H317.3c-9.6,0-18.9-3.4-26.4-9.5c-7.4-6.1-12.5-14.7-14.3-24.1c-1.8-9.5-0.3-19.2,4.4-27.7
	c4.6-8.4,12.1-15,21-18.5c-0.1-1.7-0.2-3.3-0.2-5c0-12.2,3.6-24.1,10.4-34.2c6.8-10.1,16.5-17.9,27.7-22.5
	c11.3-4.6,23.7-5.7,35.6-3.2c11.9,2.5,22.8,8.5,31.3,17.2c5.7-2.6,12-4,18.3-4c6.3,0,12.5,1.4,18.3,4c5.7,2.7,10.8,6.5,14.9,11.4
	c4.1,4.8,7,10.5,8.7,16.5c12.5,1.6,23.9,7.8,32,17.5c8.1,9.6,12.2,22,11.6,34.5c-0.6,12.6-5.9,24.4-14.9,33.2
	c-9,8.8-20.9,13.9-33.5,14.3H461z M318.4,491h143.3c7.9-0.2,15.3-3.5,20.8-9.1c5.5-5.7,8.5-13.2,8.4-21.1
	c-0.1-7.9-3.2-15.4-8.8-20.9c-5.6-5.6-13.1-8.7-21-8.7c-0.7,0-1.3,0-2,0.1c-1.3,0.1-2.7-0.1-3.9-0.5c-1.3-0.4-2.4-1.1-3.4-2
	c-1-0.9-1.8-1.9-2.4-3.2c-0.6-1.2-0.9-2.5-1-3.8c-0.3-6-2.9-11.6-7.2-15.8c-4.4-4.1-10.1-6.4-16.1-6.4c-5.2,0-10.2,1.7-14.3,4.9
	c-1.1,0.8-2.3,1.4-3.6,1.8c-1.3,0.3-2.7,0.4-4,0.2c-1.3-0.2-2.6-0.7-3.8-1.4s-2.1-1.6-2.9-2.7c-5.6-7.8-13.7-13.3-22.9-15.8
	c-9.2-2.4-19-1.6-27.7,2.4c-8.7,4-15.7,10.9-19.9,19.5c-4.2,8.6-5.2,18.4-2.9,27.7c0.3,1.4,0.4,2.8,0.1,4.2
	c-0.2,1.4-0.8,2.7-1.6,3.9c-0.8,1.2-1.8,2.1-3,2.9c-1.2,0.7-2.6,1.2-4,1.4c-5.4,0.7-10.3,3.4-13.8,7.6c-3.5,4.2-5.2,9.6-4.9,15
	c0.4,5.4,2.8,10.5,6.7,14.2c4,3.7,9.2,5.8,14.6,5.8H318.4z"/>
<path id="path_5" d="M208.7,448.4H97.5h-1c-10.2-0.2-20-4.3-27.4-11.4c-7.4-7.1-11.8-16.7-12.5-26.9C56,400,59.2,389.9,65.6,382
	s15.6-13.3,25.7-14.8c1.5-4.7,4-9.1,7.2-12.8c3.3-3.7,7.3-6.7,11.8-8.8c4.5-2.1,9.3-3.2,14.3-3.3c4.9-0.1,9.9,0.8,14.4,2.7
	c7-6.8,15.8-11.3,25.4-13.1c9.6-1.8,19.5-0.7,28.4,3.1c9,3.8,16.6,10.2,22,18.3c5.4,8.1,8.2,17.6,8.2,27.4c0,0.8,0,1.6-0.1,2.4
	c7.1,3.2,12.9,8.8,16.4,15.8c3.5,7,4.5,15,2.9,22.6c-1.7,7.6-5.9,14.5-12,19.4C224.2,445.8,216.6,448.4,208.7,448.4L208.7,448.4z
	 M208.2,428.4h0.5c3.6,0,7.1-1.4,9.8-3.9c2.6-2.5,4.2-5.9,4.5-9.5c0.2-3.6-0.9-7.2-3.2-10c-2.3-2.8-5.6-4.6-9.2-5.1
	c-1.4-0.2-2.7-0.6-3.9-1.4c-1.2-0.7-2.2-1.7-3-2.9c-0.8-1.2-1.3-2.5-1.6-3.9c-0.2-1.4-0.2-2.8,0.1-4.2c1.7-6.7,0.9-13.7-2-19.9
	c-3-6.2-8-11.2-14.3-14c-6.3-2.9-13.3-3.5-20-1.7c-6.7,1.8-12.5,5.8-16.5,11.4c-0.8,1.1-1.8,2-2.9,2.7c-1.1,0.7-2.4,1.2-3.8,1.4
	c-1.3,0.2-2.7,0.1-4-0.2c-1.3-0.3-2.5-0.9-3.6-1.8c-2.3-1.8-5-2.9-7.9-3.2c-2.9-0.3-5.8,0.1-8.4,1.3c-2.6,1.2-4.9,3.1-6.5,5.5
	c-1.6,2.4-2.6,5.2-2.7,8.1c-0.1,1.3-0.4,2.6-1,3.8c-0.6,1.2-1.4,2.3-2.4,3.2c-1,0.9-2.2,1.6-3.4,2c-1.3,0.4-2.6,0.6-3.9,0.5
	c-0.5,0-0.9-0.1-1.4-0.1c-2.7,0-5.5,0.5-8,1.5c-2.5,1-4.9,2.5-6.8,4.5c-4,3.9-6.2,9.2-6.3,14.7c-0.1,5.6,2.1,10.9,6,14.8
	c3.9,4,9.2,6.2,14.7,6.3L208.2,428.4L208.2,428.4z"/>
<path id="path_6" d="M413.1,307.9c-0.4,0-0.7,0.1-1.1,0.1h-2c0.8,0,1.5,0,2.2,0L413.1,307.9z"/>
</svg>
