<?xml version="1.0" encoding="utf-8"?>
<!-- Generator: Adobe Illustrator 28.2.0, SVG Export Plug-In . SVG Version: 6.00 Build 0)  -->
<svg version="1.1" id="vector" xmlns="http://www.w3.org/2000/svg" xmlns:xlink="http://www.w3.org/1999/xlink" x="0px" y="0px"
	 viewBox="0 0 512 512" style="enable-background:new 0 0 512 512;" xml:space="preserve">
<style type="text/css">
	.st0{fill:#33B0DF;}
</style>
<path id="path_0" class="st0" d="M303,358h-0.2c-2.1,0-4.2-0.8-5.9-2c-1.7-1.3-2.9-3.1-3.5-5.1l-32.2-109.6l-9,20.7
	c-0.8,1.8-2.1,3.3-3.7,4.4c-1.6,1.1-3.5,1.6-5.5,1.6h-45c-2.6,0-5.2-1-7.1-2.9c-1.9-1.9-2.9-4.4-2.9-7.1c0-2.6,1.1-5.2,2.9-7.1
	c1.9-1.9,4.4-2.9,7.1-2.9h38.4l17.4-40c0.8-1.9,2.2-3.5,3.9-4.5c1.8-1.1,3.8-1.6,5.8-1.4c2.1,0.1,4,0.9,5.6,2.2c1.6,1.3,2.8,3,3.4,5
	l31,105.4l59.9-179.8c0.7-2,1.9-3.7,3.6-4.9c1.7-1.2,3.8-1.9,5.9-1.9h0c2.1,0,4.2,0.7,5.9,1.9c1.7,1.2,3,3,3.6,5l47.4,147.4
	l14.1-28.7c0.8-1.7,2.1-3.1,3.7-4.1c1.6-1,3.4-1.5,5.3-1.5h48c2.6,0,5.2,1.1,7.1,2.9c1.9,1.9,2.9,4.4,2.9,7.1s-1,5.2-2.9,7.1
	c-1.9,1.9-4.4,2.9-7.1,2.9h-41.8L437,313.4c-0.9,1.8-2.3,3.3-4,4.3c-1.7,1-3.7,1.4-5.7,1.3c-2-0.1-3.9-0.9-5.5-2.1
	c-1.6-1.2-2.7-2.9-3.3-4.8l-45.7-141.9l-60.3,181c-0.7,2-1.9,3.7-3.6,5C307.1,357.3,305.1,358,303,358z"/>
<path id="path_1" d="M201.7,120.3c-1.3-0.9-2.9-1.5-4.5-1.7c-1.6-0.2-3.2,0-4.8,0.6L94.2,156H56c-2.7,0-5.2,1.1-7.1,2.9
	c-1.9,1.9-2.9,4.4-2.9,7.1v20H16c-2.6,0-5.2,1.1-7.1,2.9C7.1,190.8,6,193.4,6,196v120c0,2.6,1.1,5.2,2.9,7.1
	c1.9,1.9,4.4,2.9,7.1,2.9h30v20c0,2.6,1,5.2,2.9,7.1c1.9,1.9,4.4,2.9,7.1,2.9h38.2l98.3,36.9c1.1,0.4,2.3,0.6,3.5,0.6
	c2.6,0,5.2-1,7.1-2.9c1.9-1.9,2.9-4.4,2.9-7.1v-255c0-1.6-0.4-3.2-1.1-4.6S203,121.2,201.7,120.3z M26,306V206h20v100H26z
	 M186,369.1l-86.5-32.4c-1.1-0.4-2.3-0.6-3.5-0.6H66V176h30c1.2,0,2.4-0.2,3.5-0.6l86.5-32.4V369.1z"/>
</svg>
