<?xml version="1.0" encoding="utf-8"?>
<!-- Generator: Adobe Illustrator 28.2.0, SVG Export Plug-In . SVG Version: 6.00 Build 0)  -->
<svg version="1.1" id="vector" xmlns="http://www.w3.org/2000/svg" xmlns:xlink="http://www.w3.org/1999/xlink" x="0px" y="0px"
	 viewBox="0 0 512 512" style="enable-background:new 0 0 512 512;" xml:space="preserve">
<style type="text/css">
	.st0{fill:#33B0DF;}
</style>
<path id="path_0" d="M175.4,457c-17.7,0-35-4.5-50.5-13c-15.5-8.5-28.5-20.8-38-35.7c-9.3,0.8-18.7-0.2-27.7-2.9
	c-12-3.5-23-9.9-31.9-18.7c-9-8.7-15.7-19.6-19.5-31.5c-3.8-11.9-4.7-24.6-2.5-36.9c2.2-12.3,7.4-23.9,15.1-33.8
	c-13-18.4-20-40.5-19.9-63C0.5,199,7.6,177,20.7,158.6c13.1-18.4,31.6-32.2,53-39.5c21.3-7.4,44.4-7.9,66.1-1.5
	c3.4,1,6.7,2.2,10,3.5c11.6-28.2,32.1-51.9,58.4-67.3c26.3-15.4,57-21.8,87.3-18.2c30.3,3.6,58.6,17.1,80.5,38.3
	c21.9,21.2,36.3,49.1,40.9,79.2c16.6,4.9,32.1,13.1,45.5,24c13.5,10.9,24.6,24.4,32.9,39.6c8.2,15.2,13.4,31.9,15.2,49.1
	c1.8,17.2,0.2,34.6-4.8,51.2c-4.9,16.6-13.1,32.1-24,45.5c-10.9,13.5-24.4,24.6-39.6,32.9c-15.2,8.2-31.9,13.4-49.1,15.2
	c-17.2,1.8-34.6,0.2-51.2-4.8c-8-2.4-15.8-5.5-23.3-9.3c-7.9,6.4-17.1,11.1-27,13.8s-20.1,3.4-30.2,2c-9.7,13.8-22.5,25.1-37.5,32.9
	C208.8,452.9,192.2,457,175.4,457z M92.1,387.6c1.8,0,3.6,0.5,5.1,1.4c1.5,0.9,2.8,2.2,3.7,3.8c7.2,13.1,17.6,24.1,30.4,31.9
	s27.3,12,42.2,12.4s29.7-3.3,42.8-10.5c13.1-7.2,24-17.7,31.7-30.5c1.1-1.8,2.7-3.2,4.7-4.1s4.1-1,6.2-0.5c9.1,2.2,18.5,2,27.5-0.5
	c9-2.5,17.2-7.3,23.8-13.8c1.6-1.5,3.6-2.5,5.8-2.8c2.2-0.3,4.4,0.2,6.3,1.3c14.6,8.6,31.1,13.8,48,15.1c17,1.3,34-1.2,49.8-7.5
	c15.8-6.2,30-16,41.4-28.6c11.5-12.6,19.9-27.6,24.7-43.9c8.4-28.4,5.1-59-9.1-85.1c-14.2-26-38.2-45.3-66.6-53.7
	c-1.7-0.5-3.4-1-5.1-1.4c-2-0.5-3.8-1.6-5.2-3.1c-1.4-1.6-2.2-3.5-2.4-5.6c-2.3-23.7-11.7-46.1-26.9-64.4
	c-15.2-18.3-35.5-31.6-58.3-38.3c-61.8-18.2-128.1,17-147.6,78.4c-0.4,1.4-1.2,2.7-2.2,3.8c-1,1.1-2.2,1.9-3.6,2.5
	c-1.4,0.6-2.8,0.8-4.3,0.7c-1.5-0.1-2.9-0.5-4.2-1.2c-18.1-9.6-39.1-12.7-59.2-8.6c-20.2,4.1-38.2,15-51.2,31
	c-13,15.9-20,35.9-19.9,56.5c0.1,20.6,7.4,40.4,20.5,56.2c1.6,1.9,2.4,4.4,2.3,6.8c-0.1,2.5-1.1,4.8-2.9,6.6
	c-6.9,7-11.8,15.6-14.4,25.1c-2.6,9.5-2.6,19.4-0.1,28.9c2.5,9.5,7.3,18.2,14.1,25.2c6.8,7,15.3,12.2,24.8,15
	c8.3,2.5,17.1,3,25.6,1.5C91,387.6,91.5,387.6,92.1,387.6z"/>
<path id="path_1" class="st0" d="M204.2,199c1.1,0.5,2,1.2,2.8,2.2c0.7,0.9,1.2,2.1,1.3,3.2c0.2,1.2,0.1,2.4-0.2,3.6
	c-0.3,1.2-0.9,2.2-1.7,3.2c-0.5,0.8-1.2,1.4-2,1.9c-0.8,0.5-1.7,0.8-2.6,0.9c-1.9,0.2-3.8-0.2-5.5-1.1c-3.1-1.6-6.4-2.9-9.8-3.8
	c-3.5-1-7.2-1.5-10.9-1.4c-5.6-0.1-11.2,0.9-16.4,3c-4.7,1.9-9,4.8-12.6,8.5c-3.6,3.7-6.3,8.2-8.1,13c-1.9,5.3-2.9,11-2.8,16.6
	c-0.1,6.1,0.9,12.1,3,17.8c1.9,4.9,4.7,9.4,8.4,13.1c3.6,3.6,7.9,6.3,12.6,8c5.1,1.8,10.4,2.7,15.8,2.6c3.6,0,7.2-0.4,10.6-1.3
	c3.4-0.8,6.7-2.1,9.8-3.8c1.7-0.9,3.7-1.3,5.7-1c0.9,0.1,1.8,0.4,2.6,0.9c0.8,0.5,1.5,1.1,2,1.9c0.8,0.9,1.4,2,1.8,3.2
	c0.3,1.2,0.4,2.4,0.2,3.6c-0.2,1.1-0.7,2.2-1.4,3.1c-0.7,0.9-1.6,1.6-2.6,2.1c-2.8,1.5-5.8,2.8-8.8,3.8c-3.2,1.1-6.4,1.9-9.8,2.6
	c-3.3,0.6-6.7,1-10.1,1c-7.4,0-14.8-1.3-21.7-3.9c-6.8-2.5-12.9-6.3-18.2-11.2c-5.4-5.1-9.7-11.2-12.6-18.1
	c-3.2-7.8-4.7-16.1-4.6-24.5c-0.1-7.8,1.4-15.6,4.2-22.8c2.7-6.8,6.8-13,12-18.1c5.2-5.1,11.4-9.1,18.1-11.8
	c7.2-2.9,14.9-4.3,22.7-4.2c5.1,0,10.1,0.6,15,1.9C195.4,194.8,200,196.6,204.2,199z"/>
<path id="path_2" class="st0" d="M328.6,248.6c0.1,7.7-1.3,15.4-4,22.6c-2.5,6.8-6.4,13-11.3,18.3c-4.8,5.2-10.7,9.4-17.2,12.2
	c-6.9,2.9-14.2,4.4-21.7,4.4c-7.4,0-14.8-1.5-21.7-4.4c-6.5-2.8-12.4-7-17.2-12.2c-4.9-5.3-8.7-11.5-11.2-18.3
	c-5.2-14.6-5.2-30.6,0-45.3c2.5-6.8,6.3-13,11.2-18.3c4.8-5.2,10.7-9.4,17.2-12.2c6.9-2.9,14.2-4.4,21.7-4.4
	c7.5,0,14.8,1.5,21.7,4.4c6.5,2.9,12.4,7,17.2,12.2c4.9,5.3,8.7,11.6,11.3,18.4C327.3,233.2,328.6,240.9,328.6,248.6z M311.3,248.6
	c0.1-7.4-1.5-14.7-4.7-21.3c-2.9-6-7.4-11.2-13-14.9c-5.7-3.6-12.4-5.4-19.1-5.4s-13.4,1.9-19.1,5.4c-5.6,3.7-10.1,8.8-13,14.8
	c-3.1,6.7-4.6,14-4.6,21.3s1.6,14.6,4.6,21.3c2.9,6,7.4,11.2,13,14.9c5.7,3.6,12.4,5.4,19.1,5.4s13.4-1.9,19.1-5.4
	c5.6-3.7,10.1-8.8,13-14.9C309.8,263.3,311.4,256,311.3,248.6z"/>
<path id="path_3" class="st0" d="M386.3,322.4c0.9,0,1.8,0.1,2.6,0.5c0.8,0.3,1.6,0.8,2.2,1.5c0.6,0.6,1.1,1.4,1.5,2.2
	c0.3,0.8,0.5,1.7,0.5,2.6c0,0.9-0.1,1.7-0.5,2.5c-0.3,0.8-0.8,1.5-1.5,2.1c-0.6,0.6-1.4,1.1-2.2,1.4c-0.8,0.3-1.7,0.5-2.6,0.4h-40.8
	c-0.9,0-1.8-0.1-2.7-0.4c-0.9-0.3-1.6-0.8-2.2-1.5c-1.2-1.3-1.9-3.1-1.8-4.9c0-1,0.2-2,0.6-2.9c0.4-0.9,0.9-1.7,1.6-2.4l26.2-28
	c2.8-2.9,5.1-6.3,7-9.8c1.5-2.7,2.4-5.7,2.6-8.8c0.2-3.6-1.1-7-3.5-9.7c-1.2-1.2-2.6-2.2-4.2-2.8c-1.6-0.6-3.3-0.9-5-0.8
	c-1.6,0-3.2,0.4-4.7,1.1c-1.7,0.8-3.2,1.8-4.6,3c-1.5,1.3-2.9,2.8-4.1,4.4c-0.7,1.1-1.7,1.9-2.9,2.4c-0.9,0.3-1.8,0.5-2.7,0.5
	c-1.8,0-3.5-0.7-4.9-2c-0.7-0.6-1.2-1.3-1.6-2.1c-0.4-0.8-0.6-1.7-0.6-2.6c0-1.5,0.5-2.9,1.4-4c1-1.4,2.2-2.8,3.4-4
	c2-2,4.3-3.8,6.7-5.3c2.4-1.5,5-2.7,7.7-3.5c2.5-0.8,5.1-1.2,7.7-1.3c4.9-0.1,9.7,1,14,3.2c3.9,2,7.1,5.2,9.2,9
	c2.2,4.2,3.4,9,3.2,13.7c0,4.4-1.3,9.3-3.9,14.7c-2.7,5.6-6.2,10.7-10.5,15.2l-16.2,17.3l-1.3-1.1L386.3,322.4z"/>
</svg>
