<?xml version="1.0" encoding="utf-8"?>
<!-- Generator: Adobe Illustrator 28.2.0, SVG Export Plug-In . SVG Version: 6.00 Build 0)  -->
<svg version="1.1" id="vector" xmlns="http://www.w3.org/2000/svg" xmlns:xlink="http://www.w3.org/1999/xlink" x="0px" y="0px"
	 viewBox="0 0 512 512" style="enable-background:new 0 0 512 512;" xml:space="preserve">
<style type="text/css">
	.st0{fill:#33B0DF;}
</style>
<path id="path_0" d="M501,1H11C8.4,1,5.8,2,3.9,3.9C2,5.8,1,8.4,1,11v490c0,2.6,1,5.2,2.9,7.1C5.8,510,8.4,511,11,511h490
	c2.6,0,5.2-1,7.1-2.9c1.9-1.9,2.9-4.4,2.9-7.1V11c0-2.6-1-5.2-2.9-7.1C506.2,2,503.6,1,501,1z M491,491H21V21h470V491z"/>
<path id="path_1" class="st0" d="M60,90c-5.9,0-11.7-1.8-16.7-5.1c-4.9-3.3-8.8-8-11.1-13.5C30,66,29.4,60,30.6,54.2
	c1.1-5.8,4-11.2,8.2-15.4c4.2-4.2,9.5-7.1,15.4-8.2C60,29.4,66,30,71.5,32.3c5.5,2.3,10.2,6.1,13.5,11.1C88.2,48.3,90,54.1,90,60
	c0,8-3.2,15.6-8.8,21.2C75.6,86.8,68,90,60,90z M60,50c-2,0-3.9,0.6-5.6,1.7c-1.6,1.1-2.9,2.7-3.7,4.5C50,58,49.8,60,50.2,62
	c0.4,1.9,1.3,3.7,2.7,5.1s3.2,2.3,5.1,2.7c1.9,0.4,4,0.2,5.8-0.6c1.8-0.8,3.4-2,4.5-3.7C69.4,63.9,70,62,70,60
	c0-2.7-1.1-5.2-2.9-7.1C65.2,51,62.7,50,60,50z"/>
<path id="path_2" class="st0" d="M452,90c-5.9,0-11.7-1.8-16.7-5.1c-4.9-3.3-8.8-8-11-13.5c-2.3-5.5-2.9-11.5-1.7-17.3
	c1.2-5.8,4-11.2,8.2-15.4c4.2-4.2,9.5-7.1,15.4-8.2c5.8-1.2,11.9-0.6,17.3,1.7c5.5,2.3,10.2,6.1,13.5,11.1
	c3.3,4.9,5.1,10.7,5.1,16.7c0,8-3.2,15.6-8.8,21.2C467.6,86.8,460,90,452,90z M452,50c-2,0-3.9,0.6-5.6,1.7
	c-1.6,1.1-2.9,2.7-3.7,4.5c-0.8,1.8-1,3.8-0.6,5.8c0.4,1.9,1.3,3.7,2.7,5.1s3.2,2.3,5.1,2.7c1.9,0.4,4,0.2,5.8-0.6
	c1.8-0.8,3.4-2,4.5-3.7c1.1-1.6,1.7-3.6,1.7-5.6c0-2.7-1-5.2-2.9-7.1C457.2,51,454.6,50,452,50z"/>
<path id="path_3" class="st0" d="M60,481c-5.9,0-11.7-1.8-16.7-5.1c-4.9-3.3-8.8-8-11.1-13.5c-2.3-5.5-2.9-11.5-1.7-17.3
	c1.1-5.8,4-11.2,8.2-15.4c4.2-4.2,9.5-7.1,15.4-8.2c5.8-1.2,11.8-0.6,17.3,1.7c5.5,2.3,10.2,6.1,13.5,11c3.3,4.9,5.1,10.7,5.1,16.7
	c0,8-3.2,15.6-8.8,21.2C75.6,477.8,68,481,60,481z M60,441c-2,0-3.9,0.6-5.6,1.7c-1.6,1.1-2.9,2.7-3.7,4.5c-0.8,1.8-0.9,3.8-0.6,5.8
	c0.4,1.9,1.3,3.7,2.7,5.1s3.2,2.4,5.1,2.7c1.9,0.4,4,0.2,5.8-0.6c1.8-0.8,3.4-2,4.5-3.7c1.1-1.6,1.7-3.6,1.7-5.6
	c0-2.6-1.1-5.2-2.9-7.1C65.2,442,62.7,441,60,441z"/>
<path id="path_4" class="st0" d="M452,481c-5.9,0-11.7-1.8-16.7-5.1c-4.9-3.3-8.8-8-11-13.5c-2.3-5.5-2.9-11.5-1.7-17.3
	c1.2-5.8,4-11.2,8.2-15.4c4.2-4.2,9.5-7.1,15.4-8.2c5.8-1.2,11.9-0.6,17.3,1.7c5.5,2.3,10.2,6.1,13.5,11c3.3,4.9,5.1,10.7,5.1,16.7
	c0,8-3.2,15.6-8.8,21.2C467.6,477.8,460,481,452,481z M452,441c-2,0-3.9,0.6-5.6,1.7c-1.6,1.1-2.9,2.7-3.7,4.5
	c-0.8,1.8-1,3.8-0.6,5.8c0.4,1.9,1.3,3.7,2.7,5.1s3.2,2.4,5.1,2.7c1.9,0.4,4,0.2,5.8-0.6c1.8-0.8,3.4-2,4.5-3.7
	c1.1-1.6,1.7-3.6,1.7-5.6c0-2.6-1-5.2-2.9-7.1C457.2,442,454.6,441,452,441z"/>
<path id="path_5" d="M407.3,104.7c-19.9-20-43.4-35.8-69.4-46.7c-26-10.8-53.9-16.5-82-16.5c-28.2,0-56.1,5.5-82.1,16.2
	c-26,10.8-49.7,26.6-69.6,46.5c-19.9,19.9-35.7,43.6-46.5,69.6c-10.8,26-16.3,53.9-16.2,82.1c0,28.2,5.7,56,16.5,82
	c10.8,26,26.7,49.6,46.7,69.4c19.8,20,43.4,35.9,69.4,46.7c26,10.8,53.9,16.4,82,16.5c28.2,0,56.1-5.5,82.1-16.2
	c26-10.8,49.7-26.6,69.6-46.5c19.9-19.9,35.7-43.6,46.5-69.6c10.8-26,16.3-53.9,16.2-82.1c-0.1-28.2-5.7-56-16.5-82
	C443.2,148.1,427.3,124.5,407.3,104.7z M256,450c-107,0-194-87-194-194S149,62,256,62s194,87,194,194S363,450,256,450z"/>
<path id="path_6" d="M417.9,198c-12-14.1-33.6-30.9-68.5-30.9c-46.7,0-72.1,27.9-81.6,41.3c-1.2,1.6-2.1,3.1-2.8,4.2
	c-0.1-1.6-0.1-3.2-0.1-4.7c0-23.9,10.4-38.8,18.9-51.1c9.8-14.1,11.8-28.5,5.8-43C275,77.9,207.5,82.8,176.9,95.4
	c-18,7.4-34.6,23.1-44.4,42.1c-8.5,16.4-15.9,42.8-2.6,75.1c22.6,55,73.7,60.9,77.2,61.3c0.3,1,0.6,2,1,3
	c-20.7,16.5-40.2,16.8-56,17.1c-17.2,0.3-30,7.1-38.3,20.3c-9.2,14.7-6.3,35.4,8.1,58.3c10.9,17.3,27.7,34.5,42.8,44
	c13,8.1,29.6,12.5,46.4,12.5c4.6,0,9.1-0.3,13.7-1c18.3-2.7,44.1-12.1,62.5-41.6c25.3-40.5,14.1-77.5,7.9-92
	c-0.7-1.6-1.3-2.9-1.8-3.9c0.6,0.3,1.2,0.6,1.8,0.8c0.7,0.2,1.5,0.4,2.2,0.7c25.9,8.6,36.8,25.4,45.5,38.9
	c9.3,14.4,22,21.7,37.5,21.7c38.6,0,59.7-64.4,59.7-97.4C440,235.6,431.7,214.2,417.9,198z M288.9,259.1c0,6.3-1.9,12.5-5.4,17.8
	c-3.5,5.3-8.5,9.4-14.4,11.8c-5.9,2.4-12.3,3.1-18.5,1.8c-6.2-1.2-11.9-4.3-16.4-8.8c-4.5-4.5-7.5-10.2-8.8-16.4
	c-1.2-6.2-0.6-12.6,1.8-18.5c2.4-5.8,6.5-10.8,11.8-14.4c5.3-3.5,11.4-5.4,17.8-5.4c8.5,0,16.6,3.4,22.6,9.4
	C285.5,242.5,288.9,250.6,288.9,259.1L288.9,259.1z M205.3,253.3c-10.8-2.1-41.7-11.4-56.9-48.3c-10.3-25.2-4.7-45.6,1.9-58.3
	c9.1-17.5,23.6-28.4,34.2-32.8c13.7-5.6,34.6-8.7,51.9-7.7c18.7,1.1,31.3,6.6,34.8,15c2.2,5.4,3.8,13.1-3.8,24
	c-9.2,13.3-22.7,32.7-22.5,63.3c-10.4,2.5-19.8,8.1-26.9,16.1C210.9,232.6,206.5,242.6,205.3,253.3L205.3,253.3z M270.3,375.7
	c-14.4,23.1-34.3,30.4-48.5,32.5c-19.5,2.9-36.9-2.6-46.6-8.7c-12.6-7.9-27.2-23-36.5-37.7c-10-15.8-12.9-29.3-8.1-37
	c3.1-5,8.4-10.7,21.7-10.9c16.5-0.2,40.8-0.6,66.1-19.9c7.4,8.2,17.2,13.8,28,16c10.8,2.2,22,1,32-3.6
	C283.2,319.5,288.6,346.4,270.3,375.7z M407.4,305.9c-8.1,16.8-18,26.5-27.1,26.5c-5.9,0-13.5-1.4-20.7-12.6
	c-9.1-14-22.5-34.7-52.8-45.9c3.1-10.5,2.9-21.7-0.8-32c-3.6-10.3-10.4-19.2-19.3-25.5c8.8-11,28.6-29.5,62.8-29.5
	c27.2,0,44,13,53.2,23.9c12.8,15,17.3,32.6,17.3,44.1C420,269.8,414.9,290.3,407.4,305.9z"/>
<path id="path_7" d="M295.1,291.1c-0.6-0.2-1.2-0.4-1.8-0.8c0.5,1,1.1,2.3,1.8,3.9c0.7-0.8,1.5-1.6,2.1-2.5
	C296.5,291.6,295.8,291.3,295.1,291.1z M264.9,207.7c0,1.5,0,3.1,0.1,4.7c0.7-1.1,1.6-2.5,2.8-4.2
	C266.9,208,265.9,207.9,264.9,207.7z"/>
<path id="path_8" d="M256.9,277.9c10.4,0,18.8-8.4,18.8-18.9c0-10.4-8.4-18.8-18.8-18.8c-10.4,0-18.9,8.4-18.9,18.8
	C238,269.5,246.5,277.9,256.9,277.9z"/>
</svg>
