<?xml version="1.0" encoding="utf-8"?>
<!-- Generator: Adobe Illustrator 28.2.0, SVG Export Plug-In . SVG Version: 6.00 Build 0)  -->
<svg version="1.1" id="vector" xmlns="http://www.w3.org/2000/svg" xmlns:xlink="http://www.w3.org/1999/xlink" x="0px" y="0px"
	 viewBox="0 0 512 512" style="enable-background:new 0 0 512 512;" xml:space="preserve">
<style type="text/css">
	.st0{fill:#33B0DF;}
</style>
<path id="path_0" d="M497.2,383.6h-90v-7c0-2.6-1-5.2-2.9-7.1c-1.9-1.9-4.4-2.9-7.1-2.9h-32c-2.6,0-5.2,1.1-7.1,2.9
	c-1.9,1.9-2.9,4.4-2.9,7.1v7.8c-10.8-5.6-22.8-8.5-34.9-8.4c-2.2-13.2-8.8-25.2-18.7-34.2c9.5-17.5,13.6-37.4,11.8-57.2
	s-9.3-38.7-21.6-54.3c4.2-7.7,6.5-16.4,6.4-25.3c0-4.5-0.6-8.9-1.7-13.3c11.7-11.1,19.8-25.5,23.2-41.2c3.4-15.8,2.1-32.2-3.9-47.2
	c-6-15-16.3-27.8-29.7-36.9c-13.3-9-29.1-13.9-45.2-13.9c-3.6,0-7.2,0.2-10.7,0.7c-5.2-7.8-11.9-14.3-19.8-19.2s-16.8-8-26.1-9.1
	c-9.2-1.1-18.6-0.2-27.5,2.6c-8.9,2.8-17,7.5-23.9,13.8c-13.3-8.3-28.7-12.8-44.4-12.7c-16.7,0-33,5-46.9,14.3
	C27.9,52.3,17.2,65.5,10.9,81s-7.8,32.5-4.3,48.8c3.5,16.3,11.7,31.3,23.7,42.9c-12.1,13.6-19.6,30.6-21.4,48.7
	c-1.8,18.1,2.2,36.3,11.3,52s23.1,28.1,39.8,35.4c16.6,7.3,35.2,9.1,52.9,5.2c4.4,21.1,15.3,40.3,31.3,54.8
	c16,14.5,36.2,23.5,57.7,25.7c1.1,7.9,3.8,15.4,7.9,22.3c4.1,6.8,9.5,12.8,15.9,17.5c6.4,4.7,13.7,8.1,21.4,10
	c7.7,1.9,15.7,2.2,23.6,1c10.8,12.1,29.1,19.5,49.4,19.5c13.1,0,25.3-3,35.2-8.4v10.4c0,2.7,1.1,5.2,2.9,7.1
	c1.9,1.9,4.4,2.9,7.1,2.9h32c2.7,0,5.2-1,7.1-2.9c1.9-1.9,2.9-4.4,2.9-7.1v-7h90c2.7,0,5.2-1,7.1-2.9c1.9-1.9,2.9-4.4,2.9-7.1v-56
	c0-1.3-0.3-2.6-0.8-3.8c-0.5-1.2-1.2-2.3-2.2-3.2c-0.9-0.9-2-1.7-3.2-2.2C499.8,383.8,498.5,383.6,497.2,383.6z M320,444.6
	c-16,0-30.8-6.4-36.8-15.9c-1.1-1.8-2.9-3.2-4.9-4c-2-0.8-4.2-0.9-6.3-0.3c-3.5,1-7.2,1.5-10.8,1.5c-10.6,0-20.7-4.2-28.2-11.7
	c-7.5-7.5-11.7-17.6-11.7-28.1v-0.5c0.1-1.3-0.1-2.7-0.6-4c-0.5-1.3-1.2-2.4-2.1-3.4c-0.9-1-2-1.8-3.3-2.3c-1.2-0.5-2.6-0.8-3.9-0.8
	c-20.3-0.1-39.8-7.9-54.7-21.7c-14.9-13.8-24-32.8-25.6-53c-0.1-1.5-0.6-3-1.4-4.4c-0.8-1.3-1.9-2.4-3.2-3.3
	c-1.3-0.8-2.8-1.3-4.3-1.5c-1.5-0.1-3.1,0.1-4.6,0.6c-14.5,5.5-30.5,5.7-45.2,0.5c-14.6-5.2-27-15.3-34.9-28.7
	c-7.9-13.4-10.8-29.1-8.2-44.4c2.6-15.3,10.5-29.2,22.3-39.3c1.1-1,2.1-2.2,2.7-3.6c0.6-1.4,0.9-2.9,0.8-4.4c0-1.5-0.5-3-1.2-4.3
	c-0.7-1.3-1.7-2.5-2.9-3.4C40.1,156.2,32,145,27.8,132.2s-4.2-26.6,0-39.5C32,79.9,40.1,68.7,51,60.8s24.1-12.2,37.6-12.1
	c14.3,0,28.2,4.8,39.5,13.7c2.1,1.6,4.7,2.4,7.3,2.1c2.6-0.3,5-1.6,6.6-3.6c4.7-5.7,10.8-10.2,17.6-13c6.9-2.8,14.3-3.9,21.7-3.1
	c7.4,0.8,14.4,3.4,20.5,7.6c6.1,4.2,11,9.9,14.4,16.5c1,2,2.7,3.6,4.7,4.5c2,0.9,4.3,1.2,6.5,0.7c4.5-1,9.1-1.5,13.6-1.5
	c12.6,0,24.9,3.9,35.1,11.2c10.3,7.3,18,17.6,22.2,29.5c4.1,11.9,4.5,24.8,1,36.9c-3.5,12.1-10.7,22.8-20.5,30.6
	c-1.7,1.4-2.9,3.2-3.5,5.3s-0.4,4.3,0.5,6.3c2.2,5.3,3,11.1,2.2,16.9c-0.8,5.7-3,11.1-6.6,15.7c-1.5,1.9-2.2,4.2-2.1,6.6
	c0.1,2.4,1.1,4.6,2.7,6.4c12.5,13.4,20.1,30.6,21.6,48.9c1.5,18.3-3.2,36.5-13.4,51.8c-0.7,1.1-1.2,2.3-1.5,3.6
	c-0.2,1.3-0.2,2.6,0,3.9c0.3,1.3,0.8,2.5,1.5,3.6c0.7,1.1,1.7,2,2.8,2.8c5.6,3.6,10.2,8.6,13.3,14.4c3.2,5.8,4.8,12.4,4.8,19
	c-0.1,1.5,0.2,2.9,0.7,4.2c0.5,1.3,1.4,2.5,2.5,3.5c1.1,1,2.3,1.7,3.7,2.2c1.4,0.5,2.9,0.6,4.3,0.4c2.5-0.3,5.1-0.4,7.6-0.4
	c14.8,0,28.5,5.4,35.2,13.7v21.2C348.5,439.1,334.8,444.6,320,444.6z M387.2,456.6h-12v-70h12V456.6z M487.2,439.6h-80v-36h80V439.6
	z"/>
<path id="path_1" class="st0" d="M99.5,487.5c-6,0-12-1.4-17.4-4c-5.4-2.6-10.2-6.4-14-11c-6.7,2.5-13.9,3.4-21,2.8
	c-7.1-0.6-14-2.8-20.3-6.3s-11.6-8.4-15.7-14.3c-4.1-5.8-6.9-12.5-8.2-19.6c-1.3-7-1-14.3,0.9-21.2c1.8-6.9,5.2-13.4,9.7-18.8
	c4.6-5.5,10.3-9.9,16.8-13c6.5-3,13.5-4.6,20.7-4.6c0.8,0,1.7,0,2.5,0.1c5.7-8,14.1-13.7,23.6-15.9c9.6-2.3,19.6-1,28.3,3.6
	s15.4,12.2,18.9,21.3c3.5,9.2,3.6,19.3,0.2,28.5c6.6,5.2,11.5,12.3,13.9,20.4c2.4,8.1,2.2,16.7-0.6,24.7s-7.9,14.9-14.8,19.8
	C116.1,484.9,107.9,487.5,99.5,487.5L99.5,487.5z M71.7,449.6c1,0,2,0.1,2.9,0.4c1.4,0.4,2.6,1.1,3.7,2c1.1,0.9,1.9,2.1,2.5,3.4
	c1.4,3,3.5,5.7,6.1,7.8c2.6,2.1,5.7,3.4,9,4c3.3,0.6,6.7,0.3,9.8-0.7c3.2-1,6.1-2.8,8.4-5.2c2.3-2.4,4-5.3,5-8.5
	c0.9-3.2,1.1-6.6,0.4-9.9c-0.7-3.3-2.1-6.3-4.3-8.9c-2.1-2.6-4.8-4.6-7.9-5.9c-1.4-0.6-2.6-1.5-3.6-2.6s-1.7-2.5-2.1-3.9
	c-0.4-1.5-0.5-3-0.2-4.5c0.3-1.5,0.9-2.9,1.7-4.1c1.7-2.3,2.9-5,3.4-7.8c0.6-2.8,0.6-5.7,0-8.5c-0.6-2.8-1.8-5.4-3.4-7.8
	c-1.7-2.3-3.8-4.3-6.3-5.7s-5.2-2.4-8.1-2.7c-2.8-0.3-5.7,0-8.5,0.8c-2.7,0.9-5.2,2.3-7.4,4.2c-2.2,1.9-3.9,4.2-5.1,6.8
	c-0.9,2-2.6,3.7-4.6,4.7c-2,1-4.3,1.3-6.5,0.9c-1.9-0.4-3.9-0.6-5.8-0.6c-4.5,0-8.9,1.1-12.9,3.1c-4,2-7.5,4.9-10.2,8.5
	c-2.7,3.6-4.5,7.8-5.4,12.2c-0.8,4.4-0.6,9,0.6,13.3c1.2,4.3,3.5,8.3,6.5,11.6c3,3.3,6.8,5.9,11,7.5c4.2,1.6,8.7,2.2,13.2,1.8
	c4.5-0.4,8.8-1.9,12.6-4.3C68,450.1,69.8,449.6,71.7,449.6z"/>
<path id="path_2" class="st0" d="M388.5,286.5c-6.7,0-13.2-1.6-19.2-4.6c-5.9-3-11.1-7.4-15-12.7c-4-5.4-6.6-11.6-7.7-18.2
	c-1.1-6.6-0.7-13.3,1.3-19.7c-5.2-2.2-9.9-5.6-13.7-9.8c-3.8-4.2-6.7-9.2-8.4-14.6c-1.7-5.4-2.2-11.2-1.5-16.8
	c0.7-5.6,2.6-11.1,5.6-15.9c3-4.8,7-9,11.7-12.1c4.7-3.2,10.1-5.2,15.7-6.1c5.6-0.9,11.4-0.6,16.8,1c5.5,1.5,10.6,4.2,14.9,7.9
	c4-2.2,8.3-3.6,12.8-4.1c4.5-0.5,9.1-0.1,13.4,1.3s8.4,3.5,11.9,6.5c3.5,2.9,6.3,6.5,8.3,10.6c9.8,2.7,18.4,8.8,24.1,17.3
	c5.7,8.4,8.3,18.7,7.2,28.8c-1.1,10.2-5.8,19.6-13.2,26.6c-7.4,7-17.1,11.2-27.3,11.7c-3.6,6.9-9,12.7-15.7,16.8
	C404,284.3,396.3,286.5,388.5,286.5z M363.5,175.5c-2.6,0-5.1,0.4-7.5,1.4s-4.6,2.3-6.4,4.1c-1.8,1.8-3.3,3.9-4.3,6.2
	c-1,2.4-1.6,4.9-1.6,7.4c-0.1,2.6,0.4,5.1,1.3,7.5c0.9,2.4,2.3,4.6,4.1,6.4c1.8,1.8,3.9,3.3,6.2,4.3c2.3,1,4.9,1.6,7.4,1.6
	c1.8,0.1,3.6,0.6,5.1,1.6c1.5,1,2.8,2.4,3.6,4.1c0.8,1.7,1.1,3.5,0.9,5.3c-0.2,1.8-0.9,3.6-1.9,5c-2.5,3.3-4,7.3-4.4,11.5
	c-0.4,4.2,0.4,8.3,2.3,12.1c1.9,3.7,4.7,6.9,8.3,9.1c3.5,2.2,7.6,3.4,11.8,3.4c4.8,0,9.6-1.6,13.4-4.5c3.9-2.9,6.7-7,8.1-11.6
	c0.7-2.3,2.1-4.2,4.1-5.6c2-1.3,4.4-1.8,6.7-1.5c1,0.1,2,0.2,3.1,0.2c5.9,0,11.5-2.2,15.8-6.2c4.3-4,6.9-9.5,7.2-15.3
	c0.4-5.9-1.5-11.6-5.2-16.2c-3.8-4.5-9.1-7.4-14.9-8.1c-2-0.2-3.8-1.1-5.3-2.4c-1.5-1.3-2.6-3-3.1-4.9c-0.6-2.3-1.9-4.5-3.7-6.1
	c-1.8-1.7-3.9-2.9-6.3-3.4c-2.4-0.5-4.8-0.4-7.1,0.3c-2.3,0.7-4.4,2.1-6,3.9c-1,1.1-2.3,2-3.7,2.6c-1.4,0.6-2.9,0.8-4.5,0.7
	c-1.5-0.1-3-0.5-4.3-1.3c-1.3-0.8-2.5-1.8-3.3-3.1c-1.8-2.6-4.2-4.8-7-6.3C369.8,176.3,366.7,175.5,363.5,175.5z"/>
</svg>
