<?xml version="1.0" encoding="utf-8"?>
<!-- Generator: Adobe Illustrator 28.2.0, SVG Export Plug-In . SVG Version: 6.00 Build 0)  -->
<svg version="1.1" id="vector" xmlns="http://www.w3.org/2000/svg" xmlns:xlink="http://www.w3.org/1999/xlink" x="0px" y="0px"
	 viewBox="0 0 512 512" style="enable-background:new 0 0 512 512;" xml:space="preserve">
<style type="text/css">
	.st0{clip-path:url(#SVGID_00000069379313113077092090000011418855230666717325_);}
	.st1{fill:#33B0DF;}
</style>
<g id="g_0">
	<g>
		<defs>
			<rect id="SVGID_1_" y="0" width="512" height="512"/>
		</defs>
		<clipPath id="SVGID_00000058580298143612651910000001877868705726368935_">
			<use xlink:href="#SVGID_1_"  style="overflow:visible;"/>
		</clipPath>
		<path style="clip-path:url(#SVGID_00000058580298143612651910000001877868705726368935_);" d="M502,173.4c2.6,0,5.2-1,7.1-2.9
			c1.9-1.9,2.9-4.4,2.9-7.1c0-2.6-1-5.2-2.9-7.1c-1.9-1.9-4.4-2.9-7.1-2.9h-26V111h26c2.6,0,5.2-1.1,7.1-2.9
			c1.9-1.9,2.9-4.4,2.9-7.1s-1-5.2-2.9-7.1c-1.9-1.9-4.4-2.9-7.1-2.9h-26V66c0-8-3.2-15.6-8.8-21.2C461.6,39.2,454,36,446,36h-24V11
			c0-2.6-1-5.2-2.9-7.1C417.2,2,414.6,1,412,1s-5.2,1-7.1,2.9C403,5.8,402,8.4,402,11v25h-42.4V11c0-2.6-1.1-5.2-2.9-7.1
			C354.8,2,352.2,1,349.6,1s-5.2,1-7.1,2.9c-1.9,1.9-2.9,4.4-2.9,7.1v25h-42.4V11c0-2.6-1.1-5.2-2.9-7.1C292.4,2,289.9,1,287.2,1
			c-2.7,0-5.2,1-7.1,2.9c-1.9,1.9-2.9,4.4-2.9,7.1v25h-42.4V11c0-2.6-1.1-5.2-2.9-7.1C230,2,227.4,1,224.8,1c-2.7,0-5.2,1-7.1,2.9
			c-1.9,1.9-2.9,4.4-2.9,7.1v25h-42.4V11c0-2.6-1-5.2-2.9-7.1C167.6,2,165.1,1,162.4,1c-2.6,0-5.2,1-7.1,2.9
			c-1.9,1.9-2.9,4.4-2.9,7.1v25H110V11c0-2.6-1.1-5.2-2.9-7.1C105.2,2,102.7,1,100,1s-5.2,1-7.1,2.9C91.1,5.8,90,8.4,90,11v25H66
			c-8,0-15.6,3.2-21.2,8.8C39.2,50.4,36,58,36,66v25H10c-2.7,0-5.2,1.1-7.1,2.9C1,95.8,0,98.3,0,101s1,5.2,2.9,7.1
			c1.9,1.9,4.4,2.9,7.1,2.9h26v42.4H10c-2.7,0-5.2,1.1-7.1,2.9C1,158.2,0,160.8,0,163.4c0,2.7,1,5.2,2.9,7.1
			c1.9,1.9,4.4,2.9,7.1,2.9h26v42.4H10c-2.7,0-5.2,1.1-7.1,2.9C1,220.6,0,223.1,0,225.8c0,2.6,1,5.2,2.9,7.1
			c1.9,1.9,4.4,2.9,7.1,2.9h26v42.4H10c-2.7,0-5.2,1-7.1,2.9C1,283,0,285.5,0,288.2c0,2.6,1,5.2,2.9,7.1c1.9,1.9,4.4,2.9,7.1,2.9h26
			v42.4H10c-2.7,0-5.2,1-7.1,2.9C1,345.4,0,348,0,350.6s1,5.2,2.9,7.1c1.9,1.9,4.4,2.9,7.1,2.9h26V403H10c-2.7,0-5.2,1-7.1,2.9
			C1,407.8,0,410.4,0,413s1,5.2,2.9,7.1C4.8,422,7.3,423,10,423h26v23c0,8,3.2,15.6,8.8,21.2C50.4,472.8,58,476,66,476h24v27
			c0,2.6,1.1,5.2,2.9,7.1c1.9,1.9,4.4,2.9,7.1,2.9s5.2-1,7.1-2.9c1.9-1.9,2.9-4.4,2.9-7.1v-27h104.8v27c0,2.6,1.1,5.2,2.9,7.1
			c1.9,1.9,4.4,2.9,7.1,2.9c2.6,0,5.2-1,7.1-2.9c1.9-1.9,2.9-4.4,2.9-7.1v-27h42.4v27c0,2.6,1,5.2,2.9,7.1c1.9,1.9,4.4,2.9,7.1,2.9
			c2.6,0,5.2-1,7.1-2.9c1.9-1.9,2.9-4.4,2.9-7.1v-27h42.4v27c0,2.6,1,5.2,2.9,7.1c1.9,1.9,4.4,2.9,7.1,2.9s5.2-1,7.1-2.9
			c1.9-1.9,2.9-4.4,2.9-7.1v-27H402v27c0,2.6,1,5.2,2.9,7.1c1.9,1.9,4.4,2.9,7.1,2.9s5.2-1,7.1-2.9c1.9-1.9,2.9-4.4,2.9-7.1v-27h24
			c8,0,15.6-3.2,21.2-8.8c5.6-5.6,8.8-13.2,8.8-21.2v-23h26c2.6,0,5.2-1,7.1-2.9c1.9-1.9,2.9-4.4,2.9-7.1s-1-5.2-2.9-7.1
			c-1.9-1.9-4.4-2.9-7.1-2.9h-26v-42.4h26c2.6,0,5.2-1.1,7.1-2.9c1.9-1.9,2.9-4.4,2.9-7.1s-1-5.2-2.9-7.1c-1.9-1.9-4.4-2.9-7.1-2.9
			h-26v-42.4h26c2.6,0,5.2-1.1,7.1-2.9c1.9-1.9,2.9-4.4,2.9-7.1c0-2.7-1-5.2-2.9-7.1c-1.9-1.9-4.4-2.9-7.1-2.9h-26v-42.4h26
			c2.6,0,5.2-1.1,7.1-2.9c1.9-1.9,2.9-4.4,2.9-7.1c0-2.7-1-5.2-2.9-7.1c-1.9-1.9-4.4-2.9-7.1-2.9h-26v-42.4H502z M456,446
			c0,2.6-1,5.2-2.9,7.1c-1.9,1.9-4.4,2.9-7.1,2.9H297.2v-68c0-1.3,0.5-2.6,1.5-3.5c0.9-0.9,2.2-1.5,3.5-1.5H397
			c1.3,0,2.6-0.5,3.5-1.5c0.9-0.9,1.5-2.2,1.5-3.5v-49.7c-6.5,2.3-13.5,2.3-20,0V358c0,1.3-0.5,2.6-1.5,3.5
			c-0.9,0.9-2.2,1.5-3.5,1.5h-94.8c-1.3,0-2.6,0.5-3.5,1.5c-0.9,0.9-1.5,2.2-1.5,3.5v88H110v-39.2l57.5-32.6
			c0.8-0.4,1.4-1.1,1.9-1.8c0.4-0.8,0.7-1.6,0.7-2.5v-50c-6.4,2.5-13.4,2.8-20,0.7v37.6c0,0.9-0.2,1.8-0.7,2.5
			c-0.4,0.8-1.1,1.4-1.9,1.8L90,405.2V456H66c-2.7,0-5.2-1-7.1-2.9c-1.9-1.9-2.9-4.4-2.9-7.1V173.4h99.8c1.3,0,2.6,0.5,3.5,1.5
			l54.8,54.8c3.1-6.1,8.1-11.1,14.4-13.9l-60.9-60.9c-0.9-0.9-2.2-1.5-3.5-1.5H56V66c0-2.7,1-5.2,2.9-7.1C60.8,57,63.3,56,66,56
			h211.2v49.2c0,1.3,0.5,2.6,1.5,3.5L330,160c3-6.2,8-11.1,14.2-14.1l-45.5-45.5c-0.9-0.9-1.5-2.2-1.5-3.5V56H446
			c2.6,0,5.2,1,7.1,2.9c1.9,1.9,2.9,4.4,2.9,7.1V446z"/>
	</g>
	<path d="M351.2,164.9c-0.3,0.4-0.6,0.8-1,1.2c-0.4,0.4-0.8,0.8-1.3,1.1C349.6,166.3,350.3,165.5,351.2,164.9z"/>
	<path d="M241,213c-4.3,0-8.6,0.9-12.5,2.8c-6.2,2.9-11.3,7.8-14.4,13.9c-2.1,4.1-3.1,8.7-3.1,13.3c0,5.9,1.8,11.7,5.1,16.7
		c3.3,4.9,8,8.8,13.5,11c5.5,2.3,11.5,2.9,17.3,1.7c5.8-1.2,11.2-4,15.4-8.2c4.2-4.2,7.1-9.5,8.2-15.4c1.2-5.8,0.6-11.9-1.7-17.3
		c-2.3-5.5-6.1-10.2-11-13.5C252.7,214.8,246.9,213,241,213z M241,253c-2,0-3.9-0.6-5.6-1.7c-1.6-1.1-2.9-2.7-3.7-4.5
		c-0.8-1.8-0.9-3.8-0.6-5.8c0.4-1.9,1.3-3.7,2.7-5.1c1.4-1.4,3.2-2.3,5.1-2.7c1.9-0.4,3.9-0.2,5.8,0.6c1.8,0.8,3.4,2,4.5,3.7
		c1.1,1.6,1.7,3.6,1.7,5.6c0,2.6-1.1,5.2-2.9,7.1C246.2,251.9,243.6,253,241,253z"/>
	<path class="st1" d="M357,143c-4.5,0-8.8,1-12.9,2.9c-6.2,3-11.2,7.9-14.1,14.1c-2.8,5.9-3.7,12.5-2.4,18.9
		c1.3,6.4,4.6,12.2,9.4,16.5c4.9,4.3,11,7,17.5,7.5c6.5,0.5,13-1,18.5-4.5c5.5-3.5,9.7-8.6,12.1-14.7c2.3-6.1,2.6-12.8,0.8-19
		c-1.8-6.2-5.6-11.7-10.8-15.7C369.8,145.1,363.5,143,357,143z M357,183c-2.6,0-5.2-1.1-7.1-2.9c-1.9-1.9-2.9-4.4-2.9-7.1
		c0-2.1,0.7-4.2,1.9-5.9c1-1.4,2.4-2.5,3.9-3.2c1.6-0.7,3.3-1,5-0.9c1.7,0.1,3.4,0.7,4.8,1.6c1.4,1,2.6,2.2,3.4,3.8
		c0.8,1.5,1.1,3.2,1.1,4.9c-0.1,1.7-0.6,3.4-1.5,4.8c-0.9,1.5-2.1,2.7-3.6,3.5C360.4,182.6,358.7,183,357,183z"/>
	<path d="M392,270c-7.1,0-13.9,2.5-19.3,7.1c-5.4,4.6-9,10.9-10.2,17.9c-1.2,7,0.1,14.1,3.7,20.2c3.6,6.1,9.2,10.8,15.9,13.1
		c6.5,2.3,13.5,2.3,20,0c6.7-2.4,12.3-7,15.9-13.1c3.6-6.1,4.9-13.3,3.7-20.2c-1.2-7-4.8-13.3-10.2-17.9
		C405.9,272.5,399.1,270,392,270z M392,310c-2,0-3.9-0.6-5.6-1.7c-1.6-1.1-2.9-2.7-3.7-4.5c-0.8-1.8-1-3.8-0.6-5.8
		c0.4-1.9,1.3-3.7,2.7-5.1s3.2-2.4,5.1-2.7c1.9-0.4,4-0.2,5.8,0.6c1.8,0.8,3.4,2,4.5,3.7c1.1,1.6,1.7,3.6,1.7,5.6
		c0,2.6-1,5.2-2.9,7.1C397.2,309,394.6,310,392,310z"/>
	<path class="st1" d="M159,272c-8,0-15.6,3.2-21.2,8.8c-5.6,5.6-8.8,13.2-8.8,21.2s3.2,15.6,8.8,21.2c5.6,5.6,13.2,8.8,21.2,8.8
		c3.8,0,7.5-0.7,11-2.1c6.5-2.6,11.9-7.3,15.2-13.4c3.4-6.1,4.5-13.2,3.2-20.1c-1.3-6.9-5-13-10.3-17.5C172.7,274.5,166,272,159,272
		z M159,312c-2,0-3.9-0.6-5.6-1.7c-1.6-1.1-2.9-2.7-3.7-4.5c-0.8-1.8-0.9-3.8-0.6-5.8c0.4-1.9,1.3-3.7,2.7-5.1
		c1.4-1.4,3.2-2.4,5.1-2.7c1.9-0.4,3.9-0.2,5.8,0.6c1.8,0.8,3.4,2,4.5,3.7c1.1,1.6,1.7,3.6,1.7,5.6c0,1.3-0.3,2.6-0.8,3.8
		c-0.5,1.2-1.2,2.3-2.2,3.2c-0.9,0.9-2,1.7-3.2,2.2C161.6,311.7,160.3,312,159,312z"/>
</g>
</svg>
