<?xml version="1.0" encoding="utf-8"?>
<!-- Generator: Adobe Illustrator 28.2.0, SVG Export Plug-In . SVG Version: 6.00 Build 0)  -->
<svg version="1.1" id="vector" xmlns="http://www.w3.org/2000/svg" xmlns:xlink="http://www.w3.org/1999/xlink" x="0px" y="0px"
	 viewBox="0 0 48 48" style="enable-background:new 0 0 48 48;" xml:space="preserve">
<style type="text/css">
	.st0{fill:#33B0DF;}
</style>
<path id="path_0" d="M13.8,18.9c0.5,0,1,0.2,1.5,0.4c0.5,0.3,0.8,0.7,1.1,1.2c0.3,0.5,0.4,1.1,0.4,1.7c0,0.6-0.1,1.2-0.4,1.7
	c-0.3,0.5-0.6,0.9-1.1,1.2c-0.4,0.3-0.9,0.5-1.5,0.5H11l0.2-0.3v3.1c0,0.2-0.1,0.5-0.2,0.7c-0.1,0.1-0.2,0.2-0.3,0.2
	c-0.1,0-0.2,0.1-0.3,0.1c-0.1,0-0.2,0-0.3-0.1c-0.1,0-0.2-0.1-0.3-0.2c-0.2-0.2-0.2-0.4-0.2-0.7v-8.7c0-0.1,0-0.2,0.1-0.4
	c0-0.1,0.1-0.2,0.2-0.3c0.1-0.1,0.2-0.2,0.3-0.2c0.1,0,0.2-0.1,0.4-0.1H13.8z M13.8,24c0.2,0,0.4-0.1,0.6-0.2
	c0.2-0.2,0.3-0.4,0.4-0.6c0.2-0.4,0.2-0.8,0.1-1.2c-0.1-0.4-0.3-0.8-0.6-1c-0.1-0.1-0.3-0.2-0.6-0.2H11l0.2-0.3v3.8L11,24H13.8z"/>
<path id="path_1" d="M28.5,19.8v8.7c0,0.1,0,0.2-0.1,0.4c0,0.1-0.1,0.2-0.2,0.3c-0.1,0.1-0.2,0.2-0.3,0.2c-0.1,0-0.2,0.1-0.4,0.1
	c-0.1,0-0.3,0-0.4-0.1c-0.1,0-0.2-0.1-0.3-0.2c-0.1-0.1-0.2-0.2-0.2-0.3c0-0.1-0.1-0.2-0.1-0.4v-6l-2.5,3.8
	c-0.1,0.1-0.2,0.2-0.3,0.3c-0.1,0.1-0.3,0.1-0.4,0.1c-0.1,0-0.3,0-0.4-0.1c-0.1-0.1-0.2-0.2-0.3-0.3l-2.5-3.9v6.2
	c0,0.2-0.1,0.5-0.2,0.7c-0.1,0.1-0.2,0.2-0.3,0.2c-0.1,0-0.2,0.1-0.3,0.1c-0.1,0-0.2,0-0.3-0.1c-0.1,0-0.2-0.1-0.3-0.2
	c-0.2-0.2-0.2-0.4-0.2-0.7v-8.7c0-0.1,0-0.2,0.1-0.4c0-0.1,0.1-0.2,0.2-0.3c0.1-0.1,0.2-0.2,0.3-0.2c0.1,0,0.2-0.1,0.4-0.1
	c0.2,0,0.3,0,0.4,0.1c0.1,0.1,0.3,0.2,0.4,0.3l3.3,5l3.4-5c0.1-0.1,0.2-0.2,0.3-0.3c0.1-0.1,0.3-0.1,0.4-0.1c0.2,0,0.5,0.1,0.6,0.3
	c0.1,0.1,0.2,0.2,0.2,0.3C28.5,19.6,28.5,19.7,28.5,19.8z"/>
<path id="path_2" d="M38.4,19.9v8.7c0,0.1,0,0.2-0.1,0.4c0,0.1-0.1,0.2-0.2,0.3c-0.2,0.2-0.5,0.3-0.7,0.3c-0.1,0-0.3,0-0.4-0.1
	c-0.1,0-0.2-0.1-0.3-0.2c-0.1-0.1-0.2-0.2-0.2-0.3c0-0.1-0.1-0.2-0.1-0.4v-7.1l-0.9,0.7c-0.2,0.1-0.3,0.2-0.5,0.2
	c-0.1,0-0.2,0-0.3-0.1c-0.1,0-0.2-0.1-0.3-0.2c-0.1-0.1-0.2-0.2-0.2-0.3c0-0.1-0.1-0.2-0.1-0.4c0-0.3,0.2-0.6,0.5-0.8l2.2-1.4
	c0.1-0.1,0.2-0.1,0.3-0.1c0.1,0,0.2,0,0.4,0c0.1,0,0.3,0,0.4,0.1c0.1,0,0.2,0.1,0.3,0.2c0.1,0.1,0.2,0.2,0.2,0.3
	C38.4,19.6,38.4,19.7,38.4,19.9z"/>
<path id="path_3" class="st0" d="M8.2,14.7c-0.2,0-0.5-0.1-0.7-0.3c-0.2-0.2-0.3-0.4-0.3-0.7c0-1.2,0.4-2.4,1.1-3.5
	c0.7-1,1.7-1.8,2.9-2.2c1.2-0.4,2.4-0.5,3.6-0.1c1.2,0.3,2.2,1,3,2c0.2,0.2,0.2,0.4,0.2,0.7c0,0.2-0.1,0.5-0.3,0.6s-0.4,0.2-0.7,0.2
	c-0.2,0-0.5-0.1-0.6-0.3c-0.5-0.7-1.3-1.1-2.1-1.3c-0.8-0.2-1.7-0.2-2.5,0.1c-0.8,0.3-1.5,0.8-2,1.5c-0.5,0.7-0.7,1.5-0.7,2.4
	c0,0.1,0,0.2-0.1,0.4c0,0.1-0.1,0.2-0.2,0.3c-0.1,0.1-0.2,0.2-0.3,0.2C8.5,14.7,8.4,14.7,8.2,14.7L8.2,14.7z"/>
<path id="path_4" class="st0" d="M45.9,7.1c-0.1,0-0.2,0-0.2,0c-0.2-0.1-0.4-0.2-0.6-0.4c-0.1-0.2-0.2-0.5-0.1-0.7
	C45,5.6,45,5.3,44.9,5c-0.1-0.3-0.3-0.6-0.6-0.8C44,4,43.7,3.9,43.4,3.9c-0.3,0-0.6,0.1-0.9,0.3c-0.2,0.1-0.4,0.2-0.7,0.2
	c-0.2,0-0.5-0.2-0.6-0.4C41,3.9,40.9,3.6,41,3.4c0-0.2,0.2-0.5,0.4-0.6c0.6-0.4,1.3-0.7,2-0.7c0.7,0,1.4,0.2,2,0.6
	c0.6,0.4,1.1,1,1.3,1.6c0.3,0.7,0.3,1.4,0.1,2.1c-0.1,0.2-0.2,0.4-0.3,0.5C46.3,7,46.1,7.1,45.9,7.1z"/>
<path id="path_5" d="M15,46.5c-0.5,0-0.9-0.1-1.4-0.3c-0.4-0.2-0.8-0.5-1.2-0.8c-0.3-0.3-0.6-0.8-0.7-1.2c-0.2-0.5-0.2-0.9-0.2-1.4
	c0-0.1,0-0.2,0.1-0.4c0.1-0.1,0.1-0.2,0.2-0.3c0.1-0.1,0.2-0.1,0.3-0.2s0.2-0.1,0.4,0c0.1,0,0.2,0,0.4,0.1c0.1,0.1,0.2,0.1,0.3,0.2
	c0.1,0.1,0.1,0.2,0.2,0.3c0,0.1,0.1,0.2,0,0.4c0,0.3,0.1,0.7,0.2,0.9c0.2,0.3,0.4,0.5,0.7,0.6c0.3,0.1,0.6,0.2,1,0.1
	c0.3-0.1,0.6-0.2,0.8-0.5c0.1-0.1,0.2-0.2,0.3-0.2c0.1-0.1,0.2-0.1,0.4-0.1c0.1,0,0.2,0,0.4,0.1c0.1,0,0.2,0.1,0.3,0.2
	c0.1,0.1,0.2,0.2,0.2,0.3c0.1,0.1,0.1,0.2,0.1,0.4c0,0.1,0,0.2-0.1,0.4c0,0.1-0.1,0.2-0.2,0.3c-0.3,0.3-0.7,0.6-1.2,0.8
	C16,46.4,15.5,46.5,15,46.5z"/>
<path id="path_6" d="M2.7,20.7c-0.1,0-0.3,0-0.4-0.1C2.1,20.5,2,20.4,2,20.3c-0.5-0.5-0.8-1.2-0.8-1.9c-0.1-0.7,0.1-1.4,0.5-2.1
	c0.4-0.6,0.9-1.1,1.6-1.4c0.7-0.3,1.4-0.4,2.1-0.2c0.1,0,0.2,0.1,0.3,0.1c0.1,0.1,0.2,0.2,0.3,0.3C5.9,15.2,6,15.3,6,15.4
	c0,0.1,0,0.2,0,0.4c0,0.1-0.1,0.2-0.1,0.3c-0.1,0.1-0.2,0.2-0.3,0.3c-0.1,0.1-0.2,0.1-0.3,0.1c-0.1,0-0.2,0-0.4,0
	c-0.3-0.1-0.7,0-1,0.1c-0.3,0.1-0.5,0.4-0.7,0.6C3,17.6,3,17.9,3,18.2c0,0.3,0.2,0.6,0.4,0.9c0.1,0.1,0.2,0.3,0.2,0.5
	c0,0.2,0,0.4-0.1,0.5c-0.1,0.2-0.2,0.3-0.3,0.4C3,20.6,2.8,20.7,2.7,20.7L2.7,20.7z"/>
<path id="path_7" class="st0" d="M42.4,27.5c-0.2,0-0.4-0.1-0.6-0.2c-0.2-0.1-0.3-0.3-0.3-0.6c0-0.2,0-0.4,0.1-0.6
	c0.1-0.2,0.3-0.3,0.5-0.4c0.3-0.1,0.6-0.3,0.8-0.6c0.2-0.3,0.3-0.6,0.3-0.9c0-0.3-0.1-0.7-0.3-0.9c-0.2-0.3-0.5-0.5-0.8-0.6
	c-0.2-0.1-0.4-0.3-0.5-0.5c-0.1-0.2-0.1-0.5,0-0.7c0.1-0.2,0.3-0.4,0.5-0.5c0.2-0.1,0.5-0.1,0.7,0c0.7,0.2,1.3,0.7,1.7,1.3
	c0.4,0.6,0.6,1.3,0.6,2c0,0.7-0.2,1.4-0.7,2c-0.4,0.6-1,1-1.7,1.2C42.6,27.4,42.5,27.5,42.4,27.5z"/>
<path id="path_8" d="M43.8,37.6c-1.1,0.3-2.3,0.2-3.3-0.2c-0.2,1-0.7,2-1.3,2.8c-0.7,0.8-1.5,1.4-2.5,1.8c-0.2,0.1-0.5,0.2-0.8,0.3
	c-0.4,0.1-0.8,0.2-1.1,0.2c-0.2,0-0.4,0-0.5,0c-1.6,0-3.1-0.6-4.2-1.6c-0.1-0.1-0.2-0.2-0.2-0.3c-0.1-0.1-0.1-0.2-0.1-0.4
	c0-0.1,0-0.2,0-0.4c0-0.1,0.1-0.2,0.2-0.3c0.1-0.1,0.2-0.2,0.3-0.2c0.1-0.1,0.2-0.1,0.4-0.1c0.1,0,0.2,0,0.4,0.1
	c0.1,0,0.2,0.1,0.3,0.2c0.7,0.6,1.5,1,2.4,1.1c0.9,0.1,1.8,0,2.6-0.4s1.5-1,1.9-1.8c0.5-0.8,0.7-1.7,0.6-2.5c0-0.2,0-0.4,0.1-0.5
	c0.1-0.2,0.2-0.3,0.4-0.4s0.4-0.1,0.5-0.1c0.2,0,0.4,0.1,0.5,0.2c0.5,0.5,1.1,0.8,1.8,0.8c0.7,0.1,1.4-0.1,2-0.4
	c0.6-0.4,1-0.9,1.3-1.5c0.3-0.6,0.3-1.3,0.1-2c0-0.1-0.1-0.2-0.1-0.4c0-0.1-0.1-0.2-0.1-0.4c0-0.1,0-0.2,0.1-0.4
	c0-0.1,0.1-0.2,0.2-0.3c0.1-0.1,0.2-0.2,0.3-0.2c0.1,0,0.2-0.1,0.4-0.1c0.1,0,0.2,0,0.4,0.1c0.1,0.1,0.2,0.1,0.3,0.2
	c0.1,0.1,0.2,0.2,0.2,0.3c0.1,0.2,0.1,0.4,0.2,0.6c0.3,1.3,0.2,2.7-0.5,3.8C46.2,36.4,45.1,37.2,43.8,37.6z"/>
<path id="path_9" class="st0" d="M36.7,41.9c0,1.2-0.4,2.4-1,3.4c-0.7,1-1.6,1.8-2.7,2.2c-1.1,0.4-2.3,0.5-3.5,0.3
	c-1.2-0.3-2.2-0.9-3-1.8c-0.1-0.1-0.2-0.2-0.2-0.3c0-0.1-0.1-0.2-0.1-0.4c0-0.1,0-0.2,0.1-0.4c0.1-0.1,0.1-0.2,0.2-0.3
	c0.1-0.1,0.2-0.1,0.3-0.2c0.1,0,0.2-0.1,0.4-0.1c0.1,0,0.2,0,0.4,0.1s0.2,0.1,0.3,0.2c0.5,0.6,1.2,1,2,1.2c0.8,0.2,1.6,0.2,2.3-0.1
	c0.7-0.2,1.4-0.7,1.9-1.3c0.5-0.6,0.8-1.3,0.9-2.1c0.4,0,0.8-0.1,1.1-0.2C36.2,42.1,36.5,42,36.7,41.9z"/>
<path id="path_10" d="M10.8,41c-1.1,0.7-2.5,0.9-3.8,0.8c-1.3-0.2-2.5-0.7-3.5-1.6c-1-0.9-1.6-2.1-1.9-3.4c-0.2-1.3,0-2.6,0.5-3.8
	C1.7,32.5,1.3,32,1,31.5c-0.3-0.6-0.4-1.2-0.5-1.8c0-0.6,0.1-1.3,0.3-1.8c0.2-0.6,0.6-1.1,1-1.6C2.1,26.1,2.3,26,2.6,26
	c0.2,0,0.5,0.1,0.7,0.3c0.2,0.2,0.3,0.4,0.3,0.7c0,0.2-0.1,0.5-0.3,0.7c-0.4,0.4-0.6,0.8-0.7,1.3c-0.1,0.5-0.1,1,0.1,1.5
	c0.2,0.6,0.6,1,1.1,1.4c0.3,0.2,0.7,0.3,1,0.4c0.4,0.1,0.7,0,1.1-0.1C6,32,6.2,32,6.4,32.1c0.2,0.1,0.4,0.3,0.4,0.6
	c0.1,0.2,0,0.5-0.1,0.7c-0.1,0.2-0.3,0.4-0.6,0.4c-0.8,0.2-1.6,0.2-2.4,0c-0.3,0.7-0.5,1.4-0.4,2.2c0.1,0.8,0.3,1.5,0.7,2.1
	c0.5,0.8,1.4,1.4,2.3,1.7C7,39.9,7.6,40,8.2,39.9c0.6-0.1,1.2-0.3,1.7-0.6c0.1-0.1,0.2-0.1,0.4-0.1c0.1,0,0.3,0,0.4,0
	c0.1,0,0.2,0.1,0.3,0.2c0.1,0.1,0.2,0.2,0.3,0.3c0.1,0.1,0.1,0.2,0.1,0.4c0,0.1,0,0.3,0,0.4c0,0.1-0.1,0.2-0.2,0.3
	C11,40.9,10.9,40.9,10.8,41z"/>
<path id="path_11" d="M31.6,8.1c-0.1,0-0.1,0-0.2,0c-0.2,0-0.4-0.1-0.6-0.2c-0.2-0.1-0.3-0.3-0.3-0.6c-0.1-0.6-0.4-1.1-0.8-1.5
	c-0.4-0.4-1-0.6-1.6-0.7c-0.6,0-1.2,0.1-1.6,0.4c-0.5,0.3-0.9,0.8-1.1,1.3c0,0.1-0.1,0.2-0.2,0.3c-0.1,0.1-0.2,0.2-0.3,0.2
	c-0.1,0.1-0.2,0.1-0.4,0.1c-0.1,0-0.2,0-0.4-0.1c-0.1,0-0.2-0.1-0.3-0.2c-0.1-0.1-0.2-0.2-0.2-0.3c-0.1-0.1-0.1-0.2-0.1-0.4
	c0-0.1,0-0.2,0.1-0.4c0.2-0.6,0.5-1.1,0.9-1.5c-0.4-0.9-1-1.6-1.9-2.1C21.9,2.2,20.9,2,20,2.1c-0.9,0.1-1.8,0.6-2.5,1.3
	c-0.7,0.7-1.1,1.6-1.2,2.5c0,0.2-0.1,0.4-0.3,0.6c-0.2,0.2-0.4,0.2-0.6,0.2c0,0-0.1,0-0.1,0c-0.1,0-0.2,0-0.4-0.1
	c-0.1-0.1-0.2-0.1-0.3-0.2c-0.1-0.1-0.1-0.2-0.2-0.3c0-0.1,0-0.2,0-0.4c0.1-1.3,0.7-2.6,1.6-3.6c0.9-1,2.1-1.6,3.4-1.9
	c1.3-0.2,2.7-0.1,3.9,0.5c1.2,0.6,2.2,1.6,2.8,2.7c0.6-0.3,1.3-0.4,2-0.4c0.7,0,1.3,0.2,1.9,0.5c0.6,0.3,1.1,0.8,1.5,1.3
	C32,5.7,32.2,6.3,32.3,7c0,0.1,0,0.2,0,0.4c0,0.1-0.1,0.2-0.2,0.3c-0.1,0.1-0.2,0.2-0.3,0.3C31.8,8,31.7,8,31.6,8.1z"/>
<path id="path_12" d="M45.6,17.9c-0.1,0-0.2,0-0.3-0.1c-0.2-0.1-0.4-0.3-0.5-0.5c-0.1-0.2-0.1-0.5,0-0.7c0.2-0.4,0.2-0.9,0.2-1.4
	c0-0.5-0.2-0.9-0.4-1.3c-0.2-0.4-0.6-0.8-1-1c-0.4-0.3-0.8-0.4-1.3-0.5c-0.2,0-0.4-0.1-0.5-0.3c-0.1-0.1-0.2-0.3-0.3-0.6
	c0-0.4-0.2-0.7-0.4-1c-0.2-0.3-0.5-0.6-0.8-0.7c-0.3-0.2-0.7-0.3-1.1-0.2c-0.4,0-0.7,0.1-1.1,0.3c-0.2,0.1-0.5,0.2-0.7,0.1
	c-0.2-0.1-0.4-0.2-0.6-0.4c-0.1-0.2-0.2-0.5-0.1-0.7c0.1-0.2,0.2-0.4,0.4-0.6c0.5-0.3,1.1-0.5,1.8-0.5c0.6,0,1.2,0.1,1.8,0.3
	c0.6,0.2,1.1,0.6,1.5,1.1c0.4,0.5,0.7,1,0.9,1.6c0.1,0,0.3,0.1,0.4,0.1c1.2,0.5,2.2,1.4,2.8,2.7c0.5,1.2,0.6,2.6,0.1,3.9
	c-0.1,0.2-0.2,0.3-0.3,0.4C45.9,17.8,45.8,17.9,45.6,17.9z"/>
<path id="path_13" d="M43.8,45.5c1,0,1.9-0.8,1.9-1.9c0-1-0.8-1.9-1.9-1.9s-1.9,0.8-1.9,1.9C41.9,44.6,42.8,45.5,43.8,45.5z"/>
<path id="path_14" d="M23.4,13.6c1,0,1.9-0.8,1.9-1.9s-0.8-1.9-1.9-1.9c-1,0-1.9,0.8-1.9,1.9S22.4,13.6,23.4,13.6z"/>
<path id="path_15" d="M4.1,46.5c1,0,1.9-0.8,1.9-1.9c0-1-0.8-1.9-1.9-1.9s-1.9,0.8-1.9,1.9C2.2,45.7,3.1,46.5,4.1,46.5z"/>
<path id="path_16" d="M21.9,43.4c1,0,1.9-0.8,1.9-1.9c0-1-0.8-1.9-1.9-1.9s-1.9,0.8-1.9,1.9C20.1,42.6,20.9,43.4,21.9,43.4z"/>
<path id="path_17" d="M12.3,37.2c1,0,1.9-0.8,1.9-1.9c0-1-0.8-1.9-1.9-1.9s-1.9,0.8-1.9,1.9C10.4,36.4,11.2,37.2,12.3,37.2z"/>
<path id="path_18" d="M32.8,36.3c1,0,1.9-0.8,1.9-1.9c0-1-0.8-1.9-1.9-1.9c-1,0-1.9,0.8-1.9,1.9C30.9,35.4,31.8,36.3,32.8,36.3z"/>
<path id="path_19" d="M32.2,16.1c1,0,1.9-0.8,1.9-1.9s-0.8-1.9-1.9-1.9c-1,0-1.9,0.8-1.9,1.9S31.2,16.1,32.2,16.1z"/>
<path id="path_20" d="M36.7,5.9c1,0,1.9-0.8,1.9-1.9s-0.8-1.9-1.9-1.9S34.8,3,34.8,4S35.6,5.9,36.7,5.9z"/>
<path id="path_21" d="M9.5,4.8c1,0,1.9-0.8,1.9-1.9S10.5,1,9.5,1S7.6,1.9,7.6,2.9S8.4,4.8,9.5,4.8z"/>
<path id="path_22" d="M3.7,10.6c1,0,1.9-0.8,1.9-1.9S4.7,6.8,3.7,6.8S1.8,7.7,1.8,8.7S2.6,10.6,3.7,10.6z"/>
</svg>
