<?xml version="1.0" encoding="utf-8"?>
<!-- Generator: Adobe Illustrator 28.2.0, SVG Export Plug-In . SVG Version: 6.00 Build 0)  -->
<svg version="1.1" id="vector" xmlns="http://www.w3.org/2000/svg" xmlns:xlink="http://www.w3.org/1999/xlink" x="0px" y="0px"
	 viewBox="0 0 512 512" style="enable-background:new 0 0 512 512;" xml:space="preserve">
<style type="text/css">
	.st0{fill:#33B0DF;}
</style>
<path id="path_0" d="M507.4,429.6L333.8,256L507,82.8c1.9-1.9,2.9-4.4,2.9-7.1c0-2.7-1-5.2-2.9-7.1L443.4,5
	c-1.9-1.9-4.4-2.9-7.1-2.9s-5.2,1.1-7.1,2.9L328.7,105.5L143,291.2L5,429.2c-1.9,1.9-2.9,4.4-2.9,7.1s1.1,5.2,2.9,7.1L68.6,507
	c1.9,1.9,4.4,2.9,7.1,2.9c2.6,0,5.2-1,7.1-2.9L256,333.8l173.6,173.6c0.9,0.9,2,1.7,3.2,2.2c1.2,0.5,2.5,0.8,3.8,0.8
	c1.3,0,2.6-0.3,3.8-0.8c1.2-0.5,2.3-1.2,3.2-2.2l63.6-63.6c1.9-1.9,2.9-4.4,2.9-7.1C510.3,434,509.3,431.5,507.4,429.6z
	 M350.9,117.5l-3-3l88.4-88.4l49.5,49.5l-25.1,25.1l-14.1,14.2l-20.4,20.4L412,149.5L391.6,170l-14.1,14.1L357,204.5l-14.1,14.1
	l-23.2,23.2l-4.5-4.5l12.4-33.9l7.6-20.7l19.2-52.5C355.9,126.2,354.5,121.2,350.9,117.5z M333.4,128.4l0.3,0.3l-0.1,0.2
	l-37.3,101.6l-0.8,0.8l-64.2,64.2l-0.2,0.2l-2.5,2.5l-50,10.7L165.8,296L333.4,128.4z M218.7,342.8L204.5,357l-20.4,20.4L170,391.6
	L149.5,412l-14.1,14.1l-20.4,20.4l-14.2,14.1l-25.1,25.1l-49.5-49.5l125.9-125.9l15,15c2.5,2.5,5.8,4,9.3,4.1c0.5,0,1,0,1.4-0.1
	c0.2,0,0.5-0.1,0.7-0.1l22-4.7l35.6-7.6c0.8-0.2,1.5-0.4,2.3-0.8l3.5,3.5L218.7,342.8z M436.7,486.2L252.8,302.3l49.5-49.5l3.2,3.2
	l12.5,12.5l1.6,1.6l12.5,12.5l20.4,20.4l14.1,14.1l69.1,69.2l20.4,20.4l14.1,14.2l15.7,15.7L436.7,486.2z"/>
<path id="path_1" class="st0" d="M218.7,342.8L204.5,357l-24.8-24.8c-0.8-0.8-1.5-1.7-1.9-2.8c0.2,0,0.5-0.1,0.7-0.1l22-4.7
	L218.7,342.8z"/>
<path id="path_2" class="st0" d="M357,204.5l-14.2,14.1l-15.2-15.2l7.6-20.7L357,204.5z"/>
<path id="path_3" class="st0" d="M114.9,446.6l-14.2,14.1l-14-14c-1.9-1.9-2.9-4.4-2.9-7.1c0-2.7,1.1-5.2,3-7.1
	c1.9-1.9,4.4-2.9,7.1-2.9c2.7,0,5.2,1.1,7.1,3L114.9,446.6z"/>
<path id="path_4" class="st0" d="M149.5,412l-14.1,14.1l-14-14c-1.9-1.9-2.9-4.4-2.9-7.1c0-2.7,1.1-5.2,2.9-7.1
	c1.9-1.9,4.4-2.9,7.1-2.9c2.7,0,5.2,1.1,7.1,2.9L149.5,412z"/>
<path id="path_5" class="st0" d="M184.1,377.4L170,391.6l-14-14c-1.9-1.9-2.9-4.4-2.9-7.1c0-2.6,1-5.2,2.9-7.1
	c1.9-1.9,4.4-2.9,7.1-2.9c2.6,0,5.2,1.1,7.1,2.9L184.1,377.4z"/>
<path id="path_6" class="st0" d="M426.1,135.4L412,149.5l-14-14c-1.9-1.9-2.9-4.4-2.9-7.1c0-2.7,1.1-5.2,2.9-7.1
	c1.9-1.9,4.4-2.9,7.1-2.9c2.7,0,5.2,1,7.1,2.9L426.1,135.4z"/>
<path id="path_7" class="st0" d="M460.7,100.8l-14.1,14.2l-14-14c-1.9-1.9-2.9-4.4-2.9-7.1c0-2.7,1-5.2,2.9-7.1
	c1.9-1.9,4.4-2.9,7.1-2.9c2.6,0,5.2,1.1,7.1,2.9L460.7,100.8z"/>
<path id="path_8" class="st0" d="M391.6,170l-14.1,14.1l-14-14c-0.9-0.9-1.7-2-2.2-3.2c-0.5-1.2-0.8-2.5-0.8-3.8
	c0-1.3,0.3-2.6,0.8-3.8c0.5-1.2,1.2-2.3,2.2-3.2c0.9-0.9,2-1.7,3.2-2.2c1.2-0.5,2.5-0.8,3.8-0.8c1.3,0,2.6,0.3,3.8,0.8
	c1.2,0.5,2.3,1.2,3.2,2.2L391.6,170z"/>
<path id="path_9" d="M333.4,128.4L165.8,296l0.4,0.4l167.4-167.5l0.1-0.2L333.4,128.4z M318,268.5l-14,14c-1.6,1.7-2.7,3.8-2.9,6.1
	l18.5-18.5L318,268.5z"/>
<path id="path_10" d="M189.9,301.7c-2,0-3.9-0.6-5.6-1.7c-1.6-1.1-2.9-2.7-3.7-4.5c-0.8-1.8-1-3.8-0.6-5.8c0.4-1.9,1.3-3.7,2.7-5.1
	l11.3-11.3c1.9-1.8,4.4-2.8,7-2.8c2.6,0,5.1,1.1,7,2.9c1.9,1.9,2.9,4.4,2.9,7c0,2.6-1,5.1-2.8,7L197,298.8c-0.9,0.9-2,1.7-3.3,2.2
	C192.5,301.5,191.2,301.7,189.9,301.7z"/>
<path id="path_11" d="M317.7,84.3l-8.8-8.8c-2.5-2.5-5.8-4-9.4-4.1c-1.1,0-2.3,0.2-3.4,0.6l-107.1,39.3L82.4,4.6
	c-0.9-0.9-2-1.7-3.2-2.2c-1.2-0.5-2.5-0.8-3.8-0.8c-1.3,0-2.6,0.3-3.8,0.8c-1.2,0.5-2.3,1.2-3.2,2.2L4.6,68.3
	c-1.9,1.9-2.9,4.4-2.9,7.1s1.1,5.2,2.9,7.1L110.2,188c-0.4,0.7-0.6,1.5-0.8,2.3l-12.4,57.6c-0.8,3.8,0.7,8.2,3.9,11.5l20.8,20.8
	c2.4,2.6,5.8,4,9.3,4.1c1.2,0,2.4-0.2,3.5-0.6c1.1-0.4,2.1-1.1,2.9-1.9l181.7-181.7C323.2,96.2,322.5,89.1,317.7,84.3z M25.8,75.3
	l49.5-49.5l24.8,24.8l14.1,14.1l20.4,20.4l14.1,14.1l24.8,24.8l-49.5,49.5L25.8,75.3z M130.5,260.6l-12.9-12.9l10.7-50l2.5-2.5
	l0.4-0.4l63.6-63.6l0.2-0.2l0.9-1l101.9-37.3l0.3,0.3L130.5,260.6z"/>
<path id="path_12" d="M134.7,246.6c-2,0-3.9-0.6-5.6-1.7c-1.6-1.1-2.9-2.7-3.7-4.5c-0.8-1.8-0.9-3.8-0.6-5.8
	c0.4-1.9,1.3-3.7,2.7-5.1l11.3-11.3c1.9-1.8,4.4-2.8,7-2.8c2.6,0,5.1,1.1,7,2.9c1.8,1.9,2.9,4.4,2.9,7c0,2.6-1,5.1-2.8,7l-11.3,11.3
	C139.9,245.5,137.4,246.6,134.7,246.6z"/>
<path id="path_13" class="st0" d="M401.3,351.8l-24.8,24.7c-1.9,1.8-4.4,2.8-7,2.8c-2.6,0-5.1-1.1-7-2.9c-1.9-1.9-2.9-4.4-2.9-7
	c0-2.6,1-5.1,2.8-7l24.7-24.8L401.3,351.8z"/>
<path id="path_14" class="st0" d="M470.5,421l-14,14c-1.9,1.8-4.4,2.8-7,2.8c-2.6,0-5.1-1.1-7-2.9c-1.9-1.9-2.9-4.4-2.9-7
	c0-2.6,1-5.1,2.8-7l14-14L470.5,421z"/>
<path id="path_15" class="st0" d="M435.9,386.4l-14,14c-1.9,1.9-4.4,2.9-7.1,2.9c-2.7,0-5.2-1.1-7.1-2.9c-1.9-1.9-2.9-4.4-2.9-7.1
	s1-5.2,2.9-7.1l14-14L435.9,386.4z"/>
<path id="path_16" class="st0" d="M332.1,282.7l-14,14c-1.9,1.8-4.4,2.8-7,2.8c-2.6,0-5.1-1.1-7-2.9c-1.9-1.9-2.9-4.4-2.9-7
	c0-2.6,1-5.1,2.8-7l14-14l1.6,1.6L332.1,282.7z"/>
<path id="path_17" class="st0" d="M366.7,317.2l-14,14c-0.9,0.9-2,1.7-3.2,2.2c-1.2,0.5-2.5,0.8-3.8,0.8s-2.6-0.3-3.8-0.8
	c-1.2-0.5-2.3-1.2-3.2-2.2c-0.9-0.9-1.7-2-2.2-3.2c-0.5-1.2-0.8-2.5-0.8-3.8c0-1.3,0.3-2.6,0.8-3.8c0.5-1.2,1.2-2.3,2.2-3.2l14-14
	L366.7,317.2z"/>
<path id="path_18" d="M295.2,231.6l-63.6,63.6l-0.2,0.2l64.2-64.2L295.2,231.6z"/>
<path id="path_19" class="st0" d="M114.3,64.8l-14,14c-1.9,1.9-4.4,2.9-7.1,2.9c-2.7,0-5.2-1.1-7.1-2.9c-1.9-1.9-2.9-4.4-2.9-7.1
	c0-2.7,1.1-5.2,3-7.1l14-14L114.3,64.8z"/>
<path id="path_20" class="st0" d="M148.8,99.3l-14,14c-1.9,1.9-4.4,2.9-7.1,2.9c-2.7,0-5.2-1.1-7.1-2.9c-1.9-1.9-2.9-4.4-2.9-7.1
	c0-2.7,1.1-5.2,2.9-7.1l14-14L148.8,99.3z"/>
</svg>
