<?xml version="1.0" encoding="utf-8"?>
<!-- Generator: Adobe Illustrator 28.2.0, SVG Export Plug-In . SVG Version: 6.00 Build 0)  -->
<svg version="1.1" id="vector" xmlns="http://www.w3.org/2000/svg" xmlns:xlink="http://www.w3.org/1999/xlink" x="0px" y="0px"
	 viewBox="0 0 512 512" style="enable-background:new 0 0 512 512;" xml:space="preserve">
<style type="text/css">
	.st0{clip-path:url(#SVGID_00000019678067341190348160000013345875431356085684_);}
	.st1{fill:#33B0DF;}
</style>
<g id="g_0">
	<g>
		<defs>
			<rect id="SVGID_1_" y="0" width="512" height="512"/>
		</defs>
		<clipPath id="SVGID_00000021809891795029173760000015986306916526385821_">
			<use xlink:href="#SVGID_1_"  style="overflow:visible;"/>
		</clipPath>
		<path style="clip-path:url(#SVGID_00000021809891795029173760000015986306916526385821_);" d="M173.5,57.5c-2.6,0-5.2-1-7.1-2.9
			c-1.9-1.9-2.9-4.4-2.9-7.1V10c0-2.7,1.1-5.2,2.9-7.1c1.9-1.9,4.4-2.9,7.1-2.9s5.2,1,7.1,2.9c1.9,1.9,2.9,4.4,2.9,7.1v37.5
			c0,2.7-1.1,5.2-2.9,7.1C178.7,56.5,176.1,57.5,173.5,57.5z"/>
	</g>
	<path d="M111,74.2c-1.8,0-3.5-0.5-5-1.3c-1.5-0.9-2.8-2.1-3.7-3.7L83.6,36.8c-1.3-2.3-1.6-5-1-7.6c0.7-2.5,2.4-4.7,4.7-6
		c2.3-1.3,5-1.7,7.6-1c2.6,0.7,4.7,2.3,6.1,4.6l18.8,32.5c0.9,1.5,1.3,3.2,1.3,5c0,1.8-0.5,3.5-1.3,5c-0.9,1.5-2.1,2.8-3.7,3.7
		C114.5,73.8,112.8,74.2,111,74.2L111,74.2z"/>
	<path d="M65.2,120c-1.8,0-3.5-0.5-5-1.3L27.8,99.9c-2.3-1.3-3.9-3.5-4.6-6.1c-0.7-2.5-0.3-5.3,1-7.6c1.3-2.3,3.5-4,6-4.7
		c2.5-0.7,5.3-0.3,7.6,1l32.5,18.8c1.9,1.1,3.4,2.8,4.2,4.8c0.8,2,1,4.3,0.4,6.4c-0.6,2.1-1.8,4-3.6,5.3
		C69.6,119.3,67.4,120,65.2,120L65.2,120z"/>
	<path d="M48.5,182.5H11c-2.6,0-5.2-1.1-7.1-2.9C2,177.7,1,175.1,1,172.5s1-5.2,2.9-7.1c1.9-1.9,4.4-2.9,7.1-2.9h37.5
		c2.7,0,5.2,1.1,7.1,2.9c1.9,1.9,2.9,4.4,2.9,7.1s-1,5.2-2.9,7.1C53.7,181.4,51.2,182.5,48.5,182.5z"/>
	<path d="M32.8,263.8c-2.2,0-4.3-0.7-6.1-2.1c-1.7-1.3-3-3.2-3.6-5.3c-0.6-2.1-0.4-4.4,0.4-6.4c0.8-2,2.3-3.7,4.2-4.8l32.5-18.8
		c2.3-1.3,5-1.6,7.6-1s4.7,2.4,6,4.6c1.3,2.3,1.7,5,1,7.6c-0.7,2.6-2.3,4.7-4.6,6.1l-32.5,18.8C36.2,263.3,34.5,263.8,32.8,263.8z"
		/>
	<path d="M92.2,323.2c-1.8,0-3.5-0.5-5-1.3c-1.5-0.9-2.8-2.1-3.7-3.7c-0.9-1.5-1.3-3.2-1.3-5c0-1.8,0.5-3.5,1.3-5l18.8-32.5
		c1.3-2.3,3.5-3.9,6.1-4.6c2.5-0.7,5.3-0.3,7.6,1c2.3,1.3,4,3.5,4.7,6c0.7,2.5,0.3,5.3-1,7.6l-18.8,32.5c-0.9,1.5-2.1,2.8-3.7,3.7
		C95.7,322.8,94,323.2,92.2,323.2z"/>
	<path d="M173.5,345c-2.6,0-5.2-1-7.1-2.9c-1.9-1.9-2.9-4.4-2.9-7.1v-37.5c0-2.6,1.1-5.2,2.9-7.1c1.9-1.9,4.4-2.9,7.1-2.9
		s5.2,1,7.1,2.9c1.9,1.9,2.9,4.4,2.9,7.1V335c0,2.6-1.1,5.2-2.9,7.1C178.7,344,176.1,345,173.5,345z"/>
	<path d="M254.8,323.2c-1.8,0-3.5-0.5-5-1.3c-1.5-0.9-2.8-2.1-3.7-3.7l-18.8-32.5c-1.3-2.3-1.6-5-1-7.6s2.4-4.7,4.6-6
		c2.3-1.3,5-1.7,7.6-1c2.6,0.7,4.7,2.3,6.1,4.6l18.8,32.5c0.9,1.5,1.3,3.2,1.3,5c0,1.8-0.5,3.5-1.3,5c-0.9,1.5-2.1,2.8-3.6,3.7
		C258.2,322.8,256.5,323.2,254.8,323.2z"/>
	<path d="M314.2,263.8c-1.8,0-3.5-0.5-5-1.3l-32.5-18.8c-2.3-1.3-3.9-3.5-4.6-6.1c-0.7-2.6-0.3-5.3,1-7.6c1.3-2.3,3.5-4,6-4.6
		c2.6-0.7,5.3-0.3,7.6,1l32.5,18.8c1.9,1.1,3.4,2.8,4.2,4.8c0.8,2,1,4.3,0.4,6.4c-0.6,2.1-1.8,4-3.6,5.3
		C318.6,263,316.4,263.8,314.2,263.8z"/>
	<path d="M336,182.5h-37.5c-2.6,0-5.2-1.1-7.1-2.9c-1.9-1.9-2.9-4.4-2.9-7.1s1-5.2,2.9-7.1c1.9-1.9,4.4-2.9,7.1-2.9H336
		c2.6,0,5.2,1.1,7.1,2.9c1.9,1.9,2.9,4.4,2.9,7.1s-1,5.2-2.9,7.1C341.2,181.4,338.6,182.5,336,182.5z"/>
	<path d="M281.8,120c-2.2,0-4.3-0.7-6.1-2.1c-1.7-1.3-3-3.2-3.6-5.3c-0.6-2.1-0.4-4.4,0.4-6.4c0.8-2,2.3-3.7,4.2-4.8l32.5-18.8
		c1.1-0.7,2.4-1.1,3.7-1.3c1.3-0.2,2.6-0.1,3.9,0.2c1.3,0.3,2.5,0.9,3.5,1.7c1.1,0.8,1.9,1.8,2.6,3c0.7,1.1,1.1,2.4,1.2,3.7
		c0.2,1.3,0.1,2.6-0.3,3.9c-0.4,1.3-0.9,2.5-1.8,3.5c-0.8,1.1-1.8,1.9-3,2.6l-32.5,18.8C285.2,119.5,283.5,120,281.8,120z"/>
	<path d="M236,74.2c-1.8,0-3.5-0.5-5-1.3c-1.5-0.9-2.8-2.1-3.6-3.7c-0.9-1.5-1.3-3.2-1.3-5c0-1.8,0.5-3.5,1.3-5l18.8-32.5
		c0.6-1.1,1.5-2.1,2.6-3c1-0.8,2.2-1.4,3.5-1.8c1.3-0.3,2.6-0.4,3.9-0.3c1.3,0.2,2.6,0.6,3.7,1.2c1.1,0.7,2.1,1.5,2.9,2.6
		c0.8,1.1,1.4,2.2,1.7,3.5c0.3,1.3,0.4,2.6,0.2,3.9c-0.2,1.3-0.6,2.6-1.3,3.7l-18.8,32.5c-0.9,1.5-2.1,2.8-3.7,3.7
		C239.5,73.8,237.8,74.2,236,74.2z"/>
	<path d="M173.5,245c-14.8,0-29.3-4.4-41.6-12.6s-21.9-19.9-27.6-33.6c-5.7-13.7-7.1-28.7-4.3-43.2c2.9-14.5,10-27.9,20.5-38.3
		s23.8-17.6,38.3-20.5s29.6-1.4,43.2,4.3c13.7,5.7,25.4,15.3,33.6,27.6s12.6,26.8,12.6,41.6c0,19.8-7.9,38.9-21.9,52.9
		S193.3,245,173.5,245z M173.5,115.3c-10.9,0-21.5,3.2-30.5,9.2c-9,6-16.1,14.6-20.2,24.6c-4.2,10-5.2,21.1-3.1,31.7
		c2.1,10.6,7.3,20.4,15,28.1s17.4,12.9,28.1,15c10.6,2.1,21.7,1,31.7-3.1c10-4.2,18.6-11.2,24.6-20.2c6-9,9.2-19.6,9.2-30.5
		c0-14.5-5.8-28.5-16.1-38.8C202,121.1,188,115.3,173.5,115.3z"/>
	<path class="st1" d="M512,440v62c0,0.3,0,0.7,0,1c0,0.1,0,0.1,0,0.2c0,0.2-0.1,0.5-0.1,0.7c0,0.2-0.1,0.4-0.1,0.6
		c0,0.1-0.1,0.3-0.1,0.4c-0.1,0.2-0.1,0.3-0.2,0.5c-0.1,0.1-0.1,0.3-0.2,0.4c-0.5,1.2-1.2,2.3-2.1,3.2c-0.1,0.1-0.3,0.3-0.4,0.4
		c-0.1,0.1-0.2,0.2-0.3,0.3c-0.5,0.4-1,0.7-1.5,1l-0.4,0.2l-0.4,0.2l-0.5,0.2l-0.5,0.2c-0.3,0.1-0.6,0.2-0.9,0.2h-0.1l-0.7,0.1H503
		c-0.3,0-0.6,0.1-1,0.1h-62c-2.6,0-5.2-1.1-7.1-2.9c-1.9-1.9-2.9-4.4-2.9-7.1c0-2.7,1-5.2,2.9-7.1c1.9-1.9,4.4-2.9,7.1-2.9h37.9
		L320.9,335.1c-1.8-1.9-2.8-4.4-2.8-7c0-2.6,1.1-5.1,2.9-7c1.9-1.8,4.4-2.9,7-2.9c2.6,0,5.1,1,7,2.8L492,477.9V440
		c0-2.6,1-5.2,2.9-7.1c1.9-1.9,4.4-2.9,7.1-2.9s5.2,1,7.1,2.9C511,434.8,512,437.4,512,440z"/>
	<path d="M336,440v62c0,1.6-0.4,3.1-1.1,4.5l-0.2,0.4c-0.1,0.1-0.2,0.3-0.3,0.4l-0.3,0.4c-0.1,0.1-0.2,0.3-0.3,0.4l-0.3,0.4
		c-0.1,0.1-0.2,0.2-0.3,0.4c-0.1,0.1-0.2,0.2-0.4,0.4c-0.1,0.1-0.2,0.2-0.4,0.4c-0.1,0.1-0.3,0.2-0.4,0.3c-0.4,0.3-0.8,0.6-1.3,0.8
		c-0.3,0.2-0.6,0.3-0.9,0.4l-0.5,0.2c-0.3,0.1-0.6,0.2-0.9,0.3l-0.4,0.1c-0.7,0.1-1.4,0.2-2.1,0.2h-62c-2.6,0-5.2-1-7.1-2.9
		c-1.9-1.9-2.9-4.4-2.9-7.1s1.1-5.2,2.9-7.1c1.9-1.9,4.4-2.9,7.1-2.9h37.1L195.1,390.2c-1-0.9-1.8-2-2.4-3.2
		c-0.6-1.2-0.9-2.5-0.9-3.9c-0.1-1.4,0.2-2.7,0.6-3.9c0.5-1.3,1.2-2.4,2.1-3.4c0.9-1,2-1.8,3.3-2.3c1.2-0.5,2.6-0.8,3.9-0.8
		c1.3,0,2.7,0.3,3.9,0.8c1.2,0.5,2.4,1.3,3.3,2.2L316,478.5V440c0-2.6,1-5.2,2.9-7.1c1.9-1.9,4.4-2.9,7.1-2.9s5.2,1,7.1,2.9
		C335,434.8,336,437.4,336,440z"/>
	<path d="M512,264v62c0,0.3,0,0.7,0,1c0,0.1,0,0.1,0,0.2c0,0.2-0.1,0.5-0.1,0.7c0,0.2-0.1,0.4-0.1,0.6c0,0.1-0.1,0.3-0.1,0.4
		c-0.1,0.2-0.1,0.3-0.2,0.5c-0.1,0.1-0.1,0.3-0.2,0.4c-0.5,1.2-1.2,2.3-2.1,3.2c-0.1,0.1-0.3,0.3-0.4,0.4c-0.1,0.1-0.2,0.2-0.3,0.3
		c-0.5,0.4-1,0.7-1.5,1l-0.4,0.2l-0.4,0.2l-0.5,0.2l-0.5,0.2c-0.3,0.1-0.6,0.2-0.9,0.2h-0.1l-0.7,0.1H503c-0.3,0-0.6,0.1-1,0.1h-62
		c-2.6,0-5.2-1.1-7.1-2.9c-1.9-1.9-2.9-4.4-2.9-7.1c0-2.7,1-5.2,2.9-7.1c1.9-1.9,4.4-2.9,7.1-2.9h37.9L370.9,209.1
		c-1.8-1.9-2.8-4.4-2.8-7c0-2.6,1.1-5.1,2.9-7c1.9-1.9,4.4-2.9,7-2.9c2.6,0,5.1,1,7,2.8L492,301.9V264c0-2.6,1-5.2,2.9-7.1
		c1.9-1.9,4.4-2.9,7.1-2.9s5.2,1.1,7.1,2.9C511,258.8,512,261.4,512,264z"/>
</g>
</svg>
