<?xml version="1.0" encoding="utf-8"?>
<!-- Generator: Adobe Illustrator 28.2.0, SVG Export Plug-In . SVG Version: 6.00 Build 0)  -->
<svg version="1.1" id="vector" xmlns="http://www.w3.org/2000/svg" xmlns:xlink="http://www.w3.org/1999/xlink" x="0px" y="0px"
	 viewBox="0 0 512 512" style="enable-background:new 0 0 512 512;" xml:space="preserve">
<style type="text/css">
	.st0{clip-path:url(#SVGID_00000042710095538399291970000004907693448476422558_);}
	.st1{fill:#33B0DF;}
</style>
<g id="g_0">
	<g>
		<defs>
			<rect id="SVGID_1_" y="0" width="512" height="512"/>
		</defs>
		<clipPath id="SVGID_00000056427473169921166280000001571809143928089475_">
			<use xlink:href="#SVGID_1_"  style="overflow:visible;"/>
		</clipPath>
		<path style="clip-path:url(#SVGID_00000056427473169921166280000001571809143928089475_);" d="M50,128v255c0,2.6-1,5.2-2.9,7.1
			c-1.9,1.9-4.4,2.9-7.1,2.9s-5.2-1-7.1-2.9c-1.9-1.9-2.9-4.4-2.9-7.1V128c0-2.7,1-5.2,2.9-7.1c1.9-1.9,4.4-2.9,7.1-2.9
			s5.2,1.1,7.1,2.9C49,122.8,50,125.3,50,128z"/>
	</g>
	<path d="M242,128v255c0,2.6-1.1,5.2-2.9,7.1c-1.9,1.9-4.4,2.9-7.1,2.9s-5.2-1-7.1-2.9c-1.9-1.9-2.9-4.4-2.9-7.1V128
		c0-2.7,1.1-5.2,2.9-7.1c1.9-1.9,4.4-2.9,7.1-2.9s5.2,1.1,7.1,2.9C240.9,122.8,242,125.3,242,128z"/>
	<path d="M434,128v255c0,2.6-1,5.2-2.9,7.1c-1.9,1.9-4.4,2.9-7.1,2.9s-5.2-1-7.1-2.9c-1.9-1.9-2.9-4.4-2.9-7.1V128
		c0-2.7,1-5.2,2.9-7.1c1.9-1.9,4.4-2.9,7.1-2.9s5.2,1.1,7.1,2.9C433,122.8,434,125.3,434,128z"/>
	<path d="M290,168v175c0,2.6-1,5.2-2.9,7.1c-1.9,1.9-4.4,2.9-7.1,2.9s-5.2-1-7.1-2.9c-1.9-1.9-2.9-4.4-2.9-7.1V168
		c0-2.6,1-5.2,2.9-7.1c1.9-1.9,4.4-2.9,7.1-2.9s5.2,1.1,7.1,2.9C289,162.8,290,165.4,290,168z"/>
	<path d="M386,168v175c0,2.6-1,5.2-2.9,7.1c-1.9,1.9-4.4,2.9-7.1,2.9s-5.2-1-7.1-2.9c-1.9-1.9-2.9-4.4-2.9-7.1V168
		c0-2.6,1-5.2,2.9-7.1c1.9-1.9,4.4-2.9,7.1-2.9s5.2,1.1,7.1,2.9C385,162.8,386,165.4,386,168z"/>
	<path d="M338,200v111c0,2.6-1,5.2-2.9,7.1c-1.9,1.9-4.4,2.9-7.1,2.9s-5.2-1-7.1-2.9c-1.9-1.9-2.9-4.4-2.9-7.1V200
		c0-2.6,1-5.2,2.9-7.1c1.9-1.9,4.4-2.9,7.1-2.9s5.2,1.1,7.1,2.9C337,194.8,338,197.4,338,200z"/>
	<path d="M98,64v383c0,2.6-1.1,5.2-2.9,7.1c-1.9,1.9-4.4,2.9-7.1,2.9s-5.2-1-7.1-2.9c-1.9-1.9-2.9-4.4-2.9-7.1V64
		c0-2.7,1.1-5.2,2.9-7.1C82.8,55,85.3,54,88,54s5.2,1,7.1,2.9C96.9,58.8,98,61.3,98,64z"/>
	<path d="M194,64v383c0,2.6-1.1,5.2-2.9,7.1c-1.9,1.9-4.4,2.9-7.1,2.9s-5.2-1-7.1-2.9c-1.9-1.9-2.9-4.4-2.9-7.1V64
		c0-2.7,1.1-5.2,2.9-7.1c1.9-1.9,4.4-2.9,7.1-2.9s5.2,1,7.1,2.9C192.9,58.8,194,61.3,194,64z"/>
	<path d="M482,64v383c0,2.6-1,5.2-2.9,7.1c-1.9,1.9-4.4,2.9-7.1,2.9s-5.2-1-7.1-2.9c-1.9-1.9-2.9-4.4-2.9-7.1V64
		c0-2.7,1-5.2,2.9-7.1c1.9-1.9,4.4-2.9,7.1-2.9s5.2,1,7.1,2.9C481,58.8,482,61.3,482,64z"/>
	<path d="M146,10v491c0,2.6-1.1,5.2-2.9,7.1c-1.9,1.9-4.4,2.9-7.1,2.9s-5.2-1-7.1-2.9c-1.9-1.9-2.9-4.4-2.9-7.1V10
		c0-2.7,1.1-5.2,2.9-7.1C130.8,1,133.4,0,136,0s5.2,1,7.1,2.9C144.9,4.8,146,7.3,146,10z"/>
	<path class="st1" d="M502,266H10c-2.7,0-5.2-1-7.1-2.9C1,261.2,0,258.6,0,256s1-5.2,2.9-7.1c1.9-1.9,4.4-2.9,7.1-2.9h492
		c2.6,0,5.2,1.1,7.1,2.9c1.9,1.9,2.9,4.4,2.9,7.1s-1,5.2-2.9,7.1C507.2,265,504.6,266,502,266z"/>
</g>
</svg>
