<?xml version="1.0" encoding="utf-8"?>
<!-- Generator: Adobe Illustrator 28.2.0, SVG Export Plug-In . SVG Version: 6.00 Build 0)  -->
<svg version="1.1" id="vector" xmlns="http://www.w3.org/2000/svg" xmlns:xlink="http://www.w3.org/1999/xlink" x="0px" y="0px"
	 viewBox="0 0 512 512" style="enable-background:new 0 0 512 512;" xml:space="preserve">
<style type="text/css">
	.st0{clip-path:url(#SVGID_00000083081194820760043410000005987883500763884183_);fill:#33B0DF;}
	.st1{fill:#33B0DF;}
</style>
<g id="g_0">
	<g>
		<defs>
			<rect id="SVGID_1_" y="0" width="512" height="512"/>
		</defs>
		<clipPath id="SVGID_00000096021820260824342320000016598093278465477788_">
			<use xlink:href="#SVGID_1_"  style="overflow:visible;"/>
		</clipPath>
		<path style="clip-path:url(#SVGID_00000096021820260824342320000016598093278465477788_);fill:#33B0DF;" d="M322,279.3H204
			c-2.6,0-5.2-1-7.1-2.9c-1.9-1.9-2.9-4.4-2.9-7.1c0-2.6,1.1-5.2,2.9-7.1c1.9-1.9,4.4-2.9,7.1-2.9h118c2.6,0,5.2,1.1,7.1,2.9
			c1.9,1.9,2.9,4.4,2.9,7.1c0,2.7-1,5.2-2.9,7.1C327.2,278.3,324.6,279.3,322,279.3z"/>
	</g>
	<path class="st1" d="M367,352.7H249c-2.6,0-5.2-1.1-7.1-2.9c-1.9-1.9-2.9-4.4-2.9-7.1c0-2.7,1.1-5.2,2.9-7.1
		c1.9-1.9,4.4-2.9,7.1-2.9h118c2.6,0,5.2,1,7.1,2.9c1.9,1.9,2.9,4.4,2.9,7.1c0,2.6-1,5.2-2.9,7.1C372.2,351.6,369.6,352.7,367,352.7
		z"/>
	<path d="M398,44c-2.6,0-5.2-1-7.1-2.9c-1.9-1.9-2.9-4.4-2.9-7.1V10c0-2.7,1-5.2,2.9-7.1C392.8,1,395.4,0,398,0s5.2,1,7.1,2.9
		C407,4.8,408,7.3,408,10v24c0,2.7-1,5.2-2.9,7.1C403.2,43,400.6,44,398,44z"/>
	<path d="M358,54.7c-1.8,0-3.5-0.5-5-1.3c-1.5-0.9-2.8-2.1-3.7-3.7l-12-20.8c-1.3-2.3-1.6-5-1-7.6c0.7-2.6,2.4-4.7,4.6-6
		c2.3-1.3,5-1.7,7.6-1c2.6,0.7,4.7,2.3,6.1,4.6l12,20.8c0.9,1.5,1.3,3.2,1.3,5c0,1.8-0.5,3.5-1.3,5c-0.9,1.5-2.1,2.8-3.6,3.7
		C361.5,54.2,359.8,54.7,358,54.7z"/>
	<path d="M328.7,84c-1.8,0-3.5-0.5-5-1.3l-20.8-12c-1.2-0.7-2.2-1.5-3-2.6c-0.8-1-1.4-2.2-1.8-3.5c-0.3-1.3-0.4-2.6-0.3-3.9
		c0.2-1.3,0.6-2.6,1.2-3.7c0.7-1.2,1.5-2.2,2.6-3c1-0.8,2.2-1.4,3.5-1.7c1.3-0.3,2.6-0.4,3.9-0.2c1.3,0.2,2.6,0.6,3.7,1.3l20.8,12
		c1.9,1.1,3.4,2.8,4.2,4.8c0.8,2,1,4.3,0.4,6.4c-0.6,2.1-1.8,4-3.6,5.3C333,83.3,330.9,84,328.7,84z"/>
	<path d="M318,124h-24c-2.6,0-5.2-1.1-7.1-2.9c-1.9-1.9-2.9-4.4-2.9-7.1s1-5.2,2.9-7.1c1.9-1.9,4.4-2.9,7.1-2.9h24
		c2.6,0,5.2,1.1,7.1,2.9c1.9,1.9,2.9,4.4,2.9,7.1s-1,5.2-2.9,7.1C323.2,122.9,320.6,124,318,124z"/>
	<path d="M307.9,176c-2.2,0-4.3-0.7-6.1-2.1c-1.7-1.3-3-3.2-3.6-5.3c-0.6-2.1-0.4-4.4,0.4-6.4c0.8-2,2.3-3.7,4.2-4.8l20.8-12
		c1.1-0.7,2.4-1.1,3.7-1.3c1.3-0.2,2.6-0.1,3.9,0.2c1.3,0.3,2.5,0.9,3.5,1.7c1.1,0.8,1.9,1.8,2.6,2.9c0.7,1.1,1.1,2.4,1.2,3.7
		c0.2,1.3,0.1,2.6-0.3,3.9c-0.4,1.3-0.9,2.5-1.8,3.5c-0.8,1.1-1.8,1.9-3,2.6l-20.8,12C311.4,175.5,309.7,176,307.9,176z"/>
	<path d="M346,214.1c-1.8,0-3.5-0.5-5-1.3c-1.5-0.9-2.8-2.1-3.6-3.7c-0.9-1.5-1.3-3.2-1.3-5c0-1.8,0.5-3.5,1.3-5l12-20.8
		c1.3-2.3,3.5-3.9,6.1-4.6c2.5-0.7,5.3-0.3,7.6,1c2.3,1.3,3.9,3.5,4.6,6c0.7,2.6,0.4,5.3-1,7.6l-12,20.8c-0.9,1.5-2.1,2.8-3.7,3.7
		C349.5,213.6,347.8,214.1,346,214.1z"/>
	<path d="M398,228c-2.6,0-5.2-1.1-7.1-2.9c-1.9-1.9-2.9-4.4-2.9-7.1v-24c0-2.6,1-5.2,2.9-7.1c1.9-1.9,4.4-2.9,7.1-2.9
		s5.2,1.1,7.1,2.9c1.9,1.9,2.9,4.4,2.9,7.1v24c0,2.6-1,5.2-2.9,7.1C403.2,226.9,400.6,228,398,228z"/>
	<path d="M450,214.1c-1.8,0-3.5-0.5-5-1.3c-1.5-0.9-2.8-2.1-3.7-3.7l-12-20.8c-1.3-2.3-1.6-5-1-7.6c0.7-2.6,2.4-4.7,4.6-6
		c2.3-1.3,5-1.7,7.6-1c2.6,0.7,4.7,2.3,6.1,4.6l12,20.8c0.9,1.5,1.3,3.2,1.3,5c0,1.8-0.5,3.5-1.3,5c-0.9,1.5-2.1,2.8-3.6,3.7
		C453.5,213.6,451.8,214.1,450,214.1z"/>
	<path d="M488.1,176c-1.8,0-3.5-0.5-5-1.3l-20.8-12c-2.3-1.3-3.9-3.5-4.6-6.1c-0.7-2.6-0.3-5.3,1-7.6c1.3-2.3,3.5-4,6-4.6
		c2.6-0.7,5.3-0.3,7.6,1l20.8,12c1.9,1.1,3.4,2.8,4.2,4.8c0.8,2,1,4.3,0.4,6.4c-0.6,2.1-1.8,4-3.6,5.3
		C492.4,175.3,490.3,176,488.1,176z"/>
	<path d="M502,124h-24c-2.6,0-5.2-1.1-7.1-2.9c-1.9-1.9-2.9-4.4-2.9-7.1s1-5.2,2.9-7.1c1.9-1.9,4.4-2.9,7.1-2.9h24
		c2.6,0,5.2,1.1,7.1,2.9c1.9,1.9,2.9,4.4,2.9,7.1s-1,5.2-2.9,7.1C507.2,122.9,504.6,124,502,124z"/>
	<path d="M467.3,84c-2.2,0-4.3-0.7-6.1-2.1c-1.7-1.3-3-3.2-3.6-5.3c-0.6-2.1-0.4-4.4,0.4-6.4c0.8-2,2.3-3.7,4.2-4.8l20.8-12
		c1.1-0.7,2.4-1.1,3.7-1.3c1.3-0.2,2.6-0.1,3.9,0.2c1.3,0.3,2.5,0.9,3.5,1.7c1.1,0.8,1.9,1.8,2.6,3c0.7,1.1,1.1,2.4,1.2,3.7
		c0.2,1.3,0.1,2.6-0.3,3.9c-0.4,1.3-0.9,2.5-1.8,3.5c-0.8,1.1-1.8,1.9-3,2.6l-20.8,12C470.8,83.5,469,84,467.3,84z"/>
	<path d="M438,54.7c-1.8,0-3.5-0.5-5-1.3c-1.5-0.9-2.8-2.1-3.6-3.7c-0.9-1.5-1.3-3.2-1.3-5c0-1.8,0.5-3.5,1.3-5l12-20.8
		c0.6-1.1,1.5-2.1,2.6-3c1-0.8,2.2-1.4,3.5-1.8c1.3-0.3,2.6-0.4,3.9-0.3c1.3,0.2,2.6,0.6,3.7,1.2c1.1,0.7,2.1,1.5,2.9,2.6
		c0.8,1.1,1.4,2.2,1.7,3.5c0.3,1.3,0.4,2.6,0.2,3.9c-0.2,1.3-0.6,2.6-1.3,3.7l-12,20.8c-0.9,1.5-2.1,2.8-3.7,3.7
		C441.5,54.3,439.8,54.7,438,54.7z"/>
	<path d="M398,61c-10.2,0-20.1,3-28.6,8.7c-8.5,5.7-15.1,13.7-19,23.1c-3.9,9.4-4.9,19.8-2.9,29.8c2,10,6.9,19.2,14.1,26.4
		c7.2,7.2,16.4,12.1,26.4,14.1c10,2,20.3,1,29.8-2.9c9.4-3.9,17.5-10.5,23.1-19s8.7-18.4,8.7-28.6c0-13.7-5.4-26.8-15.1-36.4
		C424.8,66.4,411.6,61,398,61z M398,144c-6.2,0-12.3-1.9-17.5-5.3c-5.2-3.5-9.2-8.4-11.6-14.1c-2.4-5.8-3-12.1-1.8-18.2
		c1.2-6.1,4.2-11.7,8.6-16.1c4.4-4.4,10-7.4,16.1-8.6c6.1-1.2,12.4-0.6,18.2,1.8c5.8,2.4,10.7,6.4,14.1,11.6s5.3,11.3,5.3,17.5
		c0,8.3-3.3,16.4-9.2,22.3C414.4,140.7,406.4,144,398,144z"/>
	<path class="st1" d="M134.6,315.3H45.5c-2.6,0-5.2-1.1-7.1-2.9c-1.9-1.9-2.9-4.4-2.9-7.1s1-5.2,2.9-7.1c1.9-1.9,4.4-2.9,7.1-2.9
		h89.1c2.6,0,5.2,1,7.1,2.9c1.9,1.9,2.9,4.4,2.9,7.1s-1.1,5.2-2.9,7.1C139.8,314.2,137.2,315.3,134.6,315.3z"/>
	<path class="st1" d="M168.5,370.6H79c-2.7,0-5.2-1.1-7.1-2.9c-1.9-1.9-2.9-4.4-2.9-7.1c0-2.7,1.1-5.2,2.9-7.1
		c1.9-1.9,4.4-2.9,7.1-2.9h89.5c2.6,0,5.2,1,7.1,2.9c1.9,1.9,2.9,4.4,2.9,7.1c0,2.6-1.1,5.2-2.9,7.1
		C173.7,369.6,171.2,370.6,168.5,370.6z"/>
	<path d="M502,492H308v-22c0-2.6-1-5.2-2.9-7.1c-1.9-1.9-4.4-2.9-7.1-2.9h-9v-35.4c1.5,0.9,3.2,1.4,5,1.4h120c1.8,0,3.5-0.5,5.1-1.4
		c1.5-0.9,2.8-2.2,3.7-3.8c0.9-1.6,1.3-3.3,1.2-5.1c0-1.8-0.6-3.5-1.5-5l-137-220c-0.9-1.4-2.1-2.6-3.6-3.5
		c-1.5-0.8-3.2-1.3-4.9-1.3H157c-1.8,0-3.5,0.5-5.1,1.4c-1.5,0.9-2.8,2.2-3.7,3.8c-0.9,1.6-1.3,3.3-1.2,5.1c0,1.8,0.6,3.5,1.5,5
		L239,346.6V460h-9c-2.6,0-5.2,1-7.1,2.9c-1.9,1.9-2.9,4.4-2.9,7.1v22h-82v-22c0-2.6-1.1-5.2-2.9-7.1c-1.9-1.9-4.4-2.9-7.1-2.9h-9
		v-34h85c1.8,0,3.5-0.5,5.1-1.4c1.5-0.9,2.8-2.2,3.7-3.8c0.9-1.6,1.3-3.3,1.2-5.1c0-1.8-0.6-3.5-1.5-5L109.1,244.6
		c-0.9-1.4-2.2-2.6-3.6-3.4c-1.5-0.8-3.2-1.3-4.8-1.3H10c-1.8,0-3.5,0.5-5.1,1.4c-1.5,0.9-2.8,2.2-3.7,3.8c-0.9,1.6-1.3,3.3-1.2,5.1
		c0,1.8,0.6,3.5,1.5,5L69,363.6V460h-9c-2.7,0-5.2,1-7.1,2.9c-1.9,1.9-2.9,4.4-2.9,7.1v22H10c-2.7,0-5.2,1-7.1,2.9
		C1,496.8,0,499.4,0,502s1,5.2,2.9,7.1C4.8,511,7.3,512,10,512h492c2.6,0,5.2-1,7.1-2.9c1.9-1.9,2.9-4.4,2.9-7.1s-1-5.2-2.9-7.1
		C507.2,493,504.6,492,502,492z M62.5,315.3l-12.5-20l-22-35.4h67l22,35.4l12.4,20l22,35.4l12.4,20L186,406h-67l-20-32.1l-2-3.3
		l-0.4-0.6l-12-19.4l-0.4-0.6L62.5,315.3z M99,411.8V460H89v-64.3L99,411.8z M118,492H70v-12h48V492z M220.7,279.3l-12.4-20L175,206
		h96.4l33.2,53.3l12.5,20l33.2,53.3l12.4,20L396,406h-96.5L289,389.1l-20-32.1l-2.7-4.3l-1.7-2.7l-10.8-17.3l-1.7-2.7L220.7,279.3z
		 M269,394.8V460h-10v-81.3L269,394.8z M288,492h-48v-12h48V492z"/>
</g>
</svg>
