<?xml version="1.0" encoding="utf-8"?>
<!-- Generator: Adobe Illustrator 28.2.0, SVG Export Plug-In . SVG Version: 6.00 Build 0)  -->
<svg version="1.1" id="vector" xmlns="http://www.w3.org/2000/svg" xmlns:xlink="http://www.w3.org/1999/xlink" x="0px" y="0px"
	 viewBox="0 0 512 512" style="enable-background:new 0 0 512 512;" xml:space="preserve">
<style type="text/css">
	.st0{clip-path:url(#SVGID_00000055692887093103757310000014522121224842495669_);}
	.st1{fill:#33B0DF;}
</style>
<g id="g_0">
	<g>
		<defs>
			<rect id="SVGID_1_" y="0" width="512" height="512"/>
		</defs>
		<clipPath id="SVGID_00000035497402140613202520000001567838110789038225_">
			<use xlink:href="#SVGID_1_"  style="overflow:visible;"/>
		</clipPath>
		<path style="clip-path:url(#SVGID_00000035497402140613202520000001567838110789038225_);" d="M215.4,2.4
			c-1.5-0.9-3.2-1.4-4.9-1.4s-3.5,0.4-5,1.3L81.8,71H10c-2.7,0-5.2,1.1-7.1,2.9C1,75.8,0,78.3,0,81v105c0,2.6,1,5.2,2.9,7.1
			c1.9,1.9,4.4,2.9,7.1,2.9h71.8l123.7,68.7c1.5,0.9,3.2,1.3,5,1.3s3.4-0.5,4.9-1.4s2.8-2.1,3.6-3.6c0.9-1.5,1.3-3.2,1.3-5V11
			c0-1.7-0.5-3.4-1.3-5C218.2,4.5,216.9,3.3,215.4,2.4z M20,91h54.4v85H20V91z M200.4,239l-106-58.9V86.9l106-58.9V239z"/>
	</g>
	<path d="M118,514H54c-2.7,0-5.2-1-7.1-2.9c-1.9-1.9-2.9-4.4-2.9-7.1v-80c0-2.6,1-5.2,2.9-7.1c1.9-1.9,4.4-2.9,7.1-2.9h64
		c2.7,0,5.2,1,7.1,2.9c1.9,1.9,2.9,4.4,2.9,7.1v80c0,2.6-1.1,5.2-2.9,7.1C123.2,513,120.7,514,118,514z M64,494h44v-60H64V494z"/>
	<path d="M214,514h-64c-2.6,0-5.2-1-7.1-2.9c-1.9-1.9-2.9-4.4-2.9-7.1V360c0-2.6,1.1-5.2,2.9-7.1c1.9-1.9,4.4-2.9,7.1-2.9h64
		c2.6,0,5.2,1,7.1,2.9c1.9,1.9,2.9,4.4,2.9,7.1v144c0,2.6-1.1,5.2-2.9,7.1C219.2,513,216.6,514,214,514z M160,494h44V370h-44V494z"
		/>
	<path d="M310,514h-64c-2.6,0-5.2-1-7.1-2.9c-1.9-1.9-2.9-4.4-2.9-7.1V280c0-2.6,1.1-5.2,2.9-7.1c1.9-1.9,4.4-2.9,7.1-2.9h64
		c2.6,0,5.2,1,7.1,2.9c1.9,1.9,2.9,4.4,2.9,7.1v224c0,2.6-1,5.2-2.9,7.1C315.2,513,312.6,514,310,514z M256,494h44V290h-44V494z"/>
	<path class="st1" d="M406,514h-64c-2.6,0-5.2-1-7.1-2.9c-1.9-1.9-2.9-4.4-2.9-7.1V200c0-2.6,1-5.2,2.9-7.1c1.9-1.9,4.4-2.9,7.1-2.9
		h64c2.6,0,5.2,1.1,7.1,2.9c1.9,1.9,2.9,4.4,2.9,7.1v304c0,2.6-1,5.2-2.9,7.1C411.2,513,408.6,514,406,514z M352,494h44V210h-44V494
		z"/>
	<path d="M502,514h-64c-2.6,0-5.2-1-7.1-2.9c-1.9-1.9-2.9-4.4-2.9-7.1V120c0-2.7,1-5.2,2.9-7.1c1.9-1.9,4.4-2.9,7.1-2.9h64
		c2.6,0,5.2,1.1,7.1,2.9c1.9,1.9,2.9,4.4,2.9,7.1v384c0,2.6-1,5.2-2.9,7.1C507.2,513,504.6,514,502,514z M448,494h44V130h-44V494z"
		/>
</g>
</svg>
