<?xml version="1.0" encoding="utf-8"?>
<!-- Generator: Adobe Illustrator 28.2.0, SVG Export Plug-In . SVG Version: 6.00 Build 0)  -->
<svg version="1.1" id="vector" xmlns="http://www.w3.org/2000/svg" xmlns:xlink="http://www.w3.org/1999/xlink" x="0px" y="0px"
	 viewBox="0 0 48 48" style="enable-background:new 0 0 48 48;" xml:space="preserve">
<style type="text/css">
	.st0{fill:#33B0DF;}
</style>
<path id="path_0" d="M18.2,13.1c0.5,0,1,0.2,1.5,0.5c0.5,0.3,0.8,0.7,1.1,1.2c0.3,0.5,0.4,1.1,0.4,1.7c0,0.6-0.1,1.2-0.4,1.7
	c-0.3,0.5-0.6,0.9-1.1,1.2c-0.4,0.3-0.9,0.5-1.5,0.5h-2.8l0.1-0.3v3.1c0,0.2-0.1,0.5-0.2,0.7c-0.1,0.1-0.2,0.2-0.3,0.2
	s-0.2,0.1-0.3,0.1c-0.1,0-0.2,0-0.3-0.1c-0.1,0-0.2-0.1-0.3-0.2c-0.2-0.2-0.2-0.4-0.2-0.7V14c0-0.1,0-0.2,0.1-0.4
	c0-0.1,0.1-0.2,0.2-0.3c0.1-0.1,0.2-0.2,0.3-0.2c0.1,0,0.2-0.1,0.4-0.1H18.2z M18.2,18.2c0.2,0,0.4-0.1,0.6-0.2
	c0.2-0.2,0.3-0.4,0.4-0.6c0.1-0.3,0.2-0.5,0.2-0.8c0-0.3-0.1-0.6-0.2-0.8c-0.1-0.2-0.3-0.4-0.4-0.6c-0.1-0.1-0.3-0.2-0.6-0.2h-2.8
	l0.2-0.3v3.8l-0.2-0.2H18.2z"/>
<path id="path_1" d="M33,14v8.7c0,0.1,0,0.2-0.1,0.4c0,0.1-0.1,0.2-0.2,0.3s-0.2,0.2-0.3,0.2c-0.1,0-0.2,0.1-0.4,0.1
	c-0.1,0-0.3,0-0.4-0.1c-0.1,0-0.2-0.1-0.3-0.2c-0.1-0.1-0.2-0.2-0.2-0.3c0-0.1-0.1-0.2-0.1-0.4v-6l-2.5,3.8
	c-0.1,0.1-0.2,0.2-0.3,0.3c-0.1,0.1-0.3,0.1-0.4,0.1c-0.1,0-0.3,0-0.4-0.1c-0.1-0.1-0.2-0.2-0.3-0.3l-2.5-3.9v6.2
	c0,0.2-0.1,0.5-0.2,0.7c-0.1,0.1-0.2,0.2-0.3,0.2s-0.2,0.1-0.3,0.1c-0.1,0-0.2,0-0.3-0.1c-0.1,0-0.2-0.1-0.3-0.2
	c-0.2-0.2-0.2-0.4-0.2-0.7V14c0-0.1,0-0.2,0.1-0.4c0-0.1,0.1-0.2,0.2-0.3c0.1-0.1,0.2-0.2,0.3-0.2c0.1,0,0.2-0.1,0.4-0.1
	c0.2,0,0.3,0,0.4,0.1c0.1,0.1,0.3,0.2,0.4,0.3l3.3,5l3.4-5c0.1-0.1,0.2-0.2,0.3-0.3c0.1-0.1,0.3-0.1,0.4-0.1c0.2,0,0.5,0.1,0.6,0.3
	c0.1,0.1,0.2,0.2,0.2,0.3C32.9,13.8,33,13.9,33,14z"/>
<path id="path_2" d="M19.6,33.2c0.1,0,0.2,0,0.3,0.1c0.1,0,0.2,0.1,0.3,0.2s0.1,0.2,0.2,0.3c0,0.1,0.1,0.2,0.1,0.3
	c0,0.1,0,0.2-0.1,0.3c0,0.1-0.1,0.2-0.2,0.3c-0.1,0.1-0.2,0.1-0.3,0.2c-0.1,0-0.2,0.1-0.3,0.1h-5.1c-0.1,0-0.2,0-0.3-0.1
	c-0.1,0-0.2-0.1-0.3-0.2c-0.2-0.2-0.2-0.4-0.2-0.6c0-0.2,0.1-0.5,0.3-0.7l3.3-3.5c0.3-0.4,0.6-0.8,0.9-1.2c0.2-0.4,0.3-0.8,0.3-1.1
	c0-0.5-0.1-0.9-0.4-1.2c-0.3-0.3-0.7-0.5-1.2-0.5c-0.2,0-0.4,0-0.6,0.1c-0.2,0.1-0.4,0.2-0.6,0.4c-0.2,0.2-0.4,0.4-0.5,0.6
	c-0.1,0.1-0.2,0.2-0.4,0.3c-0.1,0-0.2,0.1-0.3,0.1c-0.2,0-0.4-0.1-0.6-0.2c-0.1-0.1-0.2-0.2-0.2-0.3c0-0.1-0.1-0.2-0.1-0.3
	c0-0.2,0.1-0.4,0.2-0.5c0.1-0.2,0.3-0.3,0.4-0.5c0.3-0.3,0.5-0.5,0.8-0.7c0.3-0.2,0.6-0.3,1-0.4c0.3-0.1,0.6-0.2,1-0.2
	c0.6,0,1.2,0.1,1.7,0.4c0.5,0.3,0.9,0.6,1.1,1.1c0.3,0.5,0.4,1.1,0.4,1.7c0,0.6-0.2,1.2-0.5,1.8c-0.3,0.7-0.8,1.3-1.3,1.9l-2,2.2
	l-0.2-0.1L19.6,33.2z"/>
<path id="path_3" d="M23.1,34.8c-0.3,0-0.5-0.1-0.7-0.2c-0.2-0.2-0.2-0.4-0.2-0.7v-0.3c0-0.3,0.1-0.5,0.2-0.7
	c0.2-0.2,0.4-0.2,0.7-0.2h0.2c0.3,0,0.5,0.1,0.7,0.2c0.2,0.2,0.2,0.4,0.2,0.7v0.3c0,0.3-0.1,0.5-0.2,0.7c-0.2,0.2-0.4,0.2-0.7,0.2
	H23.1z"/>
<path id="path_4" d="M28.6,35c-0.4,0-0.8-0.1-1.2-0.2c-0.4-0.1-0.7-0.3-1-0.5c-0.1-0.1-0.2-0.3-0.3-0.4C26,33.8,26,33.6,26,33.4
	c0-0.1,0-0.2,0.1-0.3c0-0.1,0.1-0.2,0.2-0.2c0.1-0.1,0.2-0.1,0.3-0.2c0.1,0,0.2-0.1,0.3,0c0.2,0,0.4,0.1,0.7,0.3
	c0.2,0.1,0.3,0.2,0.5,0.3c0.2,0.1,0.4,0.1,0.6,0.1c0.4,0,0.9-0.1,1.2-0.3c0.3-0.2,0.6-0.4,0.8-0.7c0.2-0.3,0.3-0.7,0.3-1.1
	c0-0.3-0.1-0.7-0.3-1c-0.2-0.3-0.4-0.5-0.7-0.6c-0.3-0.1-0.6-0.2-0.9-0.2c-0.3,0-0.6,0-0.8,0.1c-0.2,0.1-0.4,0.2-0.6,0.3
	c-0.2,0.1-0.4,0.2-0.6,0.2c-0.3,0-0.6-0.1-0.7-0.2c-0.2-0.1-0.3-0.3-0.3-0.5c0-0.2,0-0.4,0-0.5l0.5-3.6c0-0.2,0.1-0.4,0.3-0.5
	c0.2-0.1,0.4-0.2,0.6-0.2h4.3c0.1,0,0.2,0,0.3,0.1c0.1,0,0.2,0.1,0.3,0.2c0.1,0.1,0.1,0.2,0.2,0.3c0,0.1,0.1,0.2,0.1,0.3
	c0,0.1,0,0.2-0.1,0.3c0,0.1-0.1,0.2-0.2,0.3C32.2,25.9,32.1,26,32,26c-0.1,0-0.2,0.1-0.3,0.1h-3.9L28,26l-0.4,3l-0.2-0.6
	c0.1-0.1,0.2-0.2,0.4-0.3c0.2-0.1,0.5-0.2,0.7-0.2c0.3-0.1,0.5-0.1,0.8-0.1c0.6,0,1.3,0.1,1.8,0.5c0.5,0.3,1,0.7,1.3,1.2
	c0.3,0.5,0.5,1.2,0.5,1.8c0,0.7-0.2,1.4-0.5,2c-0.3,0.6-0.8,1-1.4,1.3C30.2,34.9,29.5,35,28.6,35z"/>
<path id="path_5" class="st0" d="M2.4,11.2c-0.2,0-0.5-0.1-0.6-0.3c-0.2-0.2-0.3-0.4-0.3-0.6C1.4,9,1.7,7.8,2.4,6.8S4,4.9,5.1,4.4
	s2.4-0.6,3.6-0.3C9.9,4.4,11,5,11.9,5.9C11.9,6,12,6.1,12,6.2c0,0.1,0.1,0.2,0.1,0.4c0,0.1,0,0.2-0.1,0.4c-0.1,0.1-0.1,0.2-0.2,0.3
	c-0.1,0.1-0.2,0.1-0.3,0.2c-0.1,0-0.2,0.1-0.4,0.1c-0.1,0-0.2,0-0.4-0.1c-0.1-0.1-0.2-0.1-0.3-0.2C9.9,6.5,9.1,6.1,8.3,5.9
	C7.5,5.7,6.6,5.8,5.9,6.2C5.1,6.5,4.4,7,4,7.8c-0.4,0.7-0.7,1.6-0.6,2.4c0,0.2-0.1,0.5-0.2,0.7C3,11,2.7,11.1,2.4,11.2L2.4,11.2z"/>
<path id="path_6" class="st0" d="M45.8,6.7c-0.1,0-0.2,0-0.2,0c-0.1,0-0.2-0.1-0.3-0.2C45.1,6.5,45,6.4,45,6.3
	c-0.1-0.1-0.1-0.2-0.1-0.3c0-0.1,0-0.2,0-0.4c0.1-0.3,0.1-0.7-0.1-1c-0.1-0.3-0.3-0.6-0.6-0.8c-0.3-0.2-0.6-0.3-0.9-0.3
	c-0.3,0-0.6,0.1-0.9,0.3C42.2,4,41.9,4.1,41.7,4c-0.2,0-0.4-0.2-0.6-0.4C41,3.5,40.9,3.2,40.9,3c0-0.2,0.1-0.5,0.3-0.6
	c0.6-0.4,1.3-0.7,2-0.7c0.7,0,1.4,0.2,2,0.6c0.6,0.4,1.1,1,1.3,1.7c0.3,0.7,0.3,1.4,0.1,2.1c-0.1,0.2-0.2,0.4-0.3,0.5
	C46.2,6.7,46,6.7,45.8,6.7z"/>
<path id="path_7" d="M14.5,47.2c-0.5,0-0.9-0.1-1.4-0.3c-0.4-0.2-0.8-0.5-1.2-0.8c-0.3-0.3-0.6-0.8-0.7-1.2C11,44.5,11,44,11,43.5
	c0-0.2,0.1-0.5,0.3-0.6c0.2-0.2,0.4-0.2,0.7-0.2c0.2,0,0.5,0.1,0.6,0.3c0.2,0.2,0.2,0.4,0.2,0.7c0,0.3,0.1,0.7,0.2,0.9
	c0.2,0.3,0.4,0.5,0.7,0.6c0.3,0.1,0.6,0.2,1,0.1s0.6-0.2,0.8-0.5c0.1-0.1,0.2-0.2,0.3-0.2c0.1-0.1,0.2-0.1,0.4-0.1
	c0.1,0,0.2,0,0.4,0.1c0.1,0,0.2,0.1,0.3,0.2c0.1,0.1,0.2,0.2,0.2,0.3c0.1,0.1,0.1,0.2,0.1,0.4c0,0.1,0,0.2-0.1,0.4
	c0,0.1-0.1,0.2-0.2,0.3c-0.3,0.3-0.7,0.6-1.2,0.8C15.4,47.2,14.9,47.2,14.5,47.2z"/>
<path id="path_8" class="st0" d="M42.4,27.5c-0.2,0-0.4-0.1-0.6-0.2c-0.2-0.1-0.3-0.3-0.3-0.6c0-0.2,0-0.4,0.1-0.6
	c0.1-0.2,0.3-0.3,0.5-0.4c0.3-0.1,0.6-0.3,0.8-0.6c0.2-0.3,0.3-0.6,0.3-0.9c0-0.3-0.1-0.7-0.3-0.9c-0.2-0.3-0.5-0.5-0.8-0.6
	c-0.2-0.1-0.4-0.3-0.5-0.5c-0.1-0.2-0.1-0.5,0-0.7c0.1-0.2,0.3-0.4,0.5-0.5c0.2-0.1,0.5-0.1,0.7,0c0.7,0.2,1.3,0.7,1.7,1.3
	c0.4,0.6,0.6,1.3,0.6,2c0,0.7-0.2,1.4-0.7,2c-0.4,0.6-1,1-1.7,1.2C42.6,27.4,42.5,27.5,42.4,27.5z"/>
<path id="path_9" class="st0" d="M36.4,41.9c0,1.2-0.4,2.4-1,3.4c-0.7,1-1.6,1.8-2.7,2.2c-1.1,0.4-2.3,0.5-3.5,0.3
	c-1.2-0.3-2.2-0.9-3-1.8c-0.1-0.1-0.2-0.2-0.2-0.3c0-0.1-0.1-0.2-0.1-0.4c0-0.1,0-0.2,0.1-0.4c0.1-0.1,0.1-0.2,0.2-0.3
	c0.1-0.1,0.2-0.1,0.3-0.2c0.1,0,0.2-0.1,0.4-0.1c0.1,0,0.2,0,0.4,0.1s0.2,0.1,0.3,0.2c0.5,0.6,1.2,1,2,1.2c0.8,0.2,1.6,0.2,2.3-0.1
	c0.7-0.2,1.4-0.7,1.9-1.3c0.5-0.6,0.8-1.3,0.9-2.1c0.4,0,0.8-0.1,1.1-0.2C35.8,42.1,36.1,42,36.4,41.9z"/>
<path id="path_10" d="M43.5,37.6c-1.1,0.3-2.3,0.2-3.3-0.2c-0.2,1-0.7,2-1.3,2.8c-0.7,0.8-1.5,1.4-2.5,1.8c-0.2,0.1-0.5,0.2-0.8,0.3
	c-0.4,0.1-0.8,0.2-1.1,0.2c-0.2,0-0.4,0-0.5,0c-1.6,0-3.1-0.6-4.2-1.6c-0.1-0.1-0.2-0.2-0.2-0.3c-0.1-0.1-0.1-0.2-0.1-0.4
	c0-0.1,0-0.2,0-0.4c0-0.1,0.1-0.2,0.2-0.3c0.1-0.1,0.2-0.2,0.3-0.2c0.1-0.1,0.2-0.1,0.4-0.1c0.1,0,0.2,0,0.4,0.1
	c0.1,0,0.2,0.1,0.3,0.2c0.7,0.6,1.5,1,2.4,1.1c0.9,0.1,1.8,0,2.6-0.4s1.5-1,1.9-1.8c0.5-0.8,0.7-1.7,0.6-2.5c0-0.2,0-0.4,0.1-0.5
	c0.1-0.2,0.2-0.3,0.4-0.4s0.4-0.1,0.5-0.1c0.2,0,0.4,0.1,0.5,0.2c0.5,0.5,1.1,0.8,1.8,0.8c0.7,0.1,1.4-0.1,2-0.4
	c0.6-0.4,1-0.9,1.3-1.5c0.3-0.6,0.3-1.3,0.1-2c0-0.1-0.1-0.2-0.1-0.4c0-0.1-0.1-0.2-0.1-0.4c0-0.1,0-0.2,0.1-0.4
	c0-0.1,0.1-0.2,0.2-0.3c0.1-0.1,0.2-0.2,0.3-0.2c0.1,0,0.2-0.1,0.4-0.1c0.1,0,0.2,0,0.4,0.1c0.1,0.1,0.2,0.1,0.3,0.2
	c0.1,0.1,0.2,0.2,0.2,0.3c0.1,0.2,0.1,0.4,0.2,0.6c0.3,1.3,0.2,2.7-0.5,3.8C45.8,36.4,44.7,37.2,43.5,37.6z"/>
<path id="path_11" d="M11.2,37.9c-1.1,0.7-2.5,0.9-3.8,0.8c-1.3-0.1-2.6-0.7-3.5-1.6c-1-0.9-1.6-2.1-1.9-3.4c-0.2-1.3,0-2.7,0.5-3.8
	c-0.5-0.4-0.9-0.9-1.2-1.5s-0.4-1.2-0.5-1.8c0-0.6,0.1-1.3,0.3-1.8s0.6-1.1,1.1-1.6C2.5,23,2.7,22.9,3,22.9c0.2,0,0.5,0.1,0.7,0.3
	c0.2,0.2,0.3,0.4,0.3,0.7c0,0.2-0.1,0.5-0.3,0.7c-0.4,0.4-0.6,0.8-0.7,1.3c-0.1,0.5-0.1,1,0.1,1.5c0.2,0.6,0.6,1,1.1,1.4
	c0.3,0.2,0.7,0.3,1,0.4c0.4,0.1,0.7,0,1.1-0.1c0.2-0.1,0.5,0,0.7,0.1c0.2,0.1,0.4,0.3,0.4,0.6c0.1,0.2,0,0.5-0.1,0.7
	c-0.1,0.2-0.3,0.4-0.6,0.4c-0.8,0.2-1.6,0.2-2.4,0c-0.3,0.7-0.5,1.4-0.4,2.2c0.1,0.8,0.3,1.5,0.7,2.1c0.5,0.8,1.4,1.4,2.3,1.7
	c0.6,0.2,1.2,0.2,1.7,0.2s1.2-0.3,1.7-0.5c0.1-0.1,0.2-0.1,0.4-0.1c0.1,0,0.3,0,0.4,0c0.1,0,0.2,0.1,0.3,0.2
	c0.1,0.1,0.2,0.2,0.3,0.3c0.1,0.1,0.1,0.2,0.1,0.4c0,0.1,0,0.3,0,0.4c0,0.1-0.1,0.2-0.2,0.3C11.4,37.8,11.3,37.9,11.2,37.9
	L11.2,37.9z"/>
<path id="path_12" d="M31.6,8.1c-0.1,0-0.1,0-0.2,0c-0.2,0-0.4-0.1-0.6-0.2c-0.2-0.1-0.3-0.3-0.3-0.6c-0.1-0.6-0.4-1.1-0.8-1.5
	c-0.4-0.4-1-0.6-1.6-0.7c-0.6,0-1.2,0.1-1.6,0.4c-0.5,0.3-0.9,0.8-1.1,1.3c0,0.1-0.1,0.2-0.2,0.3c-0.1,0.1-0.2,0.2-0.3,0.2
	c-0.1,0.1-0.2,0.1-0.4,0.1c-0.1,0-0.2,0-0.4-0.1c-0.1,0-0.2-0.1-0.3-0.2c-0.1-0.1-0.2-0.2-0.2-0.3c-0.1-0.1-0.1-0.2-0.1-0.4
	c0-0.1,0-0.2,0.1-0.4c0.2-0.6,0.5-1.1,0.9-1.5c-0.4-0.9-1-1.6-1.9-2.1C21.9,2.2,20.9,2,20,2.1c-0.9,0.1-1.8,0.6-2.5,1.3
	c-0.7,0.7-1.1,1.6-1.2,2.5c0,0.2-0.1,0.4-0.3,0.6c-0.2,0.2-0.4,0.2-0.6,0.2c0,0-0.1,0-0.1,0c-0.1,0-0.2,0-0.4-0.1
	c-0.1-0.1-0.2-0.1-0.3-0.2c-0.1-0.1-0.1-0.2-0.2-0.3c0-0.1,0-0.2,0-0.4c0.1-1.3,0.7-2.6,1.6-3.6c0.9-1,2.1-1.6,3.4-1.9
	c1.3-0.2,2.7-0.1,3.9,0.5c1.2,0.6,2.2,1.6,2.8,2.7c0.6-0.3,1.3-0.4,2-0.4c0.7,0,1.3,0.2,1.9,0.5c0.6,0.3,1.1,0.8,1.5,1.3
	C32,5.7,32.2,6.3,32.3,7c0,0.1,0,0.2,0,0.4c0,0.1-0.1,0.2-0.2,0.3c-0.1,0.1-0.2,0.2-0.3,0.3C31.8,8,31.7,8,31.6,8.1z"/>
<path id="path_13" d="M46.6,20.5c-0.2,0-0.3,0-0.4-0.1c-0.1-0.1-0.3-0.2-0.3-0.3c-0.1-0.1-0.1-0.3-0.2-0.4c0-0.2,0-0.3,0.1-0.4
	c0.2-0.4,0.2-0.9,0.2-1.4c0-0.5-0.2-0.9-0.4-1.3c-0.2-0.4-0.6-0.8-1-1c-0.4-0.3-0.8-0.4-1.3-0.5c-0.2,0-0.4-0.1-0.5-0.3
	c-0.1-0.2-0.2-0.3-0.3-0.6c0-0.4-0.2-0.7-0.4-1c-0.2-0.3-0.5-0.6-0.8-0.7c-0.3-0.2-0.7-0.3-1.1-0.2c-0.4,0-0.7,0.1-1.1,0.3
	c-0.2,0.1-0.5,0.2-0.7,0.1c-0.2-0.1-0.4-0.2-0.6-0.4s-0.2-0.5-0.1-0.7c0.1-0.2,0.2-0.4,0.4-0.6c0.5-0.3,1.1-0.5,1.8-0.5
	c0.6,0,1.2,0.1,1.8,0.3c0.6,0.2,1.1,0.6,1.5,1.1c0.4,0.5,0.7,1,0.9,1.6c0.1,0,0.3,0.1,0.4,0.1c1.2,0.5,2.2,1.4,2.8,2.7
	c0.5,1.2,0.6,2.6,0.1,3.9c-0.1,0.2-0.2,0.3-0.3,0.4C47,20.4,46.8,20.5,46.6,20.5z"/>
<path id="path_14" d="M43,46.9c1.6,0,2.8-1.3,2.8-2.8c0-1.6-1.3-2.8-2.8-2.8s-2.8,1.3-2.8,2.8C40.2,45.6,41.5,46.9,43,46.9z"/>
<path id="path_15" d="M4.7,46.7c1.6,0,2.8-1.3,2.8-2.8c0-1.6-1.3-2.8-2.8-2.8s-2.8,1.3-2.8,2.8C1.9,45.4,3.1,46.7,4.7,46.7z"/>
<path id="path_16" d="M21.9,44.7c1.6,0,2.8-1.3,2.8-2.8c0-1.6-1.3-2.8-2.8-2.8s-2.8,1.3-2.8,2.8C19.1,43.5,20.4,44.7,21.9,44.7z"/>
<path id="path_17" d="M37.6,9c1.6,0,2.8-1.3,2.8-2.8s-1.3-2.8-2.8-2.8s-2.8,1.3-2.8,2.8S36.1,9,37.6,9z"/>
<path id="path_18" d="M5.1,18.9c1.6,0,2.8-1.3,2.8-2.8s-1.3-2.8-2.8-2.8s-2.8,1.3-2.8,2.8S3.5,18.9,5.1,18.9z"/>
</svg>
