<?xml version="1.0" encoding="utf-8"?>
<!-- Generator: Adobe Illustrator 28.2.0, SVG Export Plug-In . SVG Version: 6.00 Build 0)  -->
<svg version="1.1" id="vector" xmlns="http://www.w3.org/2000/svg" xmlns:xlink="http://www.w3.org/1999/xlink" x="0px" y="0px"
	 viewBox="0 0 512 512" style="enable-background:new 0 0 512 512;" xml:space="preserve">
<style type="text/css">
	.st0{fill:#33B0DF;}
</style>
<path id="path_0" class="st0" d="M206.5,330.9c1.1,0.5,2,1.2,2.8,2.2c0.7,1,1.2,2.1,1.3,3.2c0.2,1.2,0.1,2.4-0.2,3.6
	c-0.3,1.2-0.9,2.2-1.6,3.2c-0.5,0.8-1.2,1.4-2,1.9c-0.8,0.5-1.7,0.8-2.6,0.9c-1.9,0.2-3.8-0.2-5.5-1.1c-3.1-1.6-6.4-2.9-9.8-3.8
	c-3.5-1-7.2-1.5-10.9-1.4c-5.6-0.1-11.2,0.9-16.4,3c-4.8,1.9-9.1,4.8-12.6,8.4c-3.6,3.7-6.3,8.2-8.1,13c-1.9,5.3-2.9,11-2.8,16.6
	c-0.1,6.1,0.9,12.1,3,17.8c1.9,4.9,4.7,9.4,8.4,13.1c3.6,3.6,7.9,6.3,12.6,8c5.1,1.8,10.4,2.7,15.8,2.7c3.6,0,7.2-0.4,10.6-1.3
	c3.4-0.8,6.7-2.1,9.8-3.8c1.7-0.9,3.7-1.3,5.7-1c0.9,0.1,1.8,0.4,2.6,0.9c0.8,0.5,1.5,1.1,2,1.9c0.8,0.9,1.4,2,1.8,3.2
	c0.4,1.2,0.4,2.4,0.2,3.6c-0.2,1.1-0.7,2.2-1.4,3.1c-0.7,0.9-1.6,1.6-2.6,2.1c-2.8,1.5-5.8,2.8-8.8,3.8c-3.2,1.1-6.4,1.9-9.8,2.6
	c-3.3,0.6-6.7,1-10.1,1c-7.4,0.1-14.8-1.3-21.8-3.8c-6.8-2.5-13-6.4-18.2-11.3c-5.4-5-9.7-11.2-12.6-18.1
	c-3.2-7.8-4.7-16.1-4.6-24.5c-0.1-7.8,1.4-15.5,4.2-22.8c2.7-6.8,6.8-13,12-18.1c5.2-5.1,11.4-9.1,18.2-11.8
	c7.2-2.9,14.9-4.3,22.7-4.3c5.1,0,10.1,0.6,15,1.9C197.7,326.7,202.2,328.5,206.5,330.9z"/>
<path id="path_1" class="st0" d="M330.8,380.5c0.1,7.7-1.3,15.4-4,22.6c-2.5,6.8-6.4,13-11.3,18.3c-4.8,5.2-10.7,9.4-17.2,12.2
	c-6.9,2.9-14.2,4.4-21.7,4.4c-7.5,0-14.8-1.5-21.7-4.4c-6.5-2.9-12.4-7-17.2-12.2c-4.9-5.3-8.7-11.5-11.2-18.3
	c-5.2-14.6-5.2-30.6,0-45.3c2.5-6.8,6.3-13,11.2-18.3c4.9-5.2,10.7-9.4,17.2-12.2c10.1-4.5,21.4-5.8,32.2-3.6
	c10.9,2.2,20.8,7.7,28.3,15.8c4.9,5.3,8.7,11.5,11.3,18.3C329.5,365.1,330.9,372.8,330.8,380.5z M313.5,380.5
	c0.1-7.4-1.5-14.6-4.7-21.3c-2.9-6-7.4-11.2-13-14.9c-5.7-3.6-12.4-5.4-19.1-5.4c-6.8,0-13.4,1.9-19.1,5.4
	c-5.6,3.7-10.1,8.8-13,14.8c-3.1,6.7-4.6,14-4.6,21.3c0,7.4,1.6,14.6,4.6,21.3c2.9,6.1,7.4,11.2,13,14.9c5.7,3.6,12.4,5.4,19.1,5.4
	c6.8,0,13.4-1.9,19.1-5.4c5.6-3.7,10.1-8.8,13-14.9C312,395.1,313.6,387.9,313.5,380.5z"/>
<path id="path_2" class="st0" d="M388.5,454.3c0.9,0,1.8,0.1,2.6,0.5c0.8,0.3,1.6,0.8,2.2,1.5s1.1,1.4,1.4,2.2
	c0.3,0.8,0.5,1.7,0.5,2.6c0,0.9-0.1,1.7-0.5,2.5c-0.3,0.8-0.8,1.5-1.4,2.1c-0.6,0.6-1.4,1.1-2.2,1.4c-0.8,0.3-1.7,0.5-2.6,0.4h-40.8
	c-0.9,0-1.8-0.1-2.7-0.4c-0.8-0.3-1.6-0.8-2.2-1.5c-1.2-1.3-1.9-3.1-1.8-4.9c0-1,0.2-2,0.5-2.9c0.4-0.9,0.9-1.7,1.6-2.4l26.2-28
	c2.8-3,5.1-6.3,7-9.8c1.5-2.7,2.4-5.7,2.6-8.8c0.2-3.5-1.1-7-3.5-9.7c-1.2-1.2-2.6-2.2-4.2-2.8c-1.6-0.6-3.3-0.9-5-0.8
	c-1.6,0-3.2,0.4-4.7,1.1c-1.7,0.8-3.2,1.8-4.6,3c-1.5,1.3-2.9,2.8-4.1,4.4c-0.7,1.1-1.7,1.9-2.9,2.4c-0.8,0.3-1.7,0.5-2.6,0.5
	c-1.8,0-3.5-0.7-4.9-2c-0.7-0.6-1.2-1.3-1.6-2.1c-0.4-0.8-0.6-1.7-0.6-2.6c0-1.4,0.5-2.8,1.4-4c1-1.4,2.2-2.8,3.4-4
	c2-2,4.3-3.8,6.7-5.3c2.4-1.5,5-2.7,7.7-3.5c2.5-0.8,5.1-1.1,7.7-1.1c4.9-0.1,9.7,1,14,3.2c3.9,2,7.1,5.2,9.2,9
	c2.2,4.2,3.4,9,3.2,13.7c0,4.4-1.3,9.3-3.9,14.7c-2.7,5.6-6.3,10.7-10.5,15.2l-16.2,17.3l-1.3-1.1H388.5z"/>
<path id="path_3" d="M407.2,395.5c-2.7,0-5.2-1-7.1-2.9c-1.9-1.9-2.9-4.4-2.9-7.1s1-5.2,2.9-7.1c1.9-1.9,4.4-2.9,7.1-2.9
	c19.8,0,39-7,54.2-19.7c15.2-12.7,25.5-30.4,28.9-49.9c3.5-19.5,0-39.6-9.9-56.9c-9.8-17.2-25.4-30.4-44.1-37.3
	c-1.3-0.5-2.5-1.2-3.5-2.2c-1-0.9-1.8-2.1-2.3-3.4c-0.5-1.3-0.8-2.6-0.8-4c0-1.4,0.3-2.7,0.9-4c5.9-13,6.9-27.7,2.6-41.4
	c-4.2-13.7-13.2-25.3-25.4-32.8c-12.2-7.4-26.7-10.2-40.8-7.7c-14.1,2.5-26.7,10.1-35.6,21.3c-1.1,1.4-2.6,2.5-4.2,3.1
	c-1.6,0.6-3.5,0.8-5.2,0.6c-1.8-0.3-3.4-1-4.8-2.2c-1.4-1.1-2.4-2.6-3-4.3c-10.8-29.7-32.5-54.1-60.7-68.1s-60.8-16.8-91-7.5
	c-30.2,9.3-55.6,29.8-71.1,57.3C76.1,144,71.8,176.4,79.6,207c0.6,2.4,0.3,4.9-0.9,7c-1.1,2.2-3,3.8-5.3,4.7
	c-17.7,6.7-32.5,19.4-41.9,35.9c-9.3,16.5-12.6,35.8-9.2,54.4c3.4,18.7,13.2,35.5,27.8,47.7c14.6,12.1,32.9,18.8,51.9,18.8
	c2.7,0,5.2,1,7.1,2.9c1.9,1.9,2.9,4.4,2.9,7.1s-1.1,5.2-2.9,7.1c-1.9,1.9-4.4,2.9-7.1,2.9c-22.9,0-45.1-7.8-63-22
	c-17.9-14.3-30.4-34.2-35.5-56.6c-5.1-22.3-2.4-45.7,7.6-66.4s26.7-37.2,47.3-47.1c-1.6-8.5-2.3-17.2-2.3-25.9
	c0-78.8,64.2-143,143-143c26.6,0,52.7,7.4,75.3,21.4c22.6,14,40.9,34,52.8,57.9c13-10.8,29.1-17.2,46-18.1
	c16.9-0.9,33.6,3.6,47.7,12.9c14.1,9.3,24.8,23,30.5,38.9s6.2,33.2,1.3,49.4c21.3,10.3,38.5,27.5,48.7,48.8
	c10.2,21.3,12.9,45.5,7.7,68.6c-5.3,23.1-18.2,43.7-36.7,58.4C453.8,387.5,430.8,395.5,407.2,395.5z"/>
</svg>
