<?xml version="1.0" encoding="utf-8"?>
<!-- Generator: Adobe Illustrator 28.2.0, SVG Export Plug-In . SVG Version: 6.00 Build 0)  -->
<svg version="1.1" id="vector" xmlns="http://www.w3.org/2000/svg" xmlns:xlink="http://www.w3.org/1999/xlink" x="0px" y="0px"
	 viewBox="0 0 512 512" style="enable-background:new 0 0 512 512;" xml:space="preserve">
<style type="text/css">
	.st0{clip-path:url(#SVGID_00000069397459285141438480000007477223456673973127_);fill:#33B0DF;}
	.st1{fill:#33B0DF;}
</style>
<g id="g_0">
	<g>
		<defs>
			<rect id="SVGID_1_" y="0" width="512" height="512"/>
		</defs>
		<clipPath id="SVGID_00000008834748527672844640000003214792995589239718_">
			<use xlink:href="#SVGID_1_"  style="overflow:visible;"/>
		</clipPath>
		<path style="clip-path:url(#SVGID_00000008834748527672844640000003214792995589239718_);fill:#33B0DF;" d="M447,188h-40
			c-2.6,0-5.2-1.1-7.1-2.9c-1.9-1.9-2.9-4.4-2.9-7.1s1-5.2,2.9-7.1c1.9-1.9,4.4-2.9,7.1-2.9h40c2.6,0,5.2,1.1,7.1,2.9
			c1.9,1.9,2.9,4.4,2.9,7.1s-1,5.2-2.9,7.1C452.2,186.9,449.6,188,447,188z"/>
	</g>
	<path class="st1" d="M447,344h-40c-2.6,0-5.2-1-7.1-2.9c-1.9-1.9-2.9-4.4-2.9-7.1s1-5.2,2.9-7.1c1.9-1.9,4.4-2.9,7.1-2.9h40
		c2.6,0,5.2,1,7.1,2.9c1.9,1.9,2.9,4.4,2.9,7.1s-1,5.2-2.9,7.1C452.2,343,449.6,344,447,344z"/>
	<path class="st1" d="M431.8,71h-20c-2.6,0-5.2-1.1-7.1-2.9c-1.9-1.9-2.9-4.4-2.9-7.1s1-5.2,2.9-7.1c1.9-1.9,4.4-2.9,7.1-2.9h20
		c2.6,0,5.2,1,7.1,2.9c1.9,1.9,2.9,4.4,2.9,7.1s-1,5.2-2.9,7.1C437,69.9,434.4,71,431.8,71z"/>
	<path class="st1" d="M431.8,110h-20c-2.6,0-5.2-1.1-7.1-2.9c-1.9-1.9-2.9-4.4-2.9-7.1s1-5.2,2.9-7.1c1.9-1.9,4.4-2.9,7.1-2.9h20
		c2.6,0,5.2,1.1,7.1,2.9c1.9,1.9,2.9,4.4,2.9,7.1s-1,5.2-2.9,7.1C437,108.9,434.4,110,431.8,110z"/>
	<path class="st1" d="M431.8,149h-20c-2.6,0-5.2-1.1-7.1-2.9c-1.9-1.9-2.9-4.4-2.9-7.1s1-5.2,2.9-7.1c1.9-1.9,4.4-2.9,7.1-2.9h20
		c2.6,0,5.2,1.1,7.1,2.9c1.9,1.9,2.9,4.4,2.9,7.1s-1,5.2-2.9,7.1C437,147.9,434.4,149,431.8,149z"/>
	<path class="st1" d="M431.8,266h-20c-2.6,0-5.2-1-7.1-2.9c-1.9-1.9-2.9-4.4-2.9-7.1s1-5.2,2.9-7.1c1.9-1.9,4.4-2.9,7.1-2.9h20
		c2.6,0,5.2,1.1,7.1,2.9c1.9,1.9,2.9,4.4,2.9,7.1s-1,5.2-2.9,7.1C437,265,434.4,266,431.8,266z"/>
	<path class="st1" d="M431.8,305h-20c-2.6,0-5.2-1-7.1-2.9c-1.9-1.9-2.9-4.4-2.9-7.1s1-5.2,2.9-7.1c1.9-1.9,4.4-2.9,7.1-2.9h20
		c2.6,0,5.2,1,7.1,2.9c1.9,1.9,2.9,4.4,2.9,7.1s-1,5.2-2.9,7.1C437,304,434.4,305,431.8,305z"/>
	<path class="st1" d="M431.8,227h-20c-2.6,0-5.2-1.1-7.1-2.9c-1.9-1.9-2.9-4.4-2.9-7.1s1-5.2,2.9-7.1c1.9-1.9,4.4-2.9,7.1-2.9h20
		c2.6,0,5.2,1.1,7.1,2.9c1.9,1.9,2.9,4.4,2.9,7.1s-1,5.2-2.9,7.1C437,225.9,434.4,227,431.8,227z"/>
	<path class="st1" d="M431.8,422h-20c-2.6,0-5.2-1-7.1-2.9c-1.9-1.9-2.9-4.4-2.9-7.1s1-5.2,2.9-7.1c1.9-1.9,4.4-2.9,7.1-2.9h20
		c2.6,0,5.2,1,7.1,2.9c1.9,1.9,2.9,4.4,2.9,7.1s-1,5.2-2.9,7.1C437,421,434.4,422,431.8,422z"/>
	<path class="st1" d="M431.8,461h-20c-2.6,0-5.2-1-7.1-2.9c-1.9-1.9-2.9-4.4-2.9-7.1s1-5.2,2.9-7.1c1.9-1.9,4.4-2.9,7.1-2.9h20
		c2.6,0,5.2,1,7.1,2.9c1.9,1.9,2.9,4.4,2.9,7.1s-1,5.2-2.9,7.1C437,460,434.4,461,431.8,461z"/>
	<path class="st1" d="M431.8,383h-20c-2.6,0-5.2-1-7.1-2.9c-1.9-1.9-2.9-4.4-2.9-7.1s1-5.2,2.9-7.1c1.9-1.9,4.4-2.9,7.1-2.9h20
		c2.6,0,5.2,1,7.1,2.9c1.9,1.9,2.9,4.4,2.9,7.1s-1,5.2-2.9,7.1C437,382,434.4,383,431.8,383z"/>
	<path d="M130,502c-2.7,0-5.2-1-7.1-2.9c-1.9-1.9-2.9-4.4-2.9-7.1v-40c0-2.6,1.1-5.2,2.9-7.1c1.9-1.9,4.4-2.9,7.1-2.9
		c2.6,0,5.2,1,7.1,2.9c1.9,1.9,2.9,4.4,2.9,7.1v40c0,2.6-1.1,5.2-2.9,7.1C135.2,501,132.6,502,130,502z"/>
	<path d="M286,502c-2.6,0-5.2-1-7.1-2.9c-1.9-1.9-2.9-4.4-2.9-7.1v-40c0-2.6,1-5.2,2.9-7.1c1.9-1.9,4.4-2.9,7.1-2.9s5.2,1,7.1,2.9
		c1.9,1.9,2.9,4.4,2.9,7.1v40c0,2.6-1,5.2-2.9,7.1C291.2,501,288.6,502,286,502z"/>
	<path d="M91,502c-2.7,0-5.2-1-7.1-2.9c-1.9-1.9-2.9-4.4-2.9-7.1v-20c0-2.6,1.1-5.2,2.9-7.1c1.9-1.9,4.4-2.9,7.1-2.9s5.2,1,7.1,2.9
		c1.9,1.9,2.9,4.4,2.9,7.1v20c0,1.3-0.3,2.6-0.8,3.8c-0.5,1.2-1.2,2.3-2.2,3.2s-2,1.7-3.2,2.2C93.6,501.7,92.3,502,91,502z"/>
	<path d="M208,502c-2.6,0-5.2-1-7.1-2.9c-1.9-1.9-2.9-4.4-2.9-7.1v-20c0-2.6,1.1-5.2,2.9-7.1c1.9-1.9,4.4-2.9,7.1-2.9s5.2,1,7.1,2.9
		c1.9,1.9,2.9,4.4,2.9,7.1v20c0,2.6-1.1,5.2-2.9,7.1C213.2,501,210.6,502,208,502z"/>
	<path d="M247,502c-2.6,0-5.2-1-7.1-2.9c-1.9-1.9-2.9-4.4-2.9-7.1v-20c0-2.6,1.1-5.2,2.9-7.1c1.9-1.9,4.4-2.9,7.1-2.9s5.2,1,7.1,2.9
		c1.9,1.9,2.9,4.4,2.9,7.1v20c0,2.6-1.1,5.2-2.9,7.1C252.2,501,249.6,502,247,502z"/>
	<path d="M169,502c-2.6,0-5.2-1-7.1-2.9c-1.9-1.9-2.9-4.4-2.9-7.1v-20c0-2.6,1.1-5.2,2.9-7.1c1.9-1.9,4.4-2.9,7.1-2.9s5.2,1,7.1,2.9
		c1.9,1.9,2.9,4.4,2.9,7.1v20c0,2.6-1.1,5.2-2.9,7.1C174.2,501,171.6,502,169,502z"/>
	<path d="M325,502c-2.6,0-5.2-1-7.1-2.9c-1.9-1.9-2.9-4.4-2.9-7.1v-20c0-2.6,1-5.2,2.9-7.1c1.9-1.9,4.4-2.9,7.1-2.9s5.2,1,7.1,2.9
		c1.9,1.9,2.9,4.4,2.9,7.1v20c0,2.6-1,5.2-2.9,7.1C330.2,501,327.6,502,325,502z"/>
	<path d="M55,236H15c-2.6,0-5.2-1.1-7.1-2.9C6.1,231.2,5,228.6,5,226s1.1-5.2,2.9-7.1c1.9-1.9,4.4-2.9,7.1-2.9h40
		c2.7,0,5.2,1.1,7.1,2.9c1.9,1.9,2.9,4.4,2.9,7.1s-1,5.2-2.9,7.1C60.2,234.9,57.7,236,55,236z"/>
	<path d="M55,392H15c-2.6,0-5.2-1-7.1-2.9C6.1,387.2,5,384.6,5,382s1.1-5.2,2.9-7.1c1.9-1.9,4.4-2.9,7.1-2.9h40c2.7,0,5.2,1,7.1,2.9
		c1.9,1.9,2.9,4.4,2.9,7.1s-1,5.2-2.9,7.1C60.2,391,57.7,392,55,392z"/>
	<path d="M35,197H15c-2.6,0-5.2-1.1-7.1-2.9C6.1,192.2,5,189.6,5,187s1.1-5.2,2.9-7.1c1.9-1.9,4.4-2.9,7.1-2.9h20
		c2.7,0,5.2,1.1,7.1,2.9c1.9,1.9,2.9,4.4,2.9,7.1s-1,5.2-2.9,7.1C40.2,195.9,37.7,197,35,197z"/>
	<path d="M35,314H15c-2.6,0-5.2-1-7.1-2.9C6.1,309.2,5,306.6,5,304s1.1-5.2,2.9-7.1c1.9-1.9,4.4-2.9,7.1-2.9h20c2.7,0,5.2,1,7.1,2.9
		c1.9,1.9,2.9,4.4,2.9,7.1s-1,5.2-2.9,7.1C40.2,313,37.7,314,35,314z"/>
	<path d="M35,353H15c-2.6,0-5.2-1-7.1-2.9C6.1,348.2,5,345.6,5,343s1.1-5.2,2.9-7.1c1.9-1.9,4.4-2.9,7.1-2.9h20c2.7,0,5.2,1,7.1,2.9
		c1.9,1.9,2.9,4.4,2.9,7.1s-1,5.2-2.9,7.1C40.2,352,37.7,353,35,353z"/>
	<path d="M35,275H15c-2.6,0-5.2-1-7.1-2.9C6.1,270.2,5,267.6,5,265s1.1-5.2,2.9-7.1c1.9-1.9,4.4-2.9,7.1-2.9h20c2.7,0,5.2,1,7.1,2.9
		c1.9,1.9,2.9,4.4,2.9,7.1s-1,5.2-2.9,7.1C40.2,274,37.7,275,35,275z"/>
	<path d="M35,431H15c-2.6,0-5.2-1-7.1-2.9C6.1,426.2,5,423.6,5,421s1.1-5.2,2.9-7.1c1.9-1.9,4.4-2.9,7.1-2.9h20c2.7,0,5.2,1,7.1,2.9
		c1.9,1.9,2.9,4.4,2.9,7.1s-1,5.2-2.9,7.1C40.2,430,37.7,431,35,431z"/>
	<path d="M502,0H402c-2.6,0-5.2,1-7.1,2.9C393,4.8,392,7.3,392,10v367.5L17.6,3c-0.9-1-2.1-1.7-3.3-2.2C13,0.3,11.7,0,10.4,0
		C9,0,7.7,0.2,6.4,0.8C5.1,1.3,4,2,3,3c-1,1-1.7,2.1-2.2,3.4C0.3,7.6,0,8.9,0,10.3v491.4c0,2.7,1.1,5.3,3,7.3c1.9,1.9,4.5,3,7.3,3
		h492h0.5c2.5-0.3,4.9-1.5,6.6-3.4c1.7-1.9,2.6-4.4,2.6-6.9V10c0-2.7-1-5.2-2.9-7.1C507.2,1,504.6,0,502,0z M20,33.8l372,372V492H20
		V33.8z M492,492h-80V20h80V492z"/>
	<path d="M110,242.2L269.8,402H110V242.2z M101.5,210c-1.5,0-3,0.3-4.4,0.8c-1.4,0.6-2.7,1.4-3.7,2.5c-1.1,1.1-1.9,2.3-2.5,3.7
		c-0.6,1.4-0.9,2.9-0.9,4.4v189.2c0,3,1.2,5.9,3.3,8.1c2.1,2.1,5,3.3,8.1,3.3h189.2c2.3,0,4.5-0.7,6.3-1.9c1.9-1.3,3.3-3,4.2-5.1
		c0.9-2.1,1.1-4.4,0.7-6.6s-1.5-4.2-3.1-5.8L109.5,213.4c-1-1.1-2.3-1.9-3.7-2.5C104.4,210.3,103,210,101.5,210L101.5,210z"/>
	<path d="M502.8,512c2.5-0.2,4.8-1.4,6.5-3.2c1.7-1.9,2.6-4.3,2.6-6.8v-0.4c0,2.6-0.9,5-2.6,6.9C507.7,510.5,505.4,511.7,502.8,512z
		"/>
</g>
</svg>
