<?xml version="1.0" encoding="utf-8"?>
<!-- Generator: Adobe Illustrator 28.2.0, SVG Export Plug-In . SVG Version: 6.00 Build 0)  -->
<svg version="1.1" id="vector" xmlns="http://www.w3.org/2000/svg" xmlns:xlink="http://www.w3.org/1999/xlink" x="0px" y="0px"
	 viewBox="0 0 512 512" style="enable-background:new 0 0 512 512;" xml:space="preserve">
<style type="text/css">
	.st0{fill:#33B0DF;}
</style>
<path id="path_0" d="M405.9,431.4c0.1-0.4,0.1-0.9,0.1-1.4v-0.5C406,430.1,406,430.7,405.9,431.4z M106,429.5v0.5
	c0,0.5,0,0.9,0.1,1.4C106,430.7,106,430.1,106,429.5z"/>
<path id="path_1" d="M405.9,39.6c0.1,0.6,0.1,1.2,0.1,1.9V41C406,40.5,406,40.1,405.9,39.6z M106,41v0.5c0-0.6,0-1.2,0.1-1.9
	C106,40.1,106,40.5,106,41z"/>
<path id="path_2" d="M405.9,39.6c0,0,0-0.1,0-0.2C404.4,26.9,388.8,18,357,11.6C329.9,6,294,3,256,3s-73.9,3-101,8.6
	c-31.8,6.5-47.4,15.4-48.9,27.9c0,0,0,0.1,0,0.2c-0.1,0.6-0.1,1.2-0.1,1.9v388c0,0.6,0,1.2,0.1,1.9c0,0.1,0,0.1,0,0.2
	c1.2,10.2,11.8,18,32.9,24.1l-7,44.4c0,2.6,1.1,5.2,2.9,7.1c1.9,1.9,4.4,2.9,7.1,2.9h46c2.6,0,5.2-1,7.1-2.9
	c1.9-1.9,2.9-4.4,2.9-7.1l7-33.9c16.1,1.3,33.3,1.9,51,1.9c19.5,0,38.5-0.8,56-2.3l7,34.3c0,2.6,1,5.2,2.9,7.1
	c1.9,1.9,4.4,2.9,7.1,2.9h46c2.6,0,5.2-1,7.1-2.9c1.9-1.9,2.9-4.4,2.9-7.1l-7-45.9c17.7-5.8,26.8-13.1,27.9-22.5c0,0,0-0.1,0-0.2
	c0.1-0.6,0.1-1.2,0.1-1.9v-388C406,40.9,406,40.3,405.9,39.6z M159.7,31c1.8-0.4,3.7-0.7,5.7-1.1c25-4.5,57.1-6.9,90.5-6.9
	s65.6,2.5,90.5,6.9c2,0.4,3.9,0.7,5.7,1.1c19,3.8,28.4,8,32.2,10.5c-3.5,2.3-11.6,6-27.5,9.5c-3.2,0.7-6.6,1.4-10.4,2.1
	c-25,4.5-57.1,6.9-90.5,6.9s-65.6-2.5-90.5-6.9c-3.8-0.7-7.3-1.4-10.5-2.1c-15.9-3.5-24-7.2-27.4-9.5C131.4,39,140.7,34.8,159.7,31z
	 M178,490h-26l7-29.8c8,1.5,16.8,2.8,26,3.9L178,490z M339,490l-7-26.5c8.9-1.2,17.3-2.5,25-4.1l1-0.2l7,30.8H339z M386,420
	c0,0,0,9-1.6,9.5c-3.1,2.1-10.1,5.3-23.1,8.5c-2.7,0.7-5.7,1.3-9,2c-1.8,0.4-3.7,0.7-5.7,1.1c-10.3,1.8-21.9,3.4-34.2,4.5
	c-17.5,1.6-36.7,2.5-56.3,2.5c-17.7,0-35.1-0.7-51.2-2c-14.3-1.2-27.6-2.8-39.3-4.9c-2-0.4-3.9-0.7-5.7-1.1c-3.3-0.7-6.3-1.3-9-2
	c-13.1-3.2-20-6.4-23.2-8.5C126,428,126,420,126,420V164.2c0.9,0.8,1.9,1.8,2.9,2.8c5.5,5.5,12.9,12.9,27.1,12.9s21.6-7.5,27.1-12.9
	c4.9-4.9,7.3-7.1,12.9-7.1c5.6,0,8,2.2,12.9,7.1c5.5,5.5,12.9,12.9,27.1,12.9s21.6-7.5,27.1-12.9c4.9-4.9,7.3-7.1,12.9-7.1
	s8,2.2,12.9,7.1c5.4,5.5,12.9,12.9,27.1,12.9s21.6-7.5,27.1-12.9c4.9-4.9,7.3-7.1,12.9-7.1s8,2.2,12.9,7.1c4,4,9.1,9.1,17.1,11.5
	L386,420z M386,155.8c-0.9-0.8-1.9-1.8-3-2.9c-5.5-5.5-12.9-12.9-27-12.9s-21.6,7.5-27.1,12.9c-4.9,4.9-7.3,7.1-12.9,7.1
	s-8-2.2-12.9-7.1c-5.5-5.5-12.9-12.9-27.1-12.9s-21.6,7.5-27.1,12.9c-4.9,4.9-7.3,7.1-12.9,7.1s-8-2.2-12.9-7.1
	c-5.5-5.5-12.9-12.9-27.1-12.9s-21.6,7.5-27.1,12.9c-4.9,4.9-7.3,7.1-12.9,7.1c-5.6,0-8-2.2-12.9-7.1c-4-4-9.1-9.1-17.1-11.5V63.1
	c7.5,3.2,17.1,5.9,29,8.4C182.1,77,218,80,256,80s73.9-3,101-8.6c11.9-2.4,21.5-5.2,29-8.4V155.8z"/>
<path id="path_3" class="st0" d="M256,354c-5.5,0-11-1.1-16.1-3.2c-5.1-2.1-9.7-5.2-13.6-9.1c-3.9-3.9-7-8.5-9.1-13.6
	c-2.1-5.1-3.2-10.6-3.2-16.1c0-27.4,31.4-59.5,34.9-63.1c1.9-1.9,4.4-2.9,7.1-2.9s5.2,1.1,7.1,2.9c3.6,3.6,34.9,35.7,34.9,63.1
	c0,5.5-1.1,11-3.2,16.1c-2.1,5.1-5.2,9.7-9.1,13.6c-3.9,3.9-8.5,7-13.6,9.1C267,352.9,261.5,354,256,354z M256,270.8
	c-10.4,12.2-22,29.6-22,41.2c0,5.8,2.3,11.4,6.4,15.6c4.1,4.1,9.7,6.4,15.6,6.4c5.8,0,11.4-2.3,15.6-6.4c4.1-4.1,6.4-9.7,6.4-15.6
	C278,300.4,266.4,283,256,270.8z"/>
</svg>
