<?xml version="1.0" encoding="utf-8"?>
<!-- Generator: Adobe Illustrator 28.2.0, SVG Export Plug-In . SVG Version: 6.00 Build 0)  -->
<svg version="1.1" id="vector" xmlns="http://www.w3.org/2000/svg" xmlns:xlink="http://www.w3.org/1999/xlink" x="0px" y="0px"
	 viewBox="0 0 512 512" style="enable-background:new 0 0 512 512;" xml:space="preserve">
<style type="text/css">
	.st0{fill:#33B0DF;}
</style>
<path id="path_0" class="st0" d="M256,388.5c-16.5,0-32.4-6.6-44.1-18.3c-11.7-11.7-18.3-27.5-18.3-44.1c0-42.9,53-96.5,55.3-98.7
	c1.9-1.9,4.4-2.9,7.1-2.9s5.2,1.1,7.1,2.9c2.3,2.3,55.3,55.8,55.3,98.7c0,16.5-6.6,32.4-18.3,44.1
	C288.4,381.9,272.5,388.5,256,388.5z M256,249.1c-16.1,18-42.4,52.4-42.4,77c0,11.2,4.5,22,12.4,30c7.9,7.9,18.7,12.4,29.9,12.4
	c11.2,0,22-4.5,30-12.4c7.9-7.9,12.4-18.7,12.4-30C298.4,301.5,272.1,267.1,256,249.1z"/>
<path id="path_1" d="M426,120.5c-0.3-21.3-19.1-40.4-53.1-54c-17-6.8-37.1-12-58.8-15.2V17c0-1.3-0.3-2.6-0.8-3.8
	c-0.5-1.2-1.2-2.3-2.2-3.2c-0.9-0.9-2-1.7-3.2-2.2C306.6,7.3,305.3,7,304,7h-96c-2.6,0-5.2,1.1-7.1,2.9c-1.9,1.9-2.9,4.4-2.9,7.1
	v34.2c-21.8,3.3-41.8,8.4-58.9,15.2c-34,13.6-52.8,32.8-53.1,54c0,0.2,0,0.3,0,0.5v336c0,13.3,5.3,26,14.7,35.3
	c9.4,9.4,22.1,14.6,35.3,14.7h240c13.3,0,26-5.3,35.3-14.7c9.4-9.4,14.6-22.1,14.7-35.3V121C426,120.8,426,120.7,426,120.5z M218,27
	h76v21.8c-12.3-1.2-25-1.8-38-1.8s-25.7,0.6-38,1.8V27z M146.6,85c14.9-6,32.3-10.5,51.4-13.6c6.5-1,13.2-1.9,20-2.6
	c12.3-1.2,25-1.8,38-1.8s25.7,0.6,38,1.8c6.8,0.7,13.5,1.5,20,2.6c19.1,3.1,36.5,7.6,51.4,13.6c18.7,7.5,31.8,16.7,37.5,26H109.1
	C114.8,101.7,127.9,92.5,146.6,85z M406,457c0,3.9-0.8,7.8-2.3,11.5c-1.5,3.6-3.7,6.9-6.5,9.7c-2.8,2.8-6.1,5-9.7,6.5
	c-3.6,1.5-7.5,2.3-11.5,2.3H136c-3.9,0-7.8-0.8-11.5-2.3c-3.6-1.5-6.9-3.7-9.7-6.5c-2.8-2.8-5-6.1-6.5-9.7
	c-1.5-3.6-2.3-7.5-2.3-11.5V131h300V457z"/>
</svg>
