<?xml version="1.0" encoding="utf-8"?>
<!-- Generator: Adobe Illustrator 28.2.0, SVG Export Plug-In . SVG Version: 6.00 Build 0)  -->
<svg version="1.1" id="vector" xmlns="http://www.w3.org/2000/svg" xmlns:xlink="http://www.w3.org/1999/xlink" x="0px" y="0px"
	 viewBox="0 0 512 512" style="enable-background:new 0 0 512 512;" xml:space="preserve">
<style type="text/css">
	.st0{fill:#33B0DF;}
</style>
<path id="path_0" class="st0" d="M173.4,283.8c5.5,0,10-4.6,10-10.3s-4.5-10.3-10-10.3c-5.5,0-10,4.6-10,10.3
	S167.9,283.8,173.4,283.8z"/>
<path id="path_1" class="st0" d="M152.4,280.7c5.5,0,10-4.6,10-10.3s-4.5-10.3-10-10.3c-5.5,0-10,4.6-10,10.3
	S146.9,280.7,152.4,280.7z"/>
<path id="path_2" class="st0" d="M214.4,283.8c5.5,0,10-4.6,10-10.3s-4.5-10.3-10-10.3c-5.5,0-10,4.6-10,10.3
	S208.9,283.8,214.4,283.8z"/>
<path id="path_3" class="st0" d="M213.4,261c5.5,0,10-4.6,10-10.3c0-5.7-4.5-10.3-10-10.3c-5.5,0-10,4.6-10,10.3
	C203.4,256.4,207.9,261,213.4,261z"/>
<path id="path_4" class="st0" d="M172.4,260c5.5,0,10-4.6,10-10.3c0-5.7-4.5-10.3-10-10.3c-5.5,0-10,4.6-10,10.3
	C162.4,255.3,166.9,260,172.4,260z"/>
<path id="path_5" class="st0" d="M151.4,255.8c5.5,0,10-4.6,10-10.3c0-5.7-4.5-10.3-10-10.3c-5.5,0-10,4.6-10,10.3
	C141.4,251.2,145.9,255.8,151.4,255.8z"/>
<path id="path_6" class="st0" d="M192.4,271.3c5.5,0,10-4.6,10-10.3c0-5.7-4.5-10.3-10-10.3c-5.5,0-10,4.6-10,10.3
	C182.4,266.7,186.9,271.3,192.4,271.3z"/>
<path id="path_7" class="st0" d="M275.4,264.1c5.5,0,10-4.6,10-10.3c0-5.7-4.5-10.3-10-10.3c-5.5,0-10,4.6-10,10.3
	C265.4,259.5,269.9,264.1,275.4,264.1z"/>
<path id="path_8" class="st0" d="M195.4,295c5.5,0,10-4.5,10-10s-4.5-10-10-10c-5.5,0-10,4.5-10,10S189.9,295,195.4,295z"/>
<path id="path_9" class="st0" d="M236.4,291c5.5,0,10-4.6,10-10.3c0-5.7-4.5-10.3-10-10.3c-5.5,0-10,4.6-10,10.3
	C226.4,286.4,230.9,291,236.4,291z"/>
<path id="path_10" class="st0" d="M219.4,306c5.5,0,10-4.5,10-10s-4.5-10-10-10c-5.5,0-10,4.5-10,10S213.9,306,219.4,306z"/>
<path id="path_11" class="st0" d="M234.4,268.2c5.5,0,10-4.6,10-10.3c0-5.7-4.5-10.3-10-10.3c-5.5,0-10,4.6-10,10.3
	C224.4,263.6,228.9,268.2,234.4,268.2z"/>
<path id="path_12" class="st0" d="M256.4,300c5.5,0,10-4.5,10-10s-4.5-10-10-10c-5.5,0-10,4.5-10,10S250.9,300,256.4,300z"/>
<path id="path_13" class="st0" d="M256.4,277.6c5.5,0,10-4.6,10-10.3s-4.5-10.3-10-10.3c-5.5,0-10,4.6-10,10.3
	S250.9,277.6,256.4,277.6z"/>
<path id="path_14" class="st0" d="M276.4,290c5.5,0,10-4.6,10-10.3c0-5.7-4.5-10.3-10-10.3c-5.5,0-10,4.6-10,10.3
	C266.4,285.3,270.9,290,276.4,290z"/>
<path id="path_15" class="st0" d="M308.4,294c5.5,0,10-4.5,10-10s-4.5-10-10-10c-5.5,0-10,4.5-10,10S302.9,294,308.4,294z"/>
<path id="path_16" class="st0" d="M294.4,275.5c5.5,0,10-4.6,10-10.3s-4.5-10.3-10-10.3c-5.5,0-10,4.6-10,10.3
	S288.9,275.5,294.4,275.5z"/>
<path id="path_17" class="st0" d="M301.4,254.8c5.5,0,10-4.6,10-10.3c0-5.7-4.5-10.3-10-10.3c-5.5,0-10,4.6-10,10.3
	C291.4,250.2,295.9,254.8,301.4,254.8z"/>
<path id="path_18" class="st0" d="M311.4,235.1c5.5,0,10-4.6,10-10.3c0-5.7-4.5-10.3-10-10.3c-5.5,0-10,4.6-10,10.3
	C301.4,230.5,305.9,235.1,311.4,235.1z"/>
<path id="path_19" class="st0" d="M320.4,275.5c5.5,0,10-4.6,10-10.3s-4.5-10.3-10-10.3c-5.5,0-10,4.6-10,10.3
	S314.9,275.5,320.4,275.5z"/>
<path id="path_20" class="st0" d="M340.4,282.7c5.5,0,10-4.6,10-10.3s-4.5-10.3-10-10.3c-5.5,0-10,4.6-10,10.3
	S334.9,282.7,340.4,282.7z"/>
<path id="path_21" class="st0" d="M360.4,274.4c5.5,0,10-4.6,10-10.3c0-5.7-4.5-10.3-10-10.3c-5.5,0-10,4.6-10,10.3
	C350.4,269.8,354.9,274.4,360.4,274.4z"/>
<path id="path_22" class="st0" d="M359.4,246.5c5.5,0,10-4.6,10-10.3c0-5.7-4.5-10.3-10-10.3c-5.5,0-10,4.6-10,10.3
	C349.4,241.9,353.9,246.5,359.4,246.5z"/>
<path id="path_23" class="st0" d="M357.4,224.5c5.5,0,10-4.5,10-10s-4.5-10-10-10c-5.5,0-10,4.5-10,10S351.9,224.5,357.4,224.5z"/>
<path id="path_24" class="st0" d="M322.4,253.8c5.5,0,10-4.6,10-10.3c0-5.7-4.5-10.3-10-10.3c-5.5,0-10,4.6-10,10.3
	C312.4,249.1,316.9,253.8,322.4,253.8z"/>
<path id="path_25" class="st0" d="M342.4,260c5.5,0,10-4.6,10-10.3c0-5.7-4.5-10.3-10-10.3c-5.5,0-10,4.6-10,10.3
	C332.4,255.3,336.9,260,342.4,260z"/>
<path id="path_26" class="st0" d="M338.4,237.2c5.5,0,10-4.6,10-10.3c0-5.7-4.5-10.3-10-10.3c-5.5,0-10,4.6-10,10.3
	C328.4,232.6,332.9,237.2,338.4,237.2z"/>
<path id="path_27" d="M380.9,86.2l-0.1-0.3l-15.1-59.6c-1.8-7.1-5.9-13.4-11.7-18c-5.8-4.5-12.9-7-20.3-7H285c-4.8,0-9.4,1-13.8,3
	c-4.3,2-8.1,4.9-11.2,8.5l-25.6,29.7c-1.2,1.4-2.7,2.6-4.4,3.3l-10.2,4.7c-5.6,2.5-10.3,6.6-13.7,11.6c-3.4,5.1-5.3,11-5.5,17.1
	L200.1,90l-63.6,29.9c-1.7,0.8-3.2,2.1-4.2,3.7c-1,1.6-1.6,3.4-1.6,5.3V500c0,2.6,1.1,5.2,2.9,7.1c1.9,1.9,4.4,2.9,7.1,2.9h230.5
	c2.6,0,5.2-1,7.1-2.9c1.9-1.9,2.9-4.4,2.9-7.1V88.7C381.2,87.8,381.1,87,380.9,86.2z M220.5,80.2c0.1-2.4,0.8-4.8,2.2-6.8
	c1.4-2,3.2-3.6,5.4-4.6l10.2-4.7c4.3-2,8.2-4.9,11.3-8.5L275.1,26c1.2-1.4,2.8-2.6,4.5-3.3c1.7-0.8,3.6-1.2,5.4-1.2h48.7
	c2.9,0,5.7,1,8,2.7c2.3,1.8,3.9,4.3,4.6,7.1l11.5,45.5l-71.4-9.5c-19.4-2.6-39.2,0.5-56.9,8.8l-9,4.2V80.2z M361.2,490H150.8v-54.2
	c5.3,2.9,11.2,4.3,17.2,4.2c14.6,0,22.4-7.4,28.1-12.7c4.8-4.6,7.8-7.3,14.4-7.3s9.6,2.7,14.4,7.3c5.7,5.4,13.5,12.7,28.1,12.7
	c14.6,0,22.4-7.4,28.1-12.7c4.8-4.6,7.8-7.3,14.4-7.3s9.6,2.7,14.4,7.3c5.7,5.4,13.5,12.7,28.1,12.7c8.4,0.1,16.6-2.8,23-8.2
	L361.2,490z M361.2,405.6c-3.1,2.1-5.9,4.5-8.6,7.1c-4.8,4.6-7.8,7.3-14.4,7.3c-6.7,0-9.6-2.7-14.4-7.3
	c-5.7-5.4-13.5-12.7-28.1-12.7s-22.4,7.4-28.1,12.7c-4.8,4.6-7.8,7.3-14.4,7.3c-6.7,0-9.6-2.7-14.4-7.3
	c-5.7-5.4-13.5-12.7-28.1-12.7c-14.6,0-22.4,7.4-28.1,12.7c-4.8,4.6-7.8,7.3-14.4,7.3c-6.7,0-9.6-2.7-14.4-7.3
	c-0.9-0.8-1.8-1.7-2.8-2.5v-29.6c10.2-2,20.2-4.7,30-8.2c8.6-3.1,12.2-10.7,14.6-15.7c0.8-1.6,2-4.2,2.7-4.9c0.4-0.1,0.9-0.1,1.4,0
	c11.4,1.5,21.5-1.5,29.6-3.9c2.7-0.9,5.5-1.6,8.3-2.1c1.5-0.1,6.3,1.6,9.5,2.8c8.1,3,18.2,6.7,29.5,5.2c12.3-1.6,18.7-7.6,23.4-12
	c2.3-2.2,3.8-3.5,5.4-4.2c3.4,0.6,11.8,5.8,16.8,9c10.4,6.4,19.4,12,27.4,11.2c4.1-0.5,8.1-1.7,11.8-3.7V405.6z M361.2,330
	c-2.5,2.4-8.8,7.3-13.5,8c-2.8-0.5-10.6-5.3-15.2-8.2c-12.3-7.6-22.9-14.2-32.6-11.3c-6.4,1.9-10.5,5.8-13.9,8.9
	c-3.7,3.5-6.4,6-12.3,6.7c-6.5,0.8-13.4-1.7-20.1-4.1c-6.4-2.4-12.5-4.6-18.6-3.9c-4,0.6-7.9,1.5-11.7,2.8c-6.6,2-14.1,4.2-21.4,3.2
	c-16.1-2.1-21.9,10.2-24.7,16.1c-1,2-2.4,5.1-3.3,5.4c-7.6,2.7-15.4,4.9-23.2,6.6v-61.7c8.5,1.2,24.3,4.4,36.2,8.8
	c11.7,4.3,28.4,6.7,43.4,6.7c8.6,0,16.6-0.8,22.7-2.4c14-3.7,50.9-7.6,63.7-6.7c10,0.7,22.3-4.1,34.2-8.8c3.4-1.3,7-2.7,10.3-3.9
	V330z M361.2,271.4c-6,1.8-11.8,3.8-17.6,6.2c-8.9,3.5-20,7.8-25.5,7.4c-14.8-1.1-54.2,3-70.2,7.3c-12.9,3.4-39.7,1.6-54-3.7
	c-14.3-5.3-33-9-43.1-10.2v-94.7l87.2-41.1c14.3-6.7,30.2-9.2,45.8-7.1l77.4,10.3L361.2,271.4z M361.2,125.6l-74.8-9.9
	c-19.4-2.6-39.2,0.5-56.9,8.8l-78.8,37.1v-26.3L238,94.2c14.3-6.7,30.2-9.2,45.8-7.1l77.4,10.3V125.6z"/>
</svg>
