<?xml version="1.0" encoding="utf-8"?>
<!-- Generator: Adobe Illustrator 28.2.0, SVG Export Plug-In . SVG Version: 6.00 Build 0)  -->
<svg version="1.1" id="vector" xmlns="http://www.w3.org/2000/svg" xmlns:xlink="http://www.w3.org/1999/xlink" x="0px" y="0px"
	 viewBox="0 0 512 512" style="enable-background:new 0 0 512 512;" xml:space="preserve">
<style type="text/css">
	.st0{fill:#33B0DF;}
</style>
<path id="path_0" d="M401,198.9H210v-36c0-2.6-1.1-5.2-2.9-7.1c-1.9-1.9-4.4-2.9-7.1-2.9h-72c-2.7,0-5.2,1.1-7.1,2.9
	c-1.9,1.9-2.9,4.4-2.9,7.1v36h-7c-29.2,0-57.1,11.6-77.7,32.3C12.6,251.8,1,279.8,1,308.9v46c0,29.2,11.6,57.1,32.2,77.8
	c20.6,20.6,48.6,32.2,77.8,32.2h7v19c0,2.6,1.1,5.2,2.9,7.1c1.9,1.9,4.4,2.9,7.1,2.9h72c2.6,0,5.2-1,7.1-2.9
	c1.9-1.9,2.9-4.4,2.9-7.1v-19h92v19c0,2.6,1,5.2,2.9,7.1c1.9,1.9,4.4,2.9,7.1,2.9h72c2.6,0,5.2-1,7.1-2.9c1.9-1.9,2.9-4.4,2.9-7.1
	v-19h7c29.2,0,57.1-11.6,77.8-32.2c20.6-20.6,32.2-48.6,32.2-77.8v-46c0-29.2-11.6-57.1-32.3-77.7C458.1,210.6,430.2,199,401,198.9z
	 M118,444.9h-7c-23.9,0-46.7-9.5-63.6-26.4S21,378.8,21,354.9v-46c0-23.9,9.5-46.7,26.4-63.6S87.1,219,111,218.9h7V444.9z
	 M138,172.9h52v26h-52V172.9z M190,473.9h-52v-9h52V473.9z M138,444.9v-226h235v226H138z M374,473.9h-52v-9h52V473.9z M491,354.9
	c0,23.9-9.5,46.7-26.4,63.6c-16.9,16.9-39.8,26.4-63.6,26.4h-8v-226h8c23.9,0,46.7,9.5,63.6,26.4c16.9,16.9,26.4,39.8,26.4,63.6
	V354.9z"/>
<path id="path_1" class="st0" d="M256,385.9c-11.1,0-21.8-4.4-29.7-12.3c-7.9-7.9-12.3-18.6-12.3-29.7c0-27.4,31.4-59.5,34.9-63.1
	c1.9-1.9,4.4-2.9,7.1-2.9s5.2,1.1,7.1,2.9c3.6,3.6,34.9,35.7,34.9,63.1c0,11.1-4.4,21.8-12.3,29.7
	C277.8,381.5,267.1,385.9,256,385.9z M256,302.7c-10.4,12.2-22,29.6-22,41.2c0,5.8,2.3,11.4,6.4,15.6c4.1,4.1,9.7,6.4,15.6,6.4
	c5.8,0,11.4-2.3,15.6-6.4c4.1-4.1,6.4-9.7,6.4-15.6C278,332.3,266.4,314.9,256,302.7z"/>
<path id="path_2" d="M144,138.7c-2.6,0-5.2-1.1-7.1-2.9c-1.9-1.9-2.9-4.4-2.9-7.1c-0.1-6.3,1.9-12.5,5.7-17.6
	c1.7-2.5,2.3-3.5,2.3-6.4s-0.6-3.9-2.3-6.5C136,93.2,134,87,134,80.7c0-6.3,2-12.4,5.7-17.5c1.7-2.5,2.3-3.5,2.3-6.4
	c0-2.7,1.1-5.2,2.9-7.1c1.9-1.9,4.4-2.9,7.1-2.9s5.2,1,7.1,2.9c1.9,1.9,2.9,4.4,2.9,7.1c0.1,6.3-1.9,12.5-5.7,17.5
	c-1.7,2.5-2.3,3.5-2.3,6.5s0.6,3.9,2.3,6.4c3.7,5.1,5.7,11.2,5.7,17.6c0,6.3-2,12.4-5.7,17.5c-1.7,2.5-2.3,3.5-2.3,6.5
	c0,2.6-1.1,5.2-2.9,7.1C149.2,137.7,146.6,138.7,144,138.7z"/>
<path id="path_3" d="M180,138.7c-2.6,0-5.2-1.1-7.1-2.9c-1.9-1.9-2.9-4.4-2.9-7.1c-0.1-6.3,1.9-12.5,5.7-17.6
	c1.7-2.5,2.3-3.5,2.3-6.4s-0.6-3.9-2.3-6.5C172,93.2,170,87,170,80.7c0-6.3,2-12.4,5.7-17.5c1.7-2.5,2.3-3.5,2.3-6.4
	c0-2.7,1.1-5.2,2.9-7.1c1.9-1.9,4.4-2.9,7.1-2.9s5.2,1,7.1,2.9c1.9,1.9,2.9,4.4,2.9,7.1c0.1,6.3-1.9,12.5-5.7,17.5
	c-1.7,2.5-2.3,3.5-2.3,6.5s0.6,3.9,2.3,6.4c3.7,5.1,5.7,11.2,5.7,17.6c0,6.3-2,12.4-5.7,17.5c-1.7,2.5-2.3,3.5-2.3,6.5
	c0,2.6-1.1,5.2-2.9,7.1C185.2,137.7,182.6,138.7,180,138.7z"/>
<path id="path_4" d="M227,84.1c5.5,0,10-4.5,10-10s-4.5-10-10-10s-10,4.5-10,10S221.5,84.1,227,84.1z"/>
<path id="path_5" d="M104,107.1c5.5,0,10-4.5,10-10s-4.5-10-10-10s-10,4.5-10,10S98.5,107.1,104,107.1z"/>
<path id="path_6" d="M128,38.1c5.5,0,10-4.5,10-10s-4.5-10-10-10c-5.5,0-10,4.5-10,10S122.5,38.1,128,38.1z"/>
</svg>
