<?xml version="1.0" encoding="utf-8"?>
<!-- Generator: Adobe Illustrator 28.2.0, SVG Export Plug-In . SVG Version: 6.00 Build 0)  -->
<svg version="1.1" id="vector" xmlns="http://www.w3.org/2000/svg" xmlns:xlink="http://www.w3.org/1999/xlink" x="0px" y="0px"
	 viewBox="0 0 512 512" style="enable-background:new 0 0 512 512;" xml:space="preserve">
<style type="text/css">
	.st0{fill:#33B0DF;}
</style>
<path id="path_0" d="M424,62H289V50h15c2.6,0,5.2-1,7.1-2.9c1.9-1.9,2.9-4.4,2.9-7.1V11c0-2.6-1-5.2-2.9-7.1C309.2,2,306.6,1,304,1
	h-96c-2.6,0-5.2,1-7.1,2.9c-1.9,1.9-2.9,4.4-2.9,7.1v29c0,2.7,1.1,5.2,2.9,7.1c1.9,1.9,4.4,2.9,7.1,2.9h15v12H88
	c-8,0-15.6,3.2-21.2,8.8C61.2,76.4,58,84,58,92v336c0,8,3.2,15.6,8.8,21.2C72.4,454.8,80,458,88,458h5.5v42c0,2.6,1,5.2,2.9,7.1
	c1.9,1.9,4.4,2.9,7.1,2.9h46c2.7,0,5.2-1,7.1-2.9c1.9-1.9,2.9-4.4,2.9-7.1v-42h193v42c0,2.6,1,5.2,2.9,7.1c1.9,1.9,4.4,2.9,7.1,2.9
	h46c2.6,0,5.2-1,7.1-2.9c1.9-1.9,2.9-4.4,2.9-7.1v-42h5.5c8,0,15.6-3.2,21.2-8.8c5.6-5.6,8.8-13.2,8.8-21.2V92
	c0-8-3.2-15.6-8.8-21.2C439.6,65.2,432,62,424,62z M218,30v-9h76v9H218z M243,50h26v12h-26V50z M139.5,490h-26v-32h26V490z
	 M398.5,490h-26v-32h26V490z M434,428c0,2.6-1,5.2-2.9,7.1c-1.9,1.9-4.4,2.9-7.1,2.9H88c-2.7,0-5.2-1-7.1-2.9
	c-1.9-1.9-2.9-4.4-2.9-7.1V224.5c4,1.4,7.2,3.7,10.9,6.5c7.2,5.3,16.1,12,32.8,12s25.7-6.6,32.8-12c6.2-4.7,10.8-8,20.9-8
	s14.6,3.4,20.9,8c7.2,5.3,16.1,12,32.8,12s25.7-6.6,32.8-12c6.3-4.7,10.8-8,20.9-8c10.1,0,14.6,3.4,20.9,8c7.2,5.3,16.1,12,32.8,12
	c16.7,0,25.7-6.6,32.8-12c6.3-4.7,10.8-8,20.9-8c10.1,0,14.6,3.4,20.9,8c5.6,4.2,12.2,9.1,22.8,11.1V428z M434,221.5
	c-4-1.4-7.1-3.7-10.9-6.5c-7.1-5.3-16.1-12-32.8-12c-16.7,0-25.7,6.6-32.8,12c-6.2,4.7-10.8,8-20.9,8c-10.1,0-14.6-3.4-20.9-8
	c-7.2-5.3-16.1-12-32.8-12s-25.7,6.6-32.8,12c-6.2,4.7-10.8,8-20.9,8c-10.1,0-14.6-3.4-20.9-8c-7.2-5.3-16.1-12-32.8-12
	s-25.7,6.6-32.8,12c-6.3,4.7-10.8,8-20.9,8s-14.6-3.4-20.9-8c-5.6-4.2-12.2-9.1-22.8-11.1V92c0-2.7,1.1-5.2,2.9-7.1
	c1.9-1.9,4.4-2.9,7.1-2.9h336c2.6,0,5.2,1.1,7.1,2.9c1.9,1.9,2.9,4.4,2.9,7.1V221.5z"/>
<path id="path_1" class="st0" d="M256,397c-11.1,0-21.8-4.4-29.7-12.3c-7.9-7.9-12.3-18.6-12.3-29.7c0-27.4,31.4-59.5,34.9-63.1
	c1.9-1.9,4.4-2.9,7.1-2.9s5.2,1,7.1,2.9c3.6,3.6,34.9,35.7,34.9,63.1c0,11.1-4.4,21.8-12.3,29.7C277.8,392.6,267.1,397,256,397z
	 M256,313.8c-10.4,12.2-22,29.6-22,41.2c0,5.8,2.3,11.4,6.4,15.6c4.1,4.1,9.7,6.4,15.6,6.4c5.8,0,11.4-2.3,15.6-6.4
	c4.1-4.1,6.4-9.7,6.4-15.6C278,343.4,266.4,326,256,313.8z"/>
</svg>
