<?xml version="1.0" encoding="utf-8"?>
<!-- Generator: Adobe Illustrator 28.2.0, SVG Export Plug-In . SVG Version: 6.00 Build 0)  -->
<svg version="1.1" id="vector" xmlns="http://www.w3.org/2000/svg" xmlns:xlink="http://www.w3.org/1999/xlink" x="0px" y="0px"
	 viewBox="0 0 48 48" style="enable-background:new 0 0 48 48;" xml:space="preserve">
<style type="text/css">
	.st0{fill:#33B0DF;}
</style>
<path id="path_0" d="M44.5,24.2c0-0.2-0.1-0.5-0.3-0.7c-0.2-0.2-0.4-0.3-0.7-0.3H15.2V13.1h0.9c0.7,0,1.5-0.3,2-0.8
	c0.5-0.5,0.8-1.2,0.8-2s-0.3-1.5-0.8-2c-0.5-0.5-1.2-0.8-2-0.8h-0.9V5.4h0.9c0.2,0,0.5-0.1,0.7-0.3C17,5,17.1,4.7,17.1,4.5V1.1
	c0-0.1,0-0.2-0.1-0.4c0-0.1-0.1-0.2-0.2-0.3c-0.1-0.1-0.2-0.2-0.3-0.2c-0.1,0-0.2-0.1-0.4-0.1h-15c-0.2,0-0.5,0.1-0.7,0.3
	C0.3,0.6,0.2,0.9,0.2,1.1v3.4c0,0.2,0.1,0.5,0.3,0.7c0.2,0.2,0.4,0.3,0.7,0.3h0.9v18.8c0,0.2,0.1,0.5,0.3,0.7
	C2.6,25,2.8,25.1,3,25.1h0.6c0.5,5,3.5,7.3,5.9,9.3c0.9,0.7,1.7,1.3,2.2,2c1.6,2,1.2,7.9,0.9,10.1c0,0.1,0,0.3,0,0.4
	c0,0.1,0.1,0.2,0.2,0.3c0.1,0.1,0.2,0.2,0.3,0.2c0.1,0.1,0.3,0.1,0.4,0.1h24.3c0.2,0,0.3,0,0.5-0.1s0.3-0.2,0.3-0.3s0.1-0.3,0.1-0.5
	s0-0.3-0.1-0.5c0,0-1.6-3-1.7-10.9C41.3,33.7,44.5,29.3,44.5,24.2z M16.2,9.4c0.2,0,0.5,0.1,0.7,0.3c0.2,0.2,0.3,0.4,0.3,0.7
	S17,10.8,16.8,11c-0.2,0.2-0.4,0.3-0.7,0.3h-0.9V9.4H16.2z M2.1,2.1h13.1v1.5H2.1V2.1z M4,5.4h9.4v17.8H4V5.4z M22.3,45.7h-7.6
	c0.1-0.8,0.2-2.1,0.2-3.4c0-3.4-0.5-5.7-1.6-7c-0.7-0.8-1.6-1.5-2.5-2.3c-2.2-1.8-4.7-3.8-5.2-7.8h10.8c0.4,4.7,3.4,8.7,7.6,10.1
	C23.7,41.4,22.7,44.5,22.3,45.7z M24.3,45.7c0.5-1.6,1.3-4.8,1.4-10c0.5,0.1,1,0.1,1.5,0.1h6.3c0.5,0,1,0,1.5-0.1
	c0.1,5.2,0.9,8.3,1.4,10H24.3z M36.2,33.5c-0.9,0.3-1.8,0.4-2.7,0.4h-6.3c-0.9,0-1.8-0.1-2.7-0.4c-3.4-1.1-6-4.4-6.4-8.4h24.5
	C42.3,29.1,39.7,32.4,36.2,33.5z"/>
<path id="path_1" class="st0" d="M42.1,18H18.5c-0.2,0-0.5,0.1-0.7,0.3c-0.2,0.2-0.3,0.4-0.3,0.7v3.4c0,0.2,0.1,0.5,0.3,0.7
	c0.2,0.2,0.4,0.3,0.7,0.3h23.6c1.3,0,2.4-1.2,2.4-2.6S43.4,18,42.1,18z M42.1,21.4H19.4v-1.5h22.7c0.3,0,0.6,0.3,0.6,0.8
	C42.7,21,42.4,21.4,42.1,21.4z"/>
</svg>
