<?xml version="1.0" encoding="utf-8"?>
<!-- Generator: Adobe Illustrator 28.2.0, SVG Export Plug-In . SVG Version: 6.00 Build 0)  -->
<svg version="1.1" id="vector" xmlns="http://www.w3.org/2000/svg" xmlns:xlink="http://www.w3.org/1999/xlink" x="0px" y="0px"
	 viewBox="0 0 512 512" style="enable-background:new 0 0 512 512;" xml:space="preserve">
<style type="text/css">
	.st0{fill:#33B0DF;}
</style>
<path id="path_0" d="M401,131.5H210v-36c0-2.7-1.1-5.2-2.9-7.1c-1.9-1.9-4.4-2.9-7.1-2.9h-72c-2.7,0-5.2,1.1-7.1,2.9
	c-1.9,1.9-2.9,4.4-2.9,7.1v36h-7c-29.2,0-57.1,11.6-77.7,32.3C12.6,184.4,1,212.3,1,241.5v46c0,29.2,11.6,57.1,32.2,77.8
	c20.6,20.6,48.6,32.2,77.8,32.2h7v19c0,2.6,1.1,5.2,2.9,7.1c1.9,1.9,4.4,2.9,7.1,2.9h72c2.6,0,5.2-1,7.1-2.9
	c1.9-1.9,2.9-4.4,2.9-7.1v-19h92v19c0,2.6,1,5.2,2.9,7.1c1.9,1.9,4.4,2.9,7.1,2.9h72c2.6,0,5.2-1,7.1-2.9c1.9-1.9,2.9-4.4,2.9-7.1
	v-19h7c29.2,0,57.1-11.6,77.8-32.2s32.2-48.6,32.2-77.8v-46c0-29.2-11.6-57.1-32.3-77.7C458.1,143.1,430.2,131.5,401,131.5z
	 M118,377.5h-7c-23.9,0-46.7-9.5-63.6-26.4C30.5,334.2,21,311.4,21,287.5v-46c0-23.9,9.5-46.7,26.4-63.6s39.8-26.4,63.6-26.4h7
	V377.5z M138,105.5h52v26h-52V105.5z M190,406.5h-52v-9h52V406.5z M138,377.5v-226h235v226H138z M374,406.5h-52v-9h52V406.5z
	 M491,287.5c0,23.9-9.5,46.7-26.4,63.6c-16.9,16.9-39.8,26.4-63.6,26.4h-8v-226h8c23.9,0,46.7,9.5,63.6,26.4
	c16.9,16.9,26.4,39.8,26.4,63.6V287.5z"/>
<path id="path_1" class="st0" d="M256,310c-11.1,0-21.8-4.4-29.7-12.3c-7.9-7.9-12.3-18.6-12.3-29.7c0-27.4,31.4-59.5,34.9-63.1
	c1.9-1.9,4.4-2.9,7.1-2.9s5.2,1.1,7.1,2.9c3.6,3.6,34.9,35.7,34.9,63.1c0,11.1-4.4,21.8-12.3,29.7C277.8,305.6,267.1,310,256,310z
	 M256,226.8c-10.4,12.2-22,29.6-22,41.2c0,5.8,2.3,11.4,6.4,15.5c4.1,4.1,9.7,6.5,15.6,6.5c5.8,0,11.4-2.3,15.6-6.5
	c4.1-4.1,6.4-9.7,6.4-15.5C278,256.4,266.4,239,256,226.8z"/>
</svg>
