<?xml version="1.0" encoding="utf-8"?>
<!-- Generator: Adobe Illustrator 28.2.0, SVG Export Plug-In . SVG Version: 6.00 Build 0)  -->
<svg version="1.1" id="vector" xmlns="http://www.w3.org/2000/svg" xmlns:xlink="http://www.w3.org/1999/xlink" x="0px" y="0px"
	 viewBox="0 0 512 512" style="enable-background:new 0 0 512 512;" xml:space="preserve">
<style type="text/css">
	.st0{fill:#EB3A28;}
	.st1{fill:#33B0DF;}
	.st2{fill:#FFE804;}
	.st3{stroke:#000000;stroke-width:12.5;stroke-miterlimit:2;}
	.st4{stroke:#000000;stroke-width:12.5;stroke-linecap:round;stroke-linejoin:round;stroke-miterlimit:2;}
</style>
<path id="path_0" class="st0" d="M461.2,279.2c-3.5,0-6.4-2.8-6.5-6.4c-0.6-32.6-9-64.7-24.4-93.5c-15-27.9-36-52.1-61.5-70.7
	c-2.2-1.6-2.8-4.6-1.5-6.9l11.5-19.8c1-1.6,2.7-2.6,4.5-2.6c1,0,2.1,0.3,3,0.9c63.8,43.2,102.1,115.2,102,192.2v0.2
	c0,3.6-2.9,6.5-6.5,6.5H461.2z"/>
<path id="path_1" d="M383.5,83.1c0.3,0,0.6,0.1,0.9,0.2c60.6,41.1,100.4,110.5,100.4,189.1v0.2c0,1.5-1.2,2.8-2.8,2.8l0,0h-20.7
	c-1.5,0-2.8-1.2-2.8-2.7c-1.5-68.7-35.6-129.4-87.4-167.1c-0.6-0.4-0.8-1.3-0.4-1.9l11.5-19.8C382.5,83.4,383,83.1,383.5,83.1
	 M383.5,75.6c-3.2,0-6.1,1.7-7.8,4.4l-11.5,19.8c-2.4,4-1.2,9.1,2.5,11.8c12.5,9.1,24,19.6,34.1,31.2C432.2,179,450,225,451,273
	c0.1,5.5,4.6,10,10.2,10h20.7c5.6,0,10.2-4.6,10.2-10.2v-0.2c0-19.9-2.5-39.6-7.4-58.9c-4.8-18.6-11.9-36.6-21-53.4
	c-18.1-33.3-44-61.8-75.3-83.1C387,76.2,385.2,75.6,383.5,75.6z"/>
<path id="path_2" class="st1" d="M30.8,280.2c-3.6,0-6.5-2.9-6.5-6.5v-0.2c0-78.3,39.1-150.8,104.6-193.9c0.9-0.6,1.9-0.8,2.9-0.8
	c1.9,0,3.6,1,4.6,2.7l5.8,10.1c1.4,2.5,0.6,5.7-1.9,7.1c-62.3,36.7-101.3,103-102.8,175.4C37.2,277.4,34.3,280.2,30.8,280.2z"/>
<path id="path_3" d="M131.7,82.4c0.6,0,1.1,0.3,1.3,0.8l5.8,10.1c0.4,0.7,0.1,1.6-0.6,2.1c-61.3,36.2-103,102.4-104.6,178.4
	c0,1.5-1.3,2.7-2.8,2.7l0,0c-1.5,0-2.8-1.2-2.8-2.8v-0.2c0-79.8,40.9-150,102.9-190.8C131.1,82.6,131.4,82.4,131.7,82.4 M131.7,74.9
	c-1.8,0-3.5,0.5-4.9,1.5c-32.1,21.2-58.6,49.8-77.2,83.4c-9.4,17.1-16.7,35.2-21.5,54c-5,19.5-7.5,39.5-7.5,59.6v0.2
	c0,5.6,4.5,10.3,10.1,10.4S41,279.6,41,274c1.5-71.1,39.8-136.2,101-172.2c4.2-2.5,5.6-7.9,3.2-12.2l-5.8-10.1
	C137.9,76.7,134.9,74.9,131.7,74.9L131.7,74.9z"/>
<path id="path_4" class="st2" d="M350.9,97.2c-0.9,0-1.8-0.2-2.6-0.7C291,64.3,221.9,61,161.8,87.4c-0.6,0.3-1.4,0.4-2.1,0.4
	c-1.9,0-3.6-1-4.6-2.7l-6.4-11.2c-0.7-1.2-0.9-2.8-0.4-4.1c0.4-1.4,1.4-2.6,2.6-3.2c32.6-16.7,68.8-25.3,105.4-25.2
	c37.7,0,74.8,9.2,108.1,26.7c2.5,1.3,3.5,4.6,2.2,7.2c0,0.1,0,0.1-0.1,0.2l-11.2,19.1C354.5,96.2,352.8,97.2,350.9,97.2z"/>
<path id="path_5" d="M256.4,45.2c37.1,0,73.6,9,106.4,26.2c0.8,0.4,1,1.3,0.6,2.1l-11.2,19.2c-0.2,0.4-0.8,0.8-1.3,0.8
	c-0.2,0-0.5-0.1-0.8-0.2C291.8,60.5,221.6,57.1,160.4,84c-0.2,0.1-0.4,0.2-0.6,0.2c-0.6,0-1.1-0.3-1.3-0.8L152,72.1
	c-0.4-0.7-0.2-1.7,0.5-2.1c0.1,0,0.1-0.1,0.1-0.1C184.8,53.7,220.3,45.1,256.4,45.2 M256.4,37.7c-37.2,0-73.9,8.8-107.1,25.7
	c-2.2,1.1-3.9,3.1-4.6,5.5s-0.4,4.9,0.8,7.1l6.4,11.2c1.6,2.8,4.6,4.6,7.8,4.6c1.2,0,2.5-0.2,3.6-0.8c26-11.5,54.2-17.4,82.6-17.3
	c17.8,0,35.5,2.3,52.8,6.8c16.6,4.4,32.6,10.9,47.6,19.4c4.2,2.4,9.6,0.9,12.1-3.3l11.2-19.2c2.5-4.3,1-9.8-3.2-12.3
	c-0.1-0.1-0.2-0.2-0.4-0.2C332.3,47,294.6,37.7,256.4,37.7z"/>
<path id="path_6" class="st3" d="M117.3,164.8c-0.7-0.4-1.6-0.4-2.3-0.2l-29.2,9c-1.8,0.6-2.9,2.5-2.4,4.4l7.7,28.9
	c0.3,1.1,1.1,2.1,2.2,2.8l21.7,12.1c3.2,1.8,7.2,0.6,8.9-2.6l19.8-35.6c0.9-1.8,0.4-3.9-1.4-4.9L117.3,164.8z"/>
<path id="path_7" class="st4" d="M144.4,467.2h-3.1c-9.4,0-16.9-7.6-16.9-17v-177c0-9.4,7.6-17,16.9-17h3.1c9.4,0,16.9,7.6,16.9,17
	v177C161.3,459.6,153.7,467.2,144.4,467.2z"/>
<path id="path_8" class="st4" d="M208.8,467.2h-3.1c-9.4,0-16.9-7.6-16.9-17v-177c0-9.4,7.6-17,16.9-17h3.1c9.4,0,16.9,7.6,16.9,17
	v177C225.7,459.6,218.1,467.2,208.8,467.2z"/>
<path id="path_9" class="st4" d="M273.1,467.2H270c-9.4,0-16.9-7.6-16.9-17v-177c0-9.4,7.6-17,16.9-17h3.1c9.4,0,17,7.6,17,17v177
	C290.1,459.6,282.5,467.2,273.1,467.2z"/>
<path id="path_10" class="st4" d="M337.6,467.2h-3.1c-9.4,0-17-7.6-17-17v-177c0-9.4,7.6-17,17-17h3.1c9.4,0,17,7.6,17,17v177
	C354.5,459.6,347,467.2,337.6,467.2z"/>
<path id="path_11" class="st3" d="M376.2,297.8c0-10.3,8.3-18.6,18.6-18.6s18.6,8.3,18.6,18.6s-8.3,18.6-18.6,18.6
	S376.2,308.1,376.2,297.8"/>
<path id="path_12" class="st3" d="M165.6,288.8h23.1"/>
<path id="path_13" class="st3" d="M225.7,288.8h27.4"/>
<path id="path_14" class="st3" d="M294.4,288.8h23.1"/>
<path id="path_15" class="st3" d="M161.3,309.1h27.4"/>
<path id="path_16" class="st3" d="M225.7,309.1h31.9"/>
<path id="path_17" class="st3" d="M294.4,309.1h23.1"/>
<path id="path_18" class="st3" d="M356,288.8h25.4"/>
<path id="path_19" class="st3" d="M356,309.1h25.4"/>
<path id="path_20" class="st3" d="M164.1,411.1h23.1"/>
<path id="path_21" class="st3" d="M224.2,411.1h27.4"/>
<path id="path_22" class="st3" d="M292.9,411.1H316"/>
<path id="path_23" class="st3" d="M162.4,434.5h27.3"/>
<path id="path_24" class="st3" d="M226.8,434.5h31.9"/>
<path id="path_25" class="st3" d="M295.4,434.5h23.1"/>
</svg>
