<?xml version="1.0" encoding="utf-8"?>
<!-- Generator: Adobe Illustrator 28.2.0, SVG Export Plug-In . SVG Version: 6.00 Build 0)  -->
<svg version="1.1" id="vector" xmlns="http://www.w3.org/2000/svg" xmlns:xlink="http://www.w3.org/1999/xlink" x="0px" y="0px"
	 viewBox="0 0 512 512" style="enable-background:new 0 0 512 512;" xml:space="preserve">
<style type="text/css">
	.st0{fill:#EB3A28;}
	.st1{fill:#33B0DF;}
	.st2{fill:#FFE804;}
	.st3{stroke:#000000;stroke-width:12.5;stroke-miterlimit:2;}
	.st4{stroke:#000000;stroke-width:12.5;stroke-linecap:round;stroke-linejoin:round;stroke-miterlimit:2;}
</style>
<path id="path_0" class="st0" d="M461.2,279.2c-3.5,0-6.5-2.9-6.5-6.4c-0.7-33.1-8.9-64.5-24.4-93.5c-14.8-27.7-36-52.2-61.5-70.7
	c-2.2-1.6-2.8-4.6-1.5-6.9l11.5-19.8c1-1.6,2.7-2.6,4.5-2.6c1,0,2,0.3,3,0.9c63.9,43.3,102,115.1,102,192.2v0.2c0,3.6-3,6.5-6.5,6.5
	H461.2z"/>
<path id="path_1" d="M383.5,83.1c0.3,0,0.6,0.1,0.9,0.2c60.6,41.1,100.4,110.5,100.4,189.1c0,0.1,0,0.1,0,0.2c0,1.5-1.2,2.8-2.8,2.8
	h-20.7c-1.5,0-2.8-1.2-2.8-2.7c-1.5-68.7-35.6-129.4-87.4-167.1c-0.6-0.4-0.8-1.3-0.4-1.9l11.5-19.8C382.5,83.3,383,83.1,383.5,83.1
	 M383.5,75.6c-3.2,0-6.1,1.7-7.8,4.4l-11.5,19.8c-2.4,4-1.2,9.1,2.5,11.8c12.5,9.1,24,19.6,34.1,31.2c10.2,11.7,19,24.6,26.3,38.2
	c7.4,13.9,13.2,28.6,17.2,43.8c4.1,15.6,6.4,31.8,6.8,48c0.1,5.5,4.7,10,10.2,10h20.7c5.6,0,10.2-4.6,10.2-10.2v-0.2
	c0-19.9-2.5-39.7-7.4-58.9c-4.8-18.6-11.9-36.6-21-53.4c-18-33.2-44-61.9-75.3-83.1C387,76.2,385.3,75.6,383.5,75.6L383.5,75.6z"/>
<path id="path_2" class="st1" d="M30.8,280.2c-3.6,0-6.5-2.9-6.5-6.5v-0.2c0-78.3,39.1-150.8,104.6-193.9c0.9-0.6,1.9-0.8,2.9-0.8
	c1.9,0,3.6,1,4.6,2.7l5.8,10.1c1.4,2.4,0.6,5.7-1.9,7.1c-30.1,17.8-55.5,43-73.4,73c-18.5,30.9-28.6,66.2-29.4,102.3
	C37.2,277.4,34.3,280.2,30.8,280.2z"/>
<path id="path_3" d="M131.7,82.4c0.5,0,1.1,0.2,1.3,0.8l5.8,10.1c0.4,0.7,0.1,1.6-0.6,2.1c-61.3,36.2-103,102.4-104.6,178.4
	c0,1.5-1.3,2.7-2.8,2.7l0,0c-1.5,0-2.8-1.2-2.8-2.8c0-0.1,0-0.1,0-0.2c0-79.8,40.9-150,102.9-190.8
	C131.1,82.5,131.4,82.4,131.7,82.4 M131.7,74.9c-1.8,0-3.5,0.5-4.9,1.5c-32,21.1-58.7,49.9-77.2,83.4c-9.4,17.1-16.7,35.2-21.5,54
	c-5,19.4-7.5,39.4-7.5,59.6v0.2c0,5.6,4.6,10.2,10.3,10.2c5.5,0,10.1-4.5,10.2-10c0.4-18,3.1-35.8,8.1-52.9
	c4.8-16.6,11.8-32.7,20.8-47.6c17.7-29.5,42.6-54.3,72.2-71.7c4.2-2.5,5.6-7.9,3.2-12.2l-5.8-10.1C137.9,76.7,134.9,74.9,131.7,74.9
	L131.7,74.9z"/>
<path id="path_4" class="st2" d="M350.9,97.2c-0.9,0-1.8-0.2-2.6-0.7c-31-17.5-66.4-26.8-102.3-26.8c-29.2,0-57.6,5.9-84.2,17.7
	c-0.6,0.3-1.4,0.4-2.1,0.4c-1.9,0-3.6-1-4.6-2.7l-6.4-11.2c-0.7-1.2-0.9-2.8-0.4-4.1c0.4-1.3,1.4-2.6,2.6-3.2
	c32.9-16.8,68.3-25.2,105.4-25.2c37.6,0,75,9.2,108.1,26.7c1.2,0.7,2.2,1.8,2.6,3.2s0.2,2.8-0.5,4.1l-11.2,19.2
	C354.5,96.2,352.7,97.2,350.9,97.2L350.9,97.2z"/>
<path id="path_5" d="M256.4,45.2c38.4,0,74.6,9.5,106.4,26.2c0.8,0.4,1,1.3,0.6,2.1l-11.2,19.2c-0.3,0.5-0.8,0.8-1.3,0.8
	c-0.2,0-0.5-0.1-0.8-0.2C319.4,75.9,283.9,66,246,66c-30.4,0-59.4,6.4-85.6,17.9c-0.2,0.1-0.4,0.2-0.6,0.2c-0.5,0-1-0.2-1.3-0.8
	L152,72.1c-0.4-0.8-0.1-1.7,0.6-2.1C183.8,54.2,219,45.2,256.4,45.2 M256.4,37.7c-18.9,0-37.8,2.2-55.9,6.7
	c-17.7,4.3-34.9,10.7-51.2,19c-2.2,1.1-3.9,3.1-4.6,5.5s-0.4,4.9,0.8,7.1l6.4,11.2c1.6,2.8,4.6,4.6,7.8,4.6c1.2,0,2.5-0.2,3.6-0.8
	c26.1-11.5,53.9-17.3,82.6-17.3c17.9,0,35.6,2.3,52.8,6.8c16.6,4.4,32.6,10.9,47.6,19.4c1.4,0.8,2.9,1.2,4.4,1.2
	c3.2,0,6.1-1.7,7.8-4.4l11.2-19.2c1.2-2.1,1.5-4.7,0.9-7s-2.3-4.3-4.5-5.5c-16.6-8.8-34.2-15.5-52.4-20
	C295.1,40,275.8,37.7,256.4,37.7L256.4,37.7z"/>
<path id="path_6" class="st3" d="M117.3,164.8c-0.7-0.4-1.6-0.4-2.3-0.2l-29.2,9c-1.8,0.6-2.9,2.5-2.4,4.4l7.7,28.9
	c0.3,1.1,1.1,2.1,2.2,2.8l21.7,12.1c3.2,1.8,7.2,0.6,8.9-2.6l19.8-35.6c0.9-1.8,0.4-3.9-1.4-4.9L117.3,164.8z"/>
<path id="path_7" class="st3" d="M354.9,333.2c-3.2-42.1-22.9-68.5-40.1-91.8c-16-21.6-29.9-40.2-29.9-67.7c0-2.2-1.2-4.2-3.2-5.2
	c-2-1-4.4-0.9-6.1,0.4c-26,18.6-47.6,49.9-55.2,79.8c-5.2,20.8-5.9,44.2-6.1,59.6c-24-5.1-29.4-41-29.5-41.4
	c-0.2-1.9-1.4-3.5-3.1-4.4c-1.6-0.9-3.6-1-5.4-0.1c-1.2,0.6-30.9,15.6-32.6,75.8c-0.1,2-0.1,4-0.1,6c0,58.4,47.5,105.9,105.9,105.9
	c0.1,0,0.1,0,0.2,0h0.1c58.3-0.1,105.6-47.5,105.6-105.8C355.5,341.5,354.9,333.2,354.9,333.2z"/>
<path id="path_8" class="st4" d="M213.6,408.8c0-0.7,0-1.5,0.1-2.4c0.2-8.9,1.9-15,3.8-19c3.4,7.5,9.6,14.3,19.8,14.3
	c3.3,0,6-2.6,6-6c0-8.5,0.2-18.3,2.3-27.2c1.9-7.9,6.4-16.2,12.1-22.9c2.5,8.7,7.5,15.8,12.3,22.6c6.9,9.9,14,20,15.3,37.3
	c0.1,1,0.1,2,0.1,3.1c0,21-16.1,38.2-35.9,38.2S213.6,429.9,213.6,408.8z"/>
</svg>
