<?xml version="1.0" encoding="utf-8"?>
<!-- Generator: Adobe Illustrator 28.2.0, SVG Export Plug-In . SVG Version: 6.00 Build 0)  -->
<svg version="1.1" id="vector" xmlns="http://www.w3.org/2000/svg" xmlns:xlink="http://www.w3.org/1999/xlink" x="0px" y="0px"
	 viewBox="0 0 512 512" style="enable-background:new 0 0 512 512;" xml:space="preserve">
<style type="text/css">
	.st0{fill:#33B0DF;}
</style>
<path id="path_0" d="M401,197.9H210v-36c0-2.6-1.1-5.2-2.9-7.1c-1.9-1.9-4.4-2.9-7.1-2.9h-72c-2.7,0-5.2,1.1-7.1,2.9
	c-1.9,1.9-2.9,4.4-2.9,7.1v36h-7c-29.2,0-57.1,11.6-77.7,32.3C12.6,250.7,1,278.7,1,307.9v46C1,383,12.6,411,33.2,431.6
	c20.6,20.6,48.6,32.2,77.8,32.2h7v19c0,2.7,1.1,5.2,2.9,7.1c1.9,1.9,4.4,2.9,7.1,2.9h72c2.6,0,5.2-1,7.1-2.9
	c1.9-1.9,2.9-4.4,2.9-7.1v-19h92v19c0,2.7,1,5.2,2.9,7.1c1.9,1.9,4.4,2.9,7.1,2.9h72c2.6,0,5.2-1,7.1-2.9c1.9-1.9,2.9-4.4,2.9-7.1
	v-19h7c29.2,0,57.1-11.6,77.8-32.2C499.4,411,511,383,511,353.9v-46c0-29.2-11.6-57.1-32.3-77.7C458.1,209.5,430.2,197.9,401,197.9z
	 M118,443.9h-7c-23.9,0-46.7-9.5-63.6-26.4S21,377.7,21,353.9v-46c0-23.9,9.5-46.7,26.4-63.6s39.8-26.4,63.6-26.4h7V443.9z
	 M138,171.9h52v26h-52V171.9z M190,472.9h-52v-9h52V472.9z M138,443.9v-226h235v226H138z M374,472.9h-52v-9h52V472.9z M491,353.9
	c0,23.9-9.5,46.7-26.4,63.6c-16.9,16.9-39.8,26.4-63.6,26.4h-8v-226h8c23.9,0,46.7,9.5,63.6,26.4c16.9,16.9,26.4,39.8,26.4,63.6
	V353.9z"/>
<path id="path_1" d="M144,134c-2.6,0-5.2-1.1-7.1-2.9c-1.9-1.9-2.9-4.4-2.9-7.1c-0.1-6.3,1.9-12.5,5.7-17.6c1.7-2.5,2.3-3.4,2.3-6.4
	s-0.6-3.9-2.3-6.4C136,88.4,134,82.3,134,76s2-12.4,5.7-17.5c1.7-2.5,2.3-3.5,2.3-6.5c0-2.7,1.1-5.2,2.9-7.1
	c1.9-1.9,4.4-2.9,7.1-2.9s5.2,1,7.1,2.9c1.9,1.9,2.9,4.4,2.9,7.1c0.1,6.3-1.9,12.5-5.7,17.6c-1.7,2.5-2.3,3.4-2.3,6.4
	s0.6,3.9,2.3,6.4c3.7,5.1,5.7,11.2,5.7,17.6s-2,12.4-5.7,17.6c-1.7,2.5-2.3,3.4-2.3,6.4c0,2.7-1.1,5.2-2.9,7.1
	C149.2,132.9,146.6,134,144,134z"/>
<path id="path_2" d="M180,134c-2.6,0-5.2-1.1-7.1-2.9c-1.9-1.9-2.9-4.4-2.9-7.1c-0.1-6.3,1.9-12.5,5.7-17.6c1.7-2.5,2.3-3.4,2.3-6.4
	s-0.6-3.9-2.3-6.4C172,88.4,170,82.3,170,76s2-12.4,5.7-17.5c1.7-2.5,2.3-3.5,2.3-6.5c0-2.7,1.1-5.2,2.9-7.1
	c1.9-1.9,4.4-2.9,7.1-2.9s5.2,1,7.1,2.9c1.9,1.9,2.9,4.4,2.9,7.1c0.1,6.3-1.9,12.5-5.7,17.6c-1.7,2.5-2.3,3.4-2.3,6.4
	s0.6,3.9,2.3,6.4c3.7,5.1,5.7,11.2,5.7,17.6s-2,12.4-5.7,17.6c-1.7,2.5-2.3,3.4-2.3,6.4c0,2.7-1.1,5.2-2.9,7.1
	C185.2,132.9,182.6,134,180,134z"/>
<path id="path_3" class="st0" d="M296.8,400.9h-81.6c-6.9,0-13.6-2.4-19-6.7c-5.4-4.3-9.1-10.3-10.6-17.1c-1.5-6.7-0.6-13.8,2.4-20
	c3-6.2,8.1-11.1,14.4-14.1c-1.2-3.1-1.8-6.4-1.8-9.8c0-5.3,1.6-10.6,4.6-15s7.2-7.9,12.1-9.9c-0.4-1.8-0.7-3.7-0.7-5.5v-18.6
	c0-6.2,2.5-12.2,6.9-16.6c4.4-4.4,10.4-6.9,16.6-6.9h9.3c1.5,0,2.9,0.3,4.3,1c1.3,0.6,2.5,1.6,3.4,2.7c0.9,1.1,1.6,2.5,2,3.9
	c0.4,1.4,0.4,2.9,0.1,4.4c-0.5,2.7-0.7,5.5-0.5,8.3h15.7c15.6,0,26.1,10.1,26.1,25.2c0,1.7-0.2,3.3-0.6,4.9c5,3.4,8.7,8.5,10.4,14.2
	c1.8,5.8,1.5,12-0.6,17.6c6.2,2.9,11.3,7.9,14.4,14.1c3,6.2,3.9,13.2,2.4,20c-1.5,6.7-5.2,12.8-10.6,17.1
	C310.4,398.5,303.7,400.9,296.8,400.9L296.8,400.9z M215.2,360.3c-1.4,0-2.8,0.2-4,0.7c-1.3,0.5-2.5,1.2-3.5,2.2
	c-1,1-1.8,2.1-2.3,3.4c-0.5,1.3-0.8,2.6-0.8,4c0,1.4,0.3,2.7,0.8,4c0.5,1.3,1.3,2.4,2.3,3.4c1,1,2.2,1.7,3.5,2.2
	c1.3,0.5,2.7,0.7,4,0.7h81.6c1.4,0,2.8-0.2,4-0.7c1.3-0.5,2.5-1.2,3.5-2.2c1-1,1.8-2.1,2.3-3.4c0.5-1.3,0.8-2.6,0.8-4
	c0-1.4-0.3-2.8-0.8-4c-0.5-1.3-1.3-2.4-2.3-3.4c-1-1-2.2-1.7-3.5-2.2c-1.3-0.5-2.7-0.7-4-0.7h-12.3c-2.6,0-5.2-1.1-7.1-2.9
	c-1.9-1.9-2.9-4.4-2.9-7.1s1.1-5.2,2.9-7.1c1.9-1.9,4.4-2.9,7.1-2.9c1.8,0,3.6-0.7,4.9-2c1.3-1.3,2-3.1,2-4.9c0-1.8-0.7-3.6-2-4.9
	c-1.3-1.3-3-2-4.9-2h-4.2c-2.6,0-5.2-1.1-7.1-2.9c-1.9-1.9-2.9-4.4-2.9-7.1c0-2.7,1-5.2,2.9-7.1c1.9-1.9,4.4-2.9,7.1-2.9
	c0,0,0.1,0,0.1-0.1c0,0,0-0.1,0-0.1c0-2.5,0-5.2-6.1-5.2h-18.2c-2.5,0-4.9-0.5-7.1-1.5c-2.2-1-4.2-2.6-5.7-4.5
	c-3.2-4-4.4-9.2-4.7-14c-0.6,0.3-1.1,0.7-1.5,1.3c-0.4,0.6-0.6,1.2-0.6,1.9V303c0,0.9,0.4,1.8,1,2.5c0.7,0.7,1.6,1,2.5,1
	c2.6,0,5.2,1,7.1,2.9c1.9,1.9,2.9,4.4,2.9,7.1s-1.1,5.2-2.9,7.1c-1.9,1.9-4.4,2.9-7.1,2.9h-12.7c-1.8,0-3.6,0.7-4.9,2
	c-1.3,1.3-2,3.1-2,4.9c0,1.8,0.7,3.6,2,4.9c1.3,1.3,3.1,2,4.9,2c2.7,0,5.2,1,7.1,2.9c1.9,1.9,2.9,4.4,2.9,7.1s-1,5.2-2.9,7.1
	c-1.9,1.9-4.4,2.9-7.1,2.9L215.2,360.3z"/>
<path id="path_4" d="M227,83c5.5,0,10-4.5,10-10s-4.5-10-10-10s-10,4.5-10,10S221.5,83,227,83z"/>
<path id="path_5" d="M82,124c5.5,0,10-4.5,10-10s-4.5-10-10-10s-10,4.5-10,10S76.5,124,82,124z"/>
<path id="path_6" d="M120,45c5.5,0,10-4.5,10-10s-4.5-10-10-10s-10,4.5-10,10S114.5,45,120,45z"/>
</svg>
