<?xml version="1.0" encoding="utf-8"?>
<!-- Generator: Adobe Illustrator 28.2.0, SVG Export Plug-In . SVG Version: 6.00 Build 0)  -->
<svg version="1.1" id="Layer_1" xmlns="http://www.w3.org/2000/svg" xmlns:xlink="http://www.w3.org/1999/xlink" x="0px" y="0px"
	 viewBox="0 0 512 512" style="enable-background:new 0 0 512 512;" xml:space="preserve">
<style type="text/css">
	.st0{fill:none;stroke:#000000;stroke-width:8;stroke-miterlimit:10;}
	.st1{clip-path:url(#SVGID_00000002384051855785256490000016314384548580526265_);}
	.st2{fill:none;stroke:#000000;stroke-width:6.8359;stroke-miterlimit:10;}
	.st3{fill:none;stroke:#000000;stroke-width:9.0966;stroke-miterlimit:10;}
	.st4{fill:none;stroke:#000000;stroke-width:7.8124;stroke-miterlimit:10;}
	.st5{fill:none;stroke:#000000;stroke-width:8.789;stroke-miterlimit:10;}
	
		.st6{clip-path:url(#SVGID_00000025441289403993333480000007225504643319057550_);fill:none;stroke:#000000;stroke-width:6.1326;stroke-miterlimit:10;}
	
		.st7{clip-path:url(#SVGID_00000019676190821660166330000011986804879354490539_);fill:none;stroke:#000000;stroke-width:5.8593;stroke-miterlimit:10;}
	
		.st8{clip-path:url(#SVGID_00000069357630591047107020000002824770829987092635_);fill:none;stroke:#000000;stroke-width:5.8593;stroke-miterlimit:10;}
	
		.st9{clip-path:url(#SVGID_00000145042976149900747000000001177167647907557784_);fill:none;stroke:#000000;stroke-width:7.535;stroke-miterlimit:10;}
	
		.st10{clip-path:url(#SVGID_00000103262961834818307170000015881233489165522364_);fill:none;stroke:#000000;stroke-width:7.535;stroke-miterlimit:10;}
	
		.st11{clip-path:url(#SVGID_00000145036862849121903240000011827226612445901471_);fill:none;stroke:#000000;stroke-width:7.535;stroke-miterlimit:10;}
	.st12{clip-path:url(#SVGID_00000005242966725280259690000006115442238682142609_);}
	.st13{clip-path:url(#SVGID_00000021800380024636187880000001167667980850838187_);}
	.st14{fill:none;stroke:#000000;stroke-width:5.8593;stroke-miterlimit:10;}
	.st15{clip-path:url(#SVGID_00000076592129374396083040000017145652962322120596_);}
	.st16{fill:none;stroke:#000000;stroke-width:10;stroke-miterlimit:10;}
	
		.st17{clip-path:url(#SVGID_00000052809259084768803010000006913378793991971240_);fill:none;stroke:#000000;stroke-width:8.2833;stroke-miterlimit:10;}
	
		.st18{clip-path:url(#SVGID_00000053502845104654760350000006702212466324347580_);fill:none;stroke:#000000;stroke-width:8.2833;stroke-miterlimit:10;}
	
		.st19{clip-path:url(#SVGID_00000178168583419600300310000016726512439631198871_);fill:none;stroke:#000000;stroke-width:8.2833;stroke-miterlimit:10;}
	
		.st20{clip-path:url(#SVGID_00000059279790587283601710000002589671210068543647_);fill:none;stroke:#000000;stroke-width:8.2833;stroke-miterlimit:10;}
	
		.st21{clip-path:url(#SVGID_00000020387982228051430570000013028786362261156523_);fill:none;stroke:#000000;stroke-width:8.2833;stroke-miterlimit:10;}
	
		.st22{clip-path:url(#SVGID_00000063608558156379625010000002119670211851089792_);fill:none;stroke:#000000;stroke-width:8.2833;stroke-miterlimit:10;}
	.st23{clip-path:url(#SVGID_00000079473412348035127270000002358503876400223872_);}
	.st24{clip-path:url(#SVGID_00000016056310979544091390000003416364289299855288_);}
	.st25{fill:none;stroke:#000000;stroke-width:8.4137;stroke-miterlimit:10;}
	.st26{fill:#33B0DF;}
</style>
<path id="XMLID_2_" class="st0" d="M39.1,148.2c0-1.1,0.9-2,2-2h37.5c1.1,0,2,0.9,2,2v180.3c0,1.1-0.9,2-2,2H41.1c-1.1,0-2-0.9-2-2
	V148.2z"/>
<path id="XMLID_11_" class="st0" d="M81.9,330.5h-46c-6.3,0-11.4,5.1-11.4,11.4v13h68.7v-13C93.2,335.6,88.1,330.5,81.9,330.5z"/>
<path id="XMLID_5_" class="st0" d="M437.1,149.5c0-1.1,0.9-2,2-2h37.5c1.1,0,2,0.9,2,2v180.3c0,1.1-0.9,2-2,2h-37.5
	c-1.1,0-2-0.9-2-2V149.5z"/>
<path id="XMLID_4_" class="st0" d="M479.9,331.8H434c-6.3,0-11.4,5.1-11.4,11.4v13h68.7v-13C491.2,336.9,486.1,331.8,479.9,331.8z"
	/>
<g id="XMLID_57_">
	<g>
		<defs>
			<polygon id="SVGID_1_" points="34.4,102.8 213.7,152.6 213.7,337 34.4,386.8 			"/>
		</defs>
		<clipPath id="SVGID_00000172430929486665757300000008897663978042471605_">
			<use xlink:href="#SVGID_1_"  style="overflow:visible;"/>
		</clipPath>
		<g id="XMLID_29_" style="clip-path:url(#SVGID_00000172430929486665757300000008897663978042471605_);">
			<path id="XMLID_35_" class="st2" d="M190.3,185.3c-0.3,0.7-0.6,1.9-0.6,2.7v137c0,0.8,0.6,1.3,1.3,1.2l16.7-3.8
				c0.6-0.1,1.2-0.9,1.2-1.7V191c0-0.8-0.2-2-0.5-2.7l-8.3-22.1c-0.3-0.8-0.8-0.9-1.1-0.2L190.3,185.3z"/>
			<path id="XMLID_34_" class="st3" d="M220.9,190.4c-0.3,0.6-0.5,1.7-0.5,2.5v125.2c0,0.7,0.5,1.2,1.1,1.1l14-3.2
				c0.5-0.1,1-0.8,1-1.5V195.4c0-0.7-0.2-1.8-0.4-2.5l-7-20.1c-0.2-0.7-0.6-0.8-0.9-0.2L220.9,190.4z"/>
			<path id="XMLID_33_" class="st3" d="M246.7,213c-0.2,0.6-0.4,1.6-0.4,2.3v97c0,0.7,0.4,1.1,0.9,1l11.9-2.7
				c0.5-0.1,0.8-0.7,0.8-1.4v-92.6c0-0.6-0.2-1.7-0.4-2.3l-5.9-18.1c-0.2-0.6-0.5-0.7-0.8-0.1L246.7,213z"/>
			<path id="XMLID_32_" class="st3" d="M274.6,216.2c-0.2-0.6-0.5-0.6-0.6-0.1l-5.3,16.1c-0.2,0.6-0.3,1.5-0.3,2.2v72.9
				c0,0.6,0.4,1.1,0.8,1l10.2-2.3c0.4-0.1,0.7-0.7,0.7-1.3v-69.9c0-0.6-0.1-1.5-0.3-2.1L274.6,216.2z"/>
			<path id="XMLID_31_" class="st4" d="M153.3,203c-0.4,0.8-0.7,2.1-0.7,3v127.3c0,0.9,0.7,1.5,1.6,1.3l20.2-4.6
				c0.8-0.2,1.4-1,1.4-1.9V208.3c0-0.8-0.3-2.2-0.6-3l-10-23.9c-0.4-0.8-0.9-0.9-1.3-0.2L153.3,203z"/>
			<path id="XMLID_30_" class="st5" d="M107.6,224.9c-0.5,0.9-0.8,2.4-0.8,3.4v115.4c0,1,0.9,1.6,2,1.4l25-5.7
				c1-0.2,1.7-1.2,1.7-2.1v-108c0-0.9-0.3-2.4-0.7-3.3l-12.3-25.9c-0.4-0.9-1.2-1-1.6-0.2L107.6,224.9z"/>
		</g>
	</g>
	<g>
		<defs>
			<polygon id="SVGID_00000134250510533434057460000016832086578163560579_" points="34.4,102.8 213.7,152.6 213.7,337 34.4,386.8 
							"/>
		</defs>
		<clipPath id="SVGID_00000177469651951802945250000003592071010061729462_">
			<use xlink:href="#SVGID_00000134250510533434057460000016832086578163560579_"  style="overflow:visible;"/>
		</clipPath>
		
			<line id="XMLID_28_" style="clip-path:url(#SVGID_00000177469651951802945250000003592071010061729462_);fill:none;stroke:#000000;stroke-width:6.1326;stroke-miterlimit:10;" x1="83.7" y1="312.6" x2="104.8" y2="309.5"/>
	</g>
	<g>
		<defs>
			<polygon id="SVGID_00000148622303585845293150000018151741120872696763_" points="34.4,102.8 213.7,152.6 213.7,337 34.4,386.8 
							"/>
		</defs>
		<clipPath id="SVGID_00000164476522760530132310000013434667746891273349_">
			<use xlink:href="#SVGID_00000148622303585845293150000018151741120872696763_"  style="overflow:visible;"/>
		</clipPath>
		
			<line id="XMLID_27_" style="clip-path:url(#SVGID_00000164476522760530132310000013434667746891273349_);fill:none;stroke:#000000;stroke-width:5.8593;stroke-miterlimit:10;" x1="135.5" y1="304.6" x2="152.6" y2="302.1"/>
	</g>
	<g>
		<defs>
			<polygon id="SVGID_00000000182427040616514670000009515660970742483868_" points="34.4,102.8 213.7,152.6 213.7,337 34.4,386.8 
							"/>
		</defs>
		<clipPath id="SVGID_00000080169174165188197360000009290215607770684306_">
			<use xlink:href="#SVGID_00000000182427040616514670000009515660970742483868_"  style="overflow:visible;"/>
		</clipPath>
		
			<line id="XMLID_26_" style="clip-path:url(#SVGID_00000080169174165188197360000009290215607770684306_);fill:none;stroke:#000000;stroke-width:5.8593;stroke-miterlimit:10;" x1="176.6" y1="298.6" x2="189.7" y2="296.7"/>
	</g>
	<g>
		<defs>
			<polygon id="SVGID_00000160869449083088155460000011151279214170107290_" points="34.4,102.8 213.7,152.6 213.7,337 34.4,386.8 
							"/>
		</defs>
		<clipPath id="SVGID_00000087390055251139530710000007664235849121715079_">
			<use xlink:href="#SVGID_00000160869449083088155460000011151279214170107290_"  style="overflow:visible;"/>
		</clipPath>
		
			<line id="XMLID_25_" style="clip-path:url(#SVGID_00000087390055251139530710000007664235849121715079_);fill:none;stroke:#000000;stroke-width:7.535;stroke-miterlimit:10;" x1="236.5" y1="289.9" x2="246.3" y2="288.5"/>
	</g>
	<g>
		<defs>
			<polygon id="SVGID_00000075869395614555383780000004840914269247553703_" points="34.4,102.8 213.7,152.6 213.7,337 34.4,386.8 
							"/>
		</defs>
		<clipPath id="SVGID_00000026134054691396160830000014228275142199745457_">
			<use xlink:href="#SVGID_00000075869395614555383780000004840914269247553703_"  style="overflow:visible;"/>
		</clipPath>
		
			<line id="XMLID_24_" style="clip-path:url(#SVGID_00000026134054691396160830000014228275142199745457_);fill:none;stroke:#000000;stroke-width:7.535;stroke-miterlimit:10;" x1="259.9" y1="286.5" x2="268.3" y2="285.2"/>
	</g>
	<g>
		<defs>
			<polygon id="SVGID_00000039100009225772604550000000576563729646567862_" points="34.4,102.8 213.7,152.6 213.7,337 34.4,386.8 
							"/>
		</defs>
		<clipPath id="SVGID_00000099629978241532420650000014303337051171275930_">
			<use xlink:href="#SVGID_00000039100009225772604550000000576563729646567862_"  style="overflow:visible;"/>
		</clipPath>
		
			<line id="XMLID_23_" style="clip-path:url(#SVGID_00000099629978241532420650000014303337051171275930_);fill:none;stroke:#000000;stroke-width:7.535;stroke-miterlimit:10;" x1="279.7" y1="283.6" x2="288.9" y2="282.2"/>
	</g>
	<g>
		<defs>
			<polygon id="SVGID_00000124843374350611205690000011687634143254253217_" points="34.4,102.8 213.7,152.6 213.7,337 34.4,386.8 
							"/>
		</defs>
		<clipPath id="SVGID_00000111175165140486618680000014735327071869397948_">
			<use xlink:href="#SVGID_00000124843374350611205690000011687634143254253217_"  style="overflow:visible;"/>
		</clipPath>
		<g id="XMLID_12_" style="clip-path:url(#SVGID_00000111175165140486618680000014735327071869397948_);">
			<g>
				<defs>
					<path id="SVGID_00000068657901484298961050000003418453954924310972_" d="M289.3,256.8c0,28.3-28.4,58.3-73.5,69.5
						c-62,15.3-132.6-8.7-132.6-59.8s70.5-81.7,132.6-72.2C260.8,201.1,289.3,228.4,289.3,256.8z"/>
				</defs>
				<clipPath id="SVGID_00000154420992101545042720000013624962074086034844_">
					<use xlink:href="#SVGID_00000068657901484298961050000003418453954924310972_"  style="overflow:visible;"/>
				</clipPath>
				<g id="XMLID_17_" style="clip-path:url(#SVGID_00000154420992101545042720000013624962074086034844_);">
					<path id="XMLID_19_" class="st14" d="M208.9,207.7V190l-9.3-24.8l-9.8,21.8v21.8c-4.6,0.7-9.2,1.7-13.9,3v-4.6l-11.2-26.8
						l-12,24.5v15.6c-5.6,2.7-11.3,5.8-17,9.3v-1.7L121.8,199L107,227.1v23.7C22.3,322.3-53.9,471.9-53.9,628.9
						c0,248.9,160.6,227,269.7,75.2c65.6-91.4,102.3-219.1,102.3-313.5c0-60.5-13.8-111.7-38-143.8V234l-5.7-18.5l-6,18
						c-2.7-2.6-5.5-5.1-8.4-7.3v-10.4l-6.7-20.4l-7,19.1v3c-3.1-1.6-6.4-3.1-9.8-4.3v-18.6l-7.8-22.6l-8.2,20.1V209"/>
				</g>
			</g>
		</g>
	</g>
</g>
<g id="XMLID_22_">
	<g>
		<defs>
			<rect id="SVGID_00000007413266107450076280000011362484233426323878_" x="254.6" y="67.7" width="216.7" height="300"/>
		</defs>
		<clipPath id="SVGID_00000116938216553637233200000006607958734405721219_">
			<use xlink:href="#SVGID_00000007413266107450076280000011362484233426323878_"  style="overflow:visible;"/>
		</clipPath>
		<g id="XMLID_49_" style="clip-path:url(#SVGID_00000116938216553637233200000006607958734405721219_);">
			<path id="XMLID_55_" class="st16" d="M212.6,148c-0.5,1-0.9,2.9-0.9,4v196.8c0,1.2,1,2.1,2.1,2.1h28.5c1.2,0,2.1-1,2.1-2.1v-197
				c0-1.2-0.4-3-0.9-4L229,117.3c-0.5-1-1.3-1-1.8,0L212.6,148z"/>
			<path id="XMLID_54_" class="st16" d="M267.1,148c-0.5,1-0.9,2.9-0.9,4v196.8c0,1.2,1,2.1,2.1,2.1h28.5c1.2,0,2.1-1,2.1-2.1v-197
				c0-1.2-0.4-3-0.9-4l-14.6-30.6c-0.5-1-1.3-1-1.8,0L267.1,148z"/>
			<path id="XMLID_53_" class="st16" d="M321.5,179.2c-0.5,1-0.9,2.9-0.9,4v165.6c0,1.2,1,2.1,2.1,2.1h28.5c1.2,0,2.1-1,2.1-2.1
				V183.1c0-1.2-0.4-3-0.9-4l-14.6-30.6c-0.5-1-1.3-1-1.8,0L321.5,179.2z"/>
			<path id="XMLID_52_" class="st16" d="M392.3,179.7c-0.5-1-1.3-1-1.8,0L376,210.5c-0.5,1-0.9,2.9-0.9,4v134.4c0,1.2,1,2.1,2.1,2.1
				h28.5c1.2,0,2.1-1,2.1-2.1V214.3c0-1.2-0.4-3-0.9-4L392.3,179.7z"/>
			<path id="XMLID_51_" class="st16" d="M158.2,179.2c-0.5,1-0.9,2.9-0.9,4v165.6c0,1.2,1,2.1,2.1,2.1h28.5c1.2,0,2.1-1,2.1-2.1
				V183.1c0-1.2-0.4-3-0.9-4l-14.6-30.6c-0.5-1-1.3-1-1.8,0L158.2,179.2z"/>
			<path id="XMLID_50_" class="st16" d="M103.7,210.5c-0.5,1-0.9,2.9-0.9,4v134.4c0,1.2,1,2.1,2.1,2.1h28.5c1.2,0,2.1-1,2.1-2.1
				V214.3c0-1.2-0.4-3-0.9-4L120,179.7c-0.5-1-1.3-1-1.8,0L103.7,210.5z"/>
		</g>
	</g>
	<g>
		<defs>
			<rect id="SVGID_00000039825646563947124260000007023928893545940643_" x="254.6" y="67.7" width="216.7" height="300"/>
		</defs>
		<clipPath id="SVGID_00000169556727417135843420000012592735881392208574_">
			<use xlink:href="#SVGID_00000039825646563947124260000007023928893545940643_"  style="overflow:visible;"/>
		</clipPath>
		
			<line id="XMLID_48_" style="clip-path:url(#SVGID_00000169556727417135843420000012592735881392208574_);fill:none;stroke:#000000;stroke-width:8.2833;stroke-miterlimit:10;" x1="76" y1="308.2" x2="102.8" y2="308.2"/>
	</g>
	<g>
		<defs>
			<rect id="SVGID_00000130645254267002770140000008663619823555248319_" x="254.6" y="67.7" width="216.7" height="300"/>
		</defs>
		<clipPath id="SVGID_00000136383123183894153300000016034205918024796815_">
			<use xlink:href="#SVGID_00000130645254267002770140000008663619823555248319_"  style="overflow:visible;"/>
		</clipPath>
		
			<line id="XMLID_47_" style="clip-path:url(#SVGID_00000136383123183894153300000016034205918024796815_);fill:none;stroke:#000000;stroke-width:8.2833;stroke-miterlimit:10;" x1="135.6" y1="308.2" x2="157.3" y2="308.2"/>
	</g>
	<g>
		<defs>
			<rect id="SVGID_00000182516226416614109460000018291292731409820846_" x="254.6" y="67.7" width="216.7" height="300"/>
		</defs>
		<clipPath id="SVGID_00000114794562681100848110000006214312288025654961_">
			<use xlink:href="#SVGID_00000182516226416614109460000018291292731409820846_"  style="overflow:visible;"/>
		</clipPath>
		
			<line id="XMLID_46_" style="clip-path:url(#SVGID_00000114794562681100848110000006214312288025654961_);fill:none;stroke:#000000;stroke-width:8.2833;stroke-miterlimit:10;" x1="191.3" y1="308.2" x2="211.7" y2="308.2"/>
	</g>
	<g>
		<defs>
			<rect id="SVGID_00000041294658822657710470000011323819774286870914_" x="254.6" y="67.7" width="216.7" height="300"/>
		</defs>
		<clipPath id="SVGID_00000152250256292302401070000003579733167231700388_">
			<use xlink:href="#SVGID_00000041294658822657710470000011323819774286870914_"  style="overflow:visible;"/>
		</clipPath>
		
			<line id="XMLID_45_" style="clip-path:url(#SVGID_00000152250256292302401070000003579733167231700388_);fill:none;stroke:#000000;stroke-width:8.2833;stroke-miterlimit:10;" x1="298.9" y1="308.2" x2="320.6" y2="308.2"/>
	</g>
	<g>
		<defs>
			<rect id="SVGID_00000075847747124827851160000000160593040526892980_" x="254.6" y="67.7" width="216.7" height="300"/>
		</defs>
		<clipPath id="SVGID_00000176034350812589944600000013807077336114391965_">
			<use xlink:href="#SVGID_00000075847747124827851160000000160593040526892980_"  style="overflow:visible;"/>
		</clipPath>
		
			<line id="XMLID_44_" style="clip-path:url(#SVGID_00000176034350812589944600000013807077336114391965_);fill:none;stroke:#000000;stroke-width:8.2833;stroke-miterlimit:10;" x1="353.4" y1="308.2" x2="375.1" y2="308.2"/>
	</g>
	<g>
		<defs>
			<rect id="SVGID_00000072271521361035129140000006479891986093861273_" x="254.6" y="67.7" width="216.7" height="300"/>
		</defs>
		<clipPath id="SVGID_00000137828972079841911900000015149397159669513876_">
			<use xlink:href="#SVGID_00000072271521361035129140000006479891986093861273_"  style="overflow:visible;"/>
		</clipPath>
		
			<line id="XMLID_42_" style="clip-path:url(#SVGID_00000137828972079841911900000015149397159669513876_);fill:none;stroke:#000000;stroke-width:8.2833;stroke-miterlimit:10;" x1="406.7" y1="308.2" x2="434.5" y2="308.2"/>
	</g>
	<g>
		<defs>
			<rect id="SVGID_00000088092330852974164880000003166548550580790444_" x="254.6" y="67.7" width="216.7" height="300"/>
		</defs>
		<clipPath id="SVGID_00000008864441445107035240000007611555057407687586_">
			<use xlink:href="#SVGID_00000088092330852974164880000003166548550580790444_"  style="overflow:visible;"/>
		</clipPath>
		<g id="XMLID_36_" style="clip-path:url(#SVGID_00000008864441445107035240000007611555057407687586_);">
			<g>
				<defs>
					<ellipse id="SVGID_00000029757923901698431060000004964376916247914152_" cx="257.2" cy="257.5" rx="178.2" ry="102.3"/>
				</defs>
				<clipPath id="SVGID_00000183246339483626755030000010422975266785910930_">
					<use xlink:href="#SVGID_00000029757923901698431060000004964376916247914152_"  style="overflow:visible;"/>
				</clipPath>
				<g id="XMLID_39_" style="clip-path:url(#SVGID_00000183246339483626755030000010422975266785910930_);">
					<path id="XMLID_41_" class="st25" d="M244.6,177.3v-26.9L228.2,116l-16.4,34.6V182c-7.3,1.6-14.6,3.7-21.7,6.1v-6.4l-16.4-34.4
						l-16.4,34.6v20.3c-7.4,3.9-14.6,8.2-21.7,12.9V213l-16.4-34.4L103,213v27.6C27.4,309.4-22.4,427.3-22.4,561.2
						c0,212.2,125.2,384.3,279.7,384.3S537,773.5,537,561.2c0-136-51.4-255.5-129-323.8v-24.5l-16.4-34.4l-16.2,34.3
						c-7.1-4.6-14.4-8.7-21.8-12.5v-18.6l-16.4-34.4l-16.4,34.6v5.1c-7.1-2.3-14.4-4.2-21.7-5.7v-30.7L282.7,116l-16.4,34.6v26.5"/>
				</g>
			</g>
		</g>
	</g>
</g>
<g id="XMLID_3_">
	<circle id="XMLID_18_" class="st26" cx="68.4" cy="441.4" r="48.5"/>
	<g id="XMLID_6_">
		<path id="XMLID_7_" d="M68.4,381.1C35,381.1,8,408.2,8,441.5s27,60.4,60.4,60.4s60.4-27,60.4-60.4S101.8,381.1,68.4,381.1z
			 M41.4,474.3c-0.8,0.8-1.8,1.2-2.9,1.2s-2.1-0.5-2.9-1.2c-18.1-18.1-18.1-47.5,0-65.7c1.7-1.7,4.2-1.7,5.9,0s1.7,4.2,0,5.9
			c-14.9,14.9-14.9,39,0,53.9C43.1,470,43.1,472.8,41.4,474.3z M52.2,457.8c1.7,1.7,1.7,4.2,0,5.9c-0.8,0.8-1.8,1.2-2.9,1.2
			c-1.1,0-2.1-0.5-2.9-1.2c-12.1-12.1-12.1-32,0-44.3c1.7-1.7,4.2-1.7,5.9,0s1.7,4.2,0,5.9C43.2,434.2,43.2,448.8,52.2,457.8z
			 M76.6,449.7c-4.6,4.6-11.8,4.6-16.4,0s-4.6-11.8,0-16.4s11.8-4.6,16.4,0C81.2,437.9,81.2,445.2,76.6,449.7z M87.5,464.9
			c-1.1,0-2.1-0.5-2.9-1.2c-1.7-1.7-1.7-4.2,0-5.9c9-9,9-23.5,0-32.5c-1.7-1.7-1.7-4.2,0-5.9c1.7-1.7,4.2-1.7,5.9,0
			c12.1,12.1,12.1,32,0,44.3C89.8,464.4,88.6,464.9,87.5,464.9z M101.2,474.3c-0.8,0.8-1.8,1.2-2.9,1.2s-2.1-0.5-2.9-1.2
			c-1.7-1.7-1.7-4.2,0-5.9c14.9-14.9,14.9-39,0-53.9c-1.7-1.7-1.7-4.2,0-5.9c1.7-1.7,4.2-1.7,5.9,0
			C119.4,426.8,119.4,456.2,101.2,474.3z"/>
	</g>
</g>
<g id="XMLID_20_">
</g>
<g id="XMLID_21_">
</g>
<g id="XMLID_37_">
</g>
<g id="XMLID_40_">
</g>
<g id="XMLID_43_">
</g>
<g id="XMLID_58_">
</g>
</svg>
