<?xml version="1.0" encoding="utf-8"?>
<!-- Generator: Adobe Illustrator 28.2.0, SVG Export Plug-In . SVG Version: 6.00 Build 0)  -->
<svg version="1.1" id="Calque_1" xmlns="http://www.w3.org/2000/svg" xmlns:xlink="http://www.w3.org/1999/xlink" x="0px" y="0px"
	 viewBox="0 0 512 512" style="enable-background:new 0 0 512 512;" xml:space="preserve">
<style type="text/css">
	.st0{fill-rule:evenodd;clip-rule:evenodd;fill:#1D1D1B;}
	.st1{fill-rule:evenodd;clip-rule:evenodd;fill:#282828;}
	.st2{fill-rule:evenodd;clip-rule:evenodd;fill:#33B0DF;}
</style>
<path class="st0" d="M86,188c0-7.7,6.3-14,14-14h312c7.7,0,14,6.3,14,14v308c0,7.7-6.3,14-14,14H100c-7.7,0-14-6.3-14-14V188z
	 M106,194v296h300V194H106z"/>
<path class="st0" d="M126,184c0-5.5,4.5-10,10-10h106c5.5,0,10,4.5,10,10v280.8c0,5.5-4.5,10-10,10H136c-5.5,0-10-4.5-10-10V184z
	 M146,194v260.8h86V194H146z"/>
<path class="st1" d="M264,184c0-5.5,4.5-10,10-10h106c5.5,0,10,4.5,10,10v280.8c0,5.5-4.5,10-10,10H274c-5.5,0-10-4.5-10-10V184z
	 M284,194v260.8h86V194H284z"/>
<path class="st2" d="M98.5,5.2c1.9-2.6,4.9-4.2,8.1-4.2h298.8c3.2,0,6.2,1.5,8.1,4.2l95.6,133c2.2,3,2.5,7.1,0.8,10.4
	c-1.7,3.3-5.1,5.4-8.9,5.4H11c-3.8,0-7.2-2.1-8.9-5.4c-1.7-3.3-1.4-7.4,0.8-10.4L98.5,5.2z M111.7,21L30.5,134h451L400.3,21H111.7z"
	/>
<path class="st2" d="M1,144c0-5.5,4.5-10,10-10h490c5.5,0,10,4.5,10,10v40c0,5.5-4.5,10-10,10H11c-5.5,0-10-4.5-10-10V144z M21,154
	v20h470v-20H21z"/>
</svg>
