<?xml version="1.0" encoding="utf-8"?>
<!-- Generator: Adobe Illustrator 28.2.0, SVG Export Plug-In . SVG Version: 6.00 Build 0)  -->
<svg version="1.1" id="Calque_1" xmlns="http://www.w3.org/2000/svg" xmlns:xlink="http://www.w3.org/1999/xlink" x="0px" y="0px"
	 viewBox="0 0 512 512" style="enable-background:new 0 0 512 512;" xml:space="preserve">
<style type="text/css">
	.st0{fill-rule:evenodd;clip-rule:evenodd;fill:#282828;}
	.st1{fill-rule:evenodd;clip-rule:evenodd;fill:#33B0DF;}
</style>
<path class="st0" d="M86,87c0-7.7,6.3-14,14-14h312c7.7,0,14,6.3,14,14v409c0,7.7-6.3,14-14,14H100c-7.7,0-14-6.3-14-14V87z M106,93
	v397h300V93H106z"/>
<path class="st0" d="M126,83c0-5.5,4.5-10,10-10h106c5.5,0,10,4.5,10,10v381c0,5.5-4.5,10-10,10H136c-5.5,0-10-4.5-10-10V83z
	 M146,93v361h86V93H146z"/>
<path class="st0" d="M264,83c0-5.5,4.5-10,10-10h106c5.5,0,10,4.5,10,10v381c0,5.5-4.5,10-10,10H274c-5.5,0-10-4.5-10-10V83z
	 M284,93v361h86V93H284z"/>
<path class="st1" d="M98.6,5c1.9-2.5,4.9-4,8-4h298.8c3.2,0,6.1,1.5,8,4l23.9,32c2.3,3,2.6,7.1,0.9,10.5c-1.7,3.4-5.2,5.5-8.9,5.5
	H82.7c-3.8,0-7.2-2.1-8.9-5.5c-1.7-3.4-1.3-7.4,0.9-10.5L98.6,5z M111.6,21l-9,12h306.7l-9-12H111.6z"/>
<path class="st1" d="M72.7,43c0-5.5,4.5-10,10-10h346.6c5.5,0,10,4.5,10,10v40c0,5.5-4.5,10-10,10H82.7c-5.5,0-10-4.5-10-10V43z
	 M92.7,53v20h326.6V53H92.7z"/>
</svg>
