<?xml version="1.0" encoding="utf-8"?>
<!-- Generator: Adobe Illustrator 28.2.0, SVG Export Plug-In . SVG Version: 6.00 Build 0)  -->
<svg version="1.1" id="Calque_1" xmlns="http://www.w3.org/2000/svg" xmlns:xlink="http://www.w3.org/1999/xlink" x="0px" y="0px"
	 viewBox="0 0 512 512" style="enable-background:new 0 0 512 512;" xml:space="preserve">
<style type="text/css">
	.st0{fill-rule:evenodd;clip-rule:evenodd;fill:#282828;}
	.st1{fill-rule:evenodd;clip-rule:evenodd;fill:#33B0DF;}
</style>
<path class="st0" d="M1,16C1,10.5,5.5,6,11,6h490c5.5,0,10,4.5,10,10v56c0,5.5-4.5,10-10,10H11C5.5,82,1,77.5,1,72V16z M21,26v36
	h470V26H21z"/>
<path class="st1" d="M256,422.5c5.2,0,9.5,4.3,9.5,9.5v32c0,5.2-4.3,9.5-9.5,9.5c-5.2,0-9.5-4.3-9.5-9.5v-32
	C246.5,426.8,250.7,422.5,256,422.5z"/>
<path class="st1" d="M256,474c-3.3,0-6,2.7-6,6s2.7,6,6,6s6-2.7,6-6S259.3,474,256,474z M230,480c0-14.4,11.6-26,26-26
	c14.4,0,26,11.6,26,26s-11.6,26-26,26C241.6,506,230,494.4,230,480z"/>
<path class="st0" d="M14,432c0-5.5,4.5-10,10-10h464c5.5,0,10,4.5,10,10s-4.5,10-10,10H24C18.5,442,14,437.5,14,432z"/>
<path class="st0" d="M34,72c0-5.5,4.5-10,10-10h424c5.5,0,10,4.5,10,10v360c0,5.5-4.5,10-10,10H44c-5.5,0-10-4.5-10-10V72z M54,82
	v340h404V82H54z"/>
<image style="overflow:visible;" width="16200" height="16200" xlink:href="../../../Downloads/logospiderhome.png"  transform="matrix(1.462963e-02 0 0 1.462963e-02 146.979 122)">
</image>
</svg>
