<?xml version="1.0" encoding="utf-8"?>
<!-- Generator: Adobe Illustrator 28.2.0, SVG Export Plug-In . SVG Version: 6.00 Build 0)  -->
<svg version="1.1" id="Calque_1" xmlns="http://www.w3.org/2000/svg" xmlns:xlink="http://www.w3.org/1999/xlink" x="0px" y="0px"
	 viewBox="0 0 512 512" style="enable-background:new 0 0 512 512;" xml:space="preserve">
<style type="text/css">
	.st0{fill-rule:evenodd;clip-rule:evenodd;fill:#33B0DF;}
	.st1{fill-rule:evenodd;clip-rule:evenodd;fill:#282828;}
</style>
<path class="st0" d="M256,102.5c5.2,0,9.5,4.3,9.5,9.5v32c0,5.2-4.3,9.5-9.5,9.5c-5.2,0-9.5-4.3-9.5-9.5v-32
	C246.5,106.8,250.7,102.5,256,102.5z"/>
<path class="st0" d="M256,154.5c-3.3,0-6,2.6-6,5.9s2.7,5.9,6,5.9s6-2.6,6-5.9S259.3,154.5,256,154.5z M230,160.4
	c0-14.1,11.6-25.6,26-25.6c14.4,0,26,11.4,26,25.6S270.4,186,256,186C241.6,186,230,174.6,230,160.4z"/>
<path class="st1" d="M1,16C1,10.5,5.5,6,11,6h490c5.5,0,10,4.5,10,10v56c0,5.5-4.5,10-10,10H11C5.5,82,1,77.5,1,72V16z M21,26v36
	h470V26H21z"/>
<path class="st1" d="M14,112c0-5.5,4.5-10,10-10h464c5.5,0,10,4.5,10,10s-4.5,10-10,10H24C18.5,122,14,117.5,14,112z"/>
<path class="st1" d="M34,72c0-5.5,4.5-10,10-10h424c5.5,0,10,4.5,10,10v40c0,5.5-4.5,10-10,10H44c-5.5,0-10-4.5-10-10V72z M54,82v20
	h404V82H54z"/>
</svg>
