<?xml version="1.0" encoding="utf-8"?>
<!-- Generator: Adobe Illustrator 28.2.0, SVG Export Plug-In . SVG Version: 6.00 Build 0)  -->
<svg version="1.1" id="Calque_1" xmlns="http://www.w3.org/2000/svg" xmlns:xlink="http://www.w3.org/1999/xlink" x="0px" y="0px"
	 viewBox="0 0 512 512" style="enable-background:new 0 0 512 512;" xml:space="preserve">
<style type="text/css">
	.st0{fill-rule:evenodd;clip-rule:evenodd;fill:#282828;}
	.st1{fill-rule:evenodd;clip-rule:evenodd;fill:#33B0DF;}
</style>
<path class="st0" d="M246,60c0-7.7,6.3-14,14-14h212c7.7,0,14,6.3,14,14v432c0,7.7-6.3,14-14,14H260c-7.7,0-14-6.3-14-14V60z
	 M266,66v420h200V66H266z"/>
<path class="st0" d="M26,60c0-7.7,6.3-14,14-14h212c7.7,0,14,6.3,14,14v432c0,7.7-6.3,14-14,14H40c-7.7,0-14-6.3-14-14V60z M46,66
	v420h200V66H46z"/>
<path class="st1" d="M6,16c0-5.5,4.5-10,10-10h480c5.5,0,10,4.5,10,10v40c0,5.5-4.5,10-10,10H16c-5.5,0-10-4.5-10-10V16z M26,26v20
	h460V26H26z"/>
<path class="st0" d="M110,286c5.5,0,10,4.5,10,10v200c0,5.5-4.5,10-10,10s-10-4.5-10-10V296C100,290.5,104.5,286,110,286z"/>
<path class="st0" d="M182,286c5.5,0,10,4.5,10,10v200c0,5.5-4.5,10-10,10s-10-4.5-10-10V296C172,290.5,176.5,286,182,286z"/>
<path class="st0" d="M330,286c5.5,0,10,4.5,10,10v200c0,5.5-4.5,10-10,10s-10-4.5-10-10V296C320,290.5,324.5,286,330,286z"/>
<path class="st0" d="M402,286c5.5,0,10,4.5,10,10v200c0,5.5-4.5,10-10,10s-10-4.5-10-10V296C392,290.5,396.5,286,402,286z"/>
</svg>
