<?xml version="1.0" encoding="utf-8"?>
<!-- Generator: Adobe Illustrator 28.2.0, SVG Export Plug-In . SVG Version: 6.00 Build 0)  -->
<svg version="1.1" id="Calque_1" xmlns="http://www.w3.org/2000/svg" xmlns:xlink="http://www.w3.org/1999/xlink" x="0px" y="0px"
	 viewBox="0 0 512 512" style="enable-background:new 0 0 512 512;" xml:space="preserve">
<style type="text/css">
	.st0{fill-rule:evenodd;clip-rule:evenodd;fill:#282828;}
	.st1{fill-rule:evenodd;clip-rule:evenodd;fill:#33B0DF;}
</style>
<path class="st0" d="M54,60c0-7.7,6.3-14,14-14h56c7.7,0,14,6.3,14,14v433.9c0,9.1-8.6,15.8-17.4,13.6l-56-14
	c-6.2-1.6-10.6-7.2-10.6-13.6V60z M74,66v409.2l44,11V66H74z"/>
<path class="st0" d="M118,60c0-7.7,6.3-14,14-14h56c7.7,0,14,6.3,14,14v433.9c0,9.1-8.6,15.8-17.4,13.6l-56-14
	c-6.2-1.6-10.6-7.2-10.6-13.6V60z M138,66v409.2l44,11V66H138z"/>
<path class="st0" d="M182,60c0-7.7,6.3-14,14-14h56c7.7,0,14,6.3,14,14v433.9c0,9.1-8.6,15.8-17.4,13.6l-56-14
	c-6.2-1.6-10.6-7.2-10.6-13.6V60z M202,66v409.2l44,11V66H202z"/>
<path class="st0" d="M246,60c0-7.7,6.3-14,14-14h56c7.7,0,14,6.3,14,14v433.9c0,9.1-8.6,15.8-17.4,13.6l-56-14
	c-6.2-1.6-10.6-7.2-10.6-13.6V60z M266,66v409.2l44,11V66H266z"/>
<path class="st0" d="M310,60c0-7.7,6.3-14,14-14h56c7.7,0,14,6.3,14,14v433.9c0,9.1-8.6,15.8-17.4,13.6l-56-14
	c-6.2-1.6-10.6-7.2-10.6-13.6V60z M330,66v409.2l44,11V66H330z"/>
<path class="st0" d="M374,60c0-7.7,6.3-14,14-14h56c7.7,0,14,6.3,14,14v433.9c0,9.1-8.6,15.8-17.4,13.6l-56-14
	c-6.2-1.6-10.6-7.2-10.6-13.6V60z M394,66v409.2l44,11V66H394z"/>
<path class="st1" d="M6,16c0-5.5,4.5-10,10-10h480c5.5,0,10,4.5,10,10v40c0,5.5-4.5,10-10,10H16c-5.5,0-10-4.5-10-10V16z M26,26v20
	h460V26H26z"/>
</svg>
