<?xml version="1.0" encoding="utf-8"?>
<!-- Generator: Adobe Illustrator 28.2.0, SVG Export Plug-In . SVG Version: 6.00 Build 0)  -->
<svg version="1.1" id="Calque_1" xmlns="http://www.w3.org/2000/svg" xmlns:xlink="http://www.w3.org/1999/xlink" x="0px" y="0px"
	 viewBox="0 0 512 512" style="enable-background:new 0 0 512 512;" xml:space="preserve">
<style type="text/css">
	.st0{fill-rule:evenodd;clip-rule:evenodd;fill:#282828;}
	.st1{fill-rule:evenodd;clip-rule:evenodd;fill:#33B0DF;}
</style>
<path class="st0" d="M90,60c0-7.7,6.3-14,14-14h348c7.7,0,14,6.3,14,14v392c0,7.7-6.3,14-14,14H104c-7.7,0-14-6.3-14-14V60z M110,66
	v380h336V66H110z"/>
<path class="st0" d="M26,60c0-7.7,6.3-14,14-14h24c7.7,0,14,6.3,14,14v437.5c0,10.4-11,17.2-20.3,12.5l-24-12
	c-4.7-2.4-7.7-7.2-7.7-12.5V60z M46,66v415.8l12,6V66H46z"/>
<path class="st0" d="M58,60c0-7.7,6.3-14,14-14h24c7.7,0,14,6.3,14,14v437.5c0,10.4-11,17.2-20.3,12.5l-24-12
	c-4.7-2.4-7.7-7.2-7.7-12.5V60z M78,66v415.8l12,6V66H78z"/>
<path class="st0" d="M90,56c0-5.5,4.5-10,10-10h138c5.5,0,10,4.5,10,10v360c0,5.5-4.5,10-10,10H100c-5.5,0-10-4.5-10-10V56z M110,66
	v340h118V66H110z"/>
<path class="st0" d="M264,56c0-5.5,4.5-10,10-10h140c5.5,0,10,4.5,10,10v360c0,5.5-4.5,10-10,10H274c-5.5,0-10-4.5-10-10V56z
	 M284,66v340h120V66H284z"/>
<path class="st1" d="M6,16c0-5.5,4.5-10,10-10h480c5.5,0,10,4.5,10,10v40c0,5.5-4.5,10-10,10H16c-5.5,0-10-4.5-10-10V16z M26,26v20
	h460V26H26z"/>
</svg>
