<?xml version="1.0" encoding="utf-8"?>
<!-- Generator: Adobe Illustrator 28.2.0, SVG Export Plug-In . SVG Version: 6.00 Build 0)  -->
<svg version="1.1" id="Calque_1" xmlns="http://www.w3.org/2000/svg" xmlns:xlink="http://www.w3.org/1999/xlink" x="0px" y="0px"
	 viewBox="0 0 512 512" style="enable-background:new 0 0 512 512;" xml:space="preserve">
<style type="text/css">
	.st0{fill:#33B0DF;}
	.st1{fill:#282828;}
	.st2{fill-rule:evenodd;clip-rule:evenodd;fill:#282828;}
</style>
<path class="st0" d="M155,441.8c17.8,0,32.3-10,32.3-22.4S172.8,397,155,397s-32.3,10-32.3,22.4S137.2,441.8,155,441.8z"/>
<path class="st0" d="M356.6,441.8c17.8,0,32.3-10,32.3-22.4S374.4,397,356.6,397c-17.8,0-32.3,10-32.3,22.4S338.8,441.8,356.6,441.8
	z"/>
<path class="st1" d="M374.8,503.7c-6.5,0-12.9,0-19.5,0c-5.5,0-9.4-3.6-9.8-9c-0.2-3.3-0.2-3.4-3.5-3.6c-4.4-0.4-8.9-0.7-13.4-0.9
	c-9.7-0.4-19.4-0.6-29.1-0.9c-26.2-0.7-52.5-0.6-78.8-0.3c-17.2,0.2-34.4,0.7-51.7,2.2c-1.7,0.1-2.5,0.7-2.4,2.6
	c0.2,6-4.8,10.4-10.6,10.1c-12.7-0.3-25.4-0.3-38,0c-5.5,0.1-9.9-5.1-9.8-9.7c0.1-8.7,0.4-17.3-0.3-26c-0.8-9.6-1.5-19.4-2.4-29
	c-0.7-9.5-0.7-19,0.1-28.5c0.5-5.2,1-10.5,2.6-15.5c2.3-7.2,5.3-13.9,11.4-18.8c1.2-1,0.7-1.4-0.4-1.9c-4.2-1.8-8.3-3.9-11.1-7.7
	c-3.9-5.4-3.7-8.9,2.9-12.5c4.7-2.7,10-3.3,15.4-4c3.1-0.4,6.2-0.5,9.2-0.8c1.8-0.2,3.2,0.4,4.3,1.9c1,1.3,2,2.6,3.1,3.9
	c0.8,1.2,1.4,1.1,1.9-0.3c1.9-5.4,4.2-10.7,6.7-15.8c4.4-9.3,8.9-18.7,15.3-26.9c3.6-4.6,8.4-7.6,14.1-8.7
	c14.4-2.9,28.8-4.9,43.4-5.9c10.8-0.7,21.4-1.5,32.2-1.5c24.3,0,48.4,2.5,72.4,6.9c8.6,1.5,15.1,6.3,19.7,13.5
	c7.5,11.8,13.4,24.4,18.5,37.4c0.2,0.4,0.3,0.9,0.5,1.3c0.4,1.1,1,1.1,1.7,0.2c1.1-1.4,2.3-3,3.4-4.4c0.7-0.9,1.5-1.5,2.8-1.5
	c8.5,0.4,16.9,1,24.9,4.3c0.4,0.2,0.7,0.3,1.1,0.5c5.4,2.9,6.6,7.1,3,12.1c-2.8,3.9-6.9,6.2-11.1,8c-2.2,0.9-2.2,0.9-0.5,2.4
	c7.4,6.4,10.7,14.9,12.3,24.2c2.2,12.2,2.2,24.5,1.4,36.9c-1,18.7-3.7,37.2-2.8,56c0.2,3.8-1.3,6.7-4.4,8.8
	c-1.3,0.9-2.8,1.4-4.4,1.4C388.3,503.6,381.6,503.6,374.8,503.7C374.8,503.6,374.8,503.6,374.8,503.7z M253.7,311.8
	c-3.1,0.3-8.4,0-13.7,0.3c-5.1,0.3-10.1,0.6-15.3,1c-12.3,0.9-24.5,3-36.7,4.7c-4.8,0.7-8.6,2.5-11.2,6.8
	c-6.5,10.7-11.9,21.7-16.4,33.3c-0.7,1.8-0.5,2,1.4,1.8c7.4-0.9,14.8-1.4,22.2-1.7c12.3-0.5,24.6-1.1,37-1.2
	c22.6-0.2,45.1-0.4,67.7,0.2c11.9,0.3,23.9,0.4,35.8,0.9c8.5,0.4,17,0.9,25.5,1.8c2.2,0.2,2.5,0,1.6-1.9
	c-3.9-10.1-8.8-19.8-13.9-29.3c-3.5-6.4-8.1-9.7-15.5-11C300.3,314,278.2,311.8,253.7,311.8z M155.1,434.4c4.5-0.1,9,0.1,13.4-0.1
	c6-0.3,8.7-4.5,6.8-10.1c-2.1-5.7-6.3-9-12.1-10c-9.4-1.6-19-3-28.5-3.8c-6.4-0.5-9.5,3.7-7.9,9.7c0.5,1.8,1.3,3.5,2.1,5.2
	c2.8,6,7.5,9,14,9.1C146.9,434.5,151,434.4,155.1,434.4z M357.2,434.5C357.2,434.4,357.2,434.4,357.2,434.5c3.6,0,7.2,0,10.8,0
	c1.2,0,2.5-0.1,3.7-0.2c8.7-0.9,13-9.2,13.9-16.1c0.7-4.9-1.5-7.4-6.5-7.9c-0.9-0.1-1.9,0-2.9,0.1c-3.1,0.3-6.2,0.6-9.2,1
	c-6.4,0.9-12.8,1.3-19,2.9c-5.5,1.3-9.2,4.7-11.1,10.1c-1.6,5,0.6,8.9,5.8,9.8c1.2,0.2,2.5,0.2,3.7,0.3
	C350,434.5,353.6,434.5,357.2,434.5z M351.7,445.7c-4.7,0-9.5,0-14.2,0c-1.4,0-2.9,0.2-4.2,1c-3,1.8-2.9,5.5,0.1,7.2
	c1.2,0.7,2.7,1.1,4.2,1.1c9.4,0,18.9,0.1,28.3,0c1.9,0,3.8-0.5,5.3-1.8c2.2-1.9,2.1-4.4-0.4-6c-1.4-0.9-3-1.4-4.7-1.4
	C361.4,445.7,356.6,445.7,351.7,445.7z M160.4,445.6c-4.5,0-8.9,0-13.4,0c-1.4,0-2.9,0.1-4.2,0.8c-1.6,0.7-2.7,1.9-2.8,3.8
	c-0.1,1.9,1,3.1,2.6,3.9c1.3,0.6,2.8,1,4.2,1c9.2,0,18.5,0,27.7,0c1.9,0,3.7-0.6,5.2-1.6c2.5-1.7,2.5-4.4,0-6.2
	c-1.7-1.2-3.8-1.6-5.8-1.6C169.4,445.6,164.9,445.6,160.4,445.6z"/>
<path class="st2" d="M46,194c0-5.5,4.5-10,10-10h400c5.5,0,10,4.5,10,10v44c0,5.5-4.5,10-10,10H56c-5.5,0-10-4.5-10-10V194z M66,204
	v24h380v-24H66z"/>
<path class="st2" d="M250.5,1.6c3.3-2.2,7.6-2.2,10.9,0l240,157c2.8,1.8,4.5,5,4.5,8.4v335c0,5.5-4.5,10-10,10h-40
	c-5.5,0-10-4.5-10-10V204H66v299c0,5.5-4.5,9-10,9H16c-5.5,0-10-4.5-10-10V167c0-3.4,1.7-6.5,4.5-8.4L250.5,1.6z M26,172.4V492h20
	V194c0-5.5,4.5-10,10-10h400c5.5,0,10,4.5,10,10v298h20V172.4L256,21.9L26,172.4z"/>
</svg>
