<?xml version="1.0" encoding="utf-8"?>
<!-- Generator: Adobe Illustrator 28.2.0, SVG Export Plug-In . SVG Version: 6.00 Build 0)  -->
<svg version="1.1" id="Calque_1" xmlns="http://www.w3.org/2000/svg" xmlns:xlink="http://www.w3.org/1999/xlink" x="0px" y="0px"
	 viewBox="0 0 512 512" style="enable-background:new 0 0 512 512;" xml:space="preserve">
<style type="text/css">
	.st0{fill-rule:evenodd;clip-rule:evenodd;fill:#282828;}
	.st1{fill:#33B0DF;}
</style>
<path class="st0" d="M453.5,74c-5.5,0-10,4.5-10,10v18h-189v0c-84.1,1.1-152,69.6-152,154c0,10.3,1,20.3,2.9,30H68.5v-18
	c0-5.5-4.5-10-10-10h-48c-5.5,0-10,4.5-10,10l0,160c0,5.5,4.5,10,10,10h48c5.5,0,10-4.5,10-10v-18h186.6v0c0.5,0,0.9,0,1.4,0
	c85.1,0,154-68.9,154-154c0-10.3-1-20.3-2.9-30h35.9v18c0,5.5,4.5,10,10,10h48c5.5,0,10-4.5,10-10V84c0-5.5-4.5-10-10-10H453.5z
	 M402.2,206h41.3v-84H332.4C364.9,140.4,389.9,170.2,402.2,206z M180.6,390c-32.4-18.4-57.5-48.2-69.8-84H68.5v84H180.6z M463.5,94
	h28v140h-28V94z M48.5,400L48.5,400v18h-28V278h28v18v0V400z M256.5,122c-74,0-134,60-134,134s60,134,134,134s134-60,134-134
	S330.5,122,256.5,122z"/>
<path class="st1" d="M296,256c0,22.1-17.9,40-40,40s-40-17.9-40-40s17.9-40,40-40S296,233.9,296,256z"/>
</svg>
