<?xml version="1.0" encoding="utf-8"?>
<!-- Generator: Adobe Illustrator 28.2.0, SVG Export Plug-In . SVG Version: 6.00 Build 0)  -->
<svg version="1.1" id="Calque_1" xmlns="http://www.w3.org/2000/svg" xmlns:xlink="http://www.w3.org/1999/xlink" x="0px" y="0px"
	 viewBox="0 0 512 512" style="enable-background:new 0 0 512 512;" xml:space="preserve">
<style type="text/css">
	.st0{fill-rule:evenodd;clip-rule:evenodd;fill:#282828;}
	.st1{fill-rule:evenodd;clip-rule:evenodd;fill:#33B0DF;}
	.st2{fill-rule:evenodd;clip-rule:evenodd;fill:#EB3A28;}
</style>
<path class="st0" d="M4,76c0-5.5,4.5-10,10-10h484c5.5,0,10,4.5,10,10v360c0,5.5-4.5,10-10,10H14c-5.5,0-10-4.5-10-10V76z M24,86
	v340h464V86H24z"/>
<path class="st1" d="M184,278.8v114h20v-114l80.6,80.6l14.1-14.1l-80.6-80.6h114v-20h-114l80.6-80.6l-14.1-14.1L204,230.5v-114h-20
	v114l-80.6-80.6L89.2,164l80.6,80.6h-114v20h114l-80.6,80.6l14.1,14.1L184,278.8z"/>
<path class="st0" d="M194,126c-71.8,0-130,58.2-130,130s58.2,130,130,130s130-58.2,130-130S265.8,126,194,126z M44,256
	c0-82.8,67.2-150,150-150s150,67.2,150,150s-67.2,150-150,150S44,338.8,44,256z"/>
<path class="st0" d="M194,166c-49.7,0-90,40.3-90,90s40.3,90,90,90s90-40.3,90-90S243.7,166,194,166z M84,256
	c0-60.8,49.2-110,110-110s110,49.2,110,110s-49.2,110-110,110S84,316.8,84,256z"/>
<path class="st0" d="M194,206c-27.6,0-50,22.4-50,50s22.4,50,50,50s50-22.4,50-50S221.6,206,194,206z M124,256c0-38.7,31.3-70,70-70
	s70,31.3,70,70s-31.3,70-70,70S124,294.7,124,256z"/>
<path class="st0" d="M194,246c-5.5,0-10,4.5-10,10c0,5.5,4.5,10,10,10s10-4.5,10-10C204,250.5,199.5,246,194,246z M164,256
	c0-16.6,13.4-30,30-30s30,13.4,30,30s-13.4,30-30,30S164,272.6,164,256z"/>
<path class="st0" d="M367,172c0-5.5,4.5-10,10-10h80c5.5,0,10,4.5,10,10s-4.5,10-10,10h-80C371.5,182,367,177.5,367,172z"/>
<path class="st0" d="M367,228c0-5.5,4.5-10,10-10h80c5.5,0,10,4.5,10,10s-4.5,10-10,10h-80C371.5,238,367,233.5,367,228z"/>
<path class="st0" d="M367,284c0-5.5,4.5-10,10-10h80c5.5,0,10,4.5,10,10s-4.5,10-10,10h-80C371.5,294,367,289.5,367,284z"/>
<path class="st0" d="M367,340c0-5.5,4.5-10,10-10h80c5.5,0,10,4.5,10,10s-4.5,10-10,10h-80C371.5,350,367,345.5,367,340z"/>
<path class="st2" d="M389.9,27.3c4.8,2.7,6.5,8.8,3.8,13.6l-5.2,9.2c-3.4,6.1-2.2,13.8,3.1,18.4c12.3,10.9,15.3,28.9,7.2,43.2
	l-5.2,9.2c-2.7,4.8-8.8,6.5-13.6,3.8c-4.8-2.7-6.5-8.8-3.8-13.6l5.2-9.2c3.4-6.1,2.2-13.8-3.1-18.4c-12.3-10.9-15.3-28.9-7.2-43.2
	l5.2-9.2C379,26.3,385.1,24.6,389.9,27.3z"/>
<path class="st2" d="M421.9,27.3c4.8,2.7,6.5,8.8,3.8,13.6l-5.2,9.2c-3.4,6.1-2.2,13.8,3.1,18.4c12.3,10.9,15.3,28.9,7.2,43.2
	l-5.2,9.2c-2.7,4.8-8.8,6.5-13.6,3.8c-4.8-2.7-6.5-8.8-3.8-13.6l5.2-9.2c3.4-6.1,2.2-13.8-3.1-18.4c-12.3-10.9-15.3-28.9-7.2-43.2
	l5.2-9.2C411,26.3,417.1,24.6,421.9,27.3z"/>
<path class="st2" d="M453.9,27.3c4.8,2.7,6.5,8.8,3.8,13.6l-5.2,9.2c-3.4,6.1-2.2,13.8,3.1,18.4c12.3,10.9,15.3,28.9,7.2,43.2
	l-5.2,9.2c-2.7,4.8-8.8,6.5-13.6,3.8c-4.8-2.7-6.5-8.8-3.8-13.6l5.2-9.2c3.4-6.1,2.2-13.8-3.1-18.4c-12.3-10.9-15.3-28.9-7.2-43.2
	l5.2-9.2C443,26.3,449.1,24.6,453.9,27.3z"/>
</svg>
