<?xml version="1.0" encoding="utf-8"?>
<!-- Generator: Adobe Illustrator 28.2.0, SVG Export Plug-In . SVG Version: 6.00 Build 0)  -->
<svg version="1.1" id="Calque_1" xmlns="http://www.w3.org/2000/svg" xmlns:xlink="http://www.w3.org/1999/xlink" x="0px" y="0px"
	 viewBox="0 0 512 512" style="enable-background:new 0 0 512 512;" xml:space="preserve">
<style type="text/css">
	.st0{fill-rule:evenodd;clip-rule:evenodd;fill:#33B0DF;}
	.st1{fill-rule:evenodd;clip-rule:evenodd;fill:#282828;}
</style>
<path class="st0" d="M166,179.9c0-5.5,4.5-10,10-10h160c5.5,0,10,4.5,10,10v64c0,5.5-4.5,10-10,10H176c-5.5,0-10-4.5-10-10V179.9z
	 M186,189.9v44h140v-44H186z"/>
<path class="st1" d="M236,3c-5.5,0-10,4.5-10,10v38h-30c-5.5,0-10,4.5-10,10v30h-58c-23.2,0-42,18.8-42,42v288
	c0,22.5,17.7,40.9,40,42v38c0,5.5,4.5,10,10,10h40c5.5,0,10-4.5,10-10v-38h140v38c0,5.5,4.5,10,10,10h40c5.5,0,10-4.5,10-10v-38
	c22.3-1,40-19.4,40-42V133c0-23.2-18.8-42-42-42h-58V61c0-5.5-4.5-10-10-10h-30V13c0-5.5-4.5-10-10-10H236z M366,463h-20v28h20V463z
	 M376,443h8c12.1,0,22-9.9,22-22V133c0-12.2-9.9-22-22-22h-68H196h-68c-12.2,0-22,9.8-22,22v288c0,12.1,9.8,22,22,22h8h40h160H376z
	 M146,491v-28h20v28H146z M266,51V23h-20v28H266z M236,71h-30v20h100V71h-30H236z"/>
<path class="st1" d="M235.8,327.8c-9.8,11-16.2,25.6-16.2,39.9c0,14.8,4.4,23.2,9,27.9c0.2-3,0.8-5.9,1.8-8.9
	c3.4-9.9,10.9-18.5,19.8-26c3.8-3.2,9.4-3.2,13.1,0.1c8,7.1,15.6,16,19.2,26c1,2.8,1.7,5.8,2,8.9c4.1-4.1,7.9-11.1,7.9-23.4
	c0-4.9-1.8-8.4-5-12c-2.6-2.9-5.6-5.3-9.3-8.1c-1.6-1.3-3.3-2.6-5.2-4.1c-5.5-4.6-12-10.6-15.5-19.3c-1.9-4.7-2.7-9.9-2.4-15.4
	C248.4,316.3,241.8,321.2,235.8,327.8z M220.9,314.6c12.3-13.9,29.4-24.1,47.1-24.1c3.3,0,6.3,1.6,8.2,4.3s2.3,6.1,1.2,9.2
	c-3.3,8.9-2.7,14.1-1.4,17.5c1.5,3.8,4.6,7.1,9.6,11.3c1.1,0.9,2.3,1.8,3.6,2.9c4.1,3.2,9.1,7.1,13,11.4
	c5.7,6.3,10.2,14.4,10.2,25.4c0,18.4-6.5,31.3-15.9,39.5c-9.1,7.9-20,10.6-27.9,10.6c-4,0-7.6-2.4-9.2-6.1c-1.6-3.7-0.8-7.9,2-10.8
	c2-2.1,2.8-4,3.1-5.6c0.3-1.7,0.1-3.8-0.8-6.4c-1.2-3.5-3.7-7.4-7.1-11.3c-3.7,4-6.1,7.7-7.1,10.9c-1.4,4.1-1.1,8.2,2.6,13.5
	c2.2,3.1,2.4,7,0.7,10.4c-1.7,3.3-5.1,5.4-8.9,5.4c-8.9,0-20-3.5-29-12.4c-9.1-9.1-15.2-23-15.2-42.3
	C199.6,347.7,208.5,328.6,220.9,314.6z"/>
</svg>
