<?xml version="1.0" encoding="utf-8"?>
<!-- Generator: Adobe Illustrator 28.2.0, SVG Export Plug-In . SVG Version: 6.00 Build 0)  -->
<svg version="1.1" id="Calque_1" xmlns="http://www.w3.org/2000/svg" xmlns:xlink="http://www.w3.org/1999/xlink" x="0px" y="0px"
	 viewBox="0 0 512 512" style="enable-background:new 0 0 512 512;" xml:space="preserve">
<style type="text/css">
	.st0{clip-path:url(#SVGID_00000134250781547787165890000010788712612015415174_);}
	.st1{fill-rule:evenodd;clip-rule:evenodd;fill:#282828;}
	.st2{fill-rule:evenodd;clip-rule:evenodd;fill:#33B0DF;}
</style>
<g>
	<defs>
		<rect id="SVGID_1_" y="0" width="512" height="512"/>
	</defs>
	<clipPath id="SVGID_00000119076938998918091010000016908096997699697855_">
		<use xlink:href="#SVGID_1_"  style="overflow:visible;"/>
	</clipPath>
	<g style="clip-path:url(#SVGID_00000119076938998918091010000016908096997699697855_);">
		<path class="st1" d="M14,66C8.5,66,4,70.5,4,76v360c0,5.5,4.5,10,10,10h360h124c5.5,0,10-4.5,10-10V76c0-5.5-4.5-10-10-10H374H14z
			 M384,86v340h104V86H384z M364,86H24v340h340V86z"/>
		<path class="st2" d="M184,278.8v114h20v-114l80.6,80.6l14.1-14.1l-80.6-80.6h114v-20h-114l80.6-80.6l-14.1-14.1L204,230.5v-114
			h-20v114l-80.6-80.6L89.2,164l80.6,80.6h-114v20h114l-80.6,80.6l14.1,14.1L184,278.8z"/>
		<path class="st1" d="M103.1,478.3c1.9-5.2,7.6-7.9,12.8-6.1c24.4,8.7,50.7,13.5,78.1,13.5c27.4,0,53.7-4.7,78.1-13.5
			c5.2-1.9,10.9,0.9,12.8,6.1c1.9,5.2-0.9,10.9-6.1,12.8c-26.5,9.5-55.1,14.6-84.8,14.6s-58.3-5.2-84.8-14.6
			C104,489.2,101.3,483.5,103.1,478.3z"/>
		<path class="st1" d="M82.6,473.7c-1.4-5.3,1.7-10.8,7.1-12.2l30.9-8.3c5.3-1.4,10.8,1.7,12.2,7.1c1.4,5.3-1.7,10.8-7.1,12.2
			l-21.3,5.7l5.7,21.2c1.4,5.3-1.7,10.8-7.1,12.2c-5.3,1.4-10.8-1.7-12.2-7.1L82.6,473.7z"/>
		<path class="st1" d="M264.6,33.7c-1.9,5.2-7.6,7.9-12.8,6.1c-24.4-8.7-50.7-13.5-78.1-13.5c-27.4,0-53.7,4.7-78.1,13.5
			c-5.2,1.9-10.9-0.9-12.8-6.1c-1.9-5.2,0.9-10.9,6.1-12.8c26.5-9.5,55.1-14.6,84.8-14.6s58.3,5.2,84.8,14.6
			C263.7,22.8,266.4,28.5,264.6,33.7z"/>
		<path class="st1" d="M285.1,38.3c1.4,5.3-1.7,10.8-7.1,12.2l-30.9,8.3c-5.3,1.4-10.8-1.7-12.2-7.1c-1.4-5.3,1.7-10.8,7.1-12.2
			l21.3-5.7l-5.7-21.3c-1.4-5.3,1.7-10.8,7.1-12.2c5.3-1.4,10.8,1.7,12.2,7.1L285.1,38.3z"/>
		<path class="st1" d="M194,126c-71.8,0-130,58.2-130,130s58.2,130,130,130s130-58.2,130-130S265.8,126,194,126z M44,256
			c0-82.8,67.2-150,150-150s150,67.2,150,150s-67.2,150-150,150S44,338.8,44,256z"/>
	</g>
</g>
</svg>
