<?xml version="1.0" encoding="utf-8"?>
<!-- Generator: Adobe Illustrator 28.2.0, SVG Export Plug-In . SVG Version: 6.00 Build 0)  -->
<svg version="1.1" id="Calque_1" xmlns="http://www.w3.org/2000/svg" xmlns:xlink="http://www.w3.org/1999/xlink" x="0px" y="0px"
	 viewBox="0 0 512 512" style="enable-background:new 0 0 512 512;" xml:space="preserve">
<style type="text/css">
	.st0{fill-rule:evenodd;clip-rule:evenodd;fill:#33B0DF;}
	.st1{fill-rule:evenodd;clip-rule:evenodd;fill:#282828;}
</style>
<path class="st0" d="M166,179.9c0-5.5,4.5-10,10-10h160c5.5,0,10,4.5,10,10v64c0,5.5-4.5,10-10,10H176c-5.5,0-10-4.5-10-10V179.9z
	 M186,189.9v44h140v-44H186z"/>
<path class="st1" d="M236,3c-5.5,0-10,4.5-10,10v38h-30c-5.5,0-10,4.5-10,10v30h-58c-23.2,0-42,18.8-42,42v288
	c0,22.5,17.7,40.9,40,42v38c0,5.5,4.5,10,10,10h40c5.5,0,10-4.5,10-10v-38h140v38c0,5.5,4.5,10,10,10h40c5.5,0,10-4.5,10-10v-38
	c22.3-1,40-19.4,40-42V133c0-23.2-18.8-42-42-42h-58V61c0-5.5-4.5-10-10-10h-30V13c0-5.5-4.5-10-10-10H236z M366,463h-20v28h20V463z
	 M376,443h8c12.1,0,22-9.9,22-22V133c0-12.2-9.9-22-22-22h-68H196h-68c-12.2,0-22,9.8-22,22v288c0,12.1,9.8,22,22,22h8h40h160H376z
	 M146,491v-28h20v28H146z M266,51V23h-20v28H266z M236,71h-30v20h100V71h-30H236z"/>
</svg>
