<?xml version="1.0" encoding="utf-8"?>
<!-- Generator: Adobe Illustrator 28.2.0, SVG Export Plug-In . SVG Version: 6.00 Build 0)  -->
<svg version="1.1" id="Calque_1" xmlns="http://www.w3.org/2000/svg" xmlns:xlink="http://www.w3.org/1999/xlink" x="0px" y="0px"
	 viewBox="0 0 512 512" style="enable-background:new 0 0 512 512;" xml:space="preserve">
<style type="text/css">
	.st0{fill:#33B0DF;}
	.st1{fill:#282828;}
</style>
<path class="st0" d="M14.5,261.9h21.3l31.9-20.2l42.3,22l37.7-18.5l42.9,18.5l43.5-22l35.6,24.6l38-24l42.6,21.4l38-22l42.9,22
	l33.3-18.8l21.1-2.6l13.8,21.4v65.6l-42.2,36.1l-57,22.2l-293.7-3.7l-73.8-29.3l-20.7-31.3L14.5,261.9z"/>
<path class="st1" d="M401,131.5H210v-36c0-2.7-1.1-5.2-2.9-7.1c-1.9-1.9-4.4-2.9-7.1-2.9h-72c-2.7,0-5.2,1.1-7.1,2.9
	c-1.9,1.9-2.9,4.4-2.9,7.1v36h-7c-29.2,0-57.1,11.6-77.7,32.3C12.6,184.4,1,212.3,1,241.5v46c0,29.2,11.6,57.1,32.3,77.7
	c20.6,20.6,48.6,32.2,77.7,32.3h7v19c0,2.7,1.1,5.2,2.9,7.1s4.4,2.9,7.1,2.9h72c2.7,0,5.2-1.1,7.1-2.9s2.9-4.4,2.9-7.1v-19h92v19
	c0,2.7,1.1,5.2,2.9,7.1s4.4,2.9,7.1,2.9h72c2.7,0,5.2-1.1,7.1-2.9s2.9-4.4,2.9-7.1v-19h7c29.2,0,57.1-11.6,77.7-32.3
	c20.6-20.6,32.2-48.6,32.3-77.7v-46c0-29.2-11.6-57.1-32.3-77.7C458.1,143.1,430.2,131.5,401,131.5z M118,377.5h-7
	c-23.9,0-46.7-9.5-63.6-26.4C30.5,334.2,21,311.4,21,287.5v-46c0-23.9,9.5-46.7,26.4-63.6c16.9-16.9,39.7-26.4,63.6-26.4h7V377.5z
	 M138,105.5h52v26h-52V105.5z M190,406.5h-52v-9h52V406.5z M138,377.5v-226h235v226H138z M374,406.5h-52v-9h52V406.5z M491,287.5
	c0,23.9-9.5,46.7-26.4,63.6c-16.9,16.9-39.7,26.4-63.6,26.4h-8v-226h8c23.9,0,46.7,9.5,63.6,26.4c16.9,16.9,26.4,39.7,26.4,63.6
	V287.5z"/>
<path class="st1" d="M3.9,263.1c-1.1-1.1-2-2-2.9-2.8v-22.8c8,2.4,13.1,7.5,17.1,11.5c4.9,4.9,7.3,7.1,12.9,7.1s8-2.2,12.9-7.1
	C49.4,243.5,56.9,236,71,236c14.1,0,21.6,7.5,27.1,12.9l0,0c4.9,4.9,7.3,7.1,12.9,7.1c5.6,0,8-2.2,12.9-7.1
	c5.4-5.5,12.9-12.9,27.1-12.9c14.1,0,21.6,7.4,27,12.9l0,0c4.9,4.9,7.3,7.1,12.9,7.1c5.6,0,8-2.2,12.9-7.1
	c5.4-5.5,12.9-12.9,27.1-12.9c14.1,0,21.6,7.5,27.1,12.9c1.1,1.1,2,2,2.9,2.9l0,22.8c-8-2.4-13.1-7.5-17.1-11.5
	c-4.9-4.9-7.3-7.1-12.9-7.1c-5.6,0-8,2.2-12.9,7.1l0,0c-5.5,5.5-12.9,12.9-27,12.9c-14.2,0-21.6-7.5-27.1-12.9
	c-4.9-4.9-7.3-7.1-12.9-7.1c-5.6,0-8,2.2-12.9,7.1c-5.4,5.5-12.9,12.9-27.1,12.9c-14.2,0-21.6-7.5-27.1-12.9
	C79,258.2,76.6,256,71,256c-5.6,0-8,2.2-12.9,7.1C52.6,268.5,45.1,276,31,276S9.4,268.5,3.9,263.1z"/>
<path class="st1" d="M163.9,263.1c-1.1-1.1-2-2-2.9-2.8v-22.8c8,2.4,13.1,7.5,17.1,11.5c4.9,4.9,7.3,7.1,12.9,7.1s8-2.2,12.9-7.1
	c5.5-5.5,12.9-12.9,27.1-12.9c14.1,0,21.6,7.5,27.1,12.9l0,0c4.9,4.9,7.3,7.1,12.9,7.1c5.6,0,8-2.2,12.9-7.1
	c5.4-5.5,12.9-12.9,27.1-12.9c14.1,0,21.6,7.4,27,12.9l0,0l-14.2,14.1c-4.9-4.9-7.3-7.1-12.9-7.1s-8,2.2-12.9,7.1
	c-5.5,5.5-12.9,12.9-27.1,12.9c-14.1,0-21.6-7.5-27.1-12.9c-4.9-4.9-7.3-7.1-12.9-7.1c-5.6,0-8,2.2-12.9,7.1
	c-5.5,5.5-12.9,12.9-27.1,12.9C176.9,276,169.4,268.5,163.9,263.1z"/>
<path class="st1" d="M323.9,263.1c-1.1-1.1-2-2-2.9-2.8v-22.8c8,2.4,13.1,7.5,17.1,11.5c4.9,4.9,7.3,7.1,12.9,7.1s8-2.2,12.9-7.1
	c5.5-5.5,12.9-12.9,27.1-12.9c14.1,0,21.6,7.5,27.1,12.9l0,0c4.9,4.9,7.3,7.1,12.9,7.1c5.6,0,8-2.2,12.9-7.1
	c5.4-5.5,12.9-12.9,27.1-12.9c14.1,0,21.6,7.4,27,12.9l0,0c4.9,4.9,7.3,7.1,12.9,7.1v20c-14.2,0-21.6-7.5-27.1-12.9
	c-4.9-4.9-7.3-7.1-12.9-7.1c-5.6,0-8,2.2-12.9,7.1c-5.4,5.5-12.9,12.9-27.1,12.9c-14.2,0-21.6-7.5-27.1-12.9
	c-4.9-4.9-7.3-7.1-12.9-7.1s-8,2.2-12.9,7.1c-5.5,5.5-12.9,12.9-27.1,12.9C336.9,276,329.4,268.5,323.9,263.1z"/>
</svg>
