<?xml version="1.0" encoding="utf-8"?>
<!-- Generator: Adobe Illustrator 28.2.0, SVG Export Plug-In . SVG Version: 6.00 Build 0)  -->
<svg version="1.1" id="Calque_1" xmlns="http://www.w3.org/2000/svg" xmlns:xlink="http://www.w3.org/1999/xlink" x="0px" y="0px"
	 viewBox="0 0 512 512" style="enable-background:new 0 0 512 512;" xml:space="preserve">
<style type="text/css">
	.st0{fill:#33B0DF;}
	.st1{fill:#282828;}
</style>
<path class="st0" d="M173.4,284c5.5,0,10-4.5,10-10s-4.5-10-10-10c-5.5,0-10,4.5-10,10S167.9,284,173.4,284z"/>
<path class="st0" d="M152.4,281c5.5,0,10-4.5,10-10s-4.5-10-10-10c-5.5,0-10,4.5-10,10S146.9,281,152.4,281z"/>
<path class="st0" d="M151.4,235c5.5,0,10-4.5,10-10s-4.5-10-10-10c-5.5,0-10,4.5-10,10S145.9,235,151.4,235z"/>
<path class="st0" d="M214.4,284c5.5,0,10-4.5,10-10s-4.5-10-10-10c-5.5,0-10,4.5-10,10S208.9,284,214.4,284z"/>
<path class="st0" d="M213.4,262c5.5,0,10-4.5,10-10c0-5.5-4.5-10-10-10c-5.5,0-10,4.5-10,10C203.4,257.5,207.9,262,213.4,262z"/>
<path class="st0" d="M212.4,240.5c5.5,0,10-4.5,10-10s-4.5-10-10-10c-5.5,0-10,4.5-10,10S206.9,240.5,212.4,240.5z"/>
<path class="st0" d="M211.2,219c5.5,0,10-4.5,10-10s-4.5-10-10-10c-5.5,0-10,4.5-10,10S205.7,219,211.2,219z"/>
<path class="st0" d="M173.4,260.5c5.5,0,10-4.5,10-10c0-5.5-4.5-10-10-10c-5.5,0-10,4.5-10,10C163.4,256,167.9,260.5,173.4,260.5z"
	/>
<path class="st0" d="M172.4,239.5c5.5,0,10-4.5,10-10s-4.5-10-10-10c-5.5,0-10,4.5-10,10S166.9,239.5,172.4,239.5z"/>
<path class="st0" d="M172.4,218c5.5,0,10-4.5,10-10s-4.5-10-10-10c-5.5,0-10,4.5-10,10S166.9,218,172.4,218z"/>
<path class="st0" d="M151.4,257c5.5,0,10-4.5,10-10s-4.5-10-10-10c-5.5,0-10,4.5-10,10S145.9,257,151.4,257z"/>
<path class="st0" d="M150.4,211c5.5,0,10-4.5,10-10s-4.5-10-10-10c-5.5,0-10,4.5-10,10S144.9,211,150.4,211z"/>
<path class="st0" d="M192.4,250.5c5.5,0,10-4.5,10-10s-4.5-10-10-10c-5.5,0-10,4.5-10,10S186.9,250.5,192.4,250.5z"/>
<path class="st0" d="M192.4,272c5.5,0,10-4.5,10-10s-4.5-10-10-10c-5.5,0-10,4.5-10,10S186.9,272,192.4,272z"/>
<path class="st0" d="M192.4,229c5.5,0,10-4.5,10-10s-4.5-10-10-10c-5.5,0-10,4.5-10,10S186.9,229,192.4,229z"/>
<path class="st0" d="M191.2,208c5.5,0,10-4.5,10-10s-4.5-10-10-10c-5.5,0-10,4.5-10,10S185.7,208,191.2,208z"/>
<path class="st0" d="M275.9,266c5.5,0,10-4.5,10-10c0-5.5-4.5-10-10-10c-5.5,0-10,4.5-10,10C265.9,261.5,270.4,266,275.9,266z"/>
<path class="st0" d="M269.7,244c5.5,0,10-4.5,10-10s-4.5-10-10-10c-5.5,0-10,4.5-10,10S264.2,244,269.7,244z"/>
<path class="st0" d="M290.7,237c5.5,0,10-4.5,10-10s-4.5-10-10-10c-5.5,0-10,4.5-10,10S285.2,237,290.7,237z"/>
<path class="st0" d="M300.7,219c5.5,0,10-4.5,10-10s-4.5-10-10-10c-5.5,0-10,4.5-10,10S295.2,219,300.7,219z"/>
<path class="st0" d="M313.8,202.8c5.5,0,10-4.5,10-10c0-5.5-4.5-10-10-10s-10,4.5-10,10C303.8,198.3,308.3,202.8,313.8,202.8z"/>
<path class="st0" d="M332.4,192.8c5.5,0,10-4.5,10-10c0-5.5-4.5-10-10-10c-5.5,0-10,4.5-10,10C322.4,188.3,326.9,192.8,332.4,192.8z
	"/>
<path class="st0" d="M330.4,218c5.5,0,10-4.5,10-10s-4.5-10-10-10c-5.5,0-10,4.5-10,10S324.9,218,330.4,218z"/>
<path class="st0" d="M349.4,206c5.5,0,10-4.5,10-10s-4.5-10-10-10c-5.5,0-10,4.5-10,10S343.9,206,349.4,206z"/>
<path class="st0" d="M195.4,295c5.5,0,10-4.5,10-10s-4.5-10-10-10c-5.5,0-10,4.5-10,10S189.9,295,195.4,295z"/>
<path class="st0" d="M236.4,291c5.5,0,10-4.5,10-10s-4.5-10-10-10c-5.5,0-10,4.5-10,10S230.9,291,236.4,291z"/>
<path class="st0" d="M234.4,269c5.5,0,10-4.5,10-10c0-5.5-4.5-10-10-10c-5.5,0-10,4.5-10,10C224.4,264.5,228.9,269,234.4,269z"/>
<path class="st0" d="M219.4,306c5.5,0,10-4.5,10-10s-4.5-10-10-10c-5.5,0-10,4.5-10,10S213.9,306,219.4,306z"/>
<path class="st0" d="M256.4,278c5.5,0,10-4.5,10-10s-4.5-10-10-10c-5.5,0-10,4.5-10,10S250.9,278,256.4,278z"/>
<path class="st0" d="M233.4,247c5.5,0,10-4.5,10-10s-4.5-10-10-10c-5.5,0-10,4.5-10,10S227.9,247,233.4,247z"/>
<path class="st0" d="M232.4,222.8c5.5,0,10-4.5,10-10c0-5.5-4.5-10-10-10c-5.5,0-10,4.5-10,10C222.4,218.3,226.9,222.8,232.4,222.8z
	"/>
<path class="st0" d="M252.2,257c5.5,0,10-4.5,10-10s-4.5-10-10-10c-5.5,0-10,4.5-10,10S246.7,257,252.2,257z"/>
<path class="st0" d="M256.4,300c5.5,0,10-4.5,10-10s-4.5-10-10-10c-5.5,0-10,4.5-10,10S250.9,300,256.4,300z"/>
<path class="st0" d="M250.9,234c5.5,0,10-4.5,10-10s-4.5-10-10-10c-5.5,0-10,4.5-10,10S245.4,234,250.9,234z"/>
<path class="st0" d="M251.4,211c5.5,0,10-4.5,10-10s-4.5-10-10-10c-5.5,0-10,4.5-10,10S245.9,211,251.4,211z"/>
<path class="st0" d="M224.4,202.8c5.5,0,10-4.5,10-10c0-5.5-4.5-10-10-10c-5.5,0-10,4.5-10,10C214.4,198.3,218.9,202.8,224.4,202.8z
	"/>
<path class="st0" d="M223.4,181.3c5.5,0,10-4.5,10-10c0-5.5-4.5-10-10-10c-5.5,0-10,4.5-10,10C213.4,176.8,217.9,181.3,223.4,181.3z
	"/>
<path class="st0" d="M242.4,191.8c5.5,0,10-4.5,10-10c0-5.5-4.5-10-10-10c-5.5,0-10,4.5-10,10C232.4,187.3,236.9,191.8,242.4,191.8z
	"/>
<path class="st0" d="M264.8,194.6c5.5,0,10-4.5,10-10c0-5.5-4.5-10-10-10s-10,4.5-10,10C254.8,190.1,259.3,194.6,264.8,194.6z"/>
<path class="st0" d="M296.4,189.4c5.5,0,10-4.5,10-10c0-5.5-4.5-10-10-10c-5.5,0-10,4.5-10,10C286.4,184.9,290.9,189.4,296.4,189.4z
	"/>
<path class="st0" d="M314.8,179.4c5.5,0,10-4.5,10-10c0-5.5-4.5-10-10-10s-10,4.5-10,10C304.8,174.9,309.3,179.4,314.8,179.4z"/>
<path class="st0" d="M357.4,186c5.5,0,10-4.5,10-10s-4.5-10-10-10c-5.5,0-10,4.5-10,10S351.9,186,357.4,186z"/>
<path class="st0" d="M340.4,172.8c5.5,0,10-4.5,10-10c0-5.5-4.5-10-10-10c-5.5,0-10,4.5-10,10C330.4,168.3,334.9,172.8,340.4,172.8z
	"/>
<path class="st0" d="M278.6,178.2c5.5,0,10-4.5,10-10c0-5.5-4.5-10-10-10c-5.5,0-10,4.5-10,10C268.6,173.7,273.1,178.2,278.6,178.2z
	"/>
<path class="st0" d="M297.4,168.2c5.5,0,10-4.5,10-10c0-5.5-4.5-10-10-10c-5.5,0-10,4.5-10,10C287.4,163.7,291.9,168.2,297.4,168.2z
	"/>
<path class="st0" d="M256.4,174.6c5.5,0,10-4.5,10-10c0-5.5-4.5-10-10-10c-5.5,0-10,4.5-10,10C246.4,170.1,250.9,174.6,256.4,174.6z
	"/>
<path class="st0" d="M205.4,192.8c5.5,0,10-4.5,10-10c0-5.5-4.5-10-10-10c-5.5,0-10,4.5-10,10C195.4,188.3,199.9,192.8,205.4,192.8z
	"/>
<path class="st0" d="M269.7,222c5.5,0,10-4.5,10-10s-4.5-10-10-10c-5.5,0-10,4.5-10,10S264.2,222,269.7,222z"/>
<path class="st0" d="M283.7,206c5.5,0,10-4.5,10-10s-4.5-10-10-10c-5.5,0-10,4.5-10,10S278.2,206,283.7,206z"/>
<path class="st0" d="M276.4,290c5.5,0,10-4.5,10-10s-4.5-10-10-10c-5.5,0-10,4.5-10,10S270.9,290,276.4,290z"/>
<path class="st0" d="M308.4,294c5.5,0,10-4.5,10-10s-4.5-10-10-10c-5.5,0-10,4.5-10,10S302.9,294,308.4,294z"/>
<path class="st0" d="M294.8,277c5.5,0,10-4.5,10-10s-4.5-10-10-10s-10,4.5-10,10S289.3,277,294.8,277z"/>
<path class="st0" d="M301.4,256c5.5,0,10-4.5,10-10s-4.5-10-10-10c-5.5,0-10,4.5-10,10S295.9,256,301.4,256z"/>
<path class="st0" d="M316.2,234.5c5.5,0,10-4.5,10-10s-4.5-10-10-10c-5.5,0-10,4.5-10,10S310.7,234.5,316.2,234.5z"/>
<path class="st0" d="M320.4,276c5.5,0,10-4.5,10-10s-4.5-10-10-10c-5.5,0-10,4.5-10,10S314.9,276,320.4,276z"/>
<path class="st0" d="M340.4,283c5.5,0,10-4.5,10-10s-4.5-10-10-10c-5.5,0-10,4.5-10,10S334.9,283,340.4,283z"/>
<path class="st0" d="M360.4,275c5.5,0,10-4.5,10-10s-4.5-10-10-10c-5.5,0-10,4.5-10,10S354.9,275,360.4,275z"/>
<path class="st0" d="M359.4,248c5.5,0,10-4.5,10-10s-4.5-10-10-10c-5.5,0-10,4.5-10,10S353.9,248,359.4,248z"/>
<path class="st0" d="M357.4,226c5.5,0,10-4.5,10-10s-4.5-10-10-10c-5.5,0-10,4.5-10,10S351.9,226,357.4,226z"/>
<path class="st0" d="M322.4,255c5.5,0,10-4.5,10-10s-4.5-10-10-10c-5.5,0-10,4.5-10,10S316.9,255,322.4,255z"/>
<path class="st0" d="M342.4,261c5.5,0,10-4.5,10-10c0-5.5-4.5-10-10-10c-5.5,0-10,4.5-10,10C332.4,256.5,336.9,261,342.4,261z"/>
<path class="st0" d="M338.4,239c5.5,0,10-4.5,10-10s-4.5-10-10-10c-5.5,0-10,4.5-10,10S332.9,239,338.4,239z"/>
<path class="st1" d="M380.9,86.2l-0.1-0.3l-15.1-59.6c-1.8-7.1-5.9-13.4-11.7-18c-5.8-4.5-12.9-7-20.3-7H285c-4.7,0-9.4,1-13.8,3
	c-4.3,2-8.1,4.9-11.2,8.5l-25.6,29.7c-1.2,1.4-2.7,2.6-4.4,3.4l-10.2,4.6c-5.6,2.5-10.3,6.6-13.7,11.6c-3.4,5.1-5.3,11-5.5,17.1
	L200.1,90l-63.6,29.9c-1.7,0.8-3.2,2.1-4.2,3.7c-1,1.6-1.6,3.4-1.6,5.3V500c0,2.7,1.1,5.2,2.9,7.1c1.9,1.9,4.4,2.9,7.1,2.9h230.5
	c2.7,0,5.2-1.1,7.1-2.9c1.9-1.9,2.9-4.4,2.9-7.1V88.7C381.2,87.8,381.1,87,380.9,86.2z M220.5,80.2c0.1-2.4,0.8-4.8,2.2-6.8
	c1.3-2,3.2-3.6,5.4-4.6l10.2-4.7c4.3-2,8.2-4.9,11.3-8.5L275.1,26c1.2-1.4,2.7-2.6,4.5-3.3c1.7-0.8,3.6-1.2,5.4-1.2h48.7
	c2.9,0,5.7,1,8,2.7c2.3,1.8,3.9,4.3,4.6,7.1l11.5,45.5l-71.4-9.5c-19.4-2.6-39.2,0.5-56.9,8.8l-9,4.2V80.2z M361.2,490H150.8v-54.2
	c5.3,2.9,11.2,4.3,17.2,4.2c14.6,0,22.4-7.4,28.1-12.7c4.8-4.6,7.8-7.3,14.4-7.3s9.6,2.7,14.4,7.3c5.7,5.4,13.5,12.7,28.1,12.7
	c14.6,0,22.4-7.4,28.1-12.7c4.8-4.6,7.8-7.3,14.4-7.3s9.6,2.7,14.4,7.3c5.7,5.4,13.5,12.7,28.1,12.7c8.4,0.1,16.6-2.8,23-8.2
	L361.2,490z M361.2,405.6c-3.1,2.1-5.9,4.5-8.6,7.1c-4.8,4.6-7.8,7.3-14.4,7.3c-6.7,0-9.6-2.7-14.4-7.3
	c-5.7-5.4-13.5-12.7-28.1-12.7s-22.4,7.4-28.1,12.7c-4.8,4.6-7.8,7.3-14.4,7.3c-6.7,0-9.6-2.7-14.4-7.3
	c-5.7-5.4-13.5-12.7-28.1-12.7c-14.6,0-22.4,7.4-28.1,12.7c-4.8,4.6-7.8,7.3-14.4,7.3c-6.7,0-9.6-2.7-14.4-7.3
	c-0.9-0.8-1.8-1.7-2.8-2.5v-29.6c10.2-2,20.2-4.7,30-8.2c8.6-3.1,12.2-10.7,14.6-15.7c0.8-1.6,2-4.2,2.7-4.9c0.5-0.1,0.9-0.1,1.4,0
	c11.4,1.5,21.5-1.5,29.6-3.9c2.7-0.9,5.5-1.6,8.3-2.1c1.5-0.1,6.3,1.6,9.5,2.8c8.1,3,18.2,6.7,29.5,5.2c12.3-1.6,18.7-7.6,23.4-12
	c2.3-2.2,3.8-3.5,5.4-4.2c3.4,0.6,11.8,5.8,16.8,9c10.4,6.4,19.4,12,27.4,11.2c4.1-0.5,8.1-1.7,11.8-3.7V405.6z M361.2,330
	c-2.5,2.4-8.8,7.3-13.5,8c-2.8-0.5-10.6-5.3-15.2-8.2c-12.3-7.6-22.9-14.2-32.6-11.3c-6.4,1.9-10.5,5.8-13.9,8.9
	c-3.7,3.5-6.4,6-12.3,6.7c-6.5,0.8-13.4-1.7-20.1-4.1c-6.4-2.4-12.5-4.6-18.6-3.9c-4,0.6-7.9,1.5-11.7,2.8c-6.6,2-14.1,4.2-21.4,3.2
	c-16.1-2.1-21.9,10.2-24.7,16.1c-1,2-2.4,5.1-3.3,5.4c-7.6,2.7-15.4,4.9-23.2,6.6v-61.7c8.5,1.2,24.3,4.4,36.2,8.8
	c11.7,4.3,28.4,6.7,43.4,6.7c8.6,0,16.6-0.8,22.7-2.4c14-3.7,50.9-7.6,63.7-6.7c10,0.7,22.3-4.1,34.2-8.8c3.4-1.3,7-2.7,10.3-3.9
	V330z M361.2,271.4c-6,1.7-11.8,3.8-17.6,6.2c-8.9,3.5-20,7.8-25.5,7.4c-14.8-1.1-54.2,3-70.2,7.3c-12.9,3.4-39.7,1.6-54-3.7
	c-14.3-5.3-33-9-43.1-10.2v-94.7l87.2-41.1c14.3-6.7,30.2-9.2,45.8-7.1l77.4,10.3L361.2,271.4z M361.2,125.6l-74.8-9.9
	c-19.4-2.6-39.2,0.5-56.9,8.8l-78.8,37.1v-26.3L238,94.2c14.3-6.7,30.2-9.2,45.8-7.1l77.4,10.3V125.6z"/>
</svg>
