<?xml version="1.0" encoding="utf-8"?>
<!-- Generator: Adobe Illustrator 28.2.0, SVG Export Plug-In . SVG Version: 6.00 Build 0)  -->
<svg version="1.1" id="Calque_1" xmlns="http://www.w3.org/2000/svg" xmlns:xlink="http://www.w3.org/1999/xlink" x="0px" y="0px"
	 viewBox="0 0 512 512" style="enable-background:new 0 0 512 512;" xml:space="preserve">
<style type="text/css">
	.st0{fill:#282828;}
	.st1{fill:#33B0DF;}
</style>
<path class="st0" d="M405.9,78.5c0-0.1,0-0.2,0-0.2c0-0.3-0.1-0.5-0.2-0.7c-0.1-0.2-0.1-0.5-0.2-0.7c-0.1-0.2-0.2-0.4-0.2-0.7
	s-0.3-0.6-0.4-0.9c-0.1-0.2-0.2-0.4-0.3-0.5c0,0,0,0,0-0.1c-0.1-0.1-0.1-0.2-0.2-0.2c-0.1-0.1-0.2-0.4-0.4-0.6l-0.2-0.2L353.9,9.8
	c-0.9-1.2-2.1-2.2-3.5-2.8c-1.4-0.7-2.9-1-4.4-1H166c-1.5,0-3,0.3-4.4,1c-1.4,0.7-2.6,1.6-3.5,2.8l-49.8,63.8l-0.2,0.2
	c-0.1,0.2-0.3,0.4-0.4,0.6c-0.1,0.2-0.1,0.2-0.2,0.2c0,0,0,0,0,0.1c-0.1,0.2-0.2,0.4-0.3,0.5c-0.2,0.3-0.3,0.6-0.4,0.9
	c-0.1,0.3-0.2,0.4-0.2,0.7c-0.1,0.2-0.2,0.5-0.2,0.7c-0.1,0.2-0.1,0.5-0.2,0.7c0,0.1,0,0.2,0,0.2c-0.1,0.5-0.2,1-0.2,1.5v272
	c0,0.2,0,0.4,0,0.6v0.1c0,0.2,0,0.4,0.1,0.6c0,0.4,0.1,0.8,0.2,1.2c0,0.1,0,0.2,0.1,0.3c0.1,0.1,0.1,0.3,0.1,0.4
	c0.1,0.1,0.2,0.4,0.2,0.6c0.1,0.2,0.2,0.4,0.3,0.6c0.1,0.2,0.2,0.4,0.3,0.6c0,0,0,0.1,0.1,0.1L183.1,486H152c-2.7,0-5.2,1.1-7.1,2.9
	s-2.9,4.4-2.9,7.1s1.1,5.2,2.9,7.1s4.4,2.9,7.1,2.9h208c2.7,0,5.2-1.1,7.1-2.9s2.9-4.4,2.9-7.1s-1.1-5.2-2.9-7.1s-4.4-2.9-7.1-2.9
	h-31.1l75.7-128.8c0,0,0.1-0.1,0.1-0.1c0.1-0.2,0.2-0.4,0.3-0.6c0.1-0.2,0.2-0.4,0.3-0.6c0.1-0.2,0.2-0.4,0.2-0.6
	c0-0.1,0.1-0.3,0.1-0.4c0-0.1,0.1-0.2,0.1-0.3c0.1-0.4,0.2-0.8,0.2-1.2c0-0.2,0-0.4,0.1-0.6v-0.1c0-0.2,0-0.4,0-0.6V80
	C406,79.5,406,79,405.9,78.5z M170.9,26h170.2l34.4,44h-239L170.9,26z M126,229.5l19.1-17.8l18.5,3.3l6.6,11.6
	c-0.5,0.4-0.9,0.9-1.3,1.4l-17,22.9l-9.6-10.6c-1.3-1.4-3-2.5-4.9-3s-3.9-0.4-5.7,0.2l-5.8,2L126,229.5z M307.5,303.2l13.5-15.8
	l21.2,2.5l1.4,0.2l0.9,4.6l2.1,10.5l-22.4,10c-0.8-2.1-2.4-3.8-4.3-4.9L307.5,303.2z M312.6,342h-66.4l25.9-25.9l0.1-0.1h17.2
	l17.5,9.9L312.6,342z M306.6,273.5L287.4,296h-18l-11.6-21.9l-1.8-21l21.7-22.5l25.3,3.6l3.1,5l4.4,7l5.1,8.3L306.6,273.5z
	 M241.6,239.2l-21.1-13.6c-1.6-1-3.5-1.6-5.4-1.6l13.3-21.5l32.7,2.8l0.9,13L241.6,239.2z M236.5,259.8l1.6,18.1
	c0.1,1.3,0.5,2.6,1.1,3.8l13.5,25.5l-20.2,20.2L212.7,342h-51.9l2.9-24l10.1-19.4c0.7-1.3,1.1-2.8,1.1-4.2c0.1-1.5-0.2-2.9-0.8-4.3
	l-9.6-22.6L182,244h30L236.5,259.8z M126,260.5l6-2l13.5,14.9l8.5,20.1l-8.8,16.8c-0.6,1.1-0.9,2.2-1.1,3.4l-3.4,28.2H126V260.5z
	 M306.3,485H205.7l-72.2-123h245.1L306.3,485z M386,342h-52.2l-2.8-7.9l31.1-13.9c2.1-0.9,3.8-2.5,4.8-4.6c1-2,1.3-4.3,0.9-6.6
	l-3.7-18.3l21.8-18.8V342z M386,245.6l-30.4,26.1c-0.8-0.3-1.6-0.5-2.5-0.6l-22-2.6l4.8-10.2c0.7-1.5,1.1-3.2,1-4.9
	c-0.1-1.7-0.6-3.3-1.5-4.7l-6.9-11.1l15.3-21.1l20.1-11.9l22,13.2V245.6z M386,194.6l-16.9-10.1c-1.5-0.9-3.3-1.4-5.1-1.4
	c-1.8,0-3.6,0.5-5.1,1.4l-27,16c-1.2,0.7-2.2,1.6-3,2.7l-11.7,16.1c-0.8-1.1-1.8-2.1-3-2.8c-1.2-0.7-2.5-1.2-3.8-1.4l-29-4.1
	l-1.1-15.7c-0.2-2.4-1.2-4.6-2.9-6.3c-1.7-1.7-3.9-2.7-6.3-2.9l-47.3-4c-1.8-0.2-3.7,0.2-5.3,1c-1.7,0.8-3,2.1-4,3.7l-21,34
	c-0.6,1-1.1,2.1-1.3,3.2h-0.7c-0.2-0.7-0.5-1.4-0.8-2l-12-21c-0.7-1.3-1.7-2.4-2.9-3.2c-1.2-0.8-2.6-1.4-4-1.7l-28-5
	c-1.5-0.3-3.1-0.2-4.6,0.2c-1.5,0.4-2.9,1.2-4,2.3l-9.2,8.5V90h260V194.6z"/>
<path class="st1" d="M176,54h-8c-5.5,0-10,4.5-10,10v48c0,5.5,4.5,10,10,10h8c5.5,0,10-4.5,10-10V64C186,58.5,181.5,54,176,54z"/>
<path class="st1" d="M336,54h-8c-5.5,0-10,4.5-10,10v48c0,5.5,4.5,10,10,10h8c5.5,0,10-4.5,10-10V64C346,58.5,341.5,54,336,54z"/>
<path class="st0" d="M296,466h-81c-2.2,0-4.3-0.7-6.1-2.1c-1.7-1.3-3-3.2-3.6-5.3l-15-56c-0.4-1.5-0.4-3-0.1-4.5
	c0.3-1.5,0.9-2.9,1.9-4.1c0.9-1.2,2.1-2.2,3.5-2.9c1.4-0.7,2.9-1,4.4-1h113c1.6,0,3.1,0.4,4.5,1.1c1.4,0.7,2.6,1.7,3.5,3
	c0.9,1.3,1.6,2.7,1.8,4.2c0.3,1.5,0.2,3.1-0.3,4.6l-17,56c-0.6,2.1-1.9,3.8-3.6,5.1C300.2,465.3,298.1,466,296,466z M222.7,446h65.9
	l10.9-36H213L222.7,446z"/>
<path class="st0" d="M344.5,294.6l-0.1-0.1c-1.1-1.3-1.9-2.9-2.2-4.6l1.4,0.2L344.5,294.6z"/>
<path class="st0" d="M310.5,246.3l-0.3-0.2c-1.1-0.8-2-1.8-2.7-3c-0.7-1.2-1.1-2.5-1.3-3.8L310.5,246.3z"/>
</svg>
