<?xml version="1.0" encoding="utf-8"?>
<!-- Generator: Adobe Illustrator 28.2.0, SVG Export Plug-In . SVG Version: 6.00 Build 0)  -->
<svg version="1.1" id="Calque_1" xmlns="http://www.w3.org/2000/svg" xmlns:xlink="http://www.w3.org/1999/xlink" x="0px" y="0px"
	 viewBox="0 0 512 512" style="enable-background:new 0 0 512 512;" xml:space="preserve">
<style type="text/css">
	.st0{fill:#282828;}
	.st1{fill-rule:evenodd;clip-rule:evenodd;fill:#282828;}
	.st2{fill:#33B0DF;}
</style>
<path class="st0" d="M296,466h-81c-2.2,0-4.3-0.7-6.1-2.1c-1.7-1.3-3-3.2-3.6-5.3l-15-56c-0.4-1.5-0.4-3-0.1-4.5
	c0.3-1.5,0.9-2.9,1.9-4.1c0.9-1.2,2.1-2.2,3.5-2.9c1.4-0.7,2.9-1,4.4-1h113c1.6,0,3.1,0.4,4.5,1.1c1.4,0.7,2.6,1.7,3.5,3
	c0.9,1.3,1.6,2.7,1.8,4.2c0.3,1.5,0.2,3.1-0.3,4.6l-17,56c-0.6,2.1-1.9,3.8-3.6,5.1C300.2,465.3,298.1,466,296,466z M222.7,446h65.9
	l10.9-36H213L222.7,446z"/>
<path class="st1" d="M106,80.2c0-5.5,4.5-10,10-10h280c5.5,0,10,4.5,10,10v272c0,5.5-4.5,10-10,10H116c-5.5,0-10-4.5-10-10V80.2z
	 M126,90.2v252h260v-252H126z"/>
<path class="st1" d="M142,496c0-5.5,4.5-10,10-10h208.1c5.5,0,10,4.5,10,10s-4.5,10-10,10H152C146.5,506,142,501.5,142,496z"/>
<path class="st1" d="M156,10.2c1.9-2.5,4.9-4,8-4h184c3.1,0,6.1,1.5,8,4l48,64c2.3,3,2.6,7.1,0.9,10.5c-1.7,3.4-5.2,5.5-8.9,5.5H116
	c-3.8,0-7.2-2.1-8.9-5.5c-1.7-3.4-1.3-7.4,0.9-10.5L156,10.2z M169,26.2l-33,44h240l-33-44H169z"/>
<path class="st1" d="M320.6,501.1c-1.8,3.1-5.1,5-8.6,5H200c-3.6,0-6.8-1.9-8.6-5l-84-144c-1.8-3.1-1.8-6.9,0-10
	c1.8-3.1,5.1-5,8.7-5h280c3.6,0,6.9,1.9,8.7,5c1.8,3.1,1.8,6.9,0,10L320.6,501.1z M306.3,486l72.3-124H133.4l72.3,124H306.3z"/>
<path class="st1" d="M209.5,284.9c2.4-0.9,5-0.9,7.3,0.1l36.9,14.9c3.1,1.2,5.3,3.9,6,7.2l7.5,34.9h0.2l2.9-11.3
	c0.6-2.3,2-4.4,4-5.8l17.6-12.2c3.2-2.2,7.5-2.4,10.9-0.3l20.2,12.2c2.1,1.2,3.6,3.2,4.4,5.5l6.1,18.9c1.7,5.3-1.2,10.9-6.5,12.6
	c-5.3,1.7-10.9-1.2-12.6-6.4l-4.9-15.3l-11.4-6.9l-9.2,6.4l-3.9,15.2c-1.1,4.4-5.1,7.5-9.7,7.5h-16c-4.7,0-8.8-3.3-9.8-7.9
	l-8.1-37.6L213,305l-31.3,12l-15.8,35.1c-2.3,5-8.2,7.3-13.2,5c-5-2.3-7.3-8.2-5-13.2l17.5-38.9c1.1-2.4,3.1-4.3,5.5-5.2
	L209.5,284.9z"/>
<path class="st2" d="M176,54h-8c-5.5,0-10,4.5-10,10v48c0,5.5,4.5,10,10,10h8c5.5,0,10-4.5,10-10V64C186,58.5,181.5,54,176,54z"/>
<path class="st2" d="M336,54h-8c-5.5,0-10,4.5-10,10v48c0,5.5,4.5,10,10,10h8c5.5,0,10-4.5,10-10V64C346,58.5,341.5,54,336,54z"/>
</svg>
