<?xml version="1.0" encoding="utf-8"?>
<!-- Generator: Adobe Illustrator 28.2.0, SVG Export Plug-In . SVG Version: 6.00 Build 0)  -->
<svg version="1.1" id="Calque_1" xmlns="http://www.w3.org/2000/svg" xmlns:xlink="http://www.w3.org/1999/xlink" x="0px" y="0px"
	 viewBox="0 0 512 512" style="enable-background:new 0 0 512 512;" xml:space="preserve">
<style type="text/css">
	.st0{fill-rule:evenodd;clip-rule:evenodd;fill:#282828;}
	.st1{fill:#282828;}
	.st2{fill-rule:evenodd;clip-rule:evenodd;fill:#33B0DF;}
</style>
<path class="st0" d="M247.3,133.3c4.6-6.2,3.2-15-3-19.6c-6.2-4.6-15-3.2-19.6,3l-40,54.4c-1.8,2.4-2.7,5.3-2.7,8.3v96
	c0,7.7,6.3,14,14,14s14-6.3,14-14V184L247.3,133.3z M244.1,130.9L206,182.7v0L244.1,130.9c0.7-1,1.2-2,1.5-3.1
	C245.3,128.9,244.8,130,244.1,130.9z M190.5,283.8c1.6,1,3.5,1.6,5.5,1.6c1.6,0,3.1-0.4,4.5-1.1c-1.3,0.7-2.9,1.1-4.5,1.1
	C194,285.4,192.1,284.8,190.5,283.8z M266.2,127.2c0.3,1.3,0.9,2.6,1.7,3.7l38.1,51.8v0l-38.1-51.8
	C267.1,129.8,266.5,128.5,266.2,127.2z M326,275.4L326,275.4L326,275.4z M306,275.4L306,275.4c0,0.7,0.1,1.4,0.2,2
	C306.1,276.8,306,276.1,306,275.4z M307,279.8c1.6,3.3,5,5.6,9,5.6c4.1,0,7.7-2.5,9.2-6.1c-1.5,3.6-5.1,6.1-9.2,6.1
	C312,285.4,308.6,283.1,307,279.8z M264.7,133.3c-4.6-6.2-3.2-15,3-19.6c6.2-4.6,15-3.2,19.6,3l40,54.4c1.8,2.4,2.7,5.3,2.7,8.3v96
	c0,7.7-6.3,14-14,14s-14-6.3-14-14V184L264.7,133.3z"/>
<path class="st1" d="M236,45h40v80h-40V45z"/>
<path class="st0" d="M226,45c0-5.5,4.5-10,10-10h40c5.5,0,10,4.5,10,10v80c0,5.5-4.5,10-10,10h-40c-5.5,0-10-4.5-10-10V45z M246,55
	v60h20V55H246z"/>
<path class="st2" d="M210,307.6V270h-28v37.6c0,7.5,6.9,12.4,14,12.4S210,315.1,210,307.6z"/>
<path class="st2" d="M330,307.6V270h-28v37.6c0,7.5,7,12.4,14,12.4S330,315.1,330,307.6z"/>
<path class="st0" d="M70,282.7V492h372V283.6c-6.5-4.2-12.5-6-18-6c-6.6,0-13.8,2.5-21.9,8.8c-10.6,8.2-22,12.9-34.1,12.9
	s-23.5-4.7-34.1-12.9c-8.1-6.2-15.3-8.8-21.9-8.8c-6.6,0-13.8,2.5-21.8,8.7c-10.3,8.3-21.6,13-33.7,13c-12,0-23.6-4.7-34.4-12.8
	c-8-5.7-15.3-8.1-22.1-8.1c-6.8,0-14.1,2.4-22.2,8.2c-0.2,0.1-0.4,0.2-0.5,0.4c-11.8,7.4-23.7,11.6-35.4,11.6
	c-12,0-22.8-4.4-32.3-12.4c-0.2-0.2-0.5-0.4-0.7-0.7C100.5,276.9,93.6,274,88,274C83,274,77,276.2,70,282.7z M122.8,271.1
	C112.5,260.6,100.9,254,88,254c-13,0-24.8,6.8-35.2,17.5c-1.8,1.9-2.8,4.4-2.8,7V502c0,5.5,4.5,10,10,10h392c5.5,0,10-4.5,10-10
	V278.5c0-3.1-1.4-6-3.9-7.9c-10.6-8.2-22-12.9-34.1-12.9s-23.5,4.7-34.1,12.9c-8.1,6.2-15.3,8.8-21.9,8.8s-13.8-2.5-21.9-8.8
	c-10.6-8.2-22-12.9-34.1-12.9s-23.5,4.7-34.1,12.9c0,0-0.1,0.1-0.1,0.1c-7.6,6.1-14.6,8.6-21.2,8.6c-6.6,0-14.1-2.5-22.6-8.9
	c0,0-0.1-0.1-0.1-0.1c-10.6-7.7-22-12-33.8-12c-11.8,0-23,4.2-33.6,11.8c-9.6,5.9-17.7,8.4-24.6,8.4
	C135.3,278.5,129,276.3,122.8,271.1z"/>
</svg>
