<?xml version="1.0" encoding="utf-8"?>
<!-- Generator: Adobe Illustrator 28.2.0, SVG Export Plug-In . SVG Version: 6.00 Build 0)  -->
<svg version="1.1" id="Calque_1" xmlns="http://www.w3.org/2000/svg" xmlns:xlink="http://www.w3.org/1999/xlink" x="0px" y="0px"
	 viewBox="0 0 481.9 560.4" style="enable-background:new 0 0 481.9 560.4;" xml:space="preserve">
<style type="text/css">
	.st0{fill:none;stroke:#000000;stroke-width:1.9196;stroke-miterlimit:2.5826;}
	.st1{fill-rule:evenodd;clip-rule:evenodd;stroke:#000000;stroke-width:1.9196;stroke-miterlimit:2.5826;}
	.st2{fill-rule:evenodd;clip-rule:evenodd;fill:#33B0DF;stroke:#000000;stroke-width:1.9196;stroke-miterlimit:2.5826;}
</style>
<g id="Warstwa_x0020_1">
	<path class="st0" d="M68.9,473.3h344.1c0.7,0,1.2,0.5,1.2,1.2v30.5c0,0.7-0.6,1.2-1.2,1.2H68.9c-0.7,0-1.2-0.5-1.2-1.2v-30.5
		C67.7,473.8,68.2,473.3,68.9,473.3z"/>
	<path class="st0" d="M83.8,50.7h314.3v11.6c0,1.2-1,2.1-2.1,2.1H86c-1.2,0-2.1-1-2.1-2.1C83.8,62.3,83.8,50.7,83.8,50.7z"/>
	<path class="st0" d="M82.4,43.8h317.2c8.5,0,15.3,0.7,15.3,1.7V49c0,0.9-6.9,1.7-15.3,1.7H82.4C73.9,50.7,67,49.9,67,49v-3.5
		C67,44.6,73.9,43.8,82.4,43.8z"/>
	<rect x="376.5" y="64.4" class="st0" width="14.1" height="408.9"/>
	<rect x="91.3" y="64.4" class="st0" width="14.1" height="408.9"/>
	<path class="st0" d="M4.5,1h472.9c2,0,3.6,1.3,3.6,3V22c0,1.6-1.6,3-3.6,3H4.5c-2,0-3.6-1.3-3.6-3V3.9C1,2.3,2.6,1,4.5,1z"/>
	<path class="st1" d="M228.7,288.4h3c0.4,0,0.8,1.1,0.8,2.4v29.1c0,1.3-0.4,2.4-0.8,2.4h-3c-0.4,0-0.8-1.1-0.8-2.4v-29.1
		C227.9,289.4,228.3,288.4,228.7,288.4z"/>
	<line class="st0" x1="241" y1="64.4" x2="241" y2="473.3"/>
	<path class="st1" d="M250,288.4h3c0.4,0,0.8,1.1,0.8,2.4v29.1c0,1.3-0.4,2.4-0.8,2.4h-3c-0.4,0-0.8-1.1-0.8-2.4v-29.1
		C249.1,289.4,249.5,288.4,250,288.4z"/>
	<polygon class="st0" points="261.6,64.4 261.6,218.1 376.5,218.1 376.5,239.9 261.6,239.9 261.6,473.3 220.4,473.3 220.4,239.9 
		105.4,239.9 105.4,218.1 220.4,218.1 220.4,64.4 	"/>
	<path class="st0" d="M251.5,282.2c2.9,0,5.3,4.1,5.3,9.1c0,3.6-1.2,6.7-3,8.2v21.8c0,0.5-0.4,0.9-0.8,0.9h-3
		c-0.4,0-0.8-0.4-0.8-0.9v-21.8c-1.8-1.5-3-4.6-3-8.2C246.1,286.3,248.5,282.2,251.5,282.2L251.5,282.2z"/>
	<path class="st0" d="M230.1,282.2c2.9,0,5.3,4.1,5.3,9.1c0,3.6-1.2,6.7-3,8.2v21.8c0,0.5-0.4,0.9-0.8,0.9h-3
		c-0.4,0-0.8-0.4-0.8-0.9v-21.8c-1.8-1.5-3-4.6-3-8.2C224.8,286.3,227.2,282.2,230.1,282.2L230.1,282.2z"/>
	<rect x="292.1" y="424.3" class="st0" width="54.5" height="44.2"/>
	<path class="st0" d="M285.8,416.1H353c1,0,1.8,1.3,1.8,2.9v2.4c0,1.6-0.8,2.9-1.8,2.9h-67.2c-1,0-1.8-1.3-1.8-2.9V419
		C284,417.4,284.8,416.1,285.8,416.1z"/>
	<path class="st2" d="M299,416.1h15.3c-9.2-24.7-21.3-37-36.1-49.2C286.2,383.2,299.8,403.9,299,416.1L299,416.1z"/>
	<path class="st2" d="M326.5,416.1h-12.2c-6.1-25-39-61.7-35.1-79.7C291.5,360.2,312.3,370.7,326.5,416.1z"/>
	<path class="st2" d="M340.6,316c-17.7,24-22.2,49-25.1,73.1l11,27h5.1C326.6,384.7,333.6,350.8,340.6,316L340.6,316z"/>
	<path class="st2" d="M330.2,402.8l1.4,13.3h10.1c-1.8-11.5,9.6-36.5,20.9-51.4C350.6,371.9,333.4,385.6,330.2,402.8L330.2,402.8z"
		/>
	<rect x="303.8" y="440.9" class="st2" width="15.2" height="22.1"/>
	<rect x="296.8" y="429.8" class="st2" width="15.2" height="22.1"/>
	<rect x="327.1" y="440.9" class="st2" width="15.2" height="22.1"/>
	<rect x="319.5" y="429.8" class="st2" width="15.2" height="22.1"/>
	<rect x="327.1" y="440.9" class="st2" width="7.6" height="11"/>
	<rect x="304.3" y="442.3" class="st2" width="7.6" height="9.7"/>
	<path class="st0" d="M63.6,469.4h3.2c0.5,0,0.9,1.5,0.9,3.4v33.8c0,1.9-0.4,3.4-0.9,3.4h-3.2c-0.5,0-0.9-1.5-0.9-3.4v-33.8
		C62.7,471,63.1,469.4,63.6,469.4z"/>
	<path class="st0" d="M415.2,469.4h3.2c0.5,0,0.9,1.5,0.9,3.4v33.8c0,1.9-0.4,3.4-0.9,3.4h-3.2c-0.5,0-0.9-1.5-0.9-3.4v-33.8
		C414.3,471,414.7,469.4,415.2,469.4z"/>
	<path class="st0" d="M296,468.5h46.7c5.2,0,9.4,0.8,9.4,1.8v1.2c0,1-4.2,1.8-9.4,1.8H296c-5.2,0-9.4-0.8-9.4-1.8v-1.2
		C286.6,469.3,290.9,468.5,296,468.5z"/>
	<path class="st2" d="M437.7,559.4h14.4c2.6,0,4.8-2.2,4.8-4.8V25h-24v529.7C432.9,557.3,435.1,559.4,437.7,559.4L437.7,559.4z"/>
	<path class="st2" d="M29.7,559.4h14.4c2.6,0,4.8-2.2,4.8-4.8V25h-24v529.7C24.9,557.3,27.1,559.4,29.7,559.4z"/>
</g>
</svg>
