<?xml version="1.0" encoding="utf-8"?>
<!-- Generator: Adobe Illustrator 28.2.0, SVG Export Plug-In . SVG Version: 6.00 Build 0)  -->
<svg version="1.1" id="Calque_1" xmlns="http://www.w3.org/2000/svg" xmlns:xlink="http://www.w3.org/1999/xlink" x="0px" y="0px"
	 viewBox="0 0 481.9 560.4" style="enable-background:new 0 0 481.9 560.4;" xml:space="preserve">
<style type="text/css">
	.st0{fill:none;stroke:#000000;stroke-width:1.9196;stroke-miterlimit:2.5826;}
	.st1{fill-rule:evenodd;clip-rule:evenodd;stroke:#000000;stroke-width:1.9196;stroke-miterlimit:2.5826;}
	.st2{fill-rule:evenodd;clip-rule:evenodd;fill:#33B0DF;stroke:#000000;stroke-width:1.9196;stroke-miterlimit:2.5826;}
	.st3{fill-rule:evenodd;clip-rule:evenodd;fill:#00D449;stroke:#000000;stroke-width:1.9196;stroke-miterlimit:2.5826;}
	.st4{fill-rule:evenodd;clip-rule:evenodd;fill:#218FB8;stroke:#000000;stroke-width:1.9196;stroke-miterlimit:2.5826;}
</style>
<g id="Warstwa_x0020_1">
	<path class="st0" d="M63.4,473.3h344.1c0.7,0,1.2,0.5,1.2,1.2v30.5c0,0.7-0.6,1.2-1.2,1.2H63.4c-0.7,0-1.2-0.5-1.2-1.2v-30.5
		C62.1,473.8,62.7,473.3,63.4,473.3z"/>
	<path class="st0" d="M78.3,50.7h314.3v11.6c0,1.2-1,2.1-2.1,2.1h-310c-1.2,0-2.1-1-2.1-2.1C78.3,62.3,78.3,50.7,78.3,50.7z"/>
	<path class="st0" d="M76.8,43.8H394c8.5,0,15.3,0.7,15.3,1.7V49c0,0.9-6.9,1.7-15.3,1.7H76.8c-8.5,0-15.3-0.7-15.3-1.7v-3.5
		C61.5,44.6,68.4,43.8,76.8,43.8z"/>
	<rect x="371" y="64.4" class="st0" width="14.1" height="408.9"/>
	<rect x="85.7" y="64.4" class="st0" width="14.1" height="408.9"/>
	<path class="st0" d="M-1,1h472.9c2,0,3.6,1.3,3.6,3V22c0,1.6-1.6,3-3.6,3H-1c-2,0-3.6-1.3-3.6-3V3.9C-4.6,2.3-3,1-1,1z"/>
	<path class="st1" d="M223.2,288.4h3c0.4,0,0.8,1.1,0.8,2.4v29.1c0,1.3-0.4,2.4-0.8,2.4h-3c-0.4,0-0.8-1.1-0.8-2.4v-29.1
		C222.4,289.4,222.7,288.4,223.2,288.4z"/>
	<line class="st0" x1="235.4" y1="64.4" x2="235.4" y2="473.3"/>
	<path class="st1" d="M244.4,288.4h3c0.4,0,0.8,1.1,0.8,2.4v29.1c0,1.3-0.4,2.4-0.8,2.4h-3c-0.4,0-0.8-1.1-0.8-2.4v-29.1
		C243.6,289.4,244,288.4,244.4,288.4z"/>
	<polygon class="st0" points="256,64.4 256,218.1 371,218.1 371,239.9 256,239.9 256,473.3 214.8,473.3 214.8,239.9 99.9,239.9 
		99.9,218.1 214.8,218.1 214.8,64.4 	"/>
	<path class="st0" d="M245.9,282.2c2.9,0,5.3,4.1,5.3,9.1c0,3.6-1.2,6.7-3,8.2v21.8c0,0.5-0.4,0.9-0.8,0.9h-3
		c-0.4,0-0.8-0.4-0.8-0.9v-21.8c-1.8-1.5-3-4.6-3-8.2C240.6,286.3,243,282.2,245.9,282.2L245.9,282.2z"/>
	<path class="st0" d="M224.5,282.2c2.9,0,5.3,4.1,5.3,9.1c0,3.6-1.2,6.7-3,8.2v21.8c0,0.5-0.4,0.9-0.8,0.9h-3
		c-0.4,0-0.8-0.4-0.8-0.9v-21.8c-1.8-1.5-3-4.6-3-8.2C219.2,286.3,221.6,282.2,224.5,282.2L224.5,282.2z"/>
	<rect x="286.6" y="424.3" class="st0" width="54.5" height="44.2"/>
	<path class="st0" d="M280.3,416.1h67.2c1,0,1.8,1.3,1.8,2.9v2.4c0,1.6-0.8,2.9-1.8,2.9h-67.2c-1,0-1.8-1.3-1.8-2.9V419
		C278.4,417.4,279.2,416.1,280.3,416.1z"/>
	<path class="st2" d="M293.5,416.1h15.3c-9.2-24.7-21.3-37-36.1-49.2C280.7,383.2,294.3,403.9,293.5,416.1L293.5,416.1z"/>
	<path class="st2" d="M321,416.1h-12.2c-6.1-25-39-61.7-35.1-79.7C285.9,360.2,306.7,370.7,321,416.1z"/>
	<path class="st3" d="M335.1,316c-17.7,24-22.2,49-25.1,73.1l11,27h5.1C321,384.7,328,350.8,335.1,316L335.1,316z"/>
	<path class="st3" d="M324.6,402.8l1.4,13.3h10.1c-1.8-11.5,9.6-36.5,20.9-51.4C345,371.9,327.8,385.6,324.6,402.8L324.6,402.8z"/>
	<rect x="298.3" y="440.9" class="st3" width="15.2" height="22.1"/>
	<rect x="291.2" y="429.8" class="st3" width="15.2" height="22.1"/>
	<rect x="321.6" y="440.9" class="st3" width="15.2" height="22.1"/>
	<rect x="314" y="429.8" class="st3" width="15.2" height="22.1"/>
	<rect x="321.6" y="440.9" class="st3" width="7.6" height="11"/>
	<rect x="298.8" y="440.9" class="st3" width="7.6" height="11"/>
	<path class="st0" d="M58.1,469.4h3.2c0.5,0,0.9,1.5,0.9,3.4v33.8c0,1.9-0.4,3.4-0.9,3.4h-3.2c-0.5,0-0.9-1.5-0.9-3.4v-33.8
		C57.2,471,57.6,469.4,58.1,469.4z"/>
	<path class="st0" d="M409.7,469.4h3.2c0.5,0,0.9,1.5,0.9,3.4v33.8c0,1.9-0.4,3.4-0.9,3.4h-3.2c-0.5,0-0.9-1.5-0.9-3.4v-33.8
		C408.8,471,409.2,469.4,409.7,469.4z"/>
	<path class="st0" d="M290.5,468.5h46.7c5.2,0,9.4,0.8,9.4,1.8v1.2c0,1-4.2,1.8-9.4,1.8h-46.7c-5.2,0-9.4-0.8-9.4-1.8v-1.2
		C281.1,469.3,285.3,468.5,290.5,468.5z"/>
	<path class="st2" d="M432.2,559.4h14.4c2.6,0,4.8-2.2,4.8-4.8V25h-24v529.7C427.4,557.3,429.5,559.4,432.2,559.4L432.2,559.4z"/>
	<path class="st2" d="M24.2,559.4h14.4c2.6,0,4.8-2.2,4.8-4.8V25h-24v529.7C19.4,557.3,21.5,559.4,24.2,559.4z"/>
	<path class="st4" d="M408.2,549.1h14.4c2.6,0,4.8-2.2,4.8-4.8V25h-24v519.4C403.4,547,405.5,549.1,408.2,549.1L408.2,549.1z"/>
	<path class="st2" d="M384.2,559.4h14.4c2.6,0,4.8-2.2,4.8-4.8V25h-24v529.7C379.4,557.3,381.5,559.4,384.2,559.4L384.2,559.4z"/>
	<path class="st4" d="M360.2,549.1h14.4c2.6,0,4.8-2.2,4.8-4.8V25h-24v519.4C355.4,547,357.5,549.1,360.2,549.1L360.2,549.1z"/>
	<path class="st2" d="M336.2,559.4h14.4c2.6,0,4.8-2.2,4.8-4.8V25h-24v529.7C331.4,557.3,333.5,559.4,336.2,559.4L336.2,559.4z"/>
	<path class="st4" d="M312.2,549.1h14.4c2.6,0,4.8-2.2,4.8-4.8V25h-24v519.4C307.4,547,309.5,549.1,312.2,549.1L312.2,549.1z"/>
	<path class="st2" d="M288.2,559.4h14.4c2.6,0,4.8-2.2,4.8-4.8V25h-24v529.7C283.4,557.3,285.5,559.4,288.2,559.4L288.2,559.4z"/>
	<path class="st2" d="M168.2,559.4h14.4c2.6,0,4.8-2.2,4.8-4.8V25h-24v529.7C163.4,557.3,165.5,559.4,168.2,559.4L168.2,559.4z"/>
	<path class="st4" d="M144.2,549.1h14.4c2.6,0,4.8-2.2,4.8-4.8V25h-24v519.4C139.4,547,141.5,549.1,144.2,549.1L144.2,549.1z"/>
	<path class="st2" d="M120.2,559.4h14.4c2.6,0,4.8-2.2,4.8-4.8V25h-24v529.7C115.4,557.3,117.5,559.4,120.2,559.4L120.2,559.4z"/>
	<path class="st4" d="M96.2,549.1h14.4c2.6,0,4.8-2.2,4.8-4.8V25h-24v519.4C91.4,547,93.5,549.1,96.2,549.1z"/>
	<path class="st2" d="M72.2,559.4h14.4c2.6,0,4.8-2.2,4.8-4.8V25h-24v529.7C67.4,557.3,69.5,559.4,72.2,559.4z"/>
	<path class="st4" d="M48.2,549.1h14.4c2.6,0,4.8-2.2,4.8-4.8V25h-24v519.4C43.4,547,45.5,549.1,48.2,549.1z"/>
</g>
</svg>
