<?xml version="1.0" encoding="utf-8"?>
<!-- Generator: Adobe Illustrator 28.2.0, SVG Export Plug-In . SVG Version: 6.00 Build 0)  -->
<svg version="1.1" id="Calque_1" xmlns="http://www.w3.org/2000/svg" xmlns:xlink="http://www.w3.org/1999/xlink" x="0px" y="0px"
	 viewBox="0 0 481.9 560.4" style="enable-background:new 0 0 481.9 560.4;" xml:space="preserve">
<style type="text/css">
	.st0{fill:none;stroke:#000000;stroke-width:1.9196;stroke-miterlimit:2.5826;}
	.st1{fill-rule:evenodd;clip-rule:evenodd;stroke:#000000;stroke-width:1.9196;stroke-miterlimit:2.5826;}
	.st2{fill-rule:evenodd;clip-rule:evenodd;fill:#33B0DF;stroke:#000000;stroke-width:1.9196;stroke-miterlimit:2.5826;}
	.st3{fill-rule:evenodd;clip-rule:evenodd;fill:#218FB8;stroke:#000000;stroke-width:1.9196;stroke-miterlimit:2.5826;}
</style>
<g id="Warstwa_x0020_1">
	<path class="st0" d="M68.5,472.1h344.1c0.7,0,1.2,0.5,1.2,1.2v30.5c0,0.7-0.6,1.2-1.2,1.2H68.5c-0.7,0-1.2-0.5-1.2-1.2v-30.5
		C67.3,472.6,67.9,472.1,68.5,472.1z"/>
	<path class="st0" d="M83.4,49.5h314.3v11.6c0,1.2-1,2.1-2.1,2.1h-310c-1.2,0-2.1-1-2.1-2.1C83.4,61.1,83.4,49.5,83.4,49.5z"/>
	<path class="st0" d="M82,42.7h317.2c8.5,0,15.3,0.7,15.3,1.7v3.5c0,0.9-6.9,1.7-15.3,1.7H82c-8.5,0-15.3-0.7-15.3-1.7v-3.5
		C66.7,43.4,73.5,42.7,82,42.7z"/>
	<rect x="376.1" y="63.2" class="st0" width="14.1" height="408.9"/>
	<rect x="90.9" y="63.2" class="st0" width="14.1" height="408.9"/>
	<path class="st0" d="M4.2-0.2H477c2,0,3.6,1.3,3.6,3v18.1c0,1.6-1.6,3-3.6,3H4.2c-2,0-3.6-1.3-3.6-3V2.8C0.6,1.1,2.2-0.2,4.2-0.2z"
		/>
	<path class="st1" d="M228.4,287.2h3c0.4,0,0.8,1.1,0.8,2.4v29.1c0,1.3-0.4,2.4-0.8,2.4h-3c-0.4,0-0.8-1.1-0.8-2.4v-29.1
		C227.6,288.3,227.9,287.2,228.4,287.2z"/>
	<line class="st0" x1="240.6" y1="63.2" x2="240.6" y2="472.1"/>
	<path class="st1" d="M249.6,287.2h3c0.4,0,0.8,1.1,0.8,2.4v29.1c0,1.3-0.4,2.4-0.8,2.4h-3c-0.4,0-0.8-1.1-0.8-2.4v-29.1
		C248.8,288.3,249.1,287.2,249.6,287.2z"/>
	<polygon class="st0" points="261.2,63.2 261.2,216.9 376.1,216.9 376.1,238.7 261.2,238.7 261.2,472.1 220,472.1 220,238.7 
		105.1,238.7 105.1,216.9 220,216.9 220,63.2 	"/>
	<path class="st0" d="M251.1,281.1c2.9,0,5.3,4.1,5.3,9.1c0,3.6-1.2,6.7-3,8.2v21.8c0,0.5-0.4,0.9-0.8,0.9h-3
		c-0.4,0-0.8-0.4-0.8-0.9v-21.8c-1.8-1.5-3-4.6-3-8.2C245.8,285.2,248.2,281.1,251.1,281.1L251.1,281.1z"/>
	<path class="st0" d="M229.7,281.1c2.9,0,5.3,4.1,5.3,9.1c0,3.6-1.2,6.7-3,8.2v21.8c0,0.5-0.4,0.9-0.8,0.9h-3
		c-0.4,0-0.8-0.4-0.8-0.9v-21.8c-1.8-1.5-3-4.6-3-8.2C224.4,285.2,226.8,281.1,229.7,281.1L229.7,281.1z"/>
	<rect x="291.8" y="423.2" class="st0" width="54.5" height="44.2"/>
	<path class="st0" d="M285.4,414.9h67.2c1,0,1.8,1.3,1.8,2.9v2.4c0,1.6-0.8,2.9-1.8,2.9h-67.2c-1,0-1.8-1.3-1.8-2.9v-2.4
		C283.6,416.2,284.4,414.9,285.4,414.9z"/>
	<path class="st2" d="M298.6,414.9H314c-9.2-24.7-21.3-37-36.1-49.2C285.9,382,299.5,402.7,298.6,414.9L298.6,414.9z"/>
	<path class="st2" d="M326.1,414.9H314c-6.1-25-39-61.7-35.1-79.7C291.1,359,311.9,369.6,326.1,414.9z"/>
	<path class="st2" d="M340.2,314.9c-17.7,24-22.2,49-25.1,73.1l11,27h5.1C326.2,383.5,333.2,349.7,340.2,314.9L340.2,314.9z"/>
	<path class="st2" d="M329.8,401.7l1.4,13.3h10.1c-1.8-11.5,9.6-36.5,20.9-51.4C350.2,370.8,333,384.5,329.8,401.7L329.8,401.7z"/>
	<rect x="303.4" y="439.7" class="st2" width="15.2" height="22.1"/>
	<rect x="296.4" y="428.7" class="st2" width="15.2" height="22.1"/>
	<rect x="326.8" y="439.7" class="st2" width="15.2" height="22.1"/>
	<rect x="319.2" y="428.7" class="st2" width="15.2" height="22.1"/>
	<rect x="326.8" y="439.7" class="st2" width="7.6" height="11"/>
	<rect x="303.9" y="439.7" class="st2" width="7.6" height="11"/>
	<path class="st0" d="M63.2,468.3h3.2c0.5,0,0.9,1.5,0.9,3.4v33.8c0,1.9-0.4,3.4-0.9,3.4h-3.2c-0.5,0-0.9-1.5-0.9-3.4v-33.8
		C62.3,469.8,62.7,468.3,63.2,468.3z"/>
	<path class="st0" d="M414.8,468.3h3.2c0.5,0,0.9,1.5,0.9,3.4v33.8c0,1.9-0.4,3.4-0.9,3.4h-3.2c-0.5,0-0.9-1.5-0.9-3.4v-33.8
		C413.9,469.8,414.3,468.3,414.8,468.3z"/>
	<path class="st0" d="M295.7,467.3h46.7c5.2,0,9.4,0.8,9.4,1.8v1.2c0,1-4.2,1.8-9.4,1.8h-46.7c-5.2,0-9.4-0.8-9.4-1.8v-1.2
		C286.3,468.1,290.5,467.3,295.7,467.3z"/>
	<path class="st2" d="M437.3,558.3h14.4c2.6,0,4.8-2.2,4.8-4.8V23.8h-24v529.7C432.5,556.1,434.7,558.3,437.3,558.3L437.3,558.3z"/>
	<path class="st2" d="M29.3,558.3h14.4c2.6,0,4.8-2.2,4.8-4.8V23.8h-24v529.7C24.5,556.1,26.7,558.3,29.3,558.3z"/>
	<path class="st3" d="M413.3,548h14.4c2.6,0,4.8-2.2,4.8-4.8V23.8h-24v519.4C408.5,545.8,410.7,548,413.3,548L413.3,548z"/>
	<path class="st2" d="M389.3,558.3h14.4c2.6,0,4.8-2.2,4.8-4.8V23.8h-24v529.7C384.5,556.1,386.7,558.3,389.3,558.3L389.3,558.3z"/>
	<path class="st2" d="M77.3,558.3h14.4c2.6,0,4.8-2.2,4.8-4.8V23.8h-24v529.7C72.5,556.1,74.7,558.3,77.3,558.3z"/>
	<path class="st3" d="M53.3,548h14.4c2.6,0,4.8-2.2,4.8-4.8V23.8h-24v519.4C48.5,545.8,50.7,548,53.3,548z"/>
</g>
</svg>
