<?xml version="1.0" encoding="utf-8"?>
<!-- Generator: Adobe Illustrator 28.2.0, SVG Export Plug-In . SVG Version: 6.00 Build 0)  -->
<svg version="1.1" id="Calque_1" xmlns="http://www.w3.org/2000/svg" xmlns:xlink="http://www.w3.org/1999/xlink" x="0px" y="0px"
	 viewBox="0 0 481.9 560.4" style="enable-background:new 0 0 481.9 560.4;" xml:space="preserve">
<style type="text/css">
	.st0{fill:#33B0DF;stroke:#000000;stroke-width:1.9196;stroke-miterlimit:2.5826;}
	.st1{fill-rule:evenodd;clip-rule:evenodd;fill:#33B0DF;stroke:#000000;stroke-width:1.9196;stroke-miterlimit:2.5826;}
	.st2{fill-rule:evenodd;clip-rule:evenodd;fill:#218FB8;stroke:#000000;stroke-width:1.9196;stroke-miterlimit:2.5826;}
</style>
<g id="Warstwa_x0020_1">
	<path class="st0" d="M68.9,475.3h344.1c0.7,0,1.2,0.5,1.2,1.2V507c0,0.7-0.6,1.2-1.2,1.2H68.9c-0.7,0-1.2-0.5-1.2-1.2v-30.5
		C67.7,475.8,68.2,475.3,68.9,475.3z"/>
	<path class="st0" d="M83.8,52.7h314.3v11.6c0,1.2-1,2.1-2.1,2.1H86c-1.2,0-2.1-1-2.1-2.1C83.8,64.3,83.8,52.7,83.8,52.7z"/>
	<path class="st0" d="M82.4,45.9h317.2c8.5,0,15.3,0.7,15.3,1.7v3.5c0,0.9-6.9,1.7-15.3,1.7H82.4C73.9,52.7,67,52,67,51.1v-3.5
		C67,46.6,73.9,45.9,82.4,45.9z"/>
	<rect x="376.5" y="66.4" class="st0" width="14.1" height="408.9"/>
	<rect x="91.3" y="66.4" class="st0" width="14.1" height="408.9"/>
	<path class="st0" d="M4.5,3h472.9c2,0,3.6,1.3,3.6,3V24c0,1.6-1.6,3-3.6,3H4.5c-2,0-3.6-1.3-3.6-3V6C1,4.3,2.6,3,4.5,3z"/>
	<path class="st1" d="M228.7,290.4h3c0.4,0,0.8,1.1,0.8,2.4v29.1c0,1.3-0.4,2.4-0.8,2.4h-3c-0.4,0-0.8-1.1-0.8-2.4v-29.1
		C227.9,291.5,228.3,290.4,228.7,290.4z"/>
	<line class="st0" x1="241" y1="66.4" x2="241" y2="475.3"/>
	<path class="st1" d="M250,290.4h3c0.4,0,0.8,1.1,0.8,2.4v29.1c0,1.3-0.4,2.4-0.8,2.4h-3c-0.4,0-0.8-1.1-0.8-2.4v-29.1
		C249.1,291.5,249.5,290.4,250,290.4z"/>
	<polygon class="st0" points="261.6,66.4 261.6,220.1 376.5,220.1 376.5,241.9 261.6,241.9 261.6,475.3 220.4,475.3 220.4,241.9 
		105.4,241.9 105.4,220.1 220.4,220.1 220.4,66.4 	"/>
	<path class="st0" d="M251.5,284.3c2.9,0,5.3,4.1,5.3,9.1c0,3.6-1.2,6.7-3,8.2v21.8c0,0.5-0.4,0.9-0.8,0.9h-3
		c-0.4,0-0.8-0.4-0.8-0.9v-21.8c-1.8-1.5-3-4.6-3-8.2C246.1,288.4,248.5,284.3,251.5,284.3L251.5,284.3z"/>
	<path class="st0" d="M230.1,284.3c2.9,0,5.3,4.1,5.3,9.1c0,3.6-1.2,6.7-3,8.2v21.8c0,0.5-0.4,0.9-0.8,0.9h-3
		c-0.4,0-0.8-0.4-0.8-0.9v-21.8c-1.8-1.5-3-4.6-3-8.2C224.8,288.4,227.2,284.3,230.1,284.3L230.1,284.3z"/>
	<rect x="292.1" y="426.4" class="st0" width="54.5" height="44.2"/>
	<path class="st0" d="M285.8,418.1H353c1,0,1.8,1.3,1.8,2.9v2.4c0,1.6-0.8,2.9-1.8,2.9h-67.2c-1,0-1.8-1.3-1.8-2.9V421
		C284,419.4,284.8,418.1,285.8,418.1z"/>
	<path class="st1" d="M299,418.1h15.3c-9.2-24.7-21.3-37-36.1-49.2C286.2,385.2,299.8,405.9,299,418.1L299,418.1z"/>
	<path class="st1" d="M326.5,418.1h-12.2c-6.1-25-39-61.7-35.1-79.7C291.5,362.2,312.3,372.8,326.5,418.1z"/>
	<path class="st1" d="M340.6,318.1c-17.7,24-22.2,49-25.1,73.1l11,27h5.1C326.6,386.7,333.6,352.9,340.6,318.1L340.6,318.1z"/>
	<path class="st1" d="M330.2,404.9l1.4,13.3h10.1c-1.8-11.5,9.6-36.5,20.9-51.4C350.6,374,333.4,387.7,330.2,404.9L330.2,404.9z"/>
	<rect x="303.8" y="442.9" class="st1" width="15.2" height="22.1"/>
	<rect x="296.8" y="431.9" class="st1" width="15.2" height="22.1"/>
	<rect x="327.1" y="442.9" class="st1" width="15.2" height="22.1"/>
	<rect x="319.5" y="431.9" class="st1" width="15.2" height="22.1"/>
	<rect x="327.1" y="442.9" class="st1" width="7.6" height="11"/>
	<rect x="304.3" y="442.9" class="st1" width="7.6" height="11"/>
	<path class="st0" d="M63.6,471.5h3.2c0.5,0,0.9,1.5,0.9,3.4v33.8c0,1.9-0.4,3.4-0.9,3.4h-3.2c-0.5,0-0.9-1.5-0.9-3.4v-33.8
		C62.7,473,63.1,471.5,63.6,471.5z"/>
	<path class="st0" d="M415.2,471.5h3.2c0.5,0,0.9,1.5,0.9,3.4v33.8c0,1.9-0.4,3.4-0.9,3.4h-3.2c-0.5,0-0.9-1.5-0.9-3.4v-33.8
		C414.3,473,414.7,471.5,415.2,471.5z"/>
	<path class="st0" d="M296,470.5h46.7c5.2,0,9.4,0.8,9.4,1.8v1.2c0,1-4.2,1.8-9.4,1.8H296c-5.2,0-9.4-0.8-9.4-1.8v-1.2
		C286.6,471.3,290.9,470.5,296,470.5z"/>
	<path class="st1" d="M437.7,561.5h14.4c2.6,0,4.8-2.2,4.8-4.8V27h-24v529.7C432.9,559.3,435.1,561.5,437.7,561.5L437.7,561.5z"/>
	<path class="st1" d="M29.7,561.5h14.4c2.6,0,4.8-2.2,4.8-4.8V27h-24v529.7C24.9,559.3,27.1,561.5,29.7,561.5z"/>
	<path class="st2" d="M413.7,551.2h14.4c2.6,0,4.8-2.2,4.8-4.8V27h-24v519.4C408.9,549,411.1,551.2,413.7,551.2L413.7,551.2z"/>
	<path class="st1" d="M389.7,561.5h14.4c2.6,0,4.8-2.2,4.8-4.8V27h-24v529.7C384.9,559.3,387.1,561.5,389.7,561.5L389.7,561.5z"/>
	<path class="st2" d="M365.7,551.2h14.4c2.6,0,4.8-2.2,4.8-4.8V27h-24v519.4C360.9,549,363.1,551.2,365.7,551.2L365.7,551.2z"/>
	<path class="st1" d="M341.7,561.5h14.4c2.6,0,4.8-2.2,4.8-4.8V27h-24v529.7C336.9,559.3,339.1,561.5,341.7,561.5L341.7,561.5z"/>
	<path class="st2" d="M317.7,551.2h14.4c2.6,0,4.8-2.2,4.8-4.8V27h-24v519.4C312.9,549,315.1,551.2,317.7,551.2L317.7,551.2z"/>
	<path class="st1" d="M293.7,561.5h14.4c2.6,0,4.8-2.2,4.8-4.8V27h-24v529.7C288.9,559.3,291.1,561.5,293.7,561.5L293.7,561.5z"/>
	<path class="st2" d="M269.7,551.2h14.4c2.6,0,4.8-2.2,4.8-4.8V27h-24v519.4C264.9,549,267.1,551.2,269.7,551.2L269.7,551.2z"/>
	<path class="st1" d="M245.7,561.5h14.4c2.6,0,4.8-2.2,4.8-4.8V27h-24v529.7C240.9,559.3,243.1,561.5,245.7,561.5L245.7,561.5z"/>
	<path class="st1" d="M221.7,561.5h14.4c2.6,0,4.8-2.2,4.8-4.8V27h-24v529.7C216.9,559.3,219.1,561.5,221.7,561.5L221.7,561.5z"/>
	<path class="st2" d="M197.7,551.2h14.4c2.6,0,4.8-2.2,4.8-4.8V27h-24v519.4C192.9,549,195.1,551.2,197.7,551.2L197.7,551.2z"/>
	<path class="st1" d="M173.7,561.5h14.4c2.6,0,4.8-2.2,4.8-4.8V27h-24v529.7C168.9,559.3,171.1,561.5,173.7,561.5L173.7,561.5z"/>
	<path class="st2" d="M149.7,551.2h14.4c2.6,0,4.8-2.2,4.8-4.8V27h-24v519.4C144.9,549,147.1,551.2,149.7,551.2L149.7,551.2z"/>
	<path class="st1" d="M125.7,561.5h14.4c2.6,0,4.8-2.2,4.8-4.8V27h-24v529.7C120.9,559.3,123.1,561.5,125.7,561.5L125.7,561.5z"/>
	<path class="st2" d="M101.7,551.2h14.4c2.6,0,4.8-2.2,4.8-4.8V27h-24v519.4C96.9,549,99.1,551.2,101.7,551.2z"/>
	<path class="st1" d="M77.7,561.5h14.4c2.6,0,4.8-2.2,4.8-4.8V27h-24v529.7C72.9,559.3,75.1,561.5,77.7,561.5z"/>
	<path class="st2" d="M53.7,551.2h14.4c2.6,0,4.8-2.2,4.8-4.8V27h-24v519.4C48.9,549,51.1,551.2,53.7,551.2z"/>
</g>
</svg>
