<?xml version="1.0" encoding="UTF-8"?>
<svg xmlns="http://www.w3.org/2000/svg" version="1.1" viewBox="0 0 553.5 441.4">
  <defs>
    <style>
      .cls-1 {
        stroke-width: 2.3px;
      }

      .cls-1, .cls-2, .cls-3 {
        fill: none;
        stroke: #fff;
      }

      .cls-4 {
        fill: #218fb8;
      }

      .cls-2 {
        stroke-miterlimit: 4;
        stroke-width: 1.5px;
      }

      .cls-3 {
        stroke-linecap: round;
        stroke-width: 1.5px;
      }
    </style>
  </defs>
  <!-- Generator: Adobe Illustrator 28.7.1, SVG Export Plug-In . SVG Version: 1.2.0 Build 142)  -->
  <g>
    <g id="Layer_1">
      <path class="cls-4" d="M553.4,75.4c0-.2,0-.3,0-.5-1.2-9.7-8.4-18.1-18.4-20.3L282.4.5C280,0,277.6-.1,275.3,0c-1.4,0-2.9.2-4.4.5L18.6,54.7c-9.4,2-16.3,9.5-18.1,18.4,0,0,0,.3,0,.4,0,.4,0,.8-.2,1.2,0,.3-.1.5-.1.8-.1.9-.1,1.9-.1,2.9v343.2c0,10.9,8.9,19.8,19.8,19.8h513.8c10.9,0,19.8-8.9,19.8-19.8V78.5c0-1.1,0-2.1,0-3.1h0Z"/>
      <path class="cls-1" d="M283.2,80.6l-20.9-7.4c-2.3-.8-3.6-3.4-2.8-5.8l15.5-44c.8-2.3,3.4-3.6,5.8-2.8l20.9,7.4c2.3.8,3.6,3.4,2.8,5.8l-15.5,44c-.8,2.4-3.4,3.7-5.8,2.8Z"/>
      <path class="cls-2" d="M273.8,27.1l29.4,10.4-12.3,35.1-29.4-10.4,12.3-35.1Z"/>
      <path class="cls-3" d="M292.3,29.7l-4.8-1.8M274,74.1h0c-1.1-.4-1.8-1.7-1.3-2.8h0c.4-1.1,1.7-1.8,2.8-1.3h0c1.1.4,1.8,1.7,1.3,2.8h0c-.4,1.1-1.7,1.7-2.8,1.3Z"/>
    </g>
  </g>
</svg>