<?xml version="1.0" encoding="UTF-8"?>
<svg xmlns="http://www.w3.org/2000/svg" version="1.1" viewBox="0 0 553.5 441.4">
  <defs>
    <style>
      .cls-1, .cls-2, .cls-3 {
        stroke-width: 1.9px;
      }

      .cls-1, .cls-2, .cls-3, .cls-4 {
        fill: none;
        stroke: #000;
      }

      .cls-5 {
        fill: #f79a5b;
      }

      .cls-2 {
        stroke-linejoin: round;
      }

      .cls-2, .cls-3 {
        stroke-linecap: round;
      }

      .cls-4 {
        stroke-width: 2.8px;
      }
    </style>
  </defs>
  <!-- Generator: Adobe Illustrator 28.7.1, SVG Export Plug-In . SVG Version: 1.2.0 Build 142)  -->
  <g>
    <g id="Layer_1">
      <path class="cls-5" d="M553.4,75.4c0-.2,0-.3,0-.5-1.2-9.7-8.4-18.1-18.4-20.3L282.4.5C280,0,277.6-.1,275.3,0c-1.4,0-2.9.2-4.4.5L18.6,54.7c-9.4,2-16.3,9.5-18.1,18.4,0,0,0,.3,0,.4,0,.4,0,.8-.2,1.2,0,.3-.1.5-.1.8-.1.9-.1,1.9-.1,2.9v343.2c0,10.9,8.9,19.8,19.8,19.8h513.8c10.9,0,19.8-8.9,19.8-19.8V78.5c0-1.1,0-2.1,0-3.1h0Z"/>
      <path class="cls-4" d="M284.6,74.6l-27.4-11.2c-2.2-.9-3.2-3.4-2.3-5.6l11.2-27.4c.9-2.2,3.4-3.2,5.6-2.3l27.3,11.2c2.2.9,3.2,3.4,2.3,5.6l-11.2,27.4c-.8,2.1-3.3,3.2-5.5,2.3h0Z"/>
      <path class="cls-2" d="M253.7,41.4l6.8,2.8M256,35.6l6.8,2.8M258.2,30.2l6.9,2.8M249.1,52.7l6.8,2.7M251.4,46.9l6.8,2.8M295.7,58.6l6.8,2.8M298.1,52.8l6.8,2.8M300.3,47.3l6.8,2.8M291.1,69.8l6.9,2.8M293.5,64.1l6.8,2.7M288.1,26.9l-2.8,6.9M293.8,29.3l-2.7,6.8M299.3,31.5l-2.8,6.9M276.8,22.4l-2.7,6.8M282.6,24.7l-2.8,6.8M270.9,69l-2.8,6.8M276.7,71.4l-2.8,6.8M282.1,73.6l-2.7,6.8M259.7,64.4l-2.8,6.8M265.4,66.8l-2.8,6.8"/>
      <circle class="cls-1" cx="275" cy="43.4" r="2.6"/>
      <path class="cls-1" d="M279.8,31.5l-2.6,6.4"/>
      <path class="cls-3" d="M262.8,38.4l6.4,2.6M269.2,41l2.2-5.4M271.4,35.6l5.8,2.3"/>
      <path class="cls-2" d="M272.7,45.3l-4.5,1.9M260.2,44.1l7.8,3.2"/>
      <circle class="cls-1" cx="281.6" cy="59.2" r="2.6"/>
      <path class="cls-2" d="M266.2,64.8l4.2-10.2M270.4,54.6l8.8,3.6"/>
      <path class="cls-1" d="M276.7,71.4l16.7-7.1"/>
      <path class="cls-3" d="M258.2,49.7l7.6,3M265.8,52.7l7.9-3.3M273.7,49.4l5.2,2.1M278.9,51.5l6.4-2.7"/>
      <circle class="cls-1" cx="287.6" cy="47.4" r="2.6"/>
    </g>
  </g>
</svg>